<?xml version="1.0" encoding="iso-8859-1"?>
<!-- Generator: Adobe Illustrator 25.4.0, SVG Export Plug-In . SVG Version: 6.00 Build 0)  -->
<svg version="1.1" id="&#x421;&#x43B;&#x43E;&#x439;_1"
	 xmlns="http://www.w3.org/2000/svg" xmlns:xlink="http://www.w3.org/1999/xlink" x="0px" y="0px" viewBox="0 0 390.968 109.032"
	 style="enable-background:new 0 0 390.968 109.032;" xml:space="preserve">
<g>
	<path d="M42.043,26.942c-2.522,12.356-18.66,60.52-18.66,60.52s10.339,4.287,18.408,4.035c0.626-1.699,1.696-5.599,3.255-11.011
		l12.368,0.022c1.085,6.986,0.986,9.539,1.524,11.241c4.035,0.504,17.652-3.026,17.652-3.026S64.485,29.716,62.72,22.403
		C49.86,21.647,42.043,26.942,42.043,26.942z M47.984,67.925c1.997-8.667,4.145-19.548,4.145-19.548s2.062,10.326,3.271,18.661
		L47.984,67.925z"/>
	<path d="M83.434,25.559c0,0-0.001,0-0.001,0v0c0,0-0.001,0-0.001,0c0,0.001,0.001,0.003,0.001,0.004
		c-0.004,0.402-0.496,51.887-0.513,56.874c-0.017,5.003,0.31,7.448,0.31,7.452c0,0-0.001,0.001-0.001,0.001
		s6.666,2.938,29.206-5.213c22.537-8.151,21.949-34.042,17.023-46.037C123.944,25.214,108.622,20.15,83.434,25.559z M114.592,62.379
		c-3.913,7.175-11.376,10.357-15.751,11.659c0.089-9.086,0.282-21.247,0.703-31.441c0.14-0.041,0.278-0.084,0.422-0.12
		C116.032,38.402,120.346,51.827,114.592,62.379z"/>
	<path d="M156.877,60.291c-4.597-13.307-4.113-37.744-4.113-37.744s-13.065,0.242-19.598,1.21c0,0,6.291,51.293,12.823,65.81
		c8.952,1.694,17.904,0.242,17.904,0.242l22.501-62.423L169.7,21.821C169.7,21.821,157.844,56.178,156.877,60.291z"/>
	<path d="M368.446,43.678c3.896-10.153-0.974-19.255-13.313-21.006c-12.339-1.75-26.301,6.652-26.301,6.652
		s0.325,29.408,0.325,39.211c0,9.803-0.649,17.855-0.649,17.855l15.261,3.501c0,0,0.417-9.976,0.743-20.957l14.518,20.257
		c2.922-2.101,10.715-12.954,10.715-12.954l-14.906-16.375C360.79,55.402,366.316,49.227,368.446,43.678z M351.561,46.829
		c-1.911,2.747-4.523,4.735-6.691,6.049c0.048-4.177,0.032-7.715-0.086-9.917C350.891,38.881,354.983,41.909,351.561,46.829z"/>
	<path d="M239.379,50.616c-6.014,0.837-6.182-5.529-0.179-9.002c6.513-3.768,15.928-3.14,24.372-0.837
		c3.539-5.025,2.399-16.958,2.399-16.958s-13.341-4.606-30.013,0.628c-13.312,4.179-18.101,20.517-15.419,29.519
		c2.682,9.002,9.502,12.352,17.974,10.468c8.472-1.884,12.508-0.209,10.438,5.025c-2.07,5.234-17.09,5.234-22.812,3.14
		l-3.016,17.167c0,0,15.364,3.14,29.17-0.837c13.806-3.978,20.451-24.076,12.264-34.963
		C256.369,43.079,245.392,49.778,239.379,50.616z"/>
	<g>
		<path d="M202.062,22.412c-11.625,1.143-13.271,9.632-10.488,14.556c2.783,4.923,11.987,5.565,19.693,1.926
			S215.119,21.127,202.062,22.412z"/>
		<path d="M191.827,48.453c0,0,2.283,19.786,1.672,42.455c3.425,0.214,16.054-0.642,16.054-0.642s3.853-32.322,4.495-43.239
			C204.63,46.385,191.827,48.453,191.827,48.453z"/>
	</g>
	<path d="M299.396,23.351c-7.862,0.254-24.353,10.655-26.635,35.263c-2.282,24.607,10.291,31.255,20.548,32.217
		c16.237,1.523,28.921-11.161,29.681-35.263C323.752,31.47,307.26,23.097,299.396,23.351z M308.011,59.53
		c-0.298,11.126-5.264,16.98-11.623,16.278c-4.016-0.445-8.942-3.513-8.046-14.871c0.893-11.36,7.35-16.162,10.43-16.278
		C301.852,44.541,308.312,48.407,308.011,59.53z"/>
</g>
<g>
	<path style="fill:#FFFFFF;stroke:#000000;stroke-width:2;stroke-miterlimit:10;" d="M38.53,24.308
		c-2.522,12.356-18.66,60.52-18.66,60.52s10.339,4.287,18.408,4.035c0.626-1.699,1.696-5.599,3.255-11.011l12.368,0.022
		c1.085,6.986,0.986,9.539,1.524,11.241c4.035,0.504,17.652-3.026,17.652-3.026s-12.104-59.007-13.869-66.32
		C46.348,19.013,38.53,24.308,38.53,24.308z M44.472,65.29c1.997-8.667,4.145-19.548,4.145-19.548s2.062,10.326,3.271,18.661
		L44.472,65.29z"/>
	<path style="fill:#FFFFFF;stroke:#000000;stroke-width:2;stroke-miterlimit:10;" d="M79.922,22.925c0,0-0.001,0-0.001,0v0
		c0,0-0.001,0-0.001,0c0,0.001,0.001,0.003,0.001,0.004c-0.004,0.402-0.496,51.887-0.513,56.874c-0.017,5.003,0.31,7.448,0.31,7.452
		c0,0-0.001,0.001-0.001,0.001s6.666,2.938,29.206-5.213c22.537-8.151,21.949-34.042,17.023-46.037
		C120.432,22.58,105.109,17.516,79.922,22.925z M111.08,59.745c-3.913,7.175-11.376,10.357-15.751,11.659
		c0.089-9.086,0.282-21.247,0.703-31.441c0.14-0.041,0.278-0.084,0.422-0.12C112.52,35.768,116.834,49.193,111.08,59.745z"/>
	<path style="fill:#FFFFFF;stroke:#000000;stroke-width:2;stroke-miterlimit:10;" d="M153.364,57.657
		c-4.597-13.307-4.113-37.744-4.113-37.744s-13.065,0.242-19.598,1.21c0,0,6.291,51.293,12.823,65.81
		c8.952,1.694,17.904,0.242,17.904,0.242l22.501-62.423l-16.694-5.565C166.188,19.187,154.332,53.544,153.364,57.657z"/>
	<path style="fill:#FFFFFF;stroke:#000000;stroke-width:2;stroke-miterlimit:10;" d="M364.934,41.043
		c3.896-10.153-0.974-19.255-13.313-21.006c-12.339-1.75-26.301,6.652-26.301,6.652s0.325,29.408,0.325,39.211
		c0,9.803-0.649,17.855-0.649,17.855l15.261,3.501c0,0,0.417-9.976,0.743-20.957l14.518,20.257
		c2.922-2.101,10.715-12.954,10.715-12.954l-14.906-16.375C357.278,52.768,362.804,46.593,364.934,41.043z M348.049,44.194
		c-1.911,2.747-4.523,4.735-6.691,6.049c0.048-4.177,0.032-7.715-0.086-9.917C347.379,36.246,351.471,39.275,348.049,44.194z"/>
	<path style="fill:#FFFFFF;stroke:#000000;stroke-width:2;stroke-miterlimit:10;" d="M235.867,47.982
		c-6.014,0.837-6.182-5.529-0.179-9.002c6.513-3.768,15.928-3.14,24.372-0.837c3.539-5.025,2.399-16.958,2.399-16.958
		s-13.341-4.606-30.013,0.628c-13.312,4.179-18.101,20.517-15.419,29.519s9.502,12.352,17.974,10.468
		c8.472-1.884,12.508-0.209,10.438,5.025c-2.07,5.234-17.09,5.234-22.812,3.14l-3.016,17.167c0,0,15.364,3.14,29.17-0.837
		c13.806-3.978,20.451-24.076,12.264-34.963C252.857,40.445,241.88,47.144,235.867,47.982z"/>
	<g>
		<path style="fill:#FFFFFF;stroke:#000000;stroke-width:2;stroke-miterlimit:10;" d="M198.55,19.778
			c-11.625,1.143-13.271,9.632-10.488,14.556c2.783,4.923,11.987,5.565,19.693,1.926S211.607,18.493,198.55,19.778z"/>
		<path style="fill:#FFFFFF;stroke:#000000;stroke-width:2;stroke-miterlimit:10;" d="M188.315,45.819
			c0,0,2.283,19.786,1.672,42.455c3.425,0.214,16.054-0.642,16.054-0.642s3.853-32.322,4.495-43.239
			C201.118,43.751,188.315,45.819,188.315,45.819z"/>
	</g>
	<path style="fill:#FFFFFF;stroke:#000000;stroke-width:2;stroke-miterlimit:10;" d="M295.884,20.717
		c-7.861,0.254-24.353,10.655-26.635,35.263c-2.282,24.607,10.291,31.255,20.548,32.217c16.237,1.523,28.921-11.161,29.681-35.263
		C320.239,28.836,303.748,20.463,295.884,20.717z M304.499,56.896c-0.298,11.126-5.264,16.98-11.623,16.278
		c-4.016-0.445-8.942-3.513-8.046-14.871c0.893-11.36,7.35-16.162,10.43-16.278C298.339,41.907,304.8,45.772,304.499,56.896z"/>
</g>
</svg>