<svg xmlns="http://www.w3.org/2000/svg" xml:space="preserve" style="enable-background:new 0 0 1290 4363.46" viewBox="0 0 1290 4363.46"><linearGradient id="a" x1="944.388" x2="475.313" y1="5357.753" y2="606.688" gradientUnits="userSpaceOnUse"><stop offset=".122" style="stop-color:#c6edf6"/><stop offset=".3" style="stop-color:#fbd6ee"/><stop offset=".543" style="stop-color:#5d6ba9"/><stop offset="1" style="stop-color:#0a1724"/></linearGradient><path d="M-50.216-21.527h1406.037v4851.852H-50.216z" style="fill:url(#a)"/><g style="opacity:.33"><path d="M75.588 974.211c-8.121 0-14.705 6.61-14.705 14.764s6.584 14.764 14.705 14.764c8.122 0 14.706-6.61 14.706-14.764-.001-8.154-6.585-14.764-14.706-14.764z" style="fill-rule:evenodd;clip-rule:evenodd;fill:#c4b1d6"/></g><path d="M97.093 996.621 83.12 989.97l11.743-13.217-17.23 8.743.37-19.38-3.196 16.927-15.599-10.323 12.323 14.92-18.9 3.951 16.172 2.536-5.578 14.393 11.746-15.383 4.916 16 .462-15.934z" style="fill-rule:evenodd;clip-rule:evenodd;fill:#d1b9db"/><path d="m83.891 991.848-6.541-3.01 5.711-4.396-6.423 3.259.137-7.224-1.849 5.128-5.157-2.667 3.477 4.259-5.929 2.776 5.045.053-1.096 6.257 4.379-5.734 2.641 8.054.088-7.339z" style="fill-rule:evenodd;clip-rule:evenodd;fill:#eacbef"/><circle cx="616.847" cy="688.828" r="5.273" style="fill-rule:evenodd;clip-rule:evenodd;fill:#eacbef"/><circle cx="722.213" cy="1391.256" r="5.273" style="fill-rule:evenodd;clip-rule:evenodd;fill:#eacbef"/><circle cx="456.875" cy="1101.979" r="5.273" style="fill-rule:evenodd;clip-rule:evenodd;fill:#eacbef"/><circle cx="465.823" cy="1654.67" r="5.273" style="fill-rule:evenodd;clip-rule:evenodd;fill:#eacbef"/><circle cx="1421.62" cy="1138.373" r="5.273" style="fill-rule:evenodd;clip-rule:evenodd;fill:#eacbef"/><circle cx="221.999" cy="484.432" r="5.273" style="fill-rule:evenodd;clip-rule:evenodd;fill:#eacbef"/><circle cx="49.902" cy="308.823" r="5.273" style="fill-rule:evenodd;clip-rule:evenodd;fill:#eacbef"/><circle cx="812.445" cy="277.232" r="5.273" style="fill-rule:evenodd;clip-rule:evenodd;fill:#eacbef"/><linearGradient id="b" x1="551.085" x2="1574.945" y1="1220.668" y2="2905.773" gradientUnits="userSpaceOnUse"><stop offset="0" style="stop-color:#3f4d79"/><stop offset="1" style="stop-color:#faa9d5"/></linearGradient><path d="M2026.204 2295.272c-13.608 60.982-32.659 119.368-56.519 174.698-17.926 41.596-38.582 81.45-61.658 119.452a966.178 966.178 0 0 1-69.299 99.395c-24.345 30.669-50.444 59.671-78.113 86.977l-.008.034c-20.221 19.969-41.271 39.044-63.126 57.125a975.181 975.181 0 0 1-121.303 85.878 974.8 974.8 0 0 1-122.831 62.402c-42.28 17.846-85.893 32.772-130.575 44.554-39.558 10.41-79.924 18.409-120.911 23.789a965.294 965.294 0 0 1-146.078 7.969c-38.727-.776-77.774-3.927-116.958-9.482a984.097 984.097 0 0 1-76.014-13.879 967.34 967.34 0 0 1-51.554-12.992 969.456 969.456 0 0 1-149.544-55.406c-61.738-28.798-119.454-63.713-172.653-103.785-255.597-192.512-406.091-504.205-387.11-833.775l.008-.034c2.994-52.156 10.229-104.747 21.977-157.393a987.562 987.562 0 0 1 15.554-60.654 976.085 976.085 0 0 1 18.585-57.25l.008-.034c33.175-92.47 79.418-177.453 136.114-253.231a971.58 971.58 0 0 1 61.156-73.861 974.721 974.721 0 0 1 57.587-57.865 975.857 975.857 0 0 1 108.856-87.096c39.862-27.49 81.72-52.019 125.263-73.303a974.428 974.428 0 0 1 91.618-39.218c31.042-11.461 62.727-21.36 94.959-29.579a950.165 950.165 0 0 1 80.771-17.122 961.862 961.862 0 0 1 104.004-11.689l.034.008a972.069 972.069 0 0 1 156.666 3.64c37.288 3.892 74.724 9.978 112.184 18.337a990.064 990.064 0 0 1 59.125 15.106c25.793 7.456 51.083 15.898 75.802 25.311 52.909 20.097 103.235 44.47 150.722 72.674l.034.008c119.181 70.809 220.373 165.556 298.407 276.287 17.467 24.765 33.797 50.339 48.836 76.617 38.059 66.17 68.38 136.848 90.079 210.598a955.8 955.8 0 0 1 24.09 101.776 964.54 964.54 0 0 1 15.2 150.667c1.641 75.049-5.424 151.485-22.009 228.03a433.669 433.669 0 0 1-1.376 6.316z" style="fill:url(#b)"/><linearGradient id="c" x1="524.648" x2="1756.48" y1="1433.421" y2="3262.505" gradientUnits="userSpaceOnUse"><stop offset="0" style="stop-color:#3f4d79"/><stop offset="1" style="stop-color:#faa9d5"/></linearGradient><path d="M1697.482 2832.952a975.181 975.181 0 0 1-121.303 85.878c-30.721-76.826-81.654-182.784-134.573-200.297-84.534-27.933-118.153-80.818-123.857-136.544-5.697-55.76-83.474-154.778-83.474-154.778s38.316 153.771 20.95 231.593c-17.365 77.823 46.027 119.212 127.626 200.944 31.421 31.457 54.27 77.192 70.497 121.484-42.28 17.846-85.893 32.772-130.575 44.554-18.099-52.575-46.728-119.405-85.973-162.315-72.986-79.844-114.289-98.131-118.987-199.016-4.724-100.926 45.351-244.043 10.846-333.44-34.505-89.397-82.599-36.606-131.568-101.986-48.936-65.373-92.114-156.705-193.927-188.494-101.839-31.83-184.307-231.766-177.509-302.877 6.791-71.077 9.699-124.917-37.308-198.929-47.034-74.054-64.313-77.909-71.893-206.682-.998-16.803 1.039-34.028 5.34-51.242 39.862-27.49 81.72-52.019 125.263-73.303-3.532 29.007-5.117 57.386-2.752 80.446 8.587 83.614 56.594 112.501 68.037 223.961 11.435 111.494 39.281 108.638 166.994 227.903s41.217 99.964 110.261 278.766 205.449 218.309 284.192 272.194c78.777 53.892 26.873 42.31 71.979 125.003 45.08 82.652 43.145 91.325 182.439 158.686 87.103 42.147 141.081 169.227 169.275 258.491z" style="fill:url(#c)"/><linearGradient id="d" x1="762.869" x2="1994.701" y1="1272.986" y2="3102.071" gradientUnits="userSpaceOnUse"><stop offset="0" style="stop-color:#3f4d79"/><stop offset="1" style="stop-color:#faa9d5"/></linearGradient><path d="M1838.728 2688.816c-24.345 30.669-50.444 59.671-78.113 86.977-23.088-72.926-61.162-164.75-114.21-202.166-94.128-66.388-200.752-117.424-221.807-185.645-21.082-68.263-11.435-111.494-72.9-161.523-61.464-50.03-123.902-54.892-199.744-162.583-74.625-106.002-71.989-203.55-71.881-206.573 1.466 4.224 61.387 177.235 142.992 213.371 82.607 36.572 182.518 77.041 222.814 140.486 40.289 63.479 15.298 94.181 109.427 160.568 94.087 66.414 161.343 90.491 206.415 173.176 23.388 42.846 53.459 99.404 77.007 143.912z" style="fill:url(#d)"/><linearGradient id="e" x1="281.43" x2="1513.263" y1="1597.22" y2="3426.305" gradientUnits="userSpaceOnUse"><stop offset="0" style="stop-color:#3f4d79"/><stop offset="1" style="stop-color:#faa9d5"/></linearGradient><path d="M1061.916 2833.505c-52.738-129.78 35.825-282.483-20.777-394.95-56.594-112.501-99.772-203.833-204.476-263.475-104.696-59.676-106.623-51.036-164.199-118.337-57.601-67.342-53.746-84.621-97.897-130.787-44.186-46.174-49.89-101.899-60.405-176.874-10.481-74.967 28.94-129.693-13.284-184.499-27.831-36.112-68.118-122.3-87.938-196.693a974.721 974.721 0 0 0-57.587 57.865c27.137 57.32 53.784 122.715 51.345 154.127-4.863 62.438-21.221 95.102 21.924 186.427 43.178 91.332 94.996 184.592 70.885 251.84-24.07 67.222 51.818 93.261 87.338 137.465 35.512 44.238 22.87 222.987 20.856 313.305-1.981 90.325 91.193 120.186 148.794 187.528 57.609 67.308 40.243 145.131 88.258 173.984 48.007 28.887 95.102 21.221 126.751 82.772 15.789 30.696 47.812 89.78 84.283 144.329a965.424 965.424 0 0 0 146.078-7.969c-49.679-61.252-111.061-144.991-139.949-216.058zm-167.561-111.683c-22.397-39.186 7.284-60.587-53.56-164.364s-88.513-63.292-107.933-101.85c-19.387-38.549 10.977-118.893-3.786-178.163-14.546-58.337-58.071-135.257-59.449-137.654 1.765 1.775 71.538 72.046 109.887 92.932 38.833 21.101 87.504 109.727 96.001 155.164 8.53 45.445 48.345 76.118 78.302 95.238 29.957 19.12 11.767 114.614 8.073 172.92-3.636 58.212 27.753 167.604 39.959 183.082-2.585-2.384-85.498-78.705-107.494-117.305z" style="fill:url(#e)"/><linearGradient id="f" x1="857.279" x2="2089.111" y1="1209.404" y2="3038.488" gradientUnits="userSpaceOnUse"><stop offset="0" style="stop-color:#3f4d79"/><stop offset="1" style="stop-color:#faa9d5"/></linearGradient><path d="M1290.822 1976.604s-47.742-23.089-67.792-58.668c-20.049-35.58-32.823-103.76-68.058-127.175-35.201-23.408-89.219-32.344-106.96-64.291-17.768-31.989-52.623-98.86-104.627-116.665-52.03-17.845-81.291-39.928-130.944-138.126-32.03-63.336-58.783-208.433-73.766-303.394 31.042-11.461 62.727-21.36 94.959-29.579.02 54.21 5.872 139.126 40.215 169.393 51.994 45.791-3.685 58.272.55 108.994s50.659 79.716 88.167 106.756c37.508 27.04 55.283 58.995 55.283 58.995s-1.962-47.097-11.491-74.094c-9.521-27.031-46.71-41.529-55.233-87.007-8.53-45.445 1.697-49.363-.6-80.981-2.264-31.611-28.581-53.072-40.081-99.18-7.224-29.069-1.356-83.63 3.961-119.998a961.862 961.862 0 0 1 104.004-11.689l.034.008c-.87 34.065-1.738 78.759-1.605 114.996.274 68.473 17.079 34.917 48.628 116.604s-11.649 149.849 5.747 225.26c17.355 75.438 116.146 106.799 135.868 129.871 19.756 23.079 16.398 93.859 30.498 156.1 14.092 62.275 53.243 123.87 53.243 123.87z" style="fill:url(#f)"/><linearGradient id="g" x1="938.933" x2="2170.765" y1="1154.413" y2="2983.497" gradientUnits="userSpaceOnUse"><stop offset="0" style="stop-color:#3f4d79"/><stop offset="1" style="stop-color:#faa9d5"/></linearGradient><path d="M1969.684 2469.969c-17.926 41.596-38.582 81.45-61.658 119.452-28.27-56.687-87.356-159.292-161.79-200.1-105.342-57.73-102.69-97.562-133.249-169.71-30.56-72.149-151.735-58.764-207.302-158.246-55.559-99.516-63.408-203.903-85.377-286.606-21.977-82.669-21.641-98.147-47.966-119.574-26.325-21.427-10.175-52.047-29.242-78.055-19.094-26.049-66.802-49.13-86.842-112.696-19.722-62.61-27.589-191.836-27.826-195.857.944 5.135 31.615 169.033 82.473 201.815 51.66 33.316 111.954 28.099 149.073 126.582 37.111 98.517 39.03 173.593 51.142 244.743 12.153 71.124 43.325 168.315 91.067 191.404 47.742 23.089 94.522-19.367 151.133 5.735 56.618 25.069 89.2 88.316 73.016 118.929-16.15 30.62-3.366 70.814 32.54 63.273 35.906-7.541 81.005 27.393 79.954 101.806-.842 58.553 91.428 122.471 130.854 147.105z" style="fill:url(#g)"/><linearGradient id="h" x1="1124.168" x2="2356" y1="1029.663" y2="2858.747" gradientUnits="userSpaceOnUse"><stop offset="0" style="stop-color:#3f4d79"/><stop offset="1" style="stop-color:#faa9d5"/></linearGradient><path d="M1923.161 2279.471s-17.742-31.948-40.098-71.16c-22.356-39.212-81.006-27.393-78.638-79.76 2.334-52.374-48.345-76.117-83.243-115.011-34.864-38.886-82.943-46.496-123.42-74.199-40.477-27.703-43.67-124.851-58.803-168.652-15.091-43.827-67.465-46.16-61.835-85.363 5.656-39.161 28.366-43.447-55.79-195.967-84.181-152.562-158.318-113.093-197.427-174.714-27.764-43.714-42.553-145.575-48.798-201.103 37.288 3.892 74.724 9.978 112.184 18.337a990.064 990.064 0 0 1 59.125 15.106c-7.123 30.969-13.998 66.068-14.765 89.031-1.705 49.396 39.435 74.129 95.71 114.71 56.282 40.547 39.469 74.137 79.567 145.297 40.132 71.167 78.974 64.282 110.92 74.492 31.938 10.244 100.668 106.463 28.828 177.551-71.865 71.047-5.399 135.655 65.371 167 70.804 31.352 114.811 140.725 114.811 140.725s17.396 75.412 48.335 104.104c30.906 28.686 47.966 119.576 47.966 119.576z" style="fill:url(#h)"/><linearGradient id="i" x1="1254.042" x2="2485.874" y1="942.196" y2="2771.281" gradientUnits="userSpaceOnUse"><stop offset="0" style="stop-color:#3f4d79"/><stop offset="1" style="stop-color:#faa9d5"/></linearGradient><path d="M2027.578 2288.953c-25.8-29.813-53.71-70.016-62.828-112.191-18.378-84.984-46.295-168.978-121.963-248.075-75.668-79.097-68.058-127.175-87.046-265.154-18.981-138.013-138.053-273.454-138.053-273.454s53.322 11.898 96.114 43.2c42.785 31.335 10.184 24.061 20.695 60.63 10.51 36.569 101.993 100.524 102.25 197.017.223 96.486 18.671 97.484 89.036 228.292 34.059 63.293 82.692 110.176 123.804 141.705 1.641 75.049-5.425 151.486-22.009 228.03z" style="fill:url(#i)"/><linearGradient id="j" x1="1365.441" x2="2597.273" y1="867.173" y2="2696.257" gradientUnits="userSpaceOnUse"><stop offset="0" style="stop-color:#3f4d79"/><stop offset="1" style="stop-color:#faa9d5"/></linearGradient><path d="M2034.387 1910.256c-30.727-22.02-81.307-64.306-113.432-122.774-41.194-74.982-48.329-222.574-49.574-266.216 17.467 24.765 33.797 50.339 48.836 76.617.561 23.685 3.792 64.617 11.035 101.697 5.81 29.852 45.203 74.318 79.044 108.901a955.971 955.971 0 0 1 24.091 101.775z" style="fill:url(#j)"/><linearGradient id="k" x1="1280.602" x2="2512.434" y1="924.309" y2="2753.394" gradientUnits="userSpaceOnUse"><stop offset="0" style="stop-color:#3f4d79"/><stop offset="1" style="stop-color:#faa9d5"/></linearGradient><path d="M1702.79 1580.117c-1.687-1.014-55.016-34.313-80.274-58.301-25.662-24.397-41.786-49.783-50.652-79.75s-67.465-46.16-70.71-87.343c-3.287-41.157-31.256-69.187-69.09-108.735-21.287-22.252-18.291-51.874-9.844-73.691 52.909 20.097 103.235 44.47 150.722 72.674l.034.008c11.537 30.066 19.341 64.473 3.264 79.84-31.628 30.284-11.906 53.355 32.857 103.768 44.185 49.821 92.506 149.068 93.693 151.53z" style="fill:url(#k)"/><linearGradient id="l" x1="47.255" x2="1279.087" y1="1754.931" y2="3584.015" gradientUnits="userSpaceOnUse"><stop offset="0" style="stop-color:#3f4d79"/><stop offset="1" style="stop-color:#faa9d5"/></linearGradient><path d="M938.826 3048.062a984.097 984.097 0 0 1-76.014-13.879 967.34 967.34 0 0 1-51.554-12.992c-44.44-42.97-85.576-84.39-95.251-99.621-23.019-36.242-83.27-59.005-110.576-90.004-27.314-30.965-15.072-99.799-19.97-147.551-4.898-47.752-53.924-64.927-89.495-72.864-35.57-7.937-65.82-39.558-65.475-83.022.387-43.491 12.631-140.276 7.397-172.55s-29.906-47.133-40.081-99.179c-10.141-52.04 10.297-87.903 9.98-128.398-.276-40.52-31.834-94.222-31.834-94.222s37.844 11.562 57.893 47.142c20.083 35.588 10.785 105.042 6.806 150.813-4.019 45.798 115.493 81.783 112.78 177.614s1.839 187.047 50.856 232.208 93.78 95.573 125.288 177.287c31.549 81.688 50.703 51.738 143.503 109.787 47.661 29.801 62.58 77.734 65.747 119.431z" style="fill:url(#l)"/><linearGradient id="m" x1="-102.493" x2="1129.339" y1="1855.781" y2="3684.866" gradientUnits="userSpaceOnUse"><stop offset="0" style="stop-color:#3f4d79"/><stop offset="1" style="stop-color:#faa9d5"/></linearGradient><path d="M661.713 2965.785c-61.738-28.798-119.454-63.713-172.653-103.785-9.333-24.225-24.904-50.976-50.557-77.001-78.638-79.76-85.19-106.127-104.576-144.677-19.387-38.549-27.314-30.966-40.468-55.689-13.161-24.69 6.991-73.088 24.131-94.169 17.132-21.048.725-86.921-5.171-116.225-5.766-28.779-52.697-87.575-54.517-89.895 2.395 1.491 79.632 49.903 103.215 122.514 23.991 73.801 2.238 87.617 11.697 198.599 9.459 110.982 71.32 140.339 165.756 232.976 51.302 50.314 94.453 96.044 123.143 127.352z" style="fill:url(#m)"/><linearGradient id="n" x1="175.598" x2="1407.43" y1="1668.496" y2="3497.58" gradientUnits="userSpaceOnUse"><stop offset="0" style="stop-color:#3f4d79"/><stop offset="1" style="stop-color:#faa9d5"/></linearGradient><path d="M385.565 2325.231c-16.124-25.386-95.045-145.633-93.004-210.507 2.041-64.874-25.653-52.383-55.929-84.045-30.25-31.621-31.842-94.188-9.416-138.961 22.426-44.773 7.284-60.587-46.347-113.013-8.207-7.996-15.82-16.745-22.795-25.812l.008-.034c33.175-92.47 79.418-177.453 136.114-253.231 7.461 41.026 13.758 92.668 7.351 128.686-12.242 68.833 21.297 113.659 59.794 150.237 38.497 36.579-3.712 114.278-20.844 135.326-17.166 21.04 6.446 138.298 10.345 204.498 3.897 66.201 34.723 206.856 34.723 206.856z" style="fill:url(#n)"/><linearGradient id="o" x1="-37.483" x2="1194.35" y1="1811.999" y2="3641.083" gradientUnits="userSpaceOnUse"><stop offset="0" style="stop-color:#3f4d79"/><stop offset="1" style="stop-color:#faa9d5"/></linearGradient><path d="M242.514 2492.382s-2.245-87.584-41.68-161.713c-39.469-74.137-55.274-86.981-55.214-142.979.046-47.677-16.425-92.307-43.67-159.465l.008-.034c2.994-52.156 10.229-104.747 21.977-157.393a987.562 987.562 0 0 1 15.554-60.654c2.123 4.3 4.26 8.851 6.447 13.661 37.489 83.013-7.018 129.094 33.071 228.239 40.089 99.146 38.763 105.086 21.58 154.146-17.141 49.034 29.232 106.04 50.254 179.179 20.986 73.131-8.327 107.013-8.327 107.013z" style="fill:url(#o)"/><path d="M2026.205 2295.259c-13.608 60.983-32.659 119.369-56.519 174.698a968.671 968.671 0 0 1-61.658 119.452 966.225 966.225 0 0 1-69.299 99.395c-24.345 30.669-50.444 59.672-78.113 86.977l-.008.034c-20.222 19.969-41.271 39.044-63.126 57.125a975.181 975.181 0 0 1-121.303 85.878 974.866 974.866 0 0 1-122.831 62.402c-42.28 17.846-85.893 32.772-130.575 44.554-39.558 10.41-79.924 18.409-120.911 23.789a954.05 954.05 0 0 1-64.203 6.222c30.522-5.483 60.698-12.425 90.428-20.706 45.846-12.869 90.619-29.025 134.055-48.242 43.56-19.295 85.773-41.761 126.252-67.095a1020.07 1020.07 0 0 0 124.882-91.917c22.52-19.315 44.249-39.69 65.125-61.001l.008-.034c28.537-29.132 55.485-60.034 80.668-92.713a1046.218 1046.218 0 0 0 71.753-105.791 1063.162 1063.162 0 0 0 64.117-126.981c24.88-58.786 44.872-120.753 59.3-185.414.497-2.228 1.002-4.488 1.457-6.69 17.59-81.209 25.454-162.179 24.406-241.631-.752-53.948-5.588-107.213-14.322-159.364a1037.451 1037.451 0 0 0-23.827-107.563c-21.621-77.913-52.1-152.489-90.493-222.24-15.184-27.692-31.708-54.62-49.376-80.705a727.978 727.978 0 0 0-11.069-15.968 976.02 976.02 0 0 1 80.358 99.522c17.467 24.765 33.797 50.339 48.836 76.617 38.058 66.17 68.379 136.848 90.079 210.598a955.742 955.742 0 0 1 24.09 101.776 964.54 964.54 0 0 1 15.2 150.667c1.641 75.049-5.424 151.485-22.009 228.03-.43 2.101-.905 4.227-1.372 6.319z" style="opacity:.64;fill:#f1b6ff"/><path d="M2027.583 2288.962c-.449 2.074-.899 4.219-1.383 6.293-13.589 60.996-32.642 119.398-56.501 174.722a968.293 968.293 0 0 1-61.687 119.432 958.427 958.427 0 0 1-69.294 99.411 962.904 962.904 0 0 1-78.112 86.964v.034a967.118 967.118 0 0 1-63.139 57.123 973.13 973.13 0 0 1-121.299 85.891 979.699 979.699 0 0 1-122.821 62.413 977.617 977.617 0 0 1-130.566 44.536 975.934 975.934 0 0 1-120.919 23.79 966.822 966.822 0 0 1-146.092 7.988c-38.727-.795-77.766-3.942-116.942-9.509-25.311-3.596-50.657-8.23-76.002-13.866a952.92 952.92 0 0 1-51.556-13.001c-52.074-14.557-101.97-33.16-149.549-55.394-61.756-28.804-119.467-63.727-172.647-103.803-.622-.484-1.245-.934-1.867-1.417 50.345 36.86 104.598 69.156 162.378 96.092 47.545 22.268 97.475 40.871 149.515 55.428a1002.436 1002.436 0 0 0 51.556 13.001c25.345 5.636 50.726 10.27 76.037 13.866 39.177 5.567 78.215 8.714 116.943 9.474 49.308 1.037 98.098-1.66 146.092-7.953 40.975-5.394 81.327-13.382 120.919-23.79 44.675-11.791 88.277-26.729 130.566-44.571a970.689 970.689 0 0 0 122.821-62.413c42.531-25.45 83.091-54.184 121.299-85.857 21.853-18.084 42.911-37.171 63.139-57.123v-.035c27.662-27.316 53.769-56.327 78.112-86.998a961.578 961.578 0 0 0 69.294-99.377 963.754 963.754 0 0 0 61.652-119.467c23.859-55.325 42.911-113.692 56.535-174.688.449-2.074.934-4.219 1.383-6.328 16.563-76.521 23.652-152.973 21.992-228.007-1.141-51.002-6.259-101.348-15.18-150.69-6.224-34.474-14.246-68.429-24.101-101.763-21.715-73.755-52.04-144.432-90.075-210.614a953.04 953.04 0 0 0-48.859-76.59c-56.673-80.463-125.587-152.454-204.736-212.965 84.266 62.344 157.329 137.551 216.907 222.059a962.806 962.806 0 0 1 48.824 76.625 973.24 973.24 0 0 1 90.075 210.58 955.282 955.282 0 0 1 24.101 101.797 963.882 963.882 0 0 1 15.18 150.656c1.659 75.072-5.43 151.489-21.993 228.044z" style="fill:#fff"/></svg>