<svg xmlns="http://www.w3.org/2000/svg" xml:space="preserve" style="enable-background:new 0 0 920 593.159" viewBox="0 0 920 593.159"><g style="opacity:.26"><ellipse cx="446.17" cy="553.406" rx="355.605" ry="34.171" style="opacity:.0435;fill:#7b71bf"/><ellipse cx="446.17" cy="553.119" rx="349.646" ry="33.238" style="opacity:.087;fill:#7b71bf"/><ellipse cx="446.17" cy="552.831" rx="343.686" ry="32.306" style="opacity:.1304;fill:#7b71bf"/><ellipse cx="446.17" cy="552.544" rx="337.727" ry="31.374" style="opacity:.1739;fill:#7b71bf"/><ellipse cx="446.17" cy="552.256" rx="331.767" ry="30.442" style="opacity:.2174;fill:#7b71bf"/><ellipse cx="446.17" cy="551.969" rx="325.808" ry="29.51" style="opacity:.2609;fill:#7b71bf"/><ellipse cx="446.17" cy="551.681" rx="319.848" ry="28.577" style="opacity:.3043;fill:#7b71bf"/><ellipse cx="446.17" cy="551.394" rx="313.889" ry="27.645" style="opacity:.3478;fill:#7b71bf"/><ellipse cx="446.17" cy="551.107" rx="307.929" ry="26.713" style="opacity:.3913;fill:#7b71bf"/><ellipse cx="446.17" cy="550.819" rx="301.97" ry="25.781" style="opacity:.4348;fill:#7b71bf"/><ellipse cx="446.17" cy="550.532" rx="296.01" ry="24.849" style="opacity:.4783;fill:#7b71bf"/><ellipse cx="446.17" cy="550.244" rx="290.051" ry="23.916" style="opacity:.5217;fill:#7b71bf"/><ellipse cx="446.17" cy="549.957" rx="284.091" ry="22.984" style="opacity:.5652;fill:#7b71bf"/><ellipse cx="446.17" cy="549.669" rx="278.132" ry="22.052" style="opacity:.6087;fill:#7b71bf"/><ellipse cx="446.17" cy="549.382" rx="272.172" ry="21.12" style="opacity:.6522;fill:#7b71bf"/><ellipse cx="446.17" cy="549.094" rx="266.213" ry="20.188" style="opacity:.6957;fill:#7b71bf"/><ellipse cx="446.17" cy="548.807" rx="260.253" ry="19.255" style="opacity:.7391;fill:#7b71bf"/><ellipse cx="446.17" cy="548.52" rx="254.294" ry="18.323" style="opacity:.7826;fill:#7b71bf"/><ellipse cx="446.17" cy="548.232" rx="248.334" ry="17.391" style="opacity:.8261;fill:#7b71bf"/><ellipse cx="446.17" cy="547.945" rx="242.375" ry="16.459" style="opacity:.8696;fill:#7b71bf"/><ellipse cx="446.17" cy="547.657" rx="236.415" ry="15.527" style="opacity:.913;fill:#7b71bf"/><ellipse cx="446.17" cy="547.37" rx="230.456" ry="14.594" style="opacity:.9565;fill:#7b71bf"/><ellipse cx="446.17" cy="547.082" rx="224.496" ry="13.662" style="fill:#7b71bf"/></g><g style="opacity:.55"><linearGradient id="b" x1="451.648" x2="451.648" y1="-30.16" y2="503.33" gradientUnits="userSpaceOnUse"><stop offset="0" style="stop-color:#6671ad;stop-opacity:0"/><stop offset=".342" style="stop-color:#606daa;stop-opacity:.3422"/><stop offset="1" style="stop-color:#5d6ba9"/></linearGradient><path d="M1058.506-13.59v501.024c-404.57-113.509-809.146-113.355-1213.716.448V-13.137C194.378 62.061 646.832 96.82 1058.506-13.59z" style="fill:url(#b)"/><path d="M1058.506 470.987v40.567c-404.57-113.509-809.146-113.355-1213.716.448V471.44c201.363-56.645 402.728-71.978 604.092-72.31 203.208-.336 406.417 14.846 609.624 71.857z" style="fill:#7b71bf"/></g><path d="M490.273 556.437c0 4.474-24.398 4.322-39.822 4.322s-41.294.152-41.294-4.322 25.134-14.238 40.558-14.238 40.558 9.764 40.558 14.238z" style="opacity:.66;fill:#1a2435"/><path d="M465.578 546.516c-.235-1.41-9.605-19.812-12.806-23.328s-5.443 0-4.162 2.876c1.281 2.876 11.205 21.73 13.766 23.647 2.561 1.918 3.522-1.278 3.202-3.195z" style="fill:#35302e;stroke:#000;stroke-width:1.099;stroke-linecap:round;strokeLinejoin:round;stroke-miterlimit:10"/><path d="m446.048 522.23-1.921 2.556s-15.047 24.925-15.047 26.204c0 1.278.96 3.515 3.842 1.278 2.881-2.237 16.968-27.801 16.968-27.801s1.601 31.636 2.881 34.193c1.281 2.556 4.162 1.598 4.482-3.196.32-4.793-2.241-30.358-2.241-30.358l-8.964-2.876z" style="fill:#35302e;stroke:#000;stroke-width:1.099;stroke-linecap:round;strokeLinejoin:round;stroke-miterlimit:10"/><path d="m442.847 514.88 1.281 9.906s3.522.959 6.403.959 4.482-.639 4.482-.639l.64-11.824s-6.723-.959-12.806 1.598z" style="fill:#35302e;stroke:#000;stroke-width:1.099;stroke-linecap:round;strokeLinejoin:round;stroke-miterlimit:10"/><path d="M448.77 496.895c-9.924 0-17.998-8.059-17.998-17.965s8.074-17.965 17.998-17.965 17.998 8.059 17.998 17.965c-.001 9.906-8.074 17.965-17.998 17.965z" style="fill:#b3bde0"/><path d="M448.77 461.514c9.636 0 17.448 7.797 17.448 17.416 0 9.618-7.812 17.416-17.448 17.416s-17.448-7.797-17.448-17.416 7.811-17.416 17.448-17.416m0-1.099c-10.227 0-18.547 8.306-18.547 18.515 0 10.209 8.32 18.515 18.547 18.515s18.547-8.306 18.547-18.515c0-10.209-8.32-18.515-18.547-18.515z"/><ellipse cx="448.77" cy="484.362" rx="17.448" ry="17.416" style="fill:#636f93;stroke:#000;stroke-width:1.099;stroke-linecap:round;strokeLinejoin:round;stroke-miterlimit:10"/><path d="M479.002 502.644c-.17-.006-17.144-.625-33.938-1.978-34.434-2.774-34.599-5.879-34.661-7.048-.061-1.101.233-2.456.872-4.025 1.747-4.339 5.823-9.62 8.097-12.381a7.941 7.941 0 0 1 5.963-2.902l49.902-1.143c1.825 0 3.55.804 4.731 2.206 2.895 3.449 7.783 9.835 8.009 13.873.012.204.012.417 0 .635-.305 5.532-8.261 12.345-8.6 12.632a.55.55 0 0 1-.355.13l-.02.001z" style="fill:#b3bde0"/><path d="M475.237 473.717c1.661 0 3.237.738 4.31 2.01 2.74 3.265 7.662 9.641 7.881 13.55.011.186.011.377 0 .573-.295 5.361-8.406 12.245-8.406 12.245s-67.748-2.435-68.07-8.505c-.06-1.092.262-2.391.831-3.789 1.679-4.171 5.535-9.231 8.012-12.239a7.404 7.404 0 0 1 5.551-2.702l49.765-1.141.126-.002m.001-1.099-.151.002-49.765 1.141a8.49 8.49 0 0 0-6.375 3.104c-2.293 2.784-6.407 8.115-8.183 12.526-.677 1.664-.975 3.059-.909 4.26.131 2.467 4.482 5.093 35.165 7.564 16.807 1.354 33.793 1.973 33.963 1.979l.039.001c.26 0 .512-.092.711-.261.346-.293 8.475-7.256 8.792-13.022a6.25 6.25 0 0 0 0-.698c-.223-3.982-4.548-9.916-8.137-14.192a6.717 6.717 0 0 0-5.15-2.404z"/><path d="m432.022 474.706-6.676.153a7.404 7.404 0 0 0-5.551 2.702c-2.478 3.008-6.333 8.069-8.012 12.239 2.133-3.598 5.803-7.725 8.012-10.034 1.367-1.436 3.396-2.287 5.551-2.326l10.524-.209a21.435 21.435 0 0 1-3.848-2.525zM479.547 475.728a5.638 5.638 0 0 0-4.436-2.009l-11.47.263c-.067.063-.13.129-.197.191a21.46 21.46 0 0 1-3.455 2.581l15.122-.3c1.706-.033 3.336.606 4.436 1.736 2.735 2.811 7.641 8.287 7.881 11.661a4.978 4.978 0 0 0 0-.573c-.219-3.91-5.141-10.286-7.881-13.55z" style="fill:#fff"/><path d="m487.972 491.865-1.734 22.901c-.284 3.74-3.73 6.578-7.739 6.371l-14.576-.759-35.944-1.867-9.287-.48c-3.703-.191-6.678-2.937-6.924-6.398l-1.192-16.743c-.273-3.821 2.855-7.113 6.951-7.315l62.732-3.046c4.409-.219 8.024 3.226 7.713 7.336z" style="fill:#636f93;stroke:#000;stroke-width:1.099;stroke-linecap:round;strokeLinejoin:round;stroke-miterlimit:10"/><path d="m479.11 495.25-1.104 16.56a1.303 1.303 0 0 1-1.372 1.213l-.29-.016a1.302 1.302 0 0 1-1.231-1.372l.926-16.527a1.303 1.303 0 0 1 1.252-1.228l.468-.018a1.304 1.304 0 0 1 1.351 1.388zM473.216 495.436l-.743 16.037a1.302 1.302 0 0 1-1.373 1.239l-.14-.008a1.303 1.303 0 0 1-1.232-1.346l.58-16.018a1.302 1.302 0 0 1 1.254-1.253l.302-.011a1.302 1.302 0 0 1 1.352 1.36zM467.644 495.611l-.42 15.541a1.303 1.303 0 0 1-1.374 1.264h0a1.303 1.303 0 0 1-1.233-1.322l.272-15.536a1.303 1.303 0 0 1 1.254-1.278l.148-.006a1.304 1.304 0 0 1 1.353 1.337z" style="fill:#35302e;stroke:#000;stroke-width:1.099;stroke-linecap:round;strokeLinejoin:round;stroke-miterlimit:10"/><path d="M418.515 499.85a3.51 3.51 0 0 1-3.509-3.504c0-1.932 1.574-3.504 3.509-3.504s3.509 1.572 3.509 3.504a3.51 3.51 0 0 1-3.509 3.504z" style="fill:#b6a0e0"/><path d="M418.515 493.47c1.591 0 2.881 1.288 2.881 2.876s-1.29 2.876-2.881 2.876c-1.591 0-2.881-1.288-2.881-2.876s1.29-2.876 2.881-2.876m0-1.257c-2.281 0-4.137 1.854-4.137 4.132s1.856 4.132 4.137 4.132 4.137-1.854 4.137-4.132-1.855-4.132-4.137-4.132z"/><path d="m463.603 518.86-35.944-1.867 5.426-9.226 25.929.481z" style="fill:#525f7f"/><ellipse cx="435.884" cy="513.282" rx="1.601" ry="1.598" style="fill:#35302e;stroke:#000;stroke-width:1.099;stroke-linecap:round;strokeLinejoin:round;stroke-miterlimit:10"/><ellipse cx="442.687" cy="513.522" rx="1.601" ry="1.598" style="fill:#35302e;stroke:#000;stroke-width:1.099;stroke-linecap:round;strokeLinejoin:round;stroke-miterlimit:10"/><path d="M917.889 548.555c8.497 9.481 8.897 33.374-67.524 33.374s-208.004-28.28-208.004-35.702c0-7.422 81.981-22.327 158.402-22.327s112.173 19.128 117.126 24.655z" style="opacity:.4;fill:#0e1828"/><path d="M667.67 529.299c-2.087 0-4.626-1.809-5.596-5.849-1.187-4.946-.076-8.514 3.302-10.602 2.707-1.673 12.021-5.92 17.78-6.549.142-.015.278-.022.411-.022.95 0 1.738.375 2.342 1.116 2.591 3.177.69 12.608.608 13.008a.628.628 0 0 1-.398.463c-3.708 1.363-13.733 5.311-15.579 7.181-.81.82-1.802 1.254-2.87 1.254z" style="fill:#c69a89"/><path d="M683.566 506.905c5.083 0 2.335 13.369 2.335 13.369s-13.461 4.949-15.809 7.33c-.708.718-1.554 1.067-2.422 1.067-2.012 0-4.146-1.872-4.985-5.367-1.201-5.005.133-8.136 3.021-9.921 2.888-1.785 11.973-5.853 17.518-6.458.117-.014.232-.02.342-.02m0-1.256a4.41 4.41 0 0 0-.479.027c-5.739.627-14.929 4.714-18.042 6.638-2.499 1.545-5.149 4.756-3.582 11.283.909 3.786 3.403 6.33 6.207 6.33 1.24 0 2.387-.498 3.317-1.441 1.567-1.588 10.246-5.156 15.348-7.032.408-.15.709-.5.797-.926.021-.1.507-2.491.695-5.293.27-4.031-.199-6.726-1.432-8.239-.719-.882-1.697-1.347-2.829-1.347z"/><path d="M637.73 489.171c-1.368 7.42 2.489 27.13 3.833 34.594 1.344 7.463 4.926 19.326 13.9 17.529 8.973-1.796 18.709-12.047 18.709-12.047s.65-1.676-.419-1.29c-1.069.386-2.007 1.654-3.792-1.236-1.785-2.888-3.207-7.86-3.207-7.86s2.558.518 3.968-.595c1.412-1.113 2.757-7.177 1.291-9.436-1.253-1.931-5.451-3.751-6.647-4.24-.203-.082-.32-.127-.32-.127s-17.559-22.391-18.419-23.614c-.86-1.224-7.53.903-8.897 8.322z" style="fill:#1c1a19;stroke:#000;stroke-width:1.256;stroke-linecap:round;strokeLinejoin:round;stroke-miterlimit:10"/><path d="M648.161 547.256c-2.551 0-4.35-1.095-5.064-3.083-1.194-3.313-5.533-21.781-7.634-37.313-2.059-15.223-1.695-26.053-.307-28.513.544-.967 1.338-1.809 2.235-2.369.836-.524 1.754-.801 2.654-.801 1.032 0 2.026.348 2.955 1.035 2.858 2.108 5.154 5.976 5.25 6.139a.63.63 0 0 1 .019.604s-2.016 3.95-3.229 6.387c-.434.873-1.133 1.76-2.08 2.638a16.766 16.766 0 0 1-2.11 1.64l2.954 15.356 3.198 2.738c.115.098.19.235.212.384l1.55 10.36a.629.629 0 0 1-.164.523l-2.477 2.626 1.713 5.925c1.936 1.357 9.375 6.694 9.932 8.902.728 2.852-1.629 4.203-4.787 5.673-1.596.742-3.307 1.149-4.82 1.149z" style="fill:#b3bde0"/><path d="M640.045 475.805c.834 0 1.713.27 2.582.912 2.787 2.056 5.082 5.953 5.082 5.953s-2.018 3.953-3.232 6.393c-.465.937-1.208 1.774-1.945 2.457-1.196 1.102-2.381 1.797-2.381 1.797l3.076 15.993 3.365 2.882 1.55 10.36-2.723 2.887 1.874 6.482s9.317 6.494 9.865 8.668c.554 2.168-.86 3.282-4.443 4.95-1.488.69-3.098 1.089-4.554 1.089-2.051 0-3.798-.79-4.474-2.668-1.155-3.206-5.51-21.715-7.602-37.184-2.092-15.469-1.632-25.905-.383-28.121.471-.837 1.173-1.615 2.021-2.145.696-.436 1.487-.705 2.322-.705m0-1.256c-1.019 0-2.052.31-2.988.897-.983.614-1.853 1.535-2.448 2.593-1.473 2.613-1.867 13.381.233 28.905 2.105 15.567 6.464 34.108 7.665 37.442.799 2.223 2.861 3.498 5.655 3.498 1.602 0 3.407-.428 5.083-1.205 3.309-1.541 5.979-3.085 5.132-6.4-.573-2.276-6.913-6.963-9.998-9.132l-1.552-5.367 2.231-2.366c.264-.28.385-.666.328-1.047l-1.55-10.36a1.257 1.257 0 0 0-.425-.768l-3.031-2.596-2.834-14.733a17.31 17.31 0 0 0 1.839-1.465c1.006-.934 1.752-1.883 2.219-2.822a866.06 866.06 0 0 1 3.226-6.38 1.256 1.256 0 0 0-.036-1.208c-.099-.168-2.459-4.143-5.419-6.326-1.041-.771-2.161-1.16-3.33-1.16z"/><path d="M639.802 480.51c.07.928.27 1.842.661 2.705.929 2.049 2.568 3.54 4.522 4.602.957-2.749 2.723-5.147 2.723-5.147s-2.295-3.896-5.082-5.953c-1.738-1.285-3.512-1.078-4.903-.206a58.34 58.34 0 0 1 2.222.466c1.078.27.265 1.179-.143 3.533z" style="fill:#dce3f4"/><path d="M668.12 519.611a8.206 8.206 0 0 1-1.493-.133.623.623 0 0 1-.319-.171c-.299-.298-2.933-2.948-3.481-4.032-.643-1.249-.241-9.664 2.302-12.364a.63.63 0 0 1 .695-.15c.179.073.414.198.687.357 1.714 1.039 4.909 3.644 6.031 5.374.464.716.711 1.744.732 3.054.04 2.569-.878 6.2-2.167 7.215-.714.564-1.719.85-2.987.85z" style="fill:#b3bde0"/><path d="M665.585 503.34c.159.065.365.177.607.318 1.585.96 4.732 3.494 5.822 5.174.424.654.613 1.632.63 2.723.041 2.646-.925 5.922-1.927 6.712-.729.577-1.767.716-2.598.716-.774 0-1.368-.121-1.368-.121s-2.846-2.846-3.365-3.872c-.499-.972-.181-9.122 2.199-11.65m.001-1.256a1.26 1.26 0 0 0-.915.395c-2.628 2.79-3.21 11.515-2.4 13.087.561 1.109 2.892 3.484 3.593 4.185.174.175.397.294.638.343.073.015.743.146 1.618.146 1.413 0 2.549-.332 3.377-.986 1.491-1.175 2.447-4.939 2.404-7.717-.023-1.431-.303-2.57-.832-3.386-1.278-1.968-4.68-4.628-6.225-5.565a6.334 6.334 0 0 0-.783-.407 1.243 1.243 0 0 0-.475-.095z"/><path d="M672.645 511.555c-1.968-1.721-4.614-4.113-5.445-5.256-.489-.678-.807-1.656-1.008-2.64 1.585.961 4.732 3.494 5.822 5.174.425.654.613 1.632.631 2.722z" style="fill:#dce3f4"/><path d="M659.567 511.201a1.998 1.998 0 0 1-1.98-1.704 2.01 2.01 0 0 1 .838-1.942c.08-.095.308-.382.93-1.229 1.281-1.744 1.692-3.548 1.222-5.361a2.005 2.005 0 0 1 1.939-2.503c.911 0 1.707.617 1.936 1.5.784 3.024.116 6.073-1.931 8.817-1.374 1.84-1.705 2.016-1.883 2.11a1.96 1.96 0 0 1-1.071.312z" style="fill:#b3bde0"/><path d="M662.516 499.088c.61 0 1.168.41 1.328 1.029.734 2.833.103 5.698-1.827 8.284-1.405 1.883-1.626 1.898-1.694 1.943a1.373 1.373 0 0 1-1.521-2.286h.001l.004.002c.016 0 .118-.087 1.055-1.363 1.398-1.904 1.843-3.886 1.323-5.89a1.375 1.375 0 0 1 1.331-1.719m0-1.256a2.635 2.635 0 0 0-2.547 3.287c.427 1.646.06 3.226-1.12 4.833a37.468 37.468 0 0 1-.856 1.138 2.643 2.643 0 0 0-1.027 2.5 2.627 2.627 0 0 0 4.004 1.831c.33-.183.759-.535 2.053-2.269 2.165-2.902 2.869-6.135 2.036-9.35a2.63 2.63 0 0 0-2.543-1.97z"/><path d="M656.12 504.844a2 2 0 0 1-1.98-1.702 2.016 2.016 0 0 1 .781-1.903l.793-1.08c1.162-1.585 1.536-3.221 1.109-4.86a2.004 2.004 0 0 1 1.938-2.503c.911 0 1.707.617 1.936 1.5.74 2.854.111 5.729-1.818 8.315-1.287 1.725-1.52 1.839-1.707 1.931a1.925 1.925 0 0 1-1.052.302z" style="fill:#b3bde0"/><path d="M658.762 493.424c.611 0 1.168.41 1.328 1.029.69 2.663.098 5.354-1.714 7.782-1.315 1.763-1.436 1.711-1.5 1.753a1.372 1.372 0 0 1-1.52-2.287l-.005.011c.003 0 .093-.122.87-1.182 1.278-1.744 1.687-3.556 1.211-5.388a1.375 1.375 0 0 1 1.33-1.718m0-1.256a2.633 2.633 0 0 0-2.546 3.288c.382 1.47.052 2.886-1.008 4.332l-.741 1.01a2.646 2.646 0 0 0-.947 2.436 2.625 2.625 0 0 0 3.987 1.842c.318-.168.669-.472 1.876-2.09 2.047-2.743 2.712-5.803 1.923-8.848a2.63 2.63 0 0 0-2.544-1.97z"/><path d="M652.603 499.068a1.996 1.996 0 0 1-1.981-1.704 1.998 1.998 0 0 1 .603-1.749c.104-.203.287-.454.555-.82.903-1.237 1.195-2.506.866-3.773a1.991 1.991 0 0 1 .212-1.516 1.99 1.99 0 0 1 1.726-.987c.911 0 1.707.617 1.936 1.5.643 2.484.099 4.983-1.574 7.226-.943 1.264-1.114 1.474-1.326 1.546a2.007 2.007 0 0 1-1.017.277z" style="fill:#b3bde0"/><path d="M654.583 489.147c.611 0 1.168.41 1.328 1.029.594 2.294.086 4.608-1.47 6.693-1.122 1.504-1.025 1.306-1.08 1.342a1.373 1.373 0 0 1-1.603-2.229h.002c.021 0 .081-.059.08-.059a2.413 2.413 0 0 0-.082.058c-.027-.006.04-.151.527-.818 1.02-1.396 1.346-2.844.968-4.301-.19-.733.25-1.484.984-1.674.116-.027.232-.041.346-.041m0-1.257a2.632 2.632 0 0 0-2.546 3.288c.283 1.091.033 2.153-.766 3.246-.225.309-.414.566-.549.803a2.627 2.627 0 0 0-.312 3.294 2.623 2.623 0 0 0 2.193 1.175c.45 0 .888-.114 1.278-.332.374-.146.631-.489 1.567-1.744 1.791-2.401 2.372-5.084 1.679-7.759a2.63 2.63 0 0 0-2.544-1.971z"/><path d="M680.614 533.026a.627.627 0 0 1-.513-.266c-4.872-6.904-5.843-16.438-5.8-23.221.007-.983.034-1.776.053-2.324.01-.3.018-.523.018-.66 0-.248.146-.473.373-.574.799-.355 80.227-35.566 103.995-38.178a23.29 23.29 0 0 1 2.577-.161c.59 0 1.132.032 1.609.096 4.432.591 7.801 2.521 10.015 5.738 4.942 7.181 2.419 18.155 2.31 18.619a.625.625 0 0 1-.39.443c-4.084 1.537-100.189 37.684-114.124 40.474a.47.47 0 0 1-.123.014z" style="fill:#3f3734"/><path d="M781.316 468.272c.561 0 1.071.03 1.526.091 16.852 2.248 11.797 23.589 11.797 23.589s-99.981 37.634-114.026 40.447c-5.191-7.357-5.718-17.712-5.685-22.855.011-1.529.071-2.598.071-2.988 0 0 79.862-35.496 103.808-38.128a22.847 22.847 0 0 1 2.509-.156m0-1.256c-.785 0-1.676.055-2.649.164-23.863 2.622-100.91 36.776-104.178 38.228a1.254 1.254 0 0 0-.746 1.148c0 .132-.008.347-.018.635a81.955 81.955 0 0 0-.053 2.343c-.044 6.875.947 16.548 5.915 23.588a1.257 1.257 0 0 0 1.273.508c13.984-2.8 110.136-38.965 114.222-40.503.391-.147.683-.479.78-.886.112-.475 2.695-11.712-2.404-19.119-2.319-3.369-5.834-5.389-10.45-6.004a12.799 12.799 0 0 0-1.692-.102z"/><path d="M777.881 472.666c-5.137 2.889-94.669 36.905-102.048 36.905-.313 0-.614-.005-.905-.027.011-1.529.071-2.598.071-2.988 0 0 79.862-35.496 103.808-38.128.785 1.678.801 3.268-.926 4.238z" style="fill:#96857e"/><path d="M775.025 451.157c-.416 0-.843-.014-1.284-.042-6.267-.401-13.407-6.976-15.369-12.364-.913-2.507-.653-4.542.753-5.884 4.386-4.187 15.361-7.338 20.336-7.338.481 0 .913.029 1.283.085 4.291.655 7.15 2.283 7.27 2.352a.628.628 0 0 1 .31.614l-1.959 17.573a.629.629 0 0 1-.118.303c-.14.193-3.543 4.701-11.222 4.701z" style="fill:#c69a89"/><path d="M779.462 426.158c.445 0 .844.025 1.188.078 4.224.645 7.051 2.276 7.051 2.276l-1.959 17.573s-3.268 4.444-10.717 4.444c-.403 0-.817-.013-1.244-.04-8.332-.533-18.723-12.87-14.222-17.166 4.134-3.947 14.901-7.165 19.903-7.165m.001-1.256c-5.075 0-16.281 3.226-20.771 7.512-1.577 1.505-1.9 3.833-.91 6.553 2.026 5.566 9.421 12.359 15.919 12.775.444.029.89.043 1.324.043 7.993 0 11.581-4.753 11.729-4.956.13-.177.212-.386.236-.605l1.959-17.573a1.255 1.255 0 0 0-.621-1.227c-.124-.072-3.082-1.757-7.489-2.429a9.125 9.125 0 0 0-1.376-.093z"/><path d="M751.231 448.087c-2.54 0-4.203-1.282-4.449-3.429-.273-2.386 1.281-4.896 3.326-5.371 3.241-.753 7.239-1.621 7.239-1.621a.627.627 0 0 1 .656.267l4.352 6.555c.05.076.083.162.097.252.033.217.006.555-.309.931-.435.518-2.494 2.224-10.725 2.414l-.187.002z" style="fill:#c69a89"/><path d="m757.48 438.28 4.352 6.555c.115.756-2.464 2.439-10.428 2.623l-.173.002c-5.746 0-4.186-6.816-.981-7.561 3.237-.752 7.23-1.619 7.23-1.619m0-1.256c-.089 0-.178.009-.267.029-.04.009-4.039.878-7.247 1.623-2.336.543-4.115 3.372-3.808 6.054.221 1.927 1.669 3.986 5.073 3.986l.202-.002c5.818-.135 9.898-1.096 11.192-2.638.364-.434.524-.942.449-1.429a1.258 1.258 0 0 0-.195-.505l-4.352-6.555a1.255 1.255 0 0 0-1.047-.563z"/><path d="M746.414 441.861c-2.54 0-4.203-1.282-4.449-3.429-.273-2.386 1.281-4.896 3.326-5.371 3.241-.752 7.239-1.621 7.239-1.621a.627.627 0 0 1 .656.267l4.352 6.555a.623.623 0 0 1 .098.252c.033.217.006.555-.309.931-.435.518-2.494 2.224-10.725 2.414l-.188.002z" style="fill:#c69a89"/><path d="m752.663 432.054 4.352 6.555c.115.756-2.464 2.438-10.428 2.623l-.173.002c-5.746 0-4.186-6.816-.981-7.561 3.237-.752 7.23-1.619 7.23-1.619m0-1.256c-.089 0-.178.009-.267.029-.04.009-4.039.878-7.247 1.623-2.336.542-4.115 3.371-3.808 6.054.221 1.927 1.669 3.986 5.073 3.986l.202-.002c5.819-.135 9.898-1.096 11.192-2.639.364-.434.523-.941.449-1.429a1.258 1.258 0 0 0-.195-.505l-4.352-6.555a1.258 1.258 0 0 0-1.047-.562z"/><path d="M756.322 452.725c-2.54 0-4.203-1.282-4.449-3.429-.273-2.386 1.281-4.896 3.326-5.371 3.241-.752 7.239-1.621 7.239-1.621a.627.627 0 0 1 .656.267l4.352 6.555a.623.623 0 0 1 .098.252c.033.217.006.555-.309.931-.435.518-2.494 2.224-10.725 2.414l-.188.002z" style="fill:#c69a89"/><path d="m762.571 442.917 4.352 6.555c.115.756-2.464 2.439-10.428 2.623l-.173.002c-5.746 0-4.186-6.816-.981-7.561 3.237-.751 7.23-1.619 7.23-1.619m0-1.256c-.089 0-.178.009-.267.029-.04.009-4.039.878-7.247 1.623-2.336.542-4.115 3.371-3.808 6.054.221 1.927 1.669 3.986 5.073 3.986l.202-.002c5.818-.135 9.898-1.096 11.192-2.638.364-.434.524-.942.449-1.429a1.258 1.258 0 0 0-.195-.505l-4.352-6.555a1.256 1.256 0 0 0-1.047-.563z"/><path d="M748.746 419.438s-.003 0-.006.003c-.005-.006-.005-.009.006-.003z" style="fill:#e2f2a5;stroke:#000;stroke-width:1.256;stroke-linecap:round;strokeLinejoin:round;stroke-miterlimit:10"/><path d="M769.138 452.653c-.491 0-.978-.039-1.444-.114-5.174-.828-30.778-18.911-33.68-20.971l-.433-.307.358-4.899.167-.222c3.836-5.09 14.336-7.596 14.44-7.618l.54-.115.364.415c.067.055.883.708 1.828 1.463 2.229 1.784 5.961 4.769 9.921 8.064 7.104 5.916 11.77 10.208 13.868 12.758.372.452.709.926 1.003 1.411.515.843.859 1.678 1.023 2.481.364 1.716-.025 3.344-1.124 4.7-1.477 1.823-4.094 2.954-6.831 2.954z" style="fill:#fff"/><path d="M748.742 419.443c.166.189 5.79 4.583 11.854 9.63 5.463 4.549 11.276 9.635 13.743 12.633.366.445.671.881.926 1.301.469.769.764 1.493.905 2.181.843 3.979-3.217 6.523-7.032 6.523-.437 0-.871-.033-1.294-.102-5.108-.818-33.285-20.809-33.285-20.809l.299-4.093c3.579-4.749 13.595-7.202 13.884-7.264m.686-2.074-1.082.232c-.107.023-10.904 2.546-14.993 7.971l-.334.443-.041.553-.299 4.093-.077 1.059.866.615c4.765 3.381 28.803 20.288 34.078 21.133.513.083 1.05.125 1.591.125 3.014 0 5.912-1.265 7.563-3.302 1.266-1.562 1.732-3.513 1.312-5.495-.184-.897-.568-1.834-1.14-2.772a13.186 13.186 0 0 0-1.079-1.517c-2.137-2.597-6.845-6.932-13.992-12.883-3.964-3.3-7.7-6.289-9.932-8.074-.83-.664-1.558-1.246-1.788-1.439l-.653-.742z"/><path d="M775.265 443.007c-6.656-1.547-18.176-4.731-20.154-8.668-1.29-2.557 1.777-4.217 5.485-5.266 5.463 4.549 11.276 9.635 13.743 12.633.366.445.671.881.926 1.301z" style="fill:#dce3f4"/><path d="M767.842 451.611c-5.106-.821-33.284-20.813-33.284-20.813l.299-4.09s19.016 15.548 29.452 20.263c7.701 3.479 11.098 1.87 11.859-1.782.94 4.433-4.208 7.087-8.326 6.422z" style="fill:#c7d3ea"/><ellipse cx="749.926" cy="428.658" rx="5.626" ry="7.417" style="fill:#fff;stroke:#000;stroke-width:1.884;stroke-miterlimit:10" transform="rotate(-54.133 749.876 428.643)"/><ellipse cx="749.926" cy="428.658" rx="2.807" ry="3.701" style="fill:#dce3f4" transform="rotate(-54.133 749.876 428.643)"/><path d="M780.924 445.986c-5.955 0-12.602-9.019-14.012-11.034-.71.186-2.199.493-4.274.493-1.77 0-3.591-.224-5.414-.665-3.294-.796-4.557-2.996-4.637-4.637-.051-.984.273-1.897.912-2.57.659-.694 1.576-1.061 2.651-1.061.275 0 .561.025.851.074.341.057.697.086 1.059.086 2.338 0 4.736-1.214 6.664-2.189 1.432-.725 2.668-1.351 3.66-1.392l.123-.002c1.885 0 8.522 1.685 12.312 2.69 1.609.421 2.712.726 2.712.726a.627.627 0 0 1 .46.629l-.672 17.925a.629.629 0 0 1-.4.562c-.63.242-1.3.365-1.995.365z" style="fill:#c69a89"/><path d="M768.504 423.717c1.781 0 8.373 1.667 12.151 2.669 1.606.42 2.706.724 2.706.724l-.672 17.925a4.846 4.846 0 0 1-1.765.324c-6.301 0-13.752-11.136-13.752-11.136s-1.696.595-4.535.595c-1.473 0-3.254-.16-5.266-.647-2.798-.676-4.079-2.455-4.157-4.057-.082-1.574.999-2.973 2.934-2.973.237 0 .486.021.748.065.388.065.776.095 1.163.095 4.181 0 8.237-3.493 10.35-3.583l.095-.001m0-1.256c-.052 0-.1.001-.146.003-1.13.048-2.423.702-3.919 1.46-1.965.995-4.192 2.122-6.38 2.122-.327 0-.648-.026-.954-.078a5.755 5.755 0 0 0-.956-.083c-1.234 0-2.337.446-3.106 1.257-.759.799-1.143 1.878-1.083 3.038.09 1.854 1.484 4.335 5.116 5.212 1.871.452 3.742.682 5.561.682 1.786 0 3.164-.224 4.009-.412 1.861 2.592 8.327 10.953 14.278 10.953a6.09 6.09 0 0 0 2.219-.409c.467-.181.782-.623.801-1.124l.672-17.925a1.256 1.256 0 0 0-.921-1.258s-1.107-.305-2.722-.728c-4.66-1.236-10.609-2.71-12.469-2.71z"/><path d="M837.291 483.448c-24.604 0-42.625-17.159-53.411-31.554l-.533-.708a.625.625 0 0 1-.086-.153c-.404-1.042-.765-2.606-1.045-4.524-.572-3.887-.924-10.144-.034-14.982.618-3.379 1.742-5.406 3.341-6.025a.655.655 0 0 1 .179-.041c.275-.021.548-.031.82-.031 6.104 0 11.225 5.09 17.154 10.984 2.676 2.66 5.444 5.411 8.556 7.967 7.909 6.491 15.654 9.514 24.376 9.514.393 0 .789-.006 1.189-.019 15.781-.505 19.388-7.481 22.57-13.637 2.293-4.436 4.459-8.625 11.057-8.625.17 0 .342.002.518.008 5.57.178 10.607 4.343 12.833 10.61 3.867 10.892-2.262 21.28-9.287 27.369-4.947 4.289-11.485 7.849-19.432 10.582-6.297 2.167-12.61 3.265-18.765 3.265z" style="fill:#95ad7b"/><path d="M786.522 426.058c8.496 0 15.262 10.556 25.312 18.808 6.46 5.302 14.275 9.657 24.774 9.657.399 0 .802-.006 1.209-.019 27.962-.895 18.894-22.261 33.606-22.262.163 0 .329.003.499.008 12.31.392 21.217 21.22 3.154 36.877-4.564 3.958-10.843 7.58-19.225 10.463-6.578 2.263-12.778 3.23-18.559 3.23-30.749 0-49.855-27.303-53.445-32.014-.384-.991-.739-2.54-1.01-4.388-.641-4.355-.846-10.386-.038-14.778.516-2.827 1.447-4.972 2.95-5.553.259-.019.517-.029.773-.029m0-1.256c-.287 0-.576.011-.867.033a1.231 1.231 0 0 0-.359.081c-1.843.713-3.064 2.838-3.733 6.499-.904 4.912-.548 11.251.031 15.186.287 1.962.661 3.574 1.081 4.659.043.11.101.214.172.308.149.196.326.432.529.703 2.271 3.031 8.304 11.083 17.394 18.229 11.458 9.009 23.745 13.576 36.52 13.576 6.224 0 12.606-1.11 18.968-3.299 8.025-2.76 14.632-6.36 19.64-10.702 4.921-4.265 8.195-9.114 9.733-14.413 1.347-4.641 1.255-9.358-.265-13.641-2.312-6.513-7.574-10.842-13.404-11.028a16.42 16.42 0 0 0-.539-.009c-6.98 0-9.231 4.354-11.614 8.965-3.103 6.002-6.62 12.804-22.032 13.298a38.27 38.27 0 0 1-1.169.018c-8.569 0-16.188-2.978-23.977-9.372-3.09-2.537-5.846-5.277-8.512-7.927-6.029-5.99-11.234-11.164-17.597-11.164z"/><path d="M875.076 469.127c-4.564 3.957-10.843 7.58-19.225 10.463-41.566 14.302-67.74-23.187-72.004-28.784-.384-.991-.739-2.54-1.009-4.388 2.858 3.379 6.92 8.196 13.301 14.113 7.789 7.211 28.461 15.018 53.516 5.96 10.552-3.816 19.872-1.727 25.421 2.636z" style="fill:#779364"/><path d="M812.659 445.979s-6.831-4.315-11.615-9.102c-4.79-4.787-9.543-8.281-12.508-7.507-2.964.78-.953 2.258-2.782 3.025-1.147.48-2.274-.185-2.954-.753.517-2.829 1.448-4.973 2.951-5.558 8.866-.665 15.732 10.282 26.086 18.783l.822 1.112z" style="fill:#e2f2a5"/><path d="M897.576 447.844c2.813-11.509-1.023-16.112-24.808-19.437-23.785-3.325-31.713-1.535-31.713-1.535l-24.296 59.078s36.572 4.859 44.245 1.79 26.086-20.716 26.086-20.716l10.486-19.18z" style="fill:#779364;stroke:#000;stroke-width:1.256;stroke-linecap:round;strokeLinejoin:round;stroke-miterlimit:10"/><path d="M886.585 435.757s-8.774 15.288-15.005 8.537c-15.523-16.816-24.578-17.075-24.578-17.075s34.927 4.14 39.583 8.538z" style="fill:#617a4d"/><path d="M718.567 529.891c-3.81 0-6.442-1.512-7.824-4.493-1.285-2.771-4.266-12.138-4.206-17.703.016-1.504.88-3.297 4.903-3.297 3.856 0 8.745 1.618 8.951 1.687a.629.629 0 0 1 .413.451c.874 3.688 3.484 13.689 5.053 15.657.929 1.166 1.148 2.595.602 3.92-.804 1.951-3.035 3.319-5.966 3.661-.67.077-1.317.117-1.926.117z" style="fill:#c69a89"/><path d="M711.44 505.026c3.798 0 8.752 1.654 8.752 1.654s3.173 13.393 5.173 15.904c2 2.51-.039 5.995-4.946 6.566a16.07 16.07 0 0 1-1.853.113c-3.783 0-6.067-1.566-7.255-4.129-1.371-2.957-4.205-12.079-4.147-17.432.023-2.044 1.93-2.676 4.276-2.676m.002-1.256h-.001c-4.776 0-5.515 2.456-5.531 3.919-.06 5.549 2.785 14.784 4.264 17.974 1.027 2.215 3.317 4.856 8.394 4.856.633 0 1.305-.041 1.998-.122 3.161-.368 5.582-1.88 6.474-4.044.636-1.542.384-3.202-.691-4.552-1.329-1.669-3.731-10.338-4.933-15.411a1.257 1.257 0 0 0-.824-.902c-.212-.069-5.194-1.718-9.15-1.718z"/><path d="M686.461 549.832c6.913 2.153 26.137.737 33.402.311 7.266-.426 18.979-2.48 18.295-11.237-.683-8.756-9.336-19.207-9.336-19.207s-3.133-.058-3.905.714c-1.221 1.221-.89 2.558-3.662 4.273-8.951 5.536-11.19-.203-11.19-.203s1.306-1.987.407-3.459c-.899-1.473.97-2.744-1.351-1.606-1.984.972-4.198 4.765-4.801 5.848-.102.184-.158.291-.158.291s-23.347 14.166-24.611 14.846c-1.265.677-.002 7.276 6.91 9.429z" style="fill:#1c1a19;stroke:#000;stroke-width:1.256;stroke-linecap:round;strokeLinejoin:round;stroke-miterlimit:10"/><path d="M700.324 554.064c-13.387 0-22.452-1.508-24.487-2.998-1.413-1.035-2.341-2.572-2.482-4.113-.121-1.325.343-2.585 1.342-3.644 2.345-2.486 4.513-3.445 4.604-3.484a.64.64 0 0 1 .424-.028c.224.064 5.514 1.599 7.75 3.068 1.85 1.217 3.128 3.523 3.596 4.467l6.362-.555 2.97-2.729a.63.63 0 0 1 .406-.166l10.071-.293c.186 0 .363.083.482.226l2.211 2.652 8.888-1.419c.813-1.586 4.9-8.384 15.216-8.468 2.646 0 3.653 1.688 4.809 5.234.877 2.691.803 5.354-.198 7.126-.62 1.097-1.587 1.825-2.795 2.103-3.291.758-21.383 2.777-36.435 3.001-.93.013-1.843.02-2.734.02z" style="fill:#b3bde0"/><path d="M737.726 537.207c2.118 0 2.995 1.222 4.162 4.801 1.175 3.605.652 7.687-2.537 8.422-3.189.735-21.325 2.762-36.303 2.985-.927.014-1.837.021-2.724.021-13.45 0-22.27-1.525-24.116-2.877-1.969-1.441-3.339-4.398-1.055-6.819 2.284-2.421 4.398-3.339 4.398-3.339s5.397 1.555 7.579 2.99 3.559 4.605 3.559 4.605l7.011-.612 3.127-2.874 10.052-.293 2.44 2.926 9.564-1.528s3.459-8.316 14.798-8.408h.045m0-1.255h-.055c-10.255.083-14.502 6.426-15.629 8.526l-8.217 1.312-1.983-2.377a1.255 1.255 0 0 0-1.001-.451l-10.052.293a1.253 1.253 0 0 0-.813.331l-2.812 2.585-5.73.5c-.607-1.14-1.866-3.179-3.615-4.329-2.315-1.522-7.694-3.082-7.921-3.147a1.25 1.25 0 0 0-.848.055c-.096.042-2.378 1.05-4.811 3.629-1.126 1.194-1.648 2.623-1.51 4.132.157 1.718 1.18 3.423 2.737 4.562 2.509 1.837 12.731 3.119 24.858 3.119.893 0 1.81-.007 2.743-.021 15.096-.224 33.259-2.254 36.566-3.017 1.384-.319 2.491-1.151 3.2-2.406 1.087-1.922 1.18-4.774.249-7.63-1.046-3.21-2.106-5.666-5.356-5.666z"/><path d="M707.359 527.879a.533.533 0 0 1-.162-.024c-2.19-.713-3.712-1.568-4.524-2.542a.628.628 0 0 1-.067-.708c.644-1.157 4.081-4.694 6.239-5.752.544-.267 1.243-.401 2.076-.401.617 0 1.3.073 2.03.218a.626.626 0 0 1 .489.472c.174.74.221 1.451.139 2.113-.124 1-.572 1.997-1.296 2.882-1.245 1.522-2.903 2.588-4.506 3.619a.81.81 0 0 1-.418.123z" style="fill:#b3bde0"/><path d="M710.921 519.08c.599 0 1.251.076 1.909.206.146.62.206 1.256.127 1.892-.117.942-.557 1.825-1.159 2.561-1.194 1.46-2.821 2.5-4.406 3.518-1.771-.577-3.416-1.363-4.237-2.347.603-1.083 3.983-4.521 5.967-5.493.481-.236 1.104-.337 1.799-.337m0-1.256c-.93 0-1.721.157-2.352.466-2.294 1.125-5.82 4.767-6.512 6.01-.253.454-.2 1.017.133 1.416.889 1.065 2.508 1.986 4.812 2.736a1.266 1.266 0 0 0 1.068-.137l.044-.028c1.645-1.058 3.347-2.151 4.655-3.752.799-.977 1.295-2.085 1.433-3.202a6.642 6.642 0 0 0-.151-2.334 1.256 1.256 0 0 0-.978-.944 11.066 11.066 0 0 0-2.152-.231z"/><path d="M714.925 516.563c-4.649 0-8.019-.607-10.015-1.805a.628.628 0 0 1-.271-.335c-.034-.1-3.435-10.195-3.898-24.666-.313-9.833.777-19.396 3.24-28.424 3.918-14.36 14.96-22.269 31.094-22.269 9.598 0 20.389 2.818 29.605 7.731l.127.067c19.16 10.282 49.232 40.888 49.534 41.196a.63.63 0 0 1-.068.94l-29.576 22.504a.626.626 0 0 1-.861-.096c-.301-.358-30.268-35.853-47.189-38.36a8.948 8.948 0 0 0-1.305-.101c-1.984 0-3.518.747-4.688 2.284-6.642 8.717 1.461 38.523 1.543 38.824a.628.628 0 0 1-.486.784c-.09.017-9.007 1.726-16.786 1.726z" style="fill:#3f3734"/><path d="M735.074 439.693c10.223-.001 21.013 3.234 29.31 7.657l.126.066c19.297 10.356 49.382 41.083 49.382 41.083l-29.576 22.504s-30.222-36.006-47.579-38.577a9.748 9.748 0 0 0-1.397-.108c-15.288-.002-3.75 41.903-3.75 41.903s-8.857 1.715-16.666 1.715c-3.905 0-7.548-.429-9.691-1.715 0 0-3.399-9.939-3.865-24.483-.263-8.256.422-17.992 3.218-28.238 4.399-16.124 16.944-21.806 30.488-21.807m.005-1.256v1.256-1.256h-.005c-16.443.001-27.701 8.074-31.7 22.732-2.48 9.087-3.577 18.712-3.262 28.608.467 14.565 3.791 24.436 3.932 24.849.096.281.288.518.542.67 2.124 1.275 5.505 1.894 10.338 1.894 7.84 0 16.539-1.667 16.905-1.738a1.259 1.259 0 0 0 .972-1.567c-.021-.075-2.083-7.62-3.279-16.154-1.547-11.043-.983-18.694 1.631-22.124 1.044-1.37 2.413-2.036 4.186-2.036.385 0 .793.032 1.214.094 16.687 2.472 46.501 37.786 46.801 38.142a1.256 1.256 0 0 0 1.723.192l29.576-22.504a1.254 1.254 0 0 0 .137-1.878c-1.234-1.26-30.441-30.983-49.686-41.311l-.067-.035-.09-.047c-9.276-4.942-20.173-7.787-29.868-7.787z"/><path d="M764.511 447.416c-.965-.247-1.963-.493-2.999-.74-20.212-4.813-33.693-7.702-46.208 3.53-9.742 8.738-12.872 28.167-13.935 39.531-.263-8.256.422-17.992 3.218-28.238 7.719-28.293 40.507-24.433 59.798-14.149l.126.066z" style="fill:#96857e"/><path d="M764.511 447.416c-.965-.247-2.024-.312-2.999-.74-13.078-5.745-34.971-10.51-47.487.723-9.742 8.738-11.593 30.974-12.657 42.339-.263-8.256.422-17.992 3.218-28.238 7.719-28.293 40.507-24.433 59.798-14.149.044.021.083.043.127.065z" style="fill:#fff"/><path d="M732.25 496.982c-1.012 0-1.965-.511-2.685-1.438-1.689-2.17-3.019-8.957-3.486-12.242a31.18 31.18 0 0 1-.224-1.909c-.268-3.183 3.472-11.705 3.631-12.066a.634.634 0 0 1 .233-.274c.628-.406 15.527-9.955 27.586-9.955.207 0 .412.003.616.008.643.012 1.261.057 1.883.137 3.16.395 5.135 1.68 5.87 3.819 1.773 5.169-4.714 13.587-5.506 14.379-.762.762-11.73 1.897-20.891 2.723l-2.151 1.934c.202 1.35.815 6.292-.329 10.168-.853 2.909-2.596 4.716-4.547 4.716z" style="fill:#c69a89"/><path d="M757.306 459.726c.2 0 .4.003.598.008.62.011 1.223.055 1.82.132 12.28 1.535.767 16.364 0 17.131-.767.768-20.711 2.56-20.711 2.56l-2.56 2.302s1.025 5.882-.258 10.229c-.835 2.843-2.437 4.265-3.946 4.265-.798 0-1.57-.398-2.189-1.195-1.502-1.93-2.823-8.168-3.36-11.945a30.26 30.26 0 0 1-.219-1.869c-.258-3.064 3.58-11.765 3.58-11.765s15.232-9.853 27.245-9.853m0-1.256c-12.243 0-27.292 9.645-27.927 10.055a1.251 1.251 0 0 0-.467.548c-.406.92-3.959 9.088-3.682 12.377.038.499.115 1.155.228 1.942.056.394 1.4 9.697 3.613 12.539.84 1.083 1.97 1.68 3.18 1.68 2.241 0 4.214-1.98 5.151-5.167 1.097-3.718.632-8.358.395-10.102l1.747-1.571c19.992-1.806 20.692-2.507 21.07-2.886.08-.08 7.683-9.119 5.656-15.027-.818-2.385-2.968-3.812-6.388-4.239a17.7 17.7 0 0 0-1.953-.141c-.199-.005-.41-.008-.623-.008z"/><path d="M757.905 459.734c-1.853 1.88-4.32 3.826-7.302 4.912-7.061 2.566-16.364 6.737-18.288 7.061-1.93.318-3.854 7.379-4.819 9.944a8.572 8.572 0 0 1-.795 1.562 30.172 30.172 0 0 1-.219-1.869c-.258-3.064 3.58-11.764 3.58-11.764s15.744-10.186 27.843-9.846z" style="fill:#feebd2"/><path d="M734.664 479.557s1.511 1.336 4.069.569" style="fill:#feebd2;stroke:#000;stroke-width:1.256;stroke-linecap:round;strokeLinejoin:round;stroke-miterlimit:10"/><path d="M835.609 428.441s14.644-4.437 24.85 1.775c10.206 6.212 19.969 17.75 30.618 6.656 10.65-11.094.887-22.187-15.975-19.969-16.862 2.22-39.493 11.538-39.493 11.538z" style="fill:#95ad7b;stroke:#000;stroke-width:1.256;stroke-linecap:round;strokeLinejoin:round;stroke-miterlimit:10"/><path d="M886.504 423.21c0 3.433-2.627 6.216-8.905 6.216s-14.44-8.119-14.44-11.552 5.699-.879 11.977-.879c6.278 0 11.368 2.783 11.368 6.215z" style="fill:#779364"/><path d="M895.832 400.029s-1.193 2.081-2.236.949c-1.043-1.132-1.467-10.116 1.309-14.444 2.776-4.327 2.581 9.385 2.501 9.6" style="fill:#feebd2"/><path d="M894.557 387.092c.469-.88.998-1.661 1.569-2.328 1.745-2.048 3.871-3.007 5.823-2.334 3.451 1.187 5.049 7.023 3.571 13.036-.506 2.056-1.305 3.865-2.277 5.308-1.871 2.779-4.379 4.206-6.649 3.423-1.484-.511-2.626-1.882-3.327-3.758" style="fill:#c69a89;stroke:#000;stroke-width:1.256;stroke-linecap:round;strokeLinejoin:round;stroke-miterlimit:10"/><path d="M848.495 426.041c-7.941 0-14.776-1.099-19.766-3.177a28.358 28.358 0 0 1-4.643-2.421c-4.819-3.084-8.734-7.64-11.023-12.826a25.076 25.076 0 0 1-1.11-2.952 23.052 23.052 0 0 1-1.016-5.18 17.663 17.663 0 0 1 .13-4.05c.023-.187.048-.366.087-.558a8.88 8.88 0 0 1 .124-.622 11.29 11.29 0 0 1 .489-1.655c.194-.546.354-1.14.471-1.75l.037-.191c.121-.598.207-1.137.281-1.715.336-2.43.533-5.437.738-8.833l.071-1.064c.159-2.389.323-4.858.544-7.438l.049-.445c.028-.314.058-.637.093-.97l.062-.574c.139-1.275.279-2.562.458-3.859.053-.368.099-.732.14-1.102l.183-1.198c.061-.383.122-.762.188-1.14.011-.095.086-.557.086-.557.036-.207.076-.399.115-.593l.089-.448c.194-1.097.427-2.219.689-3.329.392-1.678.76-3.04 1.157-4.284 2.121-6.855 5.171-11.961 9.324-15.603a38.128 38.128 0 0 1 2.343-1.917c.302-.239.63-.487.958-.717 1.457-1.052 2.814-1.922 4.142-2.653l.285-.161a38.453 38.453 0 0 1 2.049-1.042c.431-.213.874-.419 1.329-.607a39.051 39.051 0 0 1 5.688-1.943 41.16 41.16 0 0 1 6.418-1.119 46.277 46.277 0 0 1 4.409-.215l.333-.001c4.302 0 8.807.525 13.773 1.606a51.855 51.855 0 0 1 10.252 3.364 52.127 52.127 0 0 1 3.649 1.795 51.771 51.771 0 0 1 8.545 5.719l.299.261c.135.117.271.234.405.357.554.465 1.114.987 1.665 1.501l.181.169a.661.661 0 0 1 .075.083c.487.471.99.98 1.457 1.49 7.055 7.508 10.461 16.429 9.846 25.793-.244 3.773-.534 7.809-1.148 12.018a83.157 83.157 0 0 1-.38 2.332c-.027.134-.116.651-.145.792-.018.118-.05.268-.082.415l-.052.248c-.03.195-.069.395-.109.598-2.976 14.394-10.034 24.934-22.223 33.222-.498.344-1.039.675-1.604.981a29.34 29.34 0 0 1-2.601 1.273c-6.972 3.019-17.625 4.892-27.804 4.892z" style="fill:#c69a89"/><path d="M854.498 327.761c4.342 0 8.886.558 13.637 1.592 3.4.731 6.824 1.844 10.13 3.324a50.56 50.56 0 0 1 3.606 1.774 51.11 51.11 0 0 1 8.445 5.651c.224.2.454.389.678.595.631.53 1.243 1.108 1.844 1.667a.47.47 0 0 0 .053.059c.489.477.984.978 1.444 1.479 6.335 6.741 10.336 15.375 9.682 25.328-.247 3.824-.542 7.849-1.143 11.969a84.026 84.026 0 0 1-.377 2.31c-.053.265-.088.519-.141.778-.035.224-.094.454-.135.672-.035.224-.077.43-.118.642-2.357 11.397-7.808 23.159-21.951 32.776-.477.33-.996.648-1.55.949-.784.436-1.638.854-2.552 1.249-6.966 3.014-17.512 4.838-27.554 4.838-7.295 0-14.322-.962-19.524-3.129a27.56 27.56 0 0 1-4.543-2.369c-5.091-3.259-8.704-7.826-10.79-12.552-.43-.961-.79-1.915-1.084-2.882a22.48 22.48 0 0 1-.99-5.044 17.118 17.118 0 0 1 .124-3.907c.024-.188.047-.354.082-.53.035-.206.071-.401.118-.595.118-.548.271-1.073.466-1.579.189-.53.365-1.149.501-1.856.018-.088.035-.183.053-.277.106-.519.194-1.073.271-1.668.336-2.428.536-5.463.742-8.875.177-2.646.359-5.521.613-8.486.018-.142.029-.277.047-.424.029-.33.059-.648.094-.978.159-1.456.312-2.929.519-4.414.053-.371.1-.742.141-1.12.041-.265.077-.519.118-.784.083-.513.159-1.014.248-1.515.024-.188.059-.377.088-.572.059-.336.136-.672.2-1.02.194-1.096.424-2.204.684-3.3a55.292 55.292 0 0 1 1.143-4.237c1.85-5.981 4.691-11.42 9.14-15.322a37.583 37.583 0 0 1 2.304-1.886c.306-.241.625-.483.943-.707a39.665 39.665 0 0 1 4.084-2.616c.088-.053.189-.106.283-.159a38.587 38.587 0 0 1 2.015-1.025c.43-.212.86-.413 1.302-.595a38.304 38.304 0 0 1 5.604-1.915c.018-.006.029-.006.047-.012a40.037 40.037 0 0 1 6.276-1.09 46.208 46.208 0 0 1 4.349-.212h.334m.001-1.256-.344.001c-1.451 0-2.912.071-4.459.218a41.672 41.672 0 0 0-6.474 1.125l-.003.001-.04.01a39.792 39.792 0 0 0-5.788 1.978c-.41.169-.861.375-1.363.623-.64.3-1.321.646-2.059 1.048l-.099.055a6.687 6.687 0 0 0-.229.13c-1.316.724-2.694 1.607-4.174 2.676-.292.206-.618.45-.985.739a38.363 38.363 0 0 0-2.355 1.928c-4.242 3.72-7.354 8.919-9.512 15.895-.398 1.246-.769 2.622-1.166 4.323a60.261 60.261 0 0 0-.697 3.366c-.026.137-.055.283-.085.427-.041.2-.081.397-.116.595l-.036.225c-.021.126-.041.25-.057.374-.065.371-.124.741-.184 1.117l-.062.387-.062.411-.057.38a131.72 131.72 0 0 0-.604 5.016l-.062.573c-.036.34-.067.666-.097 1.003l-.02.181-.022.2c-.228 2.652-.393 5.141-.553 7.549l-.067 1.009c-.205 3.39-.401 6.384-.733 8.786a21.283 21.283 0 0 1-.258 1.588l-.054.283a11.356 11.356 0 0 1-.453 1.681 11.598 11.598 0 0 0-.51 1.736c-.046.19-.087.412-.128.647a8.216 8.216 0 0 0-.091.587 18.238 18.238 0 0 0-.13 4.162 23.738 23.738 0 0 0 1.044 5.323c.308 1.01.681 2.001 1.136 3.018 2.336 5.292 6.335 9.945 11.259 13.096a28.881 28.881 0 0 0 4.745 2.473c6.392 2.663 14.405 3.223 20 3.223 10.258 0 21.007-1.893 28.052-4.941.948-.41 1.844-.849 2.664-1.304a18.272 18.272 0 0 0 1.654-1.013c12.324-8.38 19.465-19.044 22.467-33.555l.016-.081c.04-.203.079-.404.113-.62l.043-.199c.032-.148.064-.297.088-.445.028-.138.051-.275.075-.412a81.681 81.681 0 0 0 .449-2.71c.619-4.244.921-8.459 1.155-12.077.627-9.542-2.838-18.625-10.02-26.269a38.458 38.458 0 0 0-1.456-1.493 1.09 1.09 0 0 0-.1-.104l-.169-.158c-.547-.51-1.113-1.038-1.702-1.534a18.422 18.422 0 0 0-.401-.353c-.09-.078-.18-.155-.269-.235a52.356 52.356 0 0 0-8.69-5.823 52.378 52.378 0 0 0-3.688-1.814 52.433 52.433 0 0 0-10.376-3.404c-5.009-1.092-9.557-1.622-13.901-1.622z"/><path d="M902.873 381.201a71.644 71.644 0 0 1-.378 2.312c-.05.259-.09.512-.14.771-.036.227-.089.451-.134.677-.035.219-.077.428-.119.637-2.355 11.398-7.812 23.156-21.952 32.784-1.161.789-2.537 1.519-4.102 2.192-3.069-.551-6.729-2.049-11.013-3.095-5.826-1.439-9.564 3.01-19.218-6.105-9.655-9.115-9.88-29.853-9.88-29.853s-2.532 12.724-3.357 24.212c-.504 7.045-3.673 12.905-8.147 14.183-6.12-3.919-10.116-9.741-11.881-15.431 1.709 1.558 3.788 2.692 6.18 2.565 7.133-.371 3.408-5.511 4.028-24.795.622-19.292 9.235-26.612 13.105-35.077 3.03-6.607-.071-12.251-1.581-14.408l.285-.162a42.133 42.133 0 0 1 3.321-1.618c9.013-3.883 19.032-4.069 30.246-1.64 4.645 1 9.346 2.726 13.737 5.1a50.803 50.803 0 0 1 8.44 5.652c.227.2.455.392.682.592a41.728 41.728 0 0 1 1.846 1.675 42.357 42.357 0 0 1 1.497 1.533c6.334 6.739 10.329 15.373 9.68 25.327-.25 3.826-.539 7.851-1.145 11.972z" style="fill:#776965"/><path d="M893.43 342.454c-.18-.014-.63-.19-.54-.033 2.107 3.665.965 7.277-1.216 8.466-8.464 4.593-20.452 2.613-30.184-8.755-7.512-8.771-17.051-10.87-24.901-10.548.428-.212.86-.408 1.299-.595a38.561 38.561 0 0 1 5.606-1.914c.016-.005.031-.003.047-.008a72.742 72.742 0 0 1 6.278-1.095c3.601-.455 7.144-.593 10.444-.248 13.67 1.41 24.107 6.658 32.904 14.491.083.082.176.165.263.239z" style="fill:#51453f"/><path d="M854.166 327.765c-5.875.94-11.336 2.745-15.302 4.535-11.222 5.076-18.275 15.921-20.131 28.921-1.856 13-3.539 24.919-4.513 29.64-.973 4.721-2.424 8.26-.688 15.405.097.387.13.748.105 1.1a24.807 24.807 0 0 1-1.084-2.884 22.483 22.483 0 0 1-.99-5.042 17.252 17.252 0 0 1 .125-3.91c.022-.186.049-.356.085-.532.033-.207.071-.398.118-.595.118-.549.269-1.07.464-1.577.191-.53.366-1.153.501-1.858.014-.089.037-.183.052-.279.105-.513.193-1.067.274-1.668.334-2.423.531-5.458.742-8.87.173-2.645.359-5.523.613-8.489l.045-.424c.03-.328.058-.649.095-.977.157-1.459.308-2.927.516-4.415.052-.37.103-.741.141-1.121.042-.266.075-.518.118-.784.081-.509.161-1.012.249-1.513.022-.186.06-.377.091-.569.054-.34.131-.676.201-1.02a56.1 56.1 0 0 1 .678-3.299 56.033 56.033 0 0 1 1.146-4.239c1.849-5.982 4.693-11.419 9.14-15.32a40.77 40.77 0 0 1 2.301-1.889c.311-.238.63-.482.945-.705a40.421 40.421 0 0 1 4.083-2.619c.092-.053.191-.106.283-.159a45.053 45.053 0 0 1 2.019-1.026c.428-.212.86-.408 1.299-.595a38.561 38.561 0 0 1 5.606-1.914c.016-.005.031-.003.047-.008a40.617 40.617 0 0 1 6.278-1.095 46.1 46.1 0 0 1 4.348-.206z" style="fill:#fff"/><path d="M829.104 389.606s.486 2.349 1.83 1.598c1.344-.751 4.544-9.157 3.254-14.133-1.29-4.977-5.375 8.115-5.366 8.344" style="fill:#c69a89"/><path d="M834.344 377.708a12.955 12.955 0 0 0-.766-2.701c-1.021-2.49-2.743-4.063-4.807-4.031-3.649.054-6.985 5.102-7.452 11.275-.159 2.111.036 4.079.511 5.753.913 3.223 2.851 5.361 5.253 5.323 1.569-.023 3.082-.971 4.332-2.535" style="fill:#c69a89;stroke:#000;stroke-width:1.256;stroke-linecap:round;strokeLinejoin:round;stroke-miterlimit:10"/><path d="M855.73 421.389c-8.139-.131-13.393 2.621-16.179 4.689.104.176-.458.64-.609.914-.151.274-.618.823 2.675-.328.56-.171 1.494-.085 2.072-.181 1.206-.2 2.076.123 3.294.042 2.195-.146 4.341-.209 6.512.228 1.519.305 2.996-.337 4.304.483l11.706-.598c-3.093-2.261-5.626-5.117-13.775-5.249z" style="fill:#95ad7b"/><path d="M886.27 425.782s0 4.184-9.413 3.556c-9.413-.628-8.158-7.74-21.127-7.949-12.969-.209-18.617 6.903-18.617 6.903" style="fill:none;stroke:#000;stroke-width:1.256;stroke-linecap:round;strokeLinejoin:round;stroke-miterlimit:10"/><path d="M743.454 536.554a.55.55 0 0 1-.449-.232c-3.082-4.356-5.616-8.925-7.532-13.579-3.68-8.946-4.986-17.925-3.777-25.966 2.345-15.639 7.24-19.921 22.773-19.921 3.438 0 7.563.195 13.795.652.237.017.497.025.773.025 1.111 0 2.537-.125 3.916-.246 1.392-.122 2.831-.248 3.973-.248.469 0 .859.021 1.192.063 6.011.754 11.233 1.797 15.84 2.717 6.296 1.257 11.734 2.343 17.217 2.343 5.255 0 10.139-1.008 15.369-3.172 8.471-3.504 15.926-10.817 21.475-16.796 2.35-2.534 4.596-5.102 6.768-7.584 5.809-6.641 10.826-12.375 15.429-14.814 3.676-1.947 7.977-3.02 12.11-3.02 8.152 0 15.251 4.078 19.989 11.482 1.422 2.234 2.663 4.796 3.689 7.616a.55.55 0 0 1-.267.678 137.929 137.929 0 0 0-17.708 10.799c-5.589 4.015-11.06 8.464-16.723 13.603-.912.826-1.819 1.658-2.726 2.49-4.446 4.077-9.043 8.293-14.174 11.721-12.709 8.487-26.865 13.29-41.462 17.858-7.808 2.444-15.898 4.773-23.036 6.827-3.395.976-7.408 2.15-11.443 3.466-1.905.615-3.82 1.305-5.673 1.972-1.356.489-2.713.977-4.079 1.443-2.064.705-4.181 1.359-6.227 1.992-3.128.967-6.362 1.967-9.463 3.164-3.976 1.527-6.833 2.938-9.267 4.575a.529.529 0 0 1-.302.092z" style="fill:#636f93"/><path d="M882.328 437.325c6.905 0 14.25 2.982 19.527 11.229 1.361 2.139 2.587 4.626 3.636 7.508a138.168 138.168 0 0 0-17.779 10.843c-5.858 4.208-11.432 8.798-16.771 13.642-5.439 4.926-10.713 10.071-16.836 14.16-12.611 8.421-26.954 13.294-41.321 17.791-7.643 2.392-15.327 4.608-23.023 6.824-3.836 1.102-7.667 2.233-11.462 3.471-3.282 1.061-6.494 2.304-9.759 3.418-5.215 1.78-10.56 3.176-15.71 5.162-3.206 1.232-6.476 2.681-9.376 4.632-3.035-4.29-5.563-8.833-7.472-13.471-3.53-8.58-4.974-17.484-3.742-25.675 2.32-15.47 7.057-19.453 22.23-19.453 3.865 0 8.403.258 13.756.65.25.019.523.027.814.027 2.264 0 5.648-.493 7.888-.493.42 0 .799.017 1.123.058 14.111 1.771 23.502 5.064 33.126 5.064 4.913 0 9.885-.858 15.579-3.214 8.02-3.318 15.21-9.971 21.668-16.93 8.551-9.222 15.822-18.987 22.051-22.287 3.365-1.783 7.523-2.956 11.853-2.956m0-1.099c-4.222 0-8.614 1.095-12.368 3.083-4.693 2.486-9.74 8.256-15.585 14.938-2.17 2.48-4.413 5.045-6.757 7.573-5.511 5.938-12.91 13.199-21.282 16.662-5.161 2.136-9.978 3.13-15.159 3.13-5.429 0-10.842-1.081-17.11-2.332-4.616-.922-9.848-1.966-15.879-2.723a10.11 10.11 0 0 0-1.26-.067c-1.165 0-2.616.127-4.02.25-1.367.12-2.781.243-3.868.243-.263 0-.509-.007-.733-.024-6.247-.458-10.385-.653-13.837-.653-15.904 0-20.916 4.383-23.317 20.389-1.224 8.14.094 17.219 3.812 26.257 1.932 4.693 4.486 9.298 7.591 13.688a1.098 1.098 0 0 0 1.511.277c2.397-1.612 5.221-3.006 9.156-4.518 3.085-1.189 6.31-2.187 9.429-3.151 2.05-.634 4.17-1.29 6.242-1.997 1.369-.467 2.748-.963 4.081-1.444 1.85-.667 3.764-1.355 5.661-1.969 4.046-1.319 8.047-2.489 11.427-3.46 7.502-2.16 15.259-4.394 23.048-6.832 14.638-4.581 28.835-9.399 41.603-17.926 5.166-3.45 9.778-7.681 14.239-11.772.907-.832 1.813-1.663 2.724-2.488 5.65-5.126 11.104-9.563 16.675-13.564a137.484 137.484 0 0 1 17.637-10.756c.494-.252.723-.833.533-1.355-1.04-2.856-2.299-5.454-3.741-7.722-4.844-7.569-12.107-11.737-20.453-11.737z"/><path d="M829.089 568.805c-16.991 0-34.295-1.89-47.477-5.185-10.318-2.581-20.232-8.095-28.671-15.947a74.059 74.059 0 0 1-8.711-9.681.552.552 0 0 1 .133-.788c1.693-1.131 3.697-2.202 6.125-3.272 4.041-1.781 8.318-3.099 12.454-4.373 1.143-.352 2.285-.704 3.422-1.065 1.805-.573 3.617-1.229 5.37-1.862.981-.354 1.961-.709 2.947-1.053 3.266-1.138 6.83-2.273 11.216-3.574 2.996-.888 6-1.749 9.003-2.609 4.654-1.333 9.466-2.711 14.165-4.175l1.531-.477c13.454-4.186 27.367-8.514 39.614-15.824 5.599-3.342 11.069-7.516 17.214-13.135 5.723-5.233 10.924-9.923 16.625-14.311 7.055-5.43 14.403-10.126 21.839-13.958a.548.548 0 0 1 .775.323 54.18 54.18 0 0 1 .987 3.528c1.443 5.914 2.175 12.972 2.175 20.979-.005 24.504-7.579 58.099-21.606 72.127-9.11 9.107-30.664 14.331-59.131 14.331.003.001.003.001.001.001z" style="fill:#636f93"/><path d="M906.143 458.006c.351 1.113.68 2.272.977 3.493 1.464 5.997 2.16 13.157 2.16 20.848v.016c-.005 26.111-8.042 58.318-21.446 71.722-10.186 10.182-34.309 14.17-58.745 14.17-17.216 0-34.589-1.98-47.343-5.168-10.739-2.686-20.47-8.409-28.43-15.816a73.487 73.487 0 0 1-8.647-9.609c1.906-1.273 3.984-2.319 6.042-3.226 5.107-2.251 10.513-3.731 15.821-5.417 2.808-.892 5.55-1.951 8.332-2.92 3.698-1.288 7.438-2.453 11.192-3.566 7.718-2.288 15.488-4.392 23.175-6.786 14.103-4.393 28.498-8.734 41.263-16.354 6.296-3.758 11.902-8.262 17.303-13.201 5.391-4.93 10.796-9.821 16.59-14.281 6.839-5.262 14.102-9.96 21.756-13.905m0-1.099c-.173 0-.346.041-.503.122-7.465 3.847-14.84 8.561-21.922 14.012-5.722 4.404-10.931 9.1-16.661 14.34-6.115 5.593-11.557 9.745-17.125 13.069-12.19 7.276-26.069 11.594-39.491 15.77l-1.535.478c-4.699 1.464-9.514 2.843-14.171 4.177-2.948.844-5.996 1.718-8.989 2.604-4.391 1.302-7.963 2.44-11.241 3.582-.985.343-1.965.698-2.945 1.052-1.75.633-3.561 1.288-5.357 1.858-1.137.361-2.279.713-3.422 1.065-4.15 1.278-8.441 2.6-12.51 4.394-2.459 1.084-4.49 2.169-6.21 3.318a1.102 1.102 0 0 0-.268 1.574 74.544 74.544 0 0 0 8.777 9.753c8.506 7.914 18.503 13.474 28.912 16.077 13.224 3.305 30.577 5.201 47.61 5.201 28.615 0 50.31-5.282 59.522-14.491 8.159-8.159 13.219-21.673 16.027-31.573 3.699-13.039 5.737-27.573 5.74-40.926 0-8.066-.737-15.168-2.191-21.125a55.186 55.186 0 0 0-.997-3.563 1.097 1.097 0 0 0-1.05-.768z"/><path d="M909.28 482.348v.016c-1.597 19.987-5.448 42.129-22.776 64.271-12.674 16.195-61.132 19.254-94.342 14.923-15.558-2.028-29-7.647-38.846-14.286-7.626-7.094-13.628-15.739-17.334-24.735 1.299-12.609 10.767-35.145 43.182-26.922 34.175 8.662 60.648-1.93 70.274-17.329 9.626-15.405 16.369-28.885 36.105-31.768 6.672-.976 12.077.137 16.309 2.039 2.16 3.377 3.974 7.642 5.268 12.943 1.464 5.997 2.16 13.156 2.16 20.848z" style="fill:#525f7f"/><path d="M879.765 452.29s-1.24.579-3.2 1.979" style="fill:none;stroke:#000;stroke-width:1.099;stroke-linecap:round;strokeLinejoin:round"/><path d="M870.949 459.123c-4.52 4.614-9.883 11.931-13.807 23.01-8.183 23.105-10.59 63.057-14.922 72.202-2.164 4.567-6.368 7.814-10.035 9.92" style="fill:none;stroke:#000;stroke-width:1.099;stroke-linecap:round;strokeLinejoin:round;stroke-dasharray:7.4321,7.4321"/><path d="M828.875 565.952c-2.067.939-3.503 1.381-3.503 1.381" style="fill:none;stroke:#000;stroke-width:1.099;stroke-linecap:round;strokeLinejoin:round"/><path d="M848.424 462.568c-4.744 18.745-24.85 25.622-36.607 24.155-7.172-.896-22.275-5.416-33.766-9.075 21.315 2.675 31.857 8.822 48.705 1.85 8.02-3.318 15.209-9.971 21.668-16.93z" style="fill:#525f7f"/><path d="M811.174 483.339c-5.602 0-11.094-1.097-17.453-2.367-6.445-1.288-13.751-2.747-22.952-3.42-5.072-.367-8.988-.538-12.321-.538l-.537.001a.627.627 0 0 1-.617-.512c-.322-1.715-1.787-10.566 1.048-16.472a10.572 10.572 0 0 1 1.662-2.521.626.626 0 0 1 .467-.208h.005c2.141.017 5.143.631 8.943 1.41 6.245 1.279 14.017 2.872 22.758 2.872h.002c2.407 0 4.78-.126 7.052-.375 17.228-1.889 27.395-17.861 33.543-29.711 1.814-3.501 5.304-5.748 9.575-6.164.474-.046.958-.069 1.44-.069 4.28 0 8.354 1.75 10.896 4.681 2.136 2.463 3.011 5.547 2.529 8.919-.095.354-7.97 27.152-27.314 39.852-1.05.545-1.982.979-2.906 1.36-5.377 2.225-10.404 3.262-15.82 3.262z" style="fill:#95ad7b"/><path d="M843.79 425.893c6.868 0 13.948 4.87 12.802 12.884 0 0-7.664 26.698-27.037 39.416-.926.477-1.858.916-2.801 1.305-5.693 2.356-10.666 3.214-15.579 3.214-11.182 0-22.047-4.445-40.36-5.785-4.623-.334-8.725-.539-12.357-.539l-.548.001c-.373-1.985-1.705-10.454.998-16.084a9.97 9.97 0 0 1 1.562-2.374c5.487.042 17.528 4.281 31.707 4.281 2.324 0 4.703-.114 7.123-.378 17.696-1.94 27.997-18.414 34.032-30.047 1.875-3.618 5.361-5.466 9.078-5.827a14.09 14.09 0 0 1 1.38-.067m0-1.256c-.503 0-1.008.024-1.502.073-4.487.437-8.158 2.806-10.072 6.5-6.082 11.721-16.125 27.52-33.054 29.376-2.25.246-4.6.371-6.986.371-8.678 0-16.415-1.585-22.632-2.859-3.834-.786-6.862-1.406-9.065-1.423h-.01c-.356 0-.696.151-.934.417a11.178 11.178 0 0 0-1.761 2.672c-2.918 6.078-1.427 15.109-1.099 16.858a1.257 1.257 0 0 0 1.234 1.024h.007l.54-.002c3.311 0 7.209.17 12.267.535 9.161.671 16.446 2.126 22.874 3.409 6.392 1.277 11.912 2.379 17.576 2.379 5.501 0 10.604-1.052 16.059-3.309.94-.388 1.887-.83 2.896-1.349.039-.02.077-.042.114-.067 19.538-12.826 27.237-39.011 27.555-40.119a1.21 1.21 0 0 0 .036-.169c.508-3.557-.417-6.814-2.676-9.419-2.657-3.067-6.907-4.898-11.367-4.898z"/><path d="M833.316 441.939c-7.943 7.702-10.833 21.183-34.899 22.624-18.025 1.085-33.084-2.429-39.509-4.26a9.97 9.97 0 0 1 1.562-2.374c6.387.049 21.649 5.784 38.829 3.903 17.696-1.941 27.997-18.414 34.032-30.047 1.875-3.618 5.361-5.466 9.078-5.827 1.661.905 3.245 2.418 3.662 4.912.961 5.779-4.812 3.367-12.755 11.069z" style="fill:#e2f2a5"/><path d="M776.38 571.247c-.528 0-1.059-.022-1.578-.067-7.917-.675-10.951-6.323-11.076-6.563a.627.627 0 0 1-.071-.275l-.794-32.446a.629.629 0 0 1 .628-.643l29.374 1.64a.627.627 0 0 1 .589.702l-3.966 33.103a.628.628 0 0 1-.255.434c-.139.101-3.456 2.478-8.243 3.576a20.619 20.619 0 0 1-4.608.539z" style="fill:#b3bde0"/><path d="m763.489 531.88 29.339 1.639-3.967 33.103s-3.297 2.39-8.015 3.472a19.895 19.895 0 0 1-4.467.524c-.501 0-1.01-.021-1.524-.065-7.665-.654-10.573-6.228-10.573-6.228l-.72-29.354-.073-3.091m0-1.256a1.255 1.255 0 0 0-1.256 1.286l.074 3.091.72 29.355c.005.192.053.38.142.55.132.253 3.322 6.195 11.579 6.899a19.16 19.16 0 0 0 1.631.069c1.552 0 3.15-.187 4.749-.556 4.909-1.126 8.327-3.575 8.47-3.679.284-.205.468-.52.51-.867l3.967-33.103a1.259 1.259 0 0 0-1.177-1.404l-29.339-1.639-.07-.002z"/><path d="m792.828 533.519-3.967 33.103s-3.297 2.39-8.015 3.472l.335-8.116s-3.725-4.009-4.013-8.591c-.284-4.582 1.433-13.173-3.149-14.321-3.515-.88-8.385-3.106-10.456-4.095l-.074-3.091 29.339 1.639z" style="fill:#919fc6"/><path d="M780.091 538.489c-.793 0-1.59-.027-2.371-.081a37.492 37.492 0 0 1-13.245-3.433c-1.848-.871-2.878-1.56-2.921-1.589a.626.626 0 0 1-.268-.627l.791-4.589a.625.625 0 0 1 .185-.348c.24-.228 5.966-5.59 14.891-5.59.93 0 1.873.06 2.804.179.816.104 1.623.238 2.397.401 8.628 1.816 11.435 6.591 11.55 6.793a.64.64 0 0 1 .061.148l1.319 4.916a.627.627 0 0 1-.332.727c-.26.126-6.448 3.093-14.861 3.093z" style="fill:#b3bde0"/><path d="M777.152 522.859c.879 0 1.787.054 2.725.174.829.105 1.608.238 2.347.393 8.451 1.779 11.133 6.489 11.133 6.489l1.32 4.917s-6.221 3.03-14.587 3.03c-.759 0-1.535-.025-2.326-.079a36.898 36.898 0 0 1-13.021-3.375c-1.826-.86-2.838-1.542-2.838-1.542l.79-4.589c-.001-.001 5.681-5.418 14.457-5.418m.001-1.256h-.002c-9.173 0-15.077 5.529-15.324 5.764-.195.186-.325.43-.371.696l-.79 4.589c-.084.488.126.979.536 1.255.045.03 1.113.745 3.004 1.636a38.138 38.138 0 0 0 13.47 3.492c.794.054 1.606.082 2.413.082 8.557 0 14.872-3.028 15.137-3.157.541-.263.819-.874.663-1.455l-1.32-4.917a1.274 1.274 0 0 0-.122-.296c-.121-.212-3.064-5.223-11.966-7.097a30.615 30.615 0 0 0-2.448-.41 23.01 23.01 0 0 0-2.88-.182z"/><path d="M794.677 534.831s-7.4 3.605-16.914 2.951a36.87 36.87 0 0 1-13.021-3.375c.128-1.098.335-2.522.666-4.333 3.589 2.904 16.575 4.442 20.164 3.418 3.589-1.028 3.76-3.079 1.538-5.812-1.156-1.425-3.2-3.036-4.885-4.255 8.451 1.779 11.133 6.489 11.133 6.489l1.319 4.917z" style="fill:#919fc6"/><path d="M777.74 527.226a3.518 3.518 0 0 1-1.861-.536.628.628 0 0 1-.25-.766l6.961-17.402a.625.625 0 0 1 .362-.354l12.375-4.64a.621.621 0 0 1 .504.027c.157.079.273.22.321.389l.773 2.707a.63.63 0 0 1-.381.76l-10.938 4.148-4.528 13.283a3.527 3.527 0 0 1-3.338 2.384z" style="fill:#c3cdea"/><path d="m795.547 504.115.773 2.707-11.215 4.254-4.623 13.562a2.892 2.892 0 0 1-4.271 1.519l6.961-17.402 12.375-4.64m0-1.257c-.149 0-.298.027-.441.08l-12.375 4.641a1.256 1.256 0 0 0-.725.709l-6.961 17.402a1.257 1.257 0 0 0 .5 1.532c.661.413 1.42.632 2.194.632a4.154 4.154 0 0 0 3.932-2.811l4.433-13.003 10.662-4.044c.61-.231.942-.892.762-1.519l-.773-2.707a1.257 1.257 0 0 0-1.208-.912z"/><path d="M687.202 539.644c-.868 0-1.676-.586-1.966-1.426-.149-.434-.312-1.186-.5-2.3a2.228 2.228 0 0 1 1.151-2.327l.234-.127a1.71 1.71 0 0 1 .812-.207c.862 0 1.585.639 1.68 1.486.016.145.036.29.06.437.166 1.044.238 1.404.265 1.524a2.004 2.004 0 0 1-.145 2.109 2.04 2.04 0 0 1-.668.592 1.9 1.9 0 0 1-.923.239z" style="fill:#b3bde0"/><path d="M686.932 533.885c.514 0 .993.37 1.056.928.017.155.039.311.065.469.256 1.612.303 1.694.314 1.694l.003-.001h.001a1.365 1.365 0 0 1-.088 1.469 1.41 1.41 0 0 1-.464.411c-.197.11-.408.16-.617.16-.59 0-1.164-.401-1.372-1.003-.101-.294-.256-.9-.475-2.199l-.002-.011c-.114-.671.236-1.335.833-1.66l.233-.126a1.07 1.07 0 0 1 .513-.131m0-1.256c-.386 0-.77.098-1.112.283l-.233.126c-1.084.589-1.675 1.784-1.473 2.975.195 1.16.367 1.945.527 2.41.375 1.089 1.428 1.85 2.559 1.85.428 0 .853-.11 1.227-.318a2.65 2.65 0 0 0 .87-.772 2.635 2.635 0 0 0 .234-2.691 36.188 36.188 0 0 1-.241-1.406 8.444 8.444 0 0 1-.057-.412 2.303 2.303 0 0 0-2.301-2.045z"/><path d="M693.144 535.568a2.01 2.01 0 0 1-1.746-1.018c-.093-.13-.249-.351-.599-2.454-.142-.876.304-1.678 1.077-2l.379-.158a1.78 1.78 0 0 1 .687-.139c.893 0 1.644.653 1.786 1.553.133.832.191 1.19.216 1.34a2.018 2.018 0 0 1-.177 2.048 1.925 1.925 0 0 1-.664.581c-.285.16-.62.247-.959.247z" style="fill:#b3bde0"/><path d="M692.943 530.428c.562 0 1.069.418 1.165 1.022l.003.017a77.22 77.22 0 0 0 .235 1.448v-.012a1.377 1.377 0 0 1-.088 1.469 1.308 1.308 0 0 1-.45.395c-.21.117-.439.173-.664.173a1.38 1.38 0 0 1-1.2-.7c-.033-.066-.164-.077-.526-2.248l-.008-.046a1.176 1.176 0 0 1 .706-1.271l.379-.158c.149-.061.3-.089.448-.089m0-1.256c-.318 0-.631.063-.929.187l-.379.158a2.421 2.421 0 0 0-1.464 2.631l.01.062c.33 1.979.502 2.403.695 2.692a2.64 2.64 0 0 0 2.268 1.294c.445 0 .887-.115 1.277-.333.323-.17.619-.429.854-.755a2.648 2.648 0 0 0 .274-2.602l-.199-1.238c-.193-1.221-1.204-2.096-2.407-2.096z"/><path d="M698.95 532.039a2.022 2.022 0 0 1-1.974-1.638 48.793 48.793 0 0 1-.224-1.277 1.88 1.88 0 0 1 .972-1.974l.263-.143a1.83 1.83 0 0 1 .87-.224c.917 0 1.684.672 1.825 1.597.077.489.121.794.122 1.007a1.997 1.997 0 0 1-.853 2.368 1.913 1.913 0 0 1-1.001.284z" style="fill:#b3bde0"/><path d="M698.857 527.412a1.233 1.233 0 0 1 1.207 1.083c.126.793.124.968.099.968-.003 0-.007-.003-.011-.008a1.364 1.364 0 0 1-1.202 1.956 1.4 1.4 0 0 1-1.357-1.13 46.703 46.703 0 0 1-.221-1.259l-.002-.009c-.094-.528.183-1.054.655-1.31l.262-.143c.186-.102.38-.148.57-.148m0-1.256a2.45 2.45 0 0 0-1.17.301l-.262.143a2.507 2.507 0 0 0-1.291 2.633c.106.639.177 1.04.226 1.29a2.65 2.65 0 0 0 2.59 2.145c.468 0 .927-.13 1.328-.375a2.65 2.65 0 0 0 .77-.708 2.63 2.63 0 0 0 .38-2.306 8.965 8.965 0 0 0-.124-.979c-.189-1.248-1.217-2.144-2.447-2.144z"/><path d="M782.725 427.745s-7.316-1.684-10.162-1.982c-2.841-.298-4.646-.139-5.12 1.513-.48 1.654-1.87 3.696-5.544 4.373-2.755.515-6.832-.837-8.686-1.536-.092-1.766 1.28-3.312 3.682-2.908 4.576.771 9.204-3.39 11.513-3.487 1.626-.065 8.398 1.646 12.247 2.667 1.243.809 2.07 1.36 2.07 1.36z" style="fill:#fff"/><path d="M904.017 369.231c-.248 3.824-.542 7.849-1.143 11.968a84.026 84.026 0 0 1-.377 2.31c-.053.265-.088.519-.141.778-.035.224-.094.454-.136.672-.035.224-.077.43-.118.642-2.357 11.397-7.808 23.159-21.951 32.776-.477.33-.996.648-1.55.949 2.946-3.4 7.672-9.063 11.792-14.874 6.553-9.252 11.562-33.53 6.936-47.019-3.695-10.772-14.756-21.049-19.063-24.756a50.56 50.56 0 0 1 3.606 1.774 51.172 51.172 0 0 1 8.445 5.651c.224.2.454.389.678.595.631.53 1.243 1.108 1.844 1.668a.47.47 0 0 0 .053.059c.489.477.984.978 1.444 1.479 6.334 6.741 10.335 15.375 9.681 25.328z" style="opacity:.22;fill:#7695d3"/><path d="M843.661 313.067c-.024-.008-.052-.018-.085-.026.076.019.321.066.518.104 1.431.275 4.557.878 7.889 2.658-.884-.771-1.662-1.303-2.187-1.662-.334-.229-.599-.409-.832-.605l2.755-3.279c-1.242-1.077-2.104-1.644-2.121-1.654l1.538-2.381 1.532-2.387c.156.1 3.869 2.51 7.441 7.022a33.857 33.857 0 0 1 2.459 3.544c.061-.984.189-1.902.365-2.753-1.674-3.411-3.298-5.47-3.318-5.495l2.214-1.77 2.212-1.776c.057.071.742.933 1.695 2.44 1.394-2.019 2.75-3.074 2.949-3.223l3.4 4.539c-.015.011-1.561 1.241-2.694 3.676-.168.361-.317.728-.45 1.102a41.8 41.8 0 0 1 .86 2.149c2.537-5.24 5.163-8.473 5.357-8.707l4.38 3.602c-.018.022-1.742 2.145-3.651 5.675l2.229.79c3.019-3.176 5.693-4.637 5.922-4.759l2.664 5.006c-.042.022-1.924 1.052-4.176 3.346 2.026-1.351 3.533-2.088 3.69-2.164l2.464 5.108c-.03.014-1.103.543-2.613 1.52 3.837-.683 6.798.046 7.138.135l-1.447 5.483c-.022-.006-2.309-.55-5.102.042-3.855.817-6.854 3.35-8.915 7.529l-.136-.067c-.011.09-.019.14-.019.14s-15.583-.383-20.119-4.405c-1.214-4.537-3.623-7.963-7.16-10.183-2.909-1.826-5.866-2.395-7.287-2.669-.505-.097-.839-.161-1.164-.27l1.805-5.375z" style="fill:#35302e;stroke:#000;stroke-width:1.256;stroke-linecap:round;strokeLinejoin:round;stroke-miterlimit:10"/><path d="M873.848 334.901s1.557-9.122 12.22-12.193M869.802 313.291c-4.509 8.978-5.234 15.26-4.586 20.789" style="fill:#35302e;stroke:#000;stroke-width:1.256;stroke-linecap:round;strokeLinejoin:round;stroke-miterlimit:10"/><path d="M862.209 313.708c2.796 6.01 3.057 12.692 3.057 12.692M882.526 318.244s-10.75 4.364-13.328 17.027M851.983 315.803c8.428 5.686 10.123 12.494 9.457 17.534M862.933 311.648s3.914 3.497 3.813 8.488" style="fill:#35302e;stroke:#000;stroke-width:1.256;stroke-linecap:round;strokeLinejoin:round;stroke-miterlimit:10"/><path d="M875.887 313.861s-4.271 8.13-4.762 15.563M868.942 311.141c-1.63-4.129-3.162-5.971-3.162-5.971M851.719 310.256l1.715-1.705s9.473 5.542 11.429 14.2" style="fill:#35302e;stroke:#000;stroke-width:1.256;stroke-linecap:round;strokeLinejoin:round;stroke-miterlimit:10"/><path d="M253.344 553.511c0 3.419-26.91 7.745-44.246 7.745s-33.732-2.072-33.732-5.491c0-3.419 29.253-8.445 46.588-8.445s31.39 2.772 31.39 6.191z" style="opacity:.66;fill:#1a2435"/><path d="M184.067 557.062c-1.777 0-3.353-.285-4.682-.848-2.361-.992-3.511-3.262-2.928-5.782.87-3.745 5.655-7.787 11.868-7.787.271 0 .542.008.817.023 4.225.241 6.67 1.815 9.259 3.482 2.074 1.341 4.188 2.709 7.635 3.569 1.353.341 2.8.578 4.424.722.984.089 1.934.134 2.824.134 7.714 0 9.315-3.366 9.331-3.4l.239-.531.553.188 3.941 1.426-.203.585c-.093.268-2.408 6.564-13.876 6.564a35.91 35.91 0 0 1-3.242-.153c-3.183-.288-5.953-.914-8.466-1.912-2.421-.963-4.188-2.107-5.747-3.116-2.314-1.493-3.981-2.568-6.952-2.737a10.058 10.058 0 0 0-.571-.017c-4.117 0-6.788 2.594-7.125 4.047a1.065 1.065 0 0 0-.03.191c.018.004.058.024.124.052.747.315 1.688.475 2.801.475 2.449 0 5.07-.773 6.115-1.183l.216-.084.219.076c.165.057 1.626.587 2.167 1.532.614 1.061-.361 2.487-.562 2.762l-.11.15-.175.066c-.084.032-.348.132-.752.266-1.39.463-4.164 1.24-7.112 1.24z" style="fill:#b6a0e0"/><path d="M188.325 543.273c.258 0 .518.007.781.022 4.074.232 6.456 1.775 8.982 3.401 2.109 1.364 4.265 2.752 7.797 3.633 1.298.327 2.781.583 4.521.739 1.039.094 1.998.137 2.879.137 8.267 0 9.892-3.739 9.908-3.782l3.359 1.215c-.093.268-2.269 6.142-13.282 6.142-.99 0-2.049-.047-3.186-.15-3.49-.316-6.147-1.019-8.291-1.87-2.365-.941-4.104-2.067-5.64-3.061-2.299-1.483-4.116-2.656-7.255-2.835a10.36 10.36 0 0 0-.606-.017c-4.453 0-7.345 2.844-7.738 4.532-.137.596.036.786.465.965.897.379 1.956.523 3.043.523 2.538 0 5.226-.788 6.344-1.226 0 0 1.388.482 1.829 1.251.441.762-.524 2.079-.524 2.079-.048.018-.31.119-.727.256-1.269.423-4.02 1.209-6.915 1.209-1.501 0-3.044-.208-4.437-.798-2.097-.882-3.079-2.823-2.561-5.063.841-3.633 5.493-7.302 11.254-7.302m0-1.257c-5.078 0-11.293 3.163-12.48 8.273-.656 2.834.639 5.387 3.298 6.505 1.405.594 3.062.896 4.924.896 3.037 0 5.885-.798 7.312-1.274.402-.132.672-.235.756-.266l.348-.132.238-.307c.242-.33 1.409-2.049.599-3.45-.64-1.115-2.198-1.702-2.504-1.809l-.438-.153-.432.169c-1.006.394-3.531 1.139-5.885 1.139-.836 0-1.56-.094-2.159-.281.566-1.146 2.78-3.228 6.39-3.228.175 0 .354.005.535.015 2.806.16 4.414 1.197 6.64 2.633 1.587 1.028 3.383 2.19 5.862 3.176 2.572 1.022 5.399 1.661 8.642 1.954a36.83 36.83 0 0 0 3.299.156c4.874 0 8.746-1.088 11.507-3.235 2.163-1.682 2.847-3.42 2.962-3.751l.406-1.171-1.166-.422-3.359-1.215-1.168-.423-.415 1.11c-.138.25-1.832 3.02-8.752 3.02-.871 0-1.802-.044-2.766-.132-1.592-.142-3.007-.373-4.327-.706-3.35-.836-5.42-2.175-7.421-3.47-2.573-1.657-5.203-3.35-9.593-3.6a20.441 20.441 0 0 0-.853-.021z"/><path d="M192.232 552.89c.441.762-.524 2.079-.524 2.079-.048.018-.31.119-.727.256-1.215-.941-.935-2.019-.578-3.586.001 0 1.389.483 1.829 1.251zM226.551 548.638c-.101.292-2.674 7.243-16.469 5.992-3.49-.316-6.147-1.018-8.291-1.87a764.63 764.63 0 0 1 4.092-2.43c1.298.328 2.782.584 4.521.739 10.78.977 12.77-3.597 12.788-3.645l3.359 1.214z" style="fill:#947cce"/><path d="M230.916 555.707a19.26 19.26 0 0 1-11.88-4.06c-7.979-6.168-9.909-17.601-4.393-26.027a19.424 19.424 0 0 1 9.508-7.601 19.46 19.46 0 0 1 6.797-1.221 19.31 19.31 0 0 1 11.347 3.663c.174.12.356.26.533.397.2.155.375.291.539.433.153.125.318.262.477.409 4.662 4.122 7.075 10.305 6.443 16.531a19.341 19.341 0 0 1-3.96 9.923 19.495 19.495 0 0 1-15.411 7.553z" style="fill:#b6a0e0"/><path d="M230.948 517.427c3.82 0 7.666 1.159 10.98 3.545.177.122.351.256.521.387.17.131.344.266.506.406.156.129.313.257.462.395 4.668 4.128 6.839 10.143 6.244 16.006a18.658 18.658 0 0 1-3.832 9.602c-.31.401-.63.785-.965 1.151-3.673 4.046-8.787 6.158-13.949 6.158a18.732 18.732 0 0 1-11.496-3.929c-7.827-6.051-9.575-17.053-4.251-25.186.269-.417.561-.823.871-1.224a18.748 18.748 0 0 1 8.331-6.132 18.971 18.971 0 0 1 6.578-1.179m0-1.256a20.079 20.079 0 0 0-16.834 9.111c-5.69 8.693-3.698 20.495 4.538 26.862a19.882 19.882 0 0 0 12.264 4.191 20.13 20.13 0 0 0 15.908-7.797 19.955 19.955 0 0 0 4.088-10.247c.652-6.422-1.838-12.805-6.662-17.071-.146-.135-.32-.279-.494-.422a13.18 13.18 0 0 0-.532-.427c-.196-.152-.389-.3-.584-.434a19.908 19.908 0 0 0-11.692-3.766z"/><path d="M245.83 547.77c-.31.401-.63.785-.965 1.151 5.319-8.137 3.571-19.139-4.252-25.186-7.827-6.051-18.915-4.971-25.445 2.23.269-.417.561-.823.871-1.224 6.36-8.228 18.183-9.741 26.41-3.381 8.223 6.356 9.741 18.182 3.381 26.41z" style="fill:#e1c7f2"/><path d="M249.662 538.167c.044-5.491-2.698-11.624-8.032-15.748-5.339-4.127-11.956-5.237-17.259-3.811 5.703-2.118 12.301-1.422 17.558 2.364.177.122.351.257.521.388.17.131.344.266.506.406.157.129.313.257.462.395 4.668 4.128 6.84 10.143 6.244 16.006z" style="fill:#fff"/><path d="M241.311 519.954s-5.312 24.713-26.329 27.022" style="fill:none;stroke:#000;stroke-width:1.256;stroke-miterlimit:10"/><path d="M246.491 524.648s-6.276 25.103-29.548 24.58" style="fill:none;stroke:#000;stroke-width:1.256;stroke-miterlimit:10"/><path d="M212.367 531.578s10.852 6.145 21.573 4.184M212.236 539.292s9.544 3.007 18.958-.261" style="fill:none;stroke:#000;stroke-width:1.256;stroke-miterlimit:10"/><path d="M227.664 517.458s-5.622 9.021-4.184 17.52M237.861 518.765s-6.799 7.191-9.936 16.866M219.427 551.189s22.357 2.746 30.725-13.074" style="fill:none;stroke:#000;stroke-width:1.256;stroke-miterlimit:10"/><path d="M155.631 535.184c0 4.464-43.372 13.521-81.115 13.521s-55.566-9.057-55.566-13.521 30.597-8.083 68.34-8.083 68.341 3.619 68.341 8.083z" style="opacity:.4;fill:#0e1828"/><path d="M111.517 535.597a.624.624 0 0 1-.301-.08c-.12-.067-2.93-1.676-3.125-4.896-.137-2.262 1.018-3.768 3.431-4.477.453-.132.959-.24 1.55-.33.734-.112 2.147-.166 4.321-.166 3.613 0 8.045.158 8.089.16a.616.616 0 0 1 .141.021c2.727.732 16.365 4.563 17.064 8.059.096.478.033 1.184-.81 1.834a.628.628 0 0 1-.384.131l-29.976-.256z" style="fill:#cc93cc"/><path d="M117.396 526.276c3.643 0 8.064.159 8.064.159s20.341 5.464 16.034 8.79l-29.972-.256s-2.628-1.472-2.804-4.386c-.139-2.292 1.24-3.325 2.981-3.836.47-.137.966-.236 1.468-.312.783-.119 2.409-.159 4.229-.159m0-1.256c-2.207 0-3.652.057-4.418.173-.616.094-1.15.207-1.631.348-3.405 1-3.991 3.335-3.883 5.118.215 3.559 3.313 5.333 3.445 5.406.184.103.392.158.603.16l29.972.256h.011c.278 0 .548-.092.768-.262 1.155-.892 1.149-1.921 1.042-2.455-.733-3.66-12.495-7.193-17.518-8.542a1.272 1.272 0 0 0-.281-.042c-.045-.002-4.486-.16-8.11-.16z"/><path d="M111.522 535.597a.625.625 0 0 1-.307-.08c-.12-.067-2.93-1.676-3.125-4.896-.137-2.262 1.018-3.768 3.431-4.477a.63.63 0 0 1 .275-.017c2.382.377 3.66 2.824 3.653 4.934-.007 2.399-1.513 4.177-3.834 4.53a.947.947 0 0 1-.093.006z" style="fill:#6d5996"/><path d="M111.699 526.746c3.737.592 4.636 7.491-.177 8.223 0 0-2.628-1.472-2.804-4.386-.139-2.292 1.24-3.325 2.981-3.837m0-1.256c-.12 0-.239.017-.354.051-3.403.999-3.989 3.334-3.881 5.117.215 3.559 3.313 5.333 3.445 5.406a1.261 1.261 0 0 0 .803.146c2.645-.402 4.359-2.423 4.368-5.148.007-2.372-1.456-5.125-4.183-5.557a1.33 1.33 0 0 0-.198-.015z"/><path d="M118.667 528.9c-2.224 0-3.894-.832-4.581-2.283-1.316-2.781 1.018-6.379 1.118-6.531a.628.628 0 0 1 .392-.268c.138-.03 3.424-.734 6.448-.734 2.251 0 3.75.384 4.583 1.173.169.16.235.4.173.625-.167.598-1.701 5.882-4.109 7.113-1.111.566-2.615.905-4.024.905z" style="fill:#6d5996"/><path d="M122.044 519.712c1.73 0 3.349.241 4.15 1 0 0-1.557 5.582-3.789 6.723-.986.504-2.383.837-3.737.837-1.712 0-3.355-.532-4.014-1.924-1.181-2.493 1.075-5.917 1.075-5.917s3.323-.719 6.315-.719m0-1.256c-3.091 0-6.441.718-6.582.748-.321.07-.602.262-.783.537-.271.411-2.603 4.101-1.161 7.145.795 1.679 2.672 2.642 5.149 2.642 1.504 0 3.115-.364 4.309-.975 2.591-1.325 4.143-6.483 4.427-7.504a1.257 1.257 0 0 0-.345-1.249c-.954-.904-2.594-1.344-5.014-1.344z"/><path d="M114.323 523.053a.635.635 0 0 1-.351-.119c-.111-.081-2.718-2.008-2.534-5.232.129-2.263 1.454-3.624 3.935-4.044a12.767 12.767 0 0 1 1.578-.145l.225-.004c1.122 0 3.456.239 6.939.711 2.733.364 5.158.741 5.158.741a.63.63 0 0 1 .391.224c.085.104 2.078 2.593 1.288 5.217-.354 1.169-1.199 2.163-2.511 2.954a.628.628 0 0 1-.324.09l-13.794-.393z" style="fill:#efcaed"/><path d="M117.176 514.137c1.316 0 4.23.35 6.856.706 2.728.363 5.146.739 5.146.739s1.876 2.305 1.173 4.64c-.274.905-.929 1.811-2.234 2.597l-13.776-.393s-2.442-1.769-2.275-4.688c.131-2.293 1.62-3.156 3.413-3.46a12.227 12.227 0 0 1 1.697-.141m0-1.256a13.323 13.323 0 0 0-1.896.156c-3.51.595-4.366 2.846-4.468 4.629-.203 3.563 2.67 5.688 2.792 5.776.204.148.449.231.701.239l13.776.393h.036c.228 0 .453-.062.648-.18 1.449-.874 2.387-1.987 2.787-3.308.885-2.941-1.308-5.682-1.401-5.797a1.25 1.25 0 0 0-.781-.448c-.024-.004-2.463-.381-5.173-.742-3.511-.477-5.874-.718-7.021-.718z"/><path d="M130.351 520.221c-.274.905-.929 1.811-2.234 2.597l-13.776-.393s-2.442-1.769-2.275-4.687c.131-2.293 1.62-3.157 3.413-3.46.482-.077.983-.119 1.495-.137 1.197-.042 4.288.328 7.058.703-.024 1.423.119 4.086 1.34 4.836 1.078.66 3.412.642 4.979.541z" style="fill:#cc93cc"/><path d="M114.338 523.052a.628.628 0 0 1-.369-.12c-.111-.081-2.713-2.008-2.529-5.229.128-2.263 1.451-3.623 3.932-4.044a.62.62 0 0 1 .275.014c2.321.653 3.304 3.232 3.051 5.328-.288 2.382-1.991 3.971-4.338 4.049-.008.002-.015.002-.022.002z" style="fill:#9a77b2"/><path d="M115.477 514.279c3.642 1.025 3.727 7.983-1.139 8.145 0 0-2.438-1.769-2.271-4.685.131-2.292 1.62-3.156 3.41-3.46m0-1.256c-.07 0-.141.006-.21.018-3.497.594-4.352 2.844-4.454 4.627-.203 3.559 2.666 5.684 2.788 5.773.215.156.473.24.738.24l.042-.001c2.674-.089 4.613-1.896 4.941-4.602.285-2.354-.846-5.26-3.504-6.008a1.236 1.236 0 0 0-.341-.047z"/><path d="M126.788 454.754a.628.628 0 0 1-.471-.235l-13.425-16.73a.628.628 0 0 1 .117-.898c.195-.144 4.873-3.54 12.439-4.413a9.24 9.24 0 0 1 1.047-.062c.234 0 .459.01.676.032 1.611.138 2.912.806 3.86 1.984 2.171 2.699 1.836 7.328 1.591 9.193-.76 5.795-5.164 10.717-5.351 10.924a.626.626 0 0 1-.465.207c-.005-.002-.011-.002-.018-.002z" style="fill:#fff"/><path d="M126.496 433.043c.213 0 .418.01.615.029 5.765.494 5.187 8.204 4.89 10.471-.743 5.667-5.194 10.584-5.194 10.584l-8.702-10.846-4.723-5.885s4.652-3.431 12.138-4.294c.342-.039.668-.059.976-.059m0-1.256c-.351 0-.726.022-1.117.067-7.733.892-12.542 4.384-12.743 4.532a1.255 1.255 0 0 0-.234 1.797l4.723 5.885 8.702 10.846c.23.287.575.459.942.469l.037.001c.354 0 .693-.15.931-.413.193-.213 4.723-5.276 5.508-11.263.255-1.946.598-6.782-1.725-9.67-1.059-1.316-2.507-2.062-4.303-2.216a7.022 7.022 0 0 0-.721-.035z"/><path d="M127.111 433.072c-.996.405-2.129 1.015-3.782 3.109-1.675 2.121-4.044 4.503-5.223 7.1l-4.723-5.885s4.652-3.431 12.138-4.294a7.519 7.519 0 0 1 1.59-.03z" style="fill:#dce3f4"/><path d="M36.851 399.427s14.392 26.694 13.844 51.097" style="fill:none;stroke:#000;stroke-width:1.256;stroke-linecap:round;strokeLinejoin:round;stroke-miterlimit:10"/><path d="m52.473 453.299-4.638-.511a.628.628 0 0 1-.558-.662c.003-.043.269-4.374.915-8.111a.63.63 0 0 1 .256-.406 4.303 4.303 0 0 1 2.488-.801c.782 0 1.323.212 1.381.236a.629.629 0 0 1 .389.549l.463 9.05a.625.625 0 0 1-.696.656z" style="fill:#dce3f4"/><path d="M50.935 443.436c.681 0 1.144.19 1.144.19l.463 9.05-4.638-.511s.259-4.295.906-8.042a3.639 3.639 0 0 1 2.125-.687m0-1.256c-1.015 0-2 .317-2.849.916a1.257 1.257 0 0 0-.514.813c-.651 3.771-.911 8.001-.922 8.18a1.256 1.256 0 0 0 1.116 1.324l4.638.511a1.259 1.259 0 0 0 1.393-1.312l-.463-9.05a1.257 1.257 0 0 0-.777-1.098c-.116-.047-.737-.284-1.622-.284z"/><path d="M43.85 498.127a1.607 1.607 0 0 1-1.608-1.479l-3.895-45.201a.627.627 0 0 1 .459-.659c.375-.103 9.237-2.526 12.215-2.526.146 0 .28.006.398.017 2.463.232 25.59 4.312 26.573 4.485.282.05.495.285.517.57.006.074.576 7.527.835 15.938.701 22.233-1.491 24.23-2.212 24.886-1.878 1.708-5.777 2.574-11.589 2.574-3.221 0-5.973-.282-6.451-.333l-15.064 1.719c-.061.006-.12.009-.178.009z" style="fill:#dce3f4"/><path d="M51.022 448.889c.125 0 .238.005.339.014 2.466.232 26.522 4.479 26.522 4.479s.572 7.415.834 15.909c.328 10.387.196 22.395-2.007 24.402-2.152 1.957-7.07 2.41-11.165 2.41-3.533 0-6.453-.337-6.453-.337l-5.194.59-4.121.471-5.819.667a.986.986 0 0 1-1.09-.899l-3.746-43.467-.149-1.733c0-.002 9.122-2.506 12.049-2.506m0-1.256c-3.062 0-12.003 2.445-12.382 2.549-.584.16-.971.715-.919 1.319l.149 1.733 3.747 43.468a2.231 2.231 0 0 0 2.475 2.04l5.828-.668 4.121-.471 5.053-.573c.645.069 3.291.329 6.451.329 5.972 0 10.013-.921 12.01-2.737.856-.78 3.128-2.849 2.418-25.371a393.259 393.259 0 0 0-.837-15.966 1.255 1.255 0 0 0-1.034-1.14c-.984-.174-24.135-4.258-26.623-4.493a5.224 5.224 0 0 0-.457-.019z"/><path d="M76.71 493.693c-4.008 3.645-17.618 2.073-17.618 2.073l-5.194.59-4.122.471c-.161-13.342.965-40.424 12.8-40.162 7.123.155 12.454 6.141 16.141 12.627.328 10.386.197 22.394-2.007 24.401z" style="fill:#c6cee0"/><path d="M43.781 496.596a.984.984 0 0 0 1.093.895l9.94-1.135-2.976-43.239a1.808 1.808 0 0 0-2.112-1.657l-9.69 1.668 3.745 43.468z" style="fill:#919fc6"/><path d="M130.008 481.367c-1.657 0-4.229-.889-7.485-2.014l-.256-.088c-5.398-1.872-13.554-4.7-22.458-4.7-2.043 0-4.063.15-6.003.445-19.741 2.994-34.892 4.222-35.043 4.234l-.05.002a.629.629 0 0 1-.621-.534c-.057-.377-1.299-9.44 7.432-27.068 1.314-2.651 2.856-5.103 4.585-7.288 6.71-8.518 16.245-13.21 26.847-13.21 4.543 0 9.162.863 13.729 2.564 22.241 8.292 22.556 40.325 21.688 45.874-.128.814-.64 1.783-2.365 1.783z" style="fill:#fff"/><path d="M96.954 431.774c4.405 0 8.959.829 13.51 2.525 21.871 8.154 22.115 39.894 21.287 45.189-.138.89-.741 1.252-1.743 1.252-1.592 0-4.192-.913-7.537-2.068-5.778-2.004-13.785-4.735-22.664-4.735a40.42 40.42 0 0 0-6.098.452c-19.947 3.026-34.998 4.229-34.998 4.229s-1.37-9.041 7.374-26.695c1.31-2.645 2.823-5.039 4.515-7.177 6.691-8.494 16.119-12.972 26.354-12.972m0-1.256c-10.799 0-20.509 4.777-27.342 13.45-1.755 2.218-3.321 4.708-4.654 7.397-8.818 17.804-7.548 27.056-7.49 27.441a1.256 1.256 0 0 0 1.342 1.064c.151-.012 15.324-1.241 35.086-4.239a39.37 39.37 0 0 1 5.91-.438c8.801 0 16.896 2.808 22.252 4.666l.259.09c3.441 1.189 5.927 2.048 7.689 2.048 2.369 0 2.876-1.619 2.984-2.316.88-5.626.544-38.12-22.089-46.558-4.636-1.729-9.329-2.605-13.947-2.605z"/><path d="M122.542 476.533s-.024.786-.071 2.138c-7.076-2.454-17.493-5.998-28.762-4.282-19.947 3.026-34.998 4.229-34.998 4.229s-1.37-9.041 7.374-26.695c1.31-2.645 2.823-5.039 4.515-7.177 9.56-6.73 24.753-14.098 35.903-9.351 16.385 6.974 16.039 41.138 16.039 41.138z" style="fill:#dce3f4"/><path d="M59.676 479.408s-.614-12.745 4.627-19.864c.177-1.382 2.941-1.027 2.965 1.679.024 2.706-5.732 15.774 12.626 16.856 18.357 1.08-20.218 1.329-20.218 1.329z" style="fill:#dce3f4"/><path d="M65.44 456.648s-4.911-9.047-4.181-16.775c.73-7.728 4.801-9.795 9.875-10.205 5.898-.476 17.061 6.657 17.061 6.657" style="fill:#dce3f4;stroke:#000;stroke-width:1.256;stroke-linecap:round;strokeLinejoin:round;stroke-miterlimit:10"/><path d="M91.591 462.929c-.3 0-.596-.005-.889-.018-2.375-.097-4.225-2.478-4.711-6.065-.917-6.762 3.197-15.674 14.394-19.262 2.436-.781 4.852-1.176 7.181-1.176.815 0 1.633.048 2.431.145 13.254 1.582 19.859 15.396 19.501 18.754-.374 3.539-2.562 3.817-7.082 4.069l-1.423.076c-1.613.083-3.621.187-5.975.382-4.948.413-9.216 1.155-12.982 1.81-3.967.69-7.394 1.285-10.445 1.285z" style="fill:#fee67f"/><path d="M107.567 437.036c.807 0 1.591.048 2.354.14 12.579 1.501 19.31 14.706 18.952 18.065-.31 2.93-1.793 3.246-6.492 3.508-1.9.107-4.33.202-7.415.458-10.2.851-17.524 3.094-23.375 3.094-.292 0-.579-.006-.864-.017-5.998-.244-7.864-18.426 9.849-24.102 2.482-.795 4.815-1.146 6.991-1.146m0-1.256c-2.395 0-4.876.406-7.374 1.207-5.458 1.749-9.706 4.859-12.286 8.995-2.1 3.366-3.025 7.357-2.538 10.949.529 3.905 2.613 6.499 5.308 6.609.301.012.606.018.915.018 3.105 0 6.557-.6 10.553-1.295 3.753-.653 8.006-1.393 12.926-1.803 2.337-.194 4.335-.297 5.94-.38.511-.026.991-.051 1.441-.076 4.193-.234 7.224-.403 7.67-4.63.447-4.197-7.03-17.89-20.052-19.444-.821-.1-1.663-.15-2.503-.15z"/><path d="M128.874 455.24c-.31 2.93-1.793 3.246-6.492 3.508.018-2.853-.506-7.665-3.502-12.543-2.758-4.503-6.182-7.38-8.958-9.029 12.579 1.501 19.309 14.705 18.952 18.064z" style="fill:#fff2bb"/><path d="M113.829 457.164c-3.884 0-7.477-2.721-8.939-6.771-.215-.6-.381-1.22-.495-1.845-.66-3.76.728-7.472 3.535-9.458a7.935 7.935 0 0 1 4.59-1.457c3.882 0 7.473 2.723 8.937 6.776.893 2.471.879 5.105-.037 7.416-.926 2.335-2.661 4.063-4.885 4.866a7.962 7.962 0 0 1-2.706.473z" style="fill:#35302e"/><path d="M112.52 438.182c3.54 0 7.006 2.497 8.42 6.413 1.751 4.848-.304 10.03-4.592 11.579a7.398 7.398 0 0 1-2.519.44c-3.541 0-7.009-2.493-8.422-6.408a11.256 11.256 0 0 1-.471-1.757c-.625-3.562.685-7.052 3.312-8.91a7.38 7.38 0 0 1 4.272-1.357m0-1.099a8.484 8.484 0 0 0-4.903 1.556c-2.984 2.111-4.46 6.035-3.764 10 .12.659.294 1.309.518 1.937 1.543 4.271 5.343 7.138 9.458 7.138.99 0 1.964-.17 2.892-.505 2.374-.857 4.224-2.697 5.209-5.18.966-2.436.981-5.208.043-7.805-1.541-4.272-5.34-7.141-9.453-7.141z"/><path d="M112.298 449.08c-2.073.715-5.223.018-7.362-.631-.625-3.562.685-7.052 3.312-8.91 3.121 3.282 6.474 8.702 4.05 9.541z" style="fill:#4c4542"/><path d="M35.786 402.619a3.202 3.202 0 0 1-3.144-2.705c-.127-.84.08-1.68.584-2.365a3.16 3.16 0 0 1 2.567-1.296 3.203 3.203 0 0 1 3.143 2.704 3.187 3.187 0 0 1-3.15 3.662z" style="fill:#cc93cc"/><path d="M35.792 396.881a2.554 2.554 0 1 1-.006 5.109 2.554 2.554 0 1 1 .006-5.109m0-1.256a3.83 3.83 0 0 0-.575.044 3.784 3.784 0 0 0-2.496 1.508 3.784 3.784 0 0 0-.699 2.832 3.835 3.835 0 0 0 3.765 3.239c.192 0 .385-.015.575-.044a3.784 3.784 0 0 0 2.496-1.508c.603-.82.852-1.825.699-2.832a3.835 3.835 0 0 0-3.765-3.239z"/><path d="M93.231 523.551a53.05 53.05 0 0 1-3.633-.125c-9.194-.622-17.066-3.678-23.396-9.083-11.032-9.417-13.569-22.918-13.594-23.053a.625.625 0 0 1 .157-.537c.38-.412 9.704-10.111 44.425-12.661 1.974-.146 4-.243 6.024-.288l.476-.007c.305-.005.606-.01.908-.01l.701-.002c4.524 0 8.772.314 12.627.934 17.715 2.833 22.489 11.079 22.683 11.429a.623.623 0 0 1 .073.39l-.721 5.277a35.24 35.24 0 0 1-.614 2.167c-5.112 16.379-20.187 24.978-44.807 25.553a52.52 52.52 0 0 1-1.309.016z" style="fill:#cc93cc"/><path d="M105.301 478.413c4.766 0 8.918.346 12.524.926 17.618 2.817 22.234 11.114 22.234 11.114l-.721 5.277a37.944 37.944 0 0 1-.59 2.061c-2.889 9.256-11.358 24.348-44.224 25.117a52.117 52.117 0 0 1-4.885-.107c-10.215-.691-17.654-4.342-23.032-8.934-10.989-9.381-13.383-22.687-13.383-22.687s9.137-9.899 44.009-12.46a115.55 115.55 0 0 1 5.992-.286c.465-.006.917-.018 1.37-.018l.706-.003m.001-1.256-.714.002h-.002c-.3 0-.608.005-.921.011l-.454.007c-2.047.045-4.085.142-6.068.289-34.964 2.568-44.453 12.442-44.839 12.861a1.254 1.254 0 0 0-.313 1.074c.101.561 2.603 13.857 13.804 23.42 6.436 5.495 14.431 8.601 23.763 9.232a54.224 54.224 0 0 0 4.999.11c24.917-.583 40.19-9.33 45.392-25.998.205-.641.399-1.317.607-2.12a1.43 1.43 0 0 0 .029-.145l.721-5.277a1.257 1.257 0 0 0-.147-.781c-.201-.361-5.12-8.863-23.133-11.744-3.892-.624-8.172-.941-12.724-.941z"/><path d="M115.568 517.327c-6.275 3.923-17.052 4.556-25.927 5.474-31.109-2.108-36.415-31.621-36.415-31.621s9.137-9.899 44.009-12.46a115.55 115.55 0 0 1 5.992-.286c6.468.286 11.894 1.09 15.48 2.287 10.983 3.657 7.874 29.721-3.139 36.606z" style="fill:#9a77b2"/><path d="m140.059 490.453-.721 5.277a37.944 37.944 0 0 1-.59 2.061c-3.049-4.306-18.488-20.918-68.679-7.397 1.828 4.443 2.091 10.721.786 16.999-.506 2.43-2.12 4.783-4.247 6.474-10.989-9.381-13.383-22.687-13.383-22.687s9.137-9.899 44.009-12.46a115.55 115.55 0 0 1 5.992-.286c.465-.006.917-.018 1.37-.018 4.086.226 8.69.548 13.228.923 17.619 2.817 22.235 11.114 22.235 11.114z" style="fill:#6d5996"/><path d="M140.381 496.358a.628.628 0 0 1-.628-.638l.025-1.562c-1.439-1.386-11.857-10.625-33.6-10.625-.916 0-1.848.016-2.804.049-25.619.898-49.725 8.126-49.966 8.199a.632.632 0 0 1-.508-.064l-1.322-.804-.682-.409a.626.626 0 0 1-.305-.517l-.208-6.123a6.32 6.32 0 0 1 4.309-6.233c3.614-1.226 9.43-3.018 16.625-4.596l.054-.015c9.923-2.165 19.45-3.262 28.316-3.262 1.314 0 2.631.024 3.915.073 19.434.737 31.019 7.331 36.196 11.196a8.266 8.266 0 0 1 3.349 6.514l.131 7.762c.005.047.006.135.006.224a.628.628 0 0 1-.572.625c0 .001-2.312.206-2.331.206z" style="fill:#efcaed"/><path d="M99.687 470.385c1.292 0 2.59.024 3.892.073 19.327.733 30.811 7.314 35.844 11.073a7.683 7.683 0 0 1 3.097 6.021l.101 5.831.03 1.93c.006.072.006.143.006.215l-2.275.202.03-1.829s-10.254-10.996-34.234-10.997c-.922 0-1.862.016-2.825.05-26.004.911-50.126 8.225-50.126 8.225l-1.322-.804-.685-.411-.208-6.123a5.73 5.73 0 0 1 3.883-5.616c3.615-1.227 9.446-3.02 16.599-4.586.006-.006.006-.006.012-.006 8.122-1.772 17.946-3.248 28.181-3.248m0-1.256c-8.909 0-18.481 1.102-28.449 3.276v.001c-.026.006-.052.012-.078.02-7.217 1.583-13.046 3.38-16.67 4.609a6.944 6.944 0 0 0-4.735 6.847l.208 6.124c.014.426.244.815.609 1.034l.685.411 1.316.8a1.256 1.256 0 0 0 1.017.129c.24-.073 24.275-7.277 49.806-8.172a78.779 78.779 0 0 1 2.777-.049c20.717.001 31.013 8.459 32.973 10.265l-.021 1.285a1.254 1.254 0 0 0 1.367 1.271l2.275-.202a1.256 1.256 0 0 0 1.145-1.251c0-.09-.001-.179-.007-.269l-.029-1.895-.101-5.833a8.886 8.886 0 0 0-3.601-7.006c-5.235-3.909-16.944-10.578-36.548-11.321a104.37 104.37 0 0 0-3.939-.074z"/><path d="m140.381 495.73.03-1.829s-11.054-11.859-37.059-10.947c-26.004.911-50.126 8.225-50.126 8.225l-1.322-.804c19.345-6.683 28.836-7.872 45.898-9.444 21.262-1.958 32.668 4.602 37.719 7.294 4.842 2.585 6.998 5.372 7.129 7.088.006.072.006.143.006.214l-2.275.203z" style="fill:#cc93cc"/><path d="M142.62 493.383c-.727-1.209-1.787-2.728-2.948-3.586.226-3.925.447-6.51-.899-7.856s-17.06-11.448-40.746-10.776c-9.602.272-19.869 1.562-26.522 2.467 9.149-1.995 20.453-3.615 32.073-3.175 19.327.733 30.811 7.314 35.844 11.072a7.683 7.683 0 0 1 3.097 6.022l.101 5.832z" style="fill:#fff"/><path d="M121.933 511.209a.959.959 0 0 0 .484-.223c6.73-5.778 6.521-13.831 6.509-14.171a.969.969 0 0 0-1.935.068c.003.097.16 7.488-5.835 12.634a.968.968 0 0 0 .777 1.692zM115.332 509.78a.959.959 0 0 0 .484-.223c6.731-5.778 6.521-13.831 6.509-14.171a.969.969 0 0 0-1.935.068c.003.097.16 7.488-5.835 12.634a.968.968 0 0 0 .777 1.692zM108.704 510.179a.959.959 0 0 0 .484-.223c6.731-5.778 6.521-13.831 6.509-14.171a.969.969 0 0 0-1.935.068c.003.097.16 7.488-5.835 12.634a.968.968 0 0 0 .777 1.692zM101.78 510.623a.955.955 0 0 0 .484-.223c6.73-5.778 6.521-13.831 6.509-14.171a.969.969 0 0 0-1.935.068c.003.097.16 7.488-5.835 12.634a.968.968 0 0 0 .777 1.692z" style="fill:#35302e;stroke:#000;stroke-width:1.099;stroke-linecap:round;strokeLinejoin:round;stroke-miterlimit:10"/><path d="M56.269 510.647a.626.626 0 0 1-.628-.618l-.322-20.733a.629.629 0 0 1 .618-.638l5.424-.084c4.949 0 9.051 4.871 9.145 10.858a12.711 12.711 0 0 1-.727 4.51c-1.395 3.965-4.611 6.566-8.193 6.622l-5.317.083z" style="fill:#cc93cc"/><path d="M61.363 489.201c4.627 0 8.428 4.553 8.516 10.239a12.117 12.117 0 0 1-.691 4.288c-1.269 3.609-4.181 6.153-7.612 6.206l-5.307.083-.095-6.29-.226-14.444 5.307-.083c.036.002.072.001.108.001m0-1.256-.127.001-5.307.083a1.256 1.256 0 0 0-1.236 1.276l.226 14.444.095 6.289a1.257 1.257 0 0 0 1.255 1.237h.02l5.307-.083c3.849-.06 7.294-2.826 8.777-7.046.53-1.477.788-3.069.762-4.724-.099-6.329-4.483-11.477-9.772-11.477z"/><path d="M69.188 503.729c-1.269 3.609-4.181 6.153-7.612 6.206l-5.307.083-.095-6.29h13.014z" style="fill:#b985ba"/><path d="M56.159 510.65c-4.95 0-9.052-4.87-9.146-10.855-.095-6.063 3.908-11.059 8.922-11.138l.12-.001c4.949 0 9.052 4.87 9.146 10.855.045 2.914-.843 5.673-2.5 7.77-1.688 2.134-3.968 3.33-6.421 3.368l-.121.001z" style="fill:#9a77b2"/><path d="M56.056 489.284c4.626 0 8.429 4.556 8.517 10.237.089 5.726-3.628 10.427-8.304 10.5l-.11.001c-4.626 0-8.429-4.556-8.517-10.237-.089-5.726 3.628-10.427 8.304-10.5l.11-.001m0-1.256-.13.001c-2.646.041-5.098 1.322-6.904 3.607-1.748 2.21-2.684 5.111-2.636 8.169.099 6.326 4.483 11.473 9.773 11.473l.13-.001c2.646-.041 5.098-1.322 6.905-3.607 1.747-2.209 2.684-5.111 2.636-8.168-.099-6.327-4.484-11.474-9.774-11.474z"/><path d="M67.108 548.73c-6.04-.122-15.179-6.185-15.565-6.443a.613.613 0 0 1-.138-.126c-.125-.154-3.07-3.824-3.231-7.899v-.108c-.028-2.769 3.153-3.271 5.475-3.639.708-.112 1.376-.217 1.824-.365a11.535 11.535 0 0 1 1.78-.411c.625-.102 1.567-.154 2.793-.154 3.336 0 7.848.383 7.893.387a.611.611 0 0 1 .146.03c1.754.587 17.189 5.868 19.014 10.378.418 1.017.167 2.005-.708 2.779a.628.628 0 0 1-.168.106c-.521.223-12.826 5.467-18.897 5.467l-.218-.002z" style="fill:#cc93cc"/><path d="M60.044 530.212c3.348 0 7.84.385 7.84.385s16.862 5.646 18.63 10.018c.304.739.173 1.441-.542 2.073 0 0-12.637 5.416-18.65 5.416l-.201-.002c-5.926-.119-15.23-6.337-15.23-6.337s-2.936-3.615-3.091-7.528v-.083c-.03-2.984 4.896-2.758 6.867-3.407a10.87 10.87 0 0 1 1.68-.387c.653-.108 1.616-.148 2.697-.148m.001-1.256c-1.278 0-2.226.053-2.899.163-.666.103-1.296.249-1.863.431-.407.134-1.052.236-1.734.344-2.258.357-6.037.954-6.004 4.271v.071c.17 4.331 3.242 8.159 3.372 8.32.079.097.173.182.277.252.392.262 9.68 6.424 15.902 6.549l.227.002c6.199 0 18.619-5.292 19.144-5.517.123-.053.237-.125.337-.213 1.076-.951 1.394-2.223.872-3.492-1.887-4.665-16.486-9.758-19.393-10.731a1.254 1.254 0 0 0-.292-.061c-.186-.016-4.583-.389-7.946-.389z"/><path d="M59.88 534.042c-1.62 0-2.819-.854-3.469-2.471-1.397-3.476-.317-9.036-.271-9.271a.628.628 0 0 1 .461-.486c.158-.041 3.897-.984 7.339-.984 2.522 0 4.268.521 5.188 1.55.137.153.19.364.143.563-.188.792-1.91 7.786-4.597 9.405-1.865 1.124-3.478 1.694-4.794 1.694z" style="fill:#6d5996"/><path d="M63.94 521.457c1.968 0 3.81.323 4.721 1.341 0 0-1.771 7.482-4.31 9.012-1.378.83-3.031 1.604-4.47 1.604-1.213 0-2.273-.549-2.887-2.078-1.343-3.342-.237-8.914-.237-8.914s3.78-.965 7.183-.965m.001-1.256c-3.521 0-7.335.963-7.495 1.004-.469.12-.827.498-.922.973-.048.242-1.161 5.98.304 9.627.742 1.848 2.182 2.866 4.052 2.866 1.431 0 3.153-.6 5.119-1.784 2.847-1.715 4.568-8.463 4.885-9.799.095-.4-.012-.821-.286-1.127-1.06-1.185-2.91-1.76-5.657-1.76z"/><path d="M55.721 526.817a.63.63 0 0 1-.347-.104c-.049-.033-1.219-.818-2.191-2.356a8.17 8.17 0 0 1-1.276-4.015c-.152-2.899 1.13-4.839 3.812-5.765a12.124 12.124 0 0 1 1.757-.446c.836-.149 2.43-.221 4.879-.221 4.119 0 9.197.215 9.248.217a.628.628 0 0 1 .425.191c.119.123 2.905 3.046 2.898 6.483-.007 1.774-.751 3.348-2.211 4.679a.63.63 0 0 1-.379.163c0-.001-16.6 1.174-16.615 1.174z" style="fill:#cc93cc"/><path d="M62.355 514.537c4.153 0 9.221.216 9.221.216s2.728 2.823 2.722 6.045c-.006 1.394-.524 2.865-2.007 4.217l-16.57 1.173s-1.096-.727-2.007-2.168a7.587 7.587 0 0 1-1.179-3.71c-.161-3.073 1.406-4.455 3.389-5.14a11.702 11.702 0 0 1 1.668-.423c.884-.157 2.712-.21 4.763-.21m.001-1.256c-2.487 0-4.117.075-4.985.23-.733.137-1.319.287-1.857.472-2.936 1.014-4.4 3.224-4.234 6.393a8.79 8.79 0 0 0 1.373 4.318c1.024 1.62 2.239 2.452 2.374 2.542a1.254 1.254 0 0 0 .783.206l16.57-1.173a1.25 1.25 0 0 0 .757-.325c1.596-1.454 2.409-3.184 2.417-5.14.007-3.692-2.949-6.793-3.074-6.924a1.26 1.26 0 0 0-.85-.382c-.051-.002-5.142-.217-9.274-.217z"/><path d="M74.298 520.799c-.006 1.394-.524 2.865-2.007 4.217l-16.57 1.173s-1.096-.727-2.007-2.168c.733-1.733 1.638-3.139 2.627-3.032 1.9.203 12.877-.059 17.957-.19z" style="fill:#b985ba"/><path d="M55.722 526.819a.63.63 0 0 1-.346-.104c-.133-.087-3.257-2.196-3.471-6.372-.149-2.9 1.134-4.841 3.812-5.768a.628.628 0 0 1 .321-.024c2.654.495 4.076 3.671 4.066 6.407-.009 2.46-1.136 5.289-4.271 5.851a.595.595 0 0 1-.111.01z" style="fill:#9a77b2"/><path d="M55.923 515.169c4.251.793 5.274 10.042-.201 11.022 0 0-2.99-1.973-3.19-5.88-.158-3.072 1.41-4.457 3.391-5.142m0-1.257c-.139 0-.278.023-.411.069-2.933 1.015-4.397 3.226-4.235 6.394.23 4.49 3.609 6.769 3.753 6.864a1.262 1.262 0 0 0 .913.188c2.897-.519 4.777-3.057 4.789-6.466.011-3.066-1.558-6.464-4.579-7.027a1.27 1.27 0 0 0-.23-.022z"/><path d="M83.137 463.712s7.857 4.448 5.382 8.415c-2.475 3.967-15.149-1.802-15.149-1.802" style="fill:#dce3f4;stroke:#000;stroke-width:1.256;stroke-linecap:round;strokeLinejoin:round;stroke-miterlimit:10"/><path d="M131.985 470.877s3.16 3.819 2.498 6.069-3.785 2.438-6.206.656c-2.42-1.782-.919-4.16-.919-4.16" style="fill:#fff;stroke:#000;stroke-width:1.256;stroke-linecap:round;strokeLinejoin:round;stroke-miterlimit:10"/><path d="M84.26 439.722s-10.479-6.809-15.08-5.877c-7.651 1.55.193 19.679.193 19.679" style="fill:none;stroke:#000;stroke-width:1.256;stroke-linecap:round;strokeLinejoin:round;stroke-miterlimit:10"/><path d="M85.972 542.688s-12.925 5.539-18.851 5.414c-5.926-.119-15.23-6.337-15.23-6.337s-2.936-3.615-3.091-7.528v-.083c2.192.208 4.151.786 4.801 1.674 1.656 2.281 11.936 9.738 15.944 9.565 3.27-.143 13.151-3.532 16.969-4.777.304.737.173 1.44-.542 2.072z" style="fill:#9a77b2"/><path d="M51.568 541.58c-1.694 0-3.371-1.786-3.988-4.247-.703-2.807.202-5.371 2.06-5.836.189-.047.385-.071.582-.071 1.694 0 3.372 1.786 3.988 4.246.322 1.286.314 2.582-.023 3.649-.371 1.174-1.095 1.951-2.037 2.188-.19.047-.386.071-.582.071z" style="fill:#9a77b2"/><path d="M50.221 532.053c1.378 0 2.828 1.573 3.379 3.771.609 2.428-.109 4.7-1.604 5.074a1.78 1.78 0 0 1-.429.053c-1.378 0-2.828-1.573-3.379-3.771-.609-2.428.109-4.7 1.604-5.074.142-.035.285-.052.429-.053m0-1.256c-.248 0-.495.03-.734.09-1.145.287-2.05 1.237-2.483 2.607-.372 1.177-.384 2.594-.034 3.991.697 2.78 2.587 4.721 4.597 4.721.248 0 .495-.03.734-.09 1.145-.287 2.05-1.237 2.483-2.607.372-1.177.384-2.594.034-3.991-.697-2.779-2.587-4.721-4.597-4.721zM65.966 456.366a.596.596 0 0 1-.238.804.63.63 0 0 1-.286.071.593.593 0 0 1-.524-.31c-.202-.375-4.991-9.297-4.253-17.118.071-.774.179-1.489.316-2.156.065-.066.131-.155.197-.256.238-.363.482-.703.745-1.03.357-.471.739-.905 1.144-1.304-.602 1.263-1.024 2.853-1.215 4.86-.655 6.963 3.461 15.176 4.05 16.308.04.084.064.125.064.131zM88.7 436.646a.603.603 0 0 1-.828.179 1.962 1.962 0 0 0-.143-.089c-.191-.119-.572-.357-1.102-.667.286-.06.494-.167.643-.31a1.02 1.02 0 0 0 .316-.512c.524.322.858.53.929.578.28.177.358.541.185.821z"/><path d="M86.627 436.068c-.256.048-.566.06-.953.024-2.704-.262-9.679-3.919-14.122-4.181-3.425-.203-6.224.887-8.487 3.157 1.751-3.705 4.991-4.55 8.118-4.807 4.497-.364 12.401 4.008 15.444 5.807z" style="fill:#fff"/></svg>