<?xml version="1.0"?>
<svg style="enable-background:new 0 0 3840 1989.254" viewBox="0 0 3840 1989.254" xmlns="http://www.w3.org/2000/svg" enable-background="new 0 0 3840 1989.254" xml:space="preserve">
 <g class="layer">
  <title>Layer 1</title>
  <g id="svg_1" opacity="0.26">
   <ellipse cx="1909.24" cy="1844.73" fill="#7b71bf" id="svg_2" opacity="0.04" rx="1133.48" ry="108.92"/>
   <ellipse cx="1909.24" cy="1843.81" fill="#7b71bf" id="svg_3" opacity="0.09" rx="1114.49" ry="105.95"/>
   <ellipse cx="1909.24" cy="1842.9" fill="#7b71bf" id="svg_4" opacity="0.13" rx="1095.49" ry="102.98"/>
   <ellipse cx="1909.24" cy="1841.98" fill="#7b71bf" id="svg_5" opacity="0.17" rx="1076.5" ry="100"/>
   <ellipse cx="1909.24" cy="1841.06" fill="#7b71bf" id="svg_6" opacity="0.22" rx="1057.5" ry="97.03"/>
   <ellipse cx="1909.24" cy="1840.15" fill="#7b71bf" id="svg_7" opacity="0.26" rx="1038.51" ry="94.06"/>
   <ellipse cx="1909.24" cy="1839.23" fill="#7b71bf" id="svg_8" opacity="0.3" rx="1019.51" ry="91.09"/>
   <ellipse cx="1909.24" cy="1838.32" fill="#7b71bf" id="svg_9" opacity="0.35" rx="1000.51" ry="88.12"/>
   <ellipse cx="1909.24" cy="1837.4" fill="#7b71bf" id="svg_10" opacity="0.39" rx="981.52" ry="85.15"/>
   <ellipse cx="1909.24" cy="1836.48" fill="#7b71bf" id="svg_11" opacity="0.43" rx="962.52" ry="82.18"/>
   <ellipse cx="1909.24" cy="1835.57" fill="#7b71bf" id="svg_12" opacity="0.48" rx="943.53" ry="79.2"/>
   <ellipse cx="1909.24" cy="1834.65" fill="#7b71bf" id="svg_13" opacity="0.52" rx="924.53" ry="76.23"/>
   <ellipse cx="1909.24" cy="1833.73" fill="#7b71bf" id="svg_14" opacity="0.57" rx="905.53" ry="73.26"/>
   <ellipse cx="1909.24" cy="1832.82" fill="#7b71bf" id="svg_15" opacity="0.61" rx="886.54" ry="70.29"/>
   <ellipse cx="1909.24" cy="1831.9" fill="#7b71bf" id="svg_16" opacity="0.65" rx="867.54" ry="67.32"/>
   <ellipse cx="1909.24" cy="1830.98" fill="#7b71bf" id="svg_17" opacity="0.7" rx="848.55" ry="64.35"/>
   <ellipse cx="1909.24" cy="1830.07" fill="#7b71bf" id="svg_18" opacity="0.74" rx="829.55" ry="61.38"/>
   <ellipse cx="1909.24" cy="1829.15" fill="#7b71bf" id="svg_19" opacity="0.78" rx="810.56" ry="58.41"/>
   <ellipse cx="1909.24" cy="1828.24" fill="#7b71bf" id="svg_20" opacity="0.83" rx="791.56" ry="55.43"/>
   <ellipse cx="1909.24" cy="1827.32" fill="#7b71bf" id="svg_21" opacity="0.87" rx="772.57" ry="52.46"/>
   <ellipse cx="1909.24" cy="1826.4" fill="#7b71bf" id="svg_22" opacity="0.91" rx="753.57" ry="49.49"/>
   <ellipse cx="1909.24" cy="1825.49" fill="#7b71bf" id="svg_23" opacity="0.96" rx="734.57" ry="46.52"/>
   <ellipse cx="1909.24" cy="1824.57" fill="#7b71bf" id="svg_24" rx="715.58" ry="43.55"/>
  </g>
  <g id="svg_25" opacity="0.55">
   <linearGradient id="a" x1="0.5" x2="0.5" y1="-0.03" y2="1.03">
    <stop offset="0" stop-color="#6671ad" stop-opacity="0"/>
    <stop offset="0.34" stop-color="#606daa" stop-opacity="0.34"/>
    <stop offset="1" stop-color="#5d6ba9"/>
   </linearGradient>
   <path d="m3861.05,37.44l0,1597c-1289.56,-361.81 -2579.14,-361.31 -3868.69,1.43l0,-1596.99c1114.3,239.7 2556.49,350.49 3868.69,-1.44z" fill="url(#a)" id="svg_26"/>
   <path d="m3861.05,1582.02l0,129.31c-1289.56,-361.81 -2579.14,-361.32 -3868.69,1.43l0,-129.3c641.84,-180.55 1283.68,-229.42 1925.53,-230.48c647.72,-1.07 1295.44,47.32 1943.16,229.04z" fill="#7b71bf" id="svg_27"/>
  </g>
  <path d="m2049.82,1854.39c0,14.26 -77.77,13.77 -126.93,13.77s-131.62,0.49 -131.62,-13.77c0,-14.26 80.11,-45.38 129.27,-45.38s129.28,31.12 129.28,45.38z" fill="#1a2435" id="svg_28" opacity="0.66"/>
  <path d="m1971.11,1822.77c-0.75,-4.5 -30.62,-63.15 -40.82,-74.36c-10.21,-11.2 -17.35,0 -13.27,9.17c4.08,9.16 35.72,69.26 43.88,75.37c8.17,6.11 11.23,-4.07 10.21,-10.18z" fill="#35302e" id="svg_29" stroke="#000" stroke-linecap="round" strokeLinejoin="round" stroke-miterlimit="10" stroke-width="3.5"/>
  <path d="m1908.86,1745.35l-6.13,8.15s-47.96,79.45 -47.96,83.53c0,4.07 3.06,11.2 12.25,4.07c9.18,-7.13 54.08,-88.61 54.08,-88.61s5.11,100.83 9.19,108.98s13.26,5.1 14.28,-10.18c1.03,-15.28 -7.14,-96.77 -7.14,-96.77l-28.57,-9.17z" fill="#35302e" id="svg_30" stroke="#000" stroke-linecap="round" strokeLinejoin="round" stroke-miterlimit="10" stroke-width="3.5"/>
  <path d="m1898.65,1721.93l4.08,31.57s11.23,3.06 20.41,3.06c9.19,0 14.29,-2.04 14.29,-2.04l2.04,-37.69c0,0 -21.43,-3.05 -40.82,5.1z" fill="#35302e" id="svg_31" stroke="#000" stroke-linecap="round" strokeLinejoin="round" stroke-miterlimit="10" stroke-width="3.5"/>
  <ellipse cx="1917.53" cy="1607.34" fill="#b3bde0" id="svg_32" rx="57.37" ry="57.26"/>
  <path d="m1917.53,1551.82c30.72,0 55.62,24.86 55.62,55.52s-24.9,55.51 -55.62,55.51s-55.62,-24.85 -55.62,-55.51s24.91,-55.52 55.62,-55.52m0,-3.5c-32.6,0 -59.12,26.48 -59.12,59.02s26.52,59.01 59.12,59.01s59.12,-26.47 59.12,-59.01s-26.52,-59.02 -59.12,-59.02z" id="svg_33"/>
  <ellipse cx="1917.53" cy="1624.65" fill="#636f93" id="svg_34" rx="55.62" ry="55.51" stroke="#000" stroke-linecap="round" strokeLinejoin="round" stroke-miterlimit="10" stroke-width="3.5"/>
  <path d="m2013.9,1682.93c-0.54,-0.02 -54.65,-2 -108.18,-6.31c-31.47,-2.53 -56.6,-5.37 -74.69,-8.43c-31.35,-5.3 -35.59,-10.28 -35.79,-14.03c-0.2,-3.51 0.74,-7.83 2.77,-12.83c5.57,-13.84 18.57,-30.67 25.81,-39.47a25.32,25.32 0 0 1 19.01,-9.25l158.62,-3.63l0.44,-0.01a19.68,19.68 0 0 1 15.08,7.03c9.23,10.99 24.81,31.35 25.53,44.22a17.5,17.5 0 0 1 0,2.02c-0.97,17.64 -26.33,39.35 -27.41,40.27a1.75,1.75 0 0 1 -1.13,0.42l-0.06,0z" fill="#b3bde0" id="svg_35"/>
  <path d="m2001.89,1590.72c5.3,0 10.32,2.35 13.74,6.41c8.74,10.41 24.43,30.73 25.12,43.19c0.04,0.59 0.04,1.2 0,1.83c-0.94,17.08 -26.79,39.03 -26.79,39.03s-215.95,-7.77 -216.97,-27.11c-0.2,-3.48 0.83,-7.63 2.65,-12.08c5.35,-13.29 17.64,-29.42 25.54,-39.01a23.6,23.6 0 0 1 17.69,-8.62l158.62,-3.63c0.14,-0.01 0.27,-0.01 0.4,-0.01m0.01,-3.5c-0.16,0 -0.32,0 -0.48,0l-158.63,3.64a27.07,27.07 0 0 0 -20.32,9.89c-7.31,8.88 -20.42,25.87 -26.08,39.93c-2.16,5.31 -3.11,9.75 -2.9,13.58c0.26,4.9 4.95,10.2 37.25,15.66c18.14,3.07 43.32,5.91 74.84,8.45c53.57,4.31 107.71,6.29 108.25,6.31l0.13,0c0.83,0 1.63,-0.3 2.27,-0.83c0.27,-0.23 6.74,-5.75 13.43,-13.49c9.25,-10.72 14.16,-20.15 14.59,-28.02c0.05,-0.76 0.05,-1.51 0,-2.23c-0.39,-7 -5.21,-20.54 -25.93,-45.23c-4.11,-4.87 -10.09,-7.66 -16.42,-7.66z" id="svg_36"/>
  <path d="m1864.15,1593.88l-21.28,0.48a23.6,23.6 0 0 0 -17.69,8.62c-7.9,9.58 -20.19,25.71 -25.54,39.01c6.79,-11.47 18.49,-24.62 25.54,-31.98c4.35,-4.58 10.82,-7.29 17.69,-7.42l33.54,-0.66c-4.35,-2.25 -8.47,-4.92 -12.26,-8.05zm151.48,3.25a17.98,17.98 0 0 0 -14.13,-6.4l-36.56,0.83c-0.22,0.2 -0.42,0.42 -0.63,0.61a68.54,68.54 0 0 1 -11.01,8.23l48.2,-0.96c5.44,-0.1 10.63,1.94 14.13,5.54c8.72,8.96 24.36,26.41 25.13,37.16c0.03,-0.62 0.03,-1.23 0,-1.82c-0.7,-12.46 -16.39,-32.79 -25.13,-43.19z" fill="#fff" id="svg_37"/>
  <path d="m2042.49,1648.57l-5.53,73c-0.91,11.92 -11.89,20.96 -24.67,20.3l-46.46,-2.42l-114.57,-5.95l-29.6,-1.53c-11.8,-0.61 -21.28,-9.36 -22.07,-20.39l-3.8,-53.37c-0.87,-12.18 9.1,-22.67 22.16,-23.32l199.96,-9.71c14.05,-0.69 25.57,10.29 24.58,23.39z" fill="#636f93" id="svg_38" stroke="#000" stroke-linecap="round" strokeLinejoin="round" stroke-miterlimit="10" stroke-width="3.5"/>
  <path d="m2014.24,1659.36l-3.52,52.78a4.15,4.15 0 0 1 -4.37,3.87l-0.92,-0.05a4.15,4.15 0 0 1 -3.93,-4.37l2.95,-52.68a4.15,4.15 0 0 1 4,-3.92l1.49,-0.05a4.15,4.15 0 0 1 4.3,4.42zm-18.79,0.59l-2.36,51.12a4.15,4.15 0 0 1 -4.38,3.95l-0.45,-0.03a4.15,4.15 0 0 1 -3.92,-4.29l1.85,-51.06a4.15,4.15 0 0 1 3.99,-3.99l0.97,-0.04a4.15,4.15 0 0 1 4.3,4.34zm-17.76,0.56l-1.33,49.54a4.15,4.15 0 0 1 -4.39,4.03l0,0a4.15,4.15 0 0 1 -3.93,-4.22l0.87,-49.52a4.15,4.15 0 0 1 4,-4.07l0.47,-0.02a4.15,4.15 0 0 1 4.31,4.26z" fill="#35302e" id="svg_39" stroke="#000" stroke-linecap="round" strokeLinejoin="round" stroke-miterlimit="10" stroke-width="3.5"/>
  <path d="m1821.1,1674.02c-6.17,0 -11.19,-5.01 -11.19,-11.17s5.02,-11.17 11.19,-11.17s11.18,5.01 11.18,11.17s-5.02,11.17 -11.18,11.17z" fill="#b6a0e0" id="svg_40"/>
  <path d="m1821.1,1653.68c5.07,0 9.18,4.11 9.18,9.17s-4.11,9.17 -9.18,9.17c-5.08,0 -9.19,-4.11 -9.19,-9.17s4.11,-9.17 9.19,-9.17m0,-4c-7.28,0 -13.19,5.91 -13.19,13.17s5.91,13.17 13.19,13.17s13.18,-5.91 13.18,-13.17s-5.91,-13.17 -13.18,-13.17z" id="svg_41"/>
  <path d="m1964.81,1734.62l-114.57,-5.96l17.29,-29.4l82.66,1.53l14.62,33.83z" fill="#525f7f" id="svg_42"/>
  <ellipse cx="1876.46" cy="1716.83" fill="#35302e" id="svg_43" rx="5.1" ry="5.09" stroke="#000" stroke-linecap="round" strokeLinejoin="round" stroke-miterlimit="10" stroke-width="3.5"/>
  <ellipse cx="1898.14" cy="1717.6" fill="#35302e" id="svg_44" rx="5.1" ry="5.09" stroke="#000" stroke-linecap="round" strokeLinejoin="round" stroke-miterlimit="10" stroke-width="3.5"/>
  <path d="m3412.84,1829.27c27.08,30.22 28.36,106.37 -215.23,106.37c-243.59,0 -663.01,-90.14 -663.01,-113.8c0,-23.65 261.32,-71.16 504.91,-71.16c243.59,0 357.54,60.97 373.33,78.59z" fill="#0e1828" id="svg_45" opacity="0.4"/>
  <path d="m2615.27,1767.89c-9.23,0 -15.61,-9.37 -17.84,-18.65c-3.78,-15.76 -0.24,-27.13 10.53,-33.79c8.62,-5.33 38.31,-18.87 56.67,-20.87c0.44,-0.05 0.88,-0.08 1.31,-0.08c3.03,0 5.54,1.2 7.47,3.56c3.54,4.35 4.93,12.71 4.11,24.86c-0.59,8.8 -2.11,16.29 -2.18,16.6a2,2 0 0 1 -1.27,1.48c-11.81,4.34 -43.77,16.92 -49.65,22.89c-2.58,2.61 -5.75,4 -9.15,4z" fill="#c69a89" id="svg_46"/>
  <path d="m2665.94,1696.51c16.2,0 7.44,42.61 7.44,42.61s-42.9,15.77 -50.39,23.36c-2.26,2.29 -4.95,3.41 -7.72,3.41c-6.41,0 -13.22,-5.97 -15.89,-17.11c-3.83,-15.95 0.42,-25.93 9.63,-31.63s38.16,-18.65 55.84,-20.58a9.81,9.81 0 0 1 1.09,-0.06m0,-4.01s0,0 0,0c-0.5,0 -1.01,0.03 -1.53,0.09c-18.29,2 -47.58,15.03 -57.51,21.16c-7.96,4.92 -16.41,15.16 -11.41,35.96c2.89,12.07 10.84,20.18 19.78,20.18c3.95,0 7.61,-1.59 10.57,-4.59c4.99,-5.07 32.66,-16.44 48.92,-22.42a4,4 0 0 0 2.54,-2.95c0.68,-3.29 6.35,-32.46 -2.35,-43.13c-2.29,-2.81 -5.4,-4.3 -9.01,-4.3z" id="svg_47"/>
  <path d="m2519.84,1639.98c-4.36,23.65 7.93,86.48 12.21,110.27c4.29,23.79 15.71,61.6 44.31,55.87c28.6,-5.72 59.63,-38.4 59.63,-38.4s2.08,-5.34 -1.33,-4.11c-3.41,1.23 -6.4,5.27 -12.09,-3.94c-5.69,-9.21 -10.22,-25.05 -10.22,-25.05s8.15,1.65 12.65,-1.9c4.5,-3.55 8.78,-22.87 4.11,-30.08c-3.99,-6.15 -17.37,-11.95 -21.18,-13.51c-0.65,-0.26 -1.03,-0.41 -1.03,-0.41s-55.96,-71.37 -58.71,-75.27c-2.74,-3.9 -24,2.88 -28.35,26.53z" fill="#1c1a19" id="svg_48" stroke="#000" stroke-linecap="round" strokeLinejoin="round" stroke-miterlimit="10" stroke-width="4"/>
  <path d="m2553.09,1825.13c-8.13,0 -13.87,-3.5 -16.15,-9.83c-3.8,-10.57 -17.63,-69.44 -24.33,-118.93c-6.56,-48.53 -5.4,-83.05 -0.98,-90.89c1.74,-3.08 4.27,-5.77 7.13,-7.55c2.66,-1.67 5.59,-2.56 8.46,-2.56c3.28,0 6.45,1.11 9.42,3.3c9.1,6.72 16.42,19.05 16.73,19.57c0.35,0.59 0.37,1.32 0.06,1.93c-0.07,0.12 -6.47,12.68 -10.29,20.35c-1.38,2.78 -3.61,5.61 -6.63,8.41a53.16,53.16 0 0 1 -6.73,5.23l9.42,48.95l10.19,8.73c0.37,0.31 0.61,0.75 0.68,1.22l4.94,33.02a2,2 0 0 1 -0.52,1.67l-7.9,8.38l5.46,18.88c6.17,4.33 29.88,21.34 31.66,28.38c2.32,9.09 -5.2,13.39 -15.26,18.08c-5.09,2.36 -10.54,3.66 -15.36,3.66z" fill="#b3bde0" id="svg_49"/>
  <path d="m2527.22,1597.38c2.66,0 5.46,0.85 8.23,2.9c8.88,6.56 16.19,18.98 16.19,18.98s-6.43,12.6 -10.3,20.37c-1.48,2.99 -3.85,5.66 -6.2,7.84c-3.81,3.51 -7.58,5.73 -7.58,5.73l9.8,50.97l10.73,9.19l4.94,33.02l-8.68,9.2l5.97,20.67s29.7,20.69 31.44,27.63c1.77,6.91 -2.74,10.46 -14.16,15.77c-4.74,2.2 -9.87,3.47 -14.52,3.47c-6.53,0 -12.1,-2.51 -14.26,-8.5c-3.68,-10.22 -17.56,-69.22 -24.23,-118.52c-6.66,-49.31 -5.2,-82.57 -1.22,-89.64c1.51,-2.66 3.74,-5.14 6.45,-6.83c2.22,-1.39 4.74,-2.25 7.4,-2.25m0,-4.01c-3.25,0 -6.54,0.99 -9.53,2.86c-3.13,1.96 -5.9,4.9 -7.8,8.27c-4.7,8.33 -5.95,42.65 0.74,92.13c6.71,49.63 20.6,108.72 24.43,119.35c2.55,7.08 9.12,11.15 18.03,11.15c5.1,0 10.86,-1.37 16.2,-3.84c10.55,-4.91 19.05,-9.84 16.35,-20.4c-0.65,-2.62 -3.28,-7.11 -17.77,-18.57c-5.95,-4.7 -11.69,-8.83 -14.09,-10.54l-4.95,-17.11l7.11,-7.54a4,4 0 0 0 1.05,-3.34l-4.94,-33.02a4.01,4.01 0 0 0 -1.36,-2.45l-9.66,-8.28l-9.03,-46.96a54.98,54.98 0 0 0 5.86,-4.67c3.21,-2.97 5.58,-6 7.07,-8.99c3.82,-7.67 10.22,-20.22 10.28,-20.34a4,4 0 0 0 -0.11,-3.85c-0.32,-0.54 -7.84,-13.21 -17.28,-20.17c-3.31,-2.45 -6.88,-3.69 -10.6,-3.69z" id="svg_50"/>
  <path d="m2526.44,1612.38c0.23,2.95 0.87,5.86 2.11,8.62c2.96,6.53 8.19,11.28 14.42,14.66c3.05,-8.76 8.68,-16.4 8.68,-16.4s-7.32,-12.42 -16.2,-18.98c-5.54,-4.09 -11.2,-3.43 -15.63,-0.65c3.04,0.6 5.73,1.14 7.08,1.48c3.43,0.87 0.84,3.76 -0.46,11.27z" fill="#dce3f4" id="svg_51"/>
  <path d="m2616.71,1737.01c-2.64,0 -4.68,-0.41 -4.76,-0.43a2.02,2.02 0 0 1 -1.02,-0.54c-0.95,-0.95 -9.35,-9.4 -11.1,-12.86c-2.05,-3.98 -0.76,-30.8 7.34,-39.41a2,2 0 0 1 2.21,-0.48c0.55,0.23 1.23,0.58 2.19,1.14c5.46,3.31 15.65,11.62 19.23,17.13c1.48,2.28 2.26,5.56 2.33,9.74c0.13,8.18 -2.8,19.76 -6.9,23c-2.28,1.79 -5.48,2.71 -9.52,2.71z" fill="#b3bde0" id="svg_52"/>
  <path d="m2608.63,1685.15c0.5,0.2 1.16,0.56 1.93,1.01c5.05,3.06 15.08,11.14 18.56,16.49c1.35,2.09 1.95,5.2 2.01,8.68c0.13,8.43 -2.95,18.88 -6.14,21.39c-2.33,1.84 -5.63,2.28 -8.28,2.28c-2.47,0 -4.36,-0.38 -4.36,-0.38s-9.08,-9.07 -10.73,-12.34c-1.6,-3.1 -0.58,-29.08 7.01,-37.13m0,-4.01a4,4 0 0 0 -2.92,1.26c-4.89,5.2 -7.05,15.2 -8,22.67c-0.65,5.09 -1.41,15.63 0.35,19.04c1.79,3.54 9.22,11.11 11.46,13.34a4.01,4.01 0 0 0 2.03,1.1c0.23,0.04 2.37,0.46 5.16,0.46c4.5,0 8.12,-1.06 10.76,-3.15c3.84,-3.02 7.83,-13.63 7.66,-24.59c-0.07,-4.56 -0.96,-8.2 -2.65,-10.8c-4.07,-6.27 -14.92,-14.75 -19.84,-17.73l-0.06,-0.04c-1.06,-0.62 -1.79,-1 -2.44,-1.26a4,4 0 0 0 -1.51,-0.3z" id="svg_53"/>
  <path d="m2631.13,1711.33c-6.27,-5.48 -14.71,-13.11 -17.36,-16.76c-1.56,-2.16 -2.57,-5.27 -3.21,-8.41c5.05,3.06 15.08,11.14 18.56,16.49c1.35,2.09 1.95,5.2 2.01,8.68z" fill="#dce3f4" id="svg_54"/>
  <path d="m2589.44,1710.2a6.37,6.37 0 0 1 -5.31,-2.84a6.33,6.33 0 0 1 -1,-2.59a6.42,6.42 0 0 1 2.68,-6.19c0.25,-0.31 0.98,-1.22 2.96,-3.92c4.08,-5.56 5.39,-11.31 3.9,-17.09c-0.88,-3.41 1.17,-6.89 4.57,-7.77a6.38,6.38 0 0 1 7.77,4.57c2.5,9.64 0.37,19.36 -6.15,28.11c-4.29,5.74 -5.39,6.4 -5.97,6.7a6.33,6.33 0 0 1 -3.45,1.02z" fill="#b3bde0" id="svg_55"/>
  <path d="m2598.84,1671.59a4.38,4.38 0 0 1 4.24,3.28c2.34,9.03 0.32,18.16 -5.83,26.41c-4.47,6 -5.18,6.05 -5.4,6.19a4.37,4.37 0 0 1 -6.74,-3a4.39,4.39 0 0 1 1.9,-4.29l0,0c0,0 0.01,0.01 0.01,0.01c0.06,0 0.38,-0.28 3.37,-4.35c4.45,-6.06 5.87,-12.38 4.21,-18.77a4.38,4.38 0 0 1 4.24,-5.48m0,-4c-0.7,0 -1.41,0.09 -2.1,0.27c-4.47,1.16 -7.17,5.74 -6.01,10.21c1.36,5.24 0.19,10.28 -3.57,15.4c-1.67,2.28 -2.42,3.24 -2.74,3.64a8.43,8.43 0 0 0 -3.27,7.96a8.3,8.3 0 0 0 1.32,3.4a8.37,8.37 0 0 0 11.44,2.44c1.05,-0.59 2.43,-1.71 6.55,-7.24c6.9,-9.25 9.15,-19.55 6.49,-29.8a8.38,8.38 0 0 0 -8.11,-6.28z" id="svg_56"/>
  <path d="m2578.46,1689.94a6.37,6.37 0 0 1 -5.31,-2.84a6.32,6.32 0 0 1 -1,-2.59a6.42,6.42 0 0 1 2.48,-6.06c0.34,-0.45 1.13,-1.52 2.53,-3.44c3.71,-5.06 4.9,-10.27 3.54,-15.49c-0.88,-3.41 1.17,-6.9 4.57,-7.78a6.38,6.38 0 0 1 7.78,4.57c2.35,9.1 0.35,18.27 -5.8,26.51c-3.95,5.3 -4.78,5.83 -5.37,6.12a6.35,6.35 0 0 1 -3.42,1z" fill="#b3bde0" id="svg_57"/>
  <path d="m2586.88,1653.54a4.38,4.38 0 0 1 4.23,3.28c2.2,8.48 0.31,17.06 -5.46,24.8c-4.2,5.62 -4.58,5.45 -4.78,5.59a4.37,4.37 0 0 1 -6.06,-1.22a4.35,4.35 0 0 1 -0.68,-1.78a4.39,4.39 0 0 1 1.89,-4.29l0,0c0,0 -0.02,0.03 -0.02,0.03c0.01,0 0.3,-0.38 2.78,-3.76c4.07,-5.56 5.37,-11.34 3.86,-17.18a4.38,4.38 0 0 1 4.24,-5.47m0,-4.01c-0.71,0 -1.42,0.09 -2.11,0.27c-4.47,1.16 -7.16,5.74 -6.01,10.21c1.22,4.69 0.17,9.2 -3.21,13.81c-1.21,1.65 -1.97,2.68 -2.36,3.22a8.44,8.44 0 0 0 -3.02,7.77a8.3,8.3 0 0 0 1.31,3.4a8.37,8.37 0 0 0 11.39,2.47c1.02,-0.54 2.14,-1.51 5.98,-6.67c6.53,-8.74 8.65,-18.49 6.13,-28.2a8.38,8.38 0 0 0 -8.1,-6.28z" id="svg_58"/>
  <path d="m2567.24,1671.53a6.37,6.37 0 0 1 -5.32,-2.85a6.38,6.38 0 0 1 0.93,-8.16c0.33,-0.64 0.91,-1.44 1.77,-2.61c2.88,-3.95 3.81,-7.99 2.76,-12.03c-0.88,-3.41 1.17,-6.89 4.57,-7.77a6.38,6.38 0 0 1 7.78,4.57c2.05,7.92 0.31,15.88 -5.02,23.03c-3.01,4.03 -3.55,4.7 -4.23,4.93a6.36,6.36 0 0 1 -3.24,0.89z" fill="#b3bde0" id="svg_59"/>
  <path d="m2573.56,1639.9a4.38,4.38 0 0 1 4.23,3.28c1.89,7.31 0.28,14.69 -4.68,21.34c-3.58,4.79 -3.27,4.16 -3.45,4.28a4.37,4.37 0 0 1 -2.42,0.73a4.37,4.37 0 0 1 -3.65,-1.96a4.37,4.37 0 0 1 0.96,-5.87l0.01,0c0.07,0 0.26,-0.19 0.26,-0.19c-0.09,0.06 -0.18,0.12 -0.26,0.18c-0.09,-0.02 0.12,-0.48 1.68,-2.6c3.25,-4.45 4.29,-9.07 3.08,-13.71a4.38,4.38 0 0 1 4.24,-5.48m0,-4c-0.71,0 -1.42,0.09 -2.11,0.27c-4.47,1.16 -7.17,5.74 -6.01,10.21c0.9,3.48 0.11,6.86 -2.44,10.35c-0.72,0.98 -1.32,1.8 -1.75,2.55a8.38,8.38 0 0 0 -1,10.5a8.36,8.36 0 0 0 6.99,3.75a8.35,8.35 0 0 0 4.07,-1.06c1.2,-0.46 2.02,-1.56 5,-5.56c5.71,-7.65 7.56,-16.21 5.36,-24.73a8.38,8.38 0 0 0 -8.11,-6.28z" id="svg_60"/>
  <path d="m2656.53,1779.77c-0.64,0 -1.26,-0.31 -1.64,-0.85c-15.53,-22.01 -18.62,-52.39 -18.48,-74.01c0.02,-3.15 0.11,-5.72 0.17,-7.42c0.03,-0.95 0.05,-1.66 0.05,-2.1c0,-0.79 0.47,-1.5 1.19,-1.82c2.55,-1.14 255.72,-113.37 331.48,-121.69c3.02,-0.34 5.79,-0.52 8.22,-0.52c1.88,0 3.6,0.11 5.13,0.31c14.12,1.89 24.86,8.04 31.92,18.29c15.75,22.89 7.71,57.87 7.36,59.35a2,2 0 0 1 -1.24,1.41c-13.02,4.9 -319.35,120.12 -363.77,129.01a2.02,2.02 0 0 1 -0.39,0.04z" fill="#3f3734" id="svg_61"/>
  <path d="m2977.52,1573.37c1.78,0 3.41,0.09 4.86,0.28c53.72,7.17 37.6,75.2 37.6,75.2s-318.68,119.95 -363.45,128.92c-16.55,-23.45 -18.23,-56.46 -18.12,-72.85c0.03,-4.88 0.22,-8.28 0.22,-9.52c0,0 254.56,-113.15 330.89,-121.54c2.94,-0.32 5.61,-0.49 8,-0.49m0,-4.01c-2.51,0 -5.35,0.18 -8.45,0.53c-32,3.51 -97.65,25.11 -195.11,64.17c-72.41,29.03 -136.32,57.4 -136.95,57.68a4,4 0 0 0 -2.38,3.66c0,0.38 -0.02,1.1 -0.06,2.02a259.87,259.87 0 0 0 -0.17,7.47c-0.14,21.92 3.02,52.75 18.86,75.19a4,4 0 0 0 4.05,1.61c44.58,-8.92 351.06,-124.19 364.09,-129.1a4,4 0 0 0 2.48,-2.82c0.36,-1.51 8.59,-37.33 -7.66,-60.94c-7.39,-10.74 -18.6,-17.18 -33.31,-19.14c-1.61,-0.22 -3.42,-0.33 -5.39,-0.33z" id="svg_62"/>
  <path d="m2966.57,1587.37c-16.38,9.21 -301.76,117.64 -325.28,117.64c-0.99,0 -1.96,-0.02 -2.88,-0.09c0.03,-4.88 0.23,-8.28 0.23,-9.52c0,0 254.56,-113.15 330.88,-121.53c2.5,5.34 2.55,10.41 -2.95,13.5z" fill="#96857e" id="svg_63"/>
  <path d="m2957.46,1518.81c-1.34,0 -2.72,-0.05 -4.09,-0.13c-19.97,-1.28 -42.73,-22.24 -48.99,-39.41c-2.91,-7.99 -2.08,-14.48 2.41,-18.76c13.98,-13.34 48.96,-23.39 64.82,-23.39c1.53,0 2.91,0.1 4.09,0.28c13.68,2.08 22.79,7.27 23.17,7.49a2,2 0 0 1 0.99,1.96l-6.24,56.01a2,2 0 0 1 -0.38,0.97c-0.45,0.61 -11.3,14.98 -35.78,14.98z" fill="#c69a89" id="svg_64"/>
  <path d="m2971.61,1439.13c1.42,0 2.69,0.08 3.78,0.25c13.47,2.05 22.48,7.25 22.48,7.25l-6.24,56.01s-10.42,14.17 -34.17,14.17c-1.28,0 -2.6,-0.04 -3.96,-0.13c-26.56,-1.7 -59.68,-41.02 -45.33,-54.72c13.17,-12.57 47.49,-22.83 63.44,-22.83m0,-4.01l0,0c-16.18,0 -51.9,10.29 -66.21,23.95c-5.02,4.79 -6.05,12.21 -2.9,20.88c6.46,17.75 30.03,39.4 50.74,40.72c1.42,0.1 2.84,0.14 4.22,0.14c25.48,0 36.92,-15.15 37.39,-15.8c0.42,-0.56 0.68,-1.23 0.75,-1.92l6.25,-56.02a4,4 0 0 0 -1.98,-3.91c-0.4,-0.23 -9.83,-5.6 -23.87,-7.74c-1.28,-0.2 -2.76,-0.3 -4.39,-0.3z" id="svg_65"/>
  <path d="m2881.62,1509.03c-8.09,0 -13.4,-4.09 -14.18,-10.93c-0.87,-7.61 4.08,-15.61 10.6,-17.12c10.22,-2.38 22.95,-5.14 23.07,-5.17a2,2 0 0 1 2.1,0.85l13.87,20.89c0.16,0.25 0.27,0.52 0.31,0.81c0.1,0.69 0.02,1.77 -0.99,2.97c-1.38,1.65 -7.94,7.09 -34.18,7.69c-0.2,0.01 -0.4,0.01 -0.6,0.01z" fill="#c69a89" id="svg_66"/>
  <path d="m2901.54,1477.77l13.87,20.89c0.37,2.41 -7.85,7.77 -33.24,8.36c-0.18,0 -0.37,0.01 -0.55,0.01c-18.31,0 -13.34,-21.73 -3.13,-24.1c10.32,-2.4 23.05,-5.16 23.05,-5.16m0,-4.01c-0.28,0 -0.57,0.03 -0.85,0.09c-0.13,0.03 -12.87,2.8 -23.1,5.18c-7.45,1.73 -13.12,10.74 -12.14,19.3c0.42,3.66 2.03,6.78 4.66,9.02c2.88,2.44 6.75,3.68 11.51,3.68c0.21,0 0.43,0 0.64,-0.01c18.55,-0.43 31.55,-3.49 35.68,-8.41c1.16,-1.38 1.67,-3 1.43,-4.56a4,4 0 0 0 -0.62,-1.61l-13.87,-20.89a4.01,4.01 0 0 0 -3.34,-1.79z" id="svg_67"/>
  <path d="m2866.26,1489.18c-8.09,0 -13.39,-4.08 -14.18,-10.93c-0.87,-7.6 4.09,-15.6 10.61,-17.12c10.21,-2.37 22.94,-5.14 23.07,-5.16a2,2 0 0 1 2.09,0.84l13.87,20.9c0.16,0.24 0.27,0.52 0.31,0.8c0.11,0.69 0.02,1.77 -0.98,2.97c-1.39,1.65 -7.95,7.09 -34.19,7.7c-0.2,0 -0.4,0 -0.6,0z" fill="#c69a89" id="svg_68"/>
  <path d="m2886.18,1457.92l13.88,20.9c0.36,2.4 -7.86,7.77 -33.24,8.35c-0.19,0.01 -0.37,0.01 -0.55,0.01c-18.32,0 -13.35,-21.73 -3.13,-24.1c10.32,-2.39 23.04,-5.16 23.04,-5.16m0,-4c-0.28,0 -0.56,0.03 -0.85,0.09c-0.12,0.03 -12.87,2.8 -23.1,5.17c-7.44,1.73 -13.11,10.75 -12.13,19.3c0.42,3.66 2.03,6.78 4.66,9.02c2.87,2.44 6.74,3.68 11.5,3.68c0.22,0 0.43,0 0.65,0c18.54,-0.43 31.55,-3.5 35.67,-8.42c1.16,-1.38 1.67,-3 1.43,-4.55a4,4 0 0 0 -0.62,-1.61l-13.87,-20.89a4.01,4.01 0 0 0 -3.34,-1.79z" id="svg_69"/>
  <path d="m2897.85,1523.81c-8.1,0 -13.4,-4.09 -14.18,-10.93c-0.88,-7.61 4.08,-15.61 10.6,-17.12c10.21,-2.37 22.94,-5.14 23.07,-5.17a2,2 0 0 1 2.09,0.85l13.87,20.9c0.17,0.24 0.27,0.51 0.32,0.8c0.1,0.69 0.02,1.77 -0.99,2.97c-1.39,1.65 -7.95,7.09 -34.19,7.69c-0.2,0.01 -0.4,0.01 -0.59,0.01z" fill="#c69a89" id="svg_70"/>
  <path d="m2917.77,1492.55l13.87,20.89c0.37,2.41 -7.86,7.77 -33.24,8.36c-0.19,0 -0.37,0.01 -0.55,0.01c-18.32,0 -13.35,-21.73 -3.13,-24.1c10.32,-2.4 23.05,-5.16 23.05,-5.16m0,-4c-0.29,0 -0.57,0.03 -0.85,0.09c-0.13,0.02 -12.88,2.79 -23.1,5.17c-7.45,1.73 -13.12,10.75 -12.14,19.3c0.42,3.66 2.03,6.78 4.66,9.02c2.87,2.44 6.75,3.68 11.51,3.68c0.21,0 0.42,0 0.64,-0.01c18.55,-0.43 31.55,-3.49 35.67,-8.41c1.16,-1.38 1.67,-3 1.44,-4.55a4,4 0 0 0 -0.63,-1.61l-13.87,-20.9a4.01,4.01 0 0 0 -3.33,-1.79l0,0.01z" id="svg_71"/>
  <path d="m2873.7,1417.71s-0.01,0 -0.02,0.01c-0.02,-0.02 -0.02,-0.03 0.02,-0.01z" fill="#e2f2a5" id="svg_72" stroke="#000" stroke-linecap="round" strokeLinejoin="round" stroke-miterlimit="10" stroke-width="4"/>
  <path d="m2938.7,1523.58c-1.57,0 -3.12,-0.12 -4.61,-0.36c-16.49,-2.64 -98.1,-60.28 -107.35,-66.85l-1.38,-0.98l1.14,-15.61l0.53,-0.71c5.08,-6.74 14.28,-12.85 27.33,-18.15c9.1,-3.7 17.43,-5.86 18.7,-6.13l1.72,-0.37l1.07,1.21c0.54,0.48 3.05,2.48 5.94,4.79c7.1,5.69 18.99,15.2 31.6,25.69c22.64,18.86 37.51,32.54 44.2,40.67a38.8,38.8 0 0 1 3.2,4.5c1.64,2.68 2.74,5.34 3.26,7.9c1.16,5.48 -0.08,10.66 -3.58,14.99c-4.7,5.8 -13.05,9.41 -21.77,9.41z" fill="#fff" id="svg_73"/>
  <path d="m2873.69,1417.72c0.53,0.61 18.45,14.61 37.78,30.7c17.41,14.5 35.94,30.71 43.81,40.27a35.47,35.47 0 0 1 2.95,4.14c1.49,2.46 2.43,4.76 2.88,6.96c2.69,12.68 -10.25,20.79 -22.41,20.79c-1.4,0 -2.78,-0.11 -4.13,-0.33c-16.28,-2.6 -106.09,-66.33 -106.09,-66.33l0.95,-13.04c11.41,-15.14 43.34,-22.96 44.26,-23.16m2.19,-6.61l-3.45,0.74c-0.35,0.08 -34.75,8.11 -47.79,25.41l-1.07,1.41l-0.13,1.77l-0.95,13.04l-0.25,3.38l2.76,1.96c0.23,0.16 22.81,16.17 47.1,32.29c50.06,33.24 58.39,34.57 61.52,35.07c1.64,0.27 3.35,0.4 5.08,0.4c9.6,0 18.84,-4.03 24.1,-10.52c4.04,-4.98 5.52,-11.2 4.19,-17.52c-0.59,-2.86 -1.81,-5.85 -3.64,-8.83c-1,-1.65 -2.16,-3.28 -3.44,-4.84c-6.81,-8.28 -21.81,-22.09 -44.6,-41.06c-12.63,-10.52 -24.54,-20.05 -31.65,-25.74c-2.65,-2.12 -4.97,-3.97 -5.71,-4.59l-2.08,-2.37l0.01,0z" id="svg_74"/>
  <path d="m2958.23,1492.84c-21.22,-4.94 -57.94,-15.08 -64.24,-27.63c-4.12,-8.15 5.66,-13.45 17.48,-16.79c17.42,14.5 35.94,30.71 43.81,40.27a35.71,35.71 0 0 1 2.95,4.15z" fill="#dce3f4" id="svg_75"/>
  <path d="m2934.57,1520.26c-16.28,-2.62 -106.1,-66.35 -106.1,-66.35l0.96,-13.03s60.61,49.56 93.88,64.59c24.54,11.09 35.37,5.96 37.8,-5.68c2.99,14.13 -13.42,22.59 -26.54,20.47z" fill="#c7d3ea" id="svg_76"/>
  <ellipse cx="2877.46" cy="1447.1" fill="#fff" id="svg_77" rx="17.93" ry="23.64" stroke="#000" stroke-miterlimit="10" stroke-width="6.01" transform="rotate(-54.133 2877.272 1447.05)"/>
  <ellipse cx="2877.46" cy="1447.1" fill="#dce3f4" id="svg_78" rx="8.95" ry="11.8" transform="rotate(-54.133 2877.272 1447.05)"/>
  <path d="m2976.26,1502.33c-18.98,0 -40.16,-28.75 -44.66,-35.17c-2.26,0.59 -7.01,1.57 -13.63,1.57c-5.63,0 -11.44,-0.71 -17.25,-2.12c-6.56,-1.58 -14.37,-6.41 -14.78,-14.78c-0.17,-3.13 0.87,-6.04 2.9,-8.19c2.1,-2.21 5.03,-3.38 8.45,-3.38c0.88,0 1.79,0.08 2.72,0.23c1.08,0.19 2.22,0.28 3.37,0.28c7.45,0 15.1,-3.87 21.24,-6.98c4.56,-2.31 8.51,-4.3 11.67,-4.44a9.79,9.79 0 0 1 0.39,0c6.01,0 27.17,5.37 39.24,8.57a756.51,756.51 0 0 1 8.64,2.31a2,2 0 0 1 1.47,2.01l-2.14,57.13a2,2 0 0 1 -1.28,1.79a17.48,17.48 0 0 1 -6.35,1.17z" fill="#c69a89" id="svg_79"/>
  <path d="m2936.68,1431.35c5.67,0 26.69,5.31 38.73,8.5a755.3,755.3 0 0 1 8.62,2.31l-2.14,57.14a15.43,15.43 0 0 1 -5.63,1.03c-20.08,0 -43.83,-35.5 -43.83,-35.5s-5.4,1.9 -14.46,1.9c-4.69,0 -10.37,-0.51 -16.78,-2.06c-8.92,-2.16 -13,-7.83 -13.25,-12.94c-0.26,-5.01 3.18,-9.47 9.35,-9.47c0.76,0 1.55,0.07 2.39,0.21c1.23,0.21 2.47,0.3 3.7,0.3c13.33,0 26.26,-11.13 32.99,-11.42c0.1,0 0.2,0 0.31,0m0,-4.01c-0.17,0 -0.32,0.01 -0.47,0.01c-3.6,0.16 -7.72,2.24 -12.49,4.66c-6.27,3.17 -13.37,6.76 -20.34,6.76a18.31,18.31 0 0 1 -3.04,-0.25a18.47,18.47 0 0 0 -3.05,-0.26c-3.93,0 -7.45,1.42 -9.9,4c-2.42,2.55 -3.64,5.99 -3.45,9.68c0.18,3.62 1.75,7.21 4.44,10.1c2.88,3.08 6.98,5.34 11.87,6.52c5.96,1.44 11.92,2.17 17.72,2.17c5.7,0 10.09,-0.71 12.78,-1.31c2.38,3.3 7.13,9.58 13.16,15.92c12,12.6 22.88,18.99 32.35,18.99c2.47,0 4.85,-0.44 7.08,-1.3a4,4 0 0 0 2.55,-3.59l2.14,-57.13a4,4 0 0 0 -2.93,-4.01c-0.04,-0.01 -3.6,-0.99 -8.68,-2.32c-14.85,-3.94 -33.81,-8.64 -39.74,-8.64z" id="svg_80"/>
  <path d="m3155.93,1621.74c-40.26,0 -79,-14.42 -115.17,-42.85c-28.76,-22.61 -47.88,-48.12 -55.07,-57.73c-0.66,-0.87 -1.22,-1.62 -1.7,-2.25a1.95,1.95 0 0 1 -0.27,-0.49c-1.29,-3.32 -2.44,-8.31 -3.34,-14.42c-1.82,-12.4 -2.94,-32.34 -0.1,-47.76c1.96,-10.77 5.55,-17.23 10.64,-19.2c0.19,-0.08 0.38,-0.12 0.57,-0.13a35.12,35.12 0 0 1 2.62,-0.1c19.45,0 35.78,16.22 54.67,35.01c8.54,8.48 17.36,17.24 27.28,25.39c25.21,20.69 49.89,30.33 77.7,30.33c1.25,0 2.51,-0.02 3.79,-0.06c50.3,-1.61 61.79,-23.85 71.94,-43.47c7.31,-14.14 14.21,-27.49 35.24,-27.49c0.54,0 1.09,0.01 1.65,0.03c17.76,0.56 33.81,13.84 40.91,33.82c4.7,13.25 4.98,27.86 0.8,42.25c-4.79,16.51 -15.02,31.65 -30.41,44.98c-15.76,13.67 -36.6,25.02 -61.94,33.73c-20.07,6.91 -40.19,10.41 -59.81,10.41z" fill="#95ad7b" id="svg_81"/>
  <path d="m2994.11,1438.81c27.08,0 48.65,33.65 80.68,59.95c20.59,16.9 45.5,30.78 78.97,30.78c1.27,0 2.55,-0.02 3.85,-0.06c89.13,-2.85 60.22,-70.96 107.12,-70.96c0.52,0 1.05,0.01 1.59,0.03c39.24,1.25 67.63,67.64 10.05,117.54c-14.55,12.61 -34.56,24.16 -61.28,33.35c-20.97,7.21 -40.73,10.3 -59.16,10.3c-98.01,0 -158.91,-87.03 -170.35,-102.05c-1.22,-3.15 -2.36,-8.09 -3.22,-13.99c-2.04,-13.88 -2.69,-33.1 -0.12,-47.1c1.65,-9.01 4.61,-15.85 9.4,-17.7a33.47,33.47 0 0 1 2.47,-0.09m0,-4c-0.92,0 -1.85,0.03 -2.77,0.1a3.97,3.97 0 0 0 -1.14,0.26c-5.87,2.27 -9.76,9.05 -11.9,20.71c-2.88,15.66 -1.74,35.86 0.1,48.41c0.92,6.25 2.11,11.39 3.45,14.85a4,4 0 0 0 0.55,0.98c0.47,0.62 1.04,1.38 1.68,2.24c7.24,9.66 26.47,35.33 55.45,58.11c36.52,28.71 75.69,43.27 116.4,43.27c19.85,0 40.19,-3.54 60.46,-10.52c25.58,-8.79 46.64,-20.27 62.6,-34.11c15.69,-13.59 26.13,-29.05 31.03,-45.94c4.29,-14.79 4,-29.83 -0.85,-43.48c-7.37,-20.76 -24.14,-34.55 -42.72,-35.15a55.36,55.36 0 0 0 -1.71,-0.02c-22.26,0 -29.43,13.88 -37.03,28.57c-9.89,19.13 -21.1,40.81 -70.23,42.39c-1.24,0.03 -2.49,0.05 -3.72,0.05c-27.32,0 -51.6,-9.49 -76.43,-29.87c-9.85,-8.08 -18.64,-16.82 -27.13,-25.26c-19.22,-19.1 -35.81,-35.59 -56.09,-35.59z" id="svg_82"/>
  <path d="m3276.37,1576.09c-14.55,12.61 -34.56,24.16 -61.28,33.35c-132.49,45.59 -215.92,-73.91 -229.51,-91.75c-1.22,-3.15 -2.36,-8.09 -3.22,-13.98c9.11,10.77 22.06,26.12 42.4,44.98c24.83,22.98 90.72,47.87 170.58,19c33.64,-12.17 63.35,-5.51 81.03,8.4z" fill="#779364" id="svg_83"/>
  <path d="m3077.42,1502.31s-21.77,-13.75 -37.02,-29.01c-15.27,-15.26 -30.42,-26.4 -39.87,-23.93c-9.45,2.48 -3.04,7.19 -8.87,9.64c-3.66,1.53 -7.25,-0.59 -9.42,-2.4c1.65,-9.02 4.62,-15.85 9.41,-17.71c28.26,-2.12 50.14,32.77 83.14,59.87l2.63,3.54z" fill="#e2f2a5" id="svg_84"/>
  <path d="m3348.09,1508.25c8.97,-36.68 -3.26,-51.36 -79.07,-61.95s-101.09,-4.9 -101.09,-4.9l-77.44,188.31s116.57,15.49 141.03,5.71s83.15,-66.03 83.15,-66.03l33.42,-61.14z" fill="#779364" id="svg_85" stroke="#000" stroke-linecap="round" strokeLinejoin="round" stroke-miterlimit="10" stroke-width="4"/>
  <path d="m3313.06,1469.72s-27.97,48.73 -47.83,27.22c-49.48,-53.6 -78.34,-54.43 -78.34,-54.43s111.33,13.19 126.17,27.21z" fill="#617a4d" id="svg_86"/>
  <path d="m2777.51,1769.77c-12.15,0 -20.54,-4.81 -24.94,-14.32c-4.1,-8.83 -13.6,-38.69 -13.41,-56.42c0.05,-4.8 2.8,-10.51 15.63,-10.51c12.29,0 27.87,5.15 28.53,5.37a2,2 0 0 1 1.31,1.44c2.79,11.75 11.11,43.63 16.11,49.91c2.96,3.71 3.66,8.27 1.92,12.49c-2.56,6.22 -9.67,10.58 -19.02,11.67a53.63,53.63 0 0 1 -6.13,0.37z" fill="#c69a89" id="svg_87"/>
  <path d="m2754.79,1690.52c12.1,0 27.9,5.27 27.9,5.27s10.11,42.69 16.49,50.69s-0.13,19.11 -15.77,20.93a51.06,51.06 0 0 1 -5.9,0.36c-12.06,0 -19.34,-4.99 -23.13,-13.16c-4.37,-9.42 -13.4,-38.5 -13.22,-55.56c0.07,-6.52 6.15,-8.53 13.63,-8.53m0,-4.01l0,4.01l0,-4.01l0,0c-15.22,0.01 -17.58,7.83 -17.63,12.5c-0.19,17.68 8.87,47.12 13.59,57.29c3.27,7.06 10.57,15.48 26.76,15.48c2.01,0 4.15,-0.13 6.36,-0.39c10.08,-1.17 17.79,-5.99 20.64,-12.89c2.03,-4.92 1.23,-10.21 -2.2,-14.51c-4.24,-5.32 -11.9,-32.95 -15.73,-49.12a4,4 0 0 0 -2.62,-2.88c-0.67,-0.22 -16.56,-5.48 -29.17,-5.48z" id="svg_88"/>
  <path d="m2675.17,1833.34c22.03,6.86 83.31,2.34 106.47,0.99c23.16,-1.36 60.49,-7.91 58.31,-35.82c-2.17,-27.91 -29.75,-61.22 -29.75,-61.22s-9.99,-0.18 -12.45,2.28c-3.89,3.89 -2.84,8.15 -11.67,13.61c-28.53,17.65 -35.67,-0.64 -35.67,-0.64s4.16,-6.34 1.29,-11.03c-2.86,-4.69 3.1,-8.75 -4.3,-5.12c-6.32,3.1 -13.38,15.19 -15.31,18.64c-0.32,0.59 -0.5,0.93 -0.5,0.93s-74.42,45.15 -78.45,47.32c-4.03,2.16 0,23.19 22.03,30.06z" fill="#1c1a19" id="svg_89" stroke="#000" stroke-linecap="round" strokeLinejoin="round" stroke-miterlimit="10" stroke-width="4"/>
  <path d="m2719.35,1846.83c-42.67,0 -71.56,-4.81 -78.05,-9.56c-4.5,-3.3 -7.46,-8.2 -7.91,-13.11c-0.39,-4.22 1.09,-8.24 4.28,-11.61c7.47,-7.93 14.38,-10.98 14.67,-11.11a2,2 0 0 1 1.35,-0.09c0.72,0.21 17.58,5.1 24.71,9.78c5.9,3.88 9.97,11.23 11.46,14.24l20.28,-1.77l9.46,-8.7a2,2 0 0 1 1.3,-0.52l32.1,-0.94a2,2 0 0 1 1.53,0.72l7.05,8.45l28.33,-4.52c2.59,-5.06 15.62,-26.72 48.5,-26.99l0.16,0c8.28,0 11.49,5.38 15.17,16.68c2.8,8.58 2.56,17.07 -0.63,22.71c-1.98,3.5 -5.06,5.82 -8.91,6.71c-10.48,2.41 -68.15,8.85 -116.13,9.56c-2.97,0.04 -5.88,0.07 -8.72,0.07z" fill="#b3bde0" id="svg_90"/>
  <path d="m2838.58,1793.1c6.74,0 9.54,3.89 13.26,15.3c3.75,11.49 2.08,24.5 -8.09,26.85c-10.16,2.34 -67.97,8.8 -115.71,9.51c-2.95,0.04 -5.86,0.07 -8.68,0.07c-42.88,0 -70.99,-4.87 -76.87,-9.17c-6.28,-4.6 -10.65,-14.02 -3.37,-21.74c7.28,-7.72 14.02,-10.64 14.02,-10.64s17.2,4.95 24.16,9.53c6.96,4.57 11.34,14.68 11.34,14.68l22.35,-1.95l9.97,-9.16l32.04,-0.94l7.78,9.33l30.48,-4.87s11.03,-26.51 47.17,-26.8l0.15,0m0,-4.01l-0.18,0c-19.94,0.17 -32.66,8.01 -39.81,14.57c-5.39,4.94 -8.52,9.9 -9.99,12.61l-26.21,4.19l-6.31,-7.58a4,4 0 0 0 -3.08,-1.44l-0.12,0l-32.04,0.94a4,4 0 0 0 -2.59,1.05l-8.96,8.24l-18.27,1.59c-1.93,-3.63 -5.94,-10.13 -11.52,-13.8c-7.38,-4.85 -24.52,-9.82 -25.25,-10.03a4.01,4.01 0 0 0 -2.7,0.18c-0.31,0.13 -7.58,3.34 -15.34,11.56c-3.59,3.81 -5.25,8.36 -4.81,13.18c0.5,5.47 3.76,10.91 8.72,14.54c8,5.85 40.58,9.94 79.24,9.94c2.87,0 5.81,-0.02 8.74,-0.07c48.11,-0.71 106.01,-7.18 116.55,-9.61c4.42,-1.02 7.94,-3.67 10.21,-7.67c3.46,-6.13 3.76,-15.22 0.79,-24.32c-3.34,-10.24 -6.72,-18.07 -17.07,-18.07z" id="svg_91"/>
  <path d="m2741.88,1763.38c-0.21,0 -0.41,-0.03 -0.62,-0.1c-6.98,-2.27 -11.83,-5 -14.42,-8.1a2,2 0 0 1 -0.21,-2.25c2.05,-3.69 13.01,-14.97 19.89,-18.34c1.73,-0.85 3.96,-1.28 6.61,-1.28c1.97,0 4.15,0.24 6.48,0.7a2,2 0 0 1 1.55,1.5c0.56,2.36 0.71,4.63 0.45,6.74c-0.4,3.18 -1.82,6.36 -4.13,9.18c-3.97,4.86 -9.26,8.26 -14.37,11.54l-0.14,0.09c-0.33,0.21 -0.71,0.32 -1.09,0.32z" fill="#b3bde0" id="svg_92"/>
  <path d="m2753.13,1735.31c1.91,0 3.99,0.25 6.09,0.66c0.46,1.98 0.65,4.01 0.4,6.03c-0.37,3 -1.77,5.82 -3.69,8.17c-3.81,4.65 -8.99,7.96 -14.05,11.21c-5.64,-1.84 -10.89,-4.35 -13.5,-7.48c1.92,-3.45 12.69,-14.41 19.02,-17.51c1.53,-0.75 3.52,-1.08 5.73,-1.08m0,-4c-2.96,0 -5.49,0.5 -7.5,1.48c-7.31,3.59 -18.55,15.2 -20.75,19.16a4,4 0 0 0 0.42,4.51c2.84,3.4 8,6.33 15.34,8.73a4,4 0 0 0 3.41,-0.44l0.14,-0.1c5.25,-3.37 10.67,-6.85 14.84,-11.95c2.55,-3.12 4.13,-6.65 4.57,-10.21c0.29,-2.34 0.12,-4.85 -0.49,-7.44a4,4 0 0 0 -3.11,-3.01c-2.46,-0.48 -4.77,-0.73 -6.87,-0.73z" id="svg_93"/>
  <path d="m2765.89,1727.29c-14.82,0 -25.56,-1.93 -31.92,-5.75a2,2 0 0 1 -0.86,-1.07c-0.11,-0.32 -10.95,-32.5 -12.43,-78.62c-1,-31.34 2.48,-61.83 10.33,-90.6c6.71,-24.58 19.66,-43.14 38.51,-55.19c16.41,-10.48 36.8,-15.79 60.6,-15.79c30.6,0 64.99,8.98 94.37,24.64l0.35,0.19c32.01,17.17 73.25,51.98 102.22,78.15c31.34,28.33 55.48,52.94 55.72,53.19a2,2 0 0 1 -0.22,2.99l-94.27,71.73a2,2 0 0 1 -2.74,-0.31c-0.96,-1.14 -96.48,-114.28 -150.42,-122.27a28.57,28.57 0 0 0 -4.16,-0.32c-6.32,0 -11.21,2.38 -14.94,7.28c-8.67,11.38 -10.6,36.29 -5.58,72.05c3.83,27.33 10.43,51.46 10.5,51.7a2,2 0 0 1 -1.55,2.5c-0.29,0.06 -28.71,5.5 -53.5,5.5l-0.01,0z" fill="#3f3734" id="svg_94"/>
  <path d="m2830.12,1482.27c32.59,0 66.98,10.31 93.43,24.41c0.14,0.07 0.26,0.14 0.4,0.21c61.51,33.01 157.4,130.95 157.4,130.95l-94.27,71.73s-96.33,-114.77 -151.65,-122.97a30.38,30.38 0 0 0 -4.46,-0.34c-48.73,-0.01 -11.95,133.56 -11.95,133.56s-28.23,5.47 -53.13,5.47c-12.44,0 -24.05,-1.36 -30.89,-5.47c0,0 -10.83,-31.68 -12.32,-78.03c-0.83,-26.32 1.35,-57.35 10.26,-90.01c14.02,-51.4 54.01,-69.51 97.18,-69.51m0.01,-4l0,4l0,-4c-24.2,0 -44.95,5.42 -61.69,16.11c-19.28,12.31 -32.52,31.27 -39.36,56.34c-7.9,28.97 -11.4,59.65 -10.4,91.19c1.49,46.43 12.09,77.89 12.54,79.21a4,4 0 0 0 1.72,2.14c6.77,4.06 17.55,6.03 32.95,6.03c24.99,0 52.72,-5.31 53.89,-5.54a4,4 0 0 0 3.1,-4.99c-0.07,-0.24 -6.64,-24.29 -10.45,-51.49c-6.23,-44.47 -0.61,-62.89 5.2,-70.52c3.32,-4.37 7.69,-6.49 13.34,-6.49c1.23,0 2.53,0.1 3.87,0.3c53.19,7.88 148.22,120.44 149.18,121.58a4,4 0 0 0 3.07,1.43c0.84,0 1.7,-0.27 2.42,-0.82l94.27,-71.73a4,4 0 0 0 0.44,-5.99c-0.24,-0.24 -24.43,-24.9 -55.82,-53.26c-42.26,-38.19 -76.76,-64.57 -102.56,-78.41a2.61,2.61 0 0 0 -0.1,-0.06l-0.11,-0.05c-0.08,-0.04 -0.15,-0.09 -0.23,-0.13c-29.66,-15.79 -64.37,-24.85 -95.27,-24.85z" id="svg_95"/>
  <path d="m2923.95,1506.89a593.79,593.79 0 0 0 -9.56,-2.36c-64.43,-15.34 -107.4,-24.55 -147.29,11.25c-31.05,27.85 -41.03,89.78 -44.42,126c-0.83,-26.31 1.35,-57.34 10.26,-90c24.6,-90.19 129.12,-77.88 190.61,-45.1c0.14,0.07 0.26,0.14 0.4,0.21z" fill="#96857e" id="svg_96"/>
  <path d="m2923.95,1506.89c-3.08,-0.79 -6.45,-1 -9.56,-2.36c-41.69,-18.31 -111.47,-33.5 -151.36,2.3c-31.05,27.86 -36.96,98.73 -40.35,134.96c-0.83,-26.32 1.35,-57.35 10.26,-90.01c24.6,-90.18 129.12,-77.88 190.61,-45.1c0.14,0.07 0.26,0.14 0.4,0.21z" fill="#fff" id="svg_97"/>
  <path d="m2821.12,1664.88c-3.23,0 -6.26,-1.63 -8.56,-4.58c-5.38,-6.92 -9.62,-28.55 -11.11,-39.03c-0.35,-2.46 -0.59,-4.51 -0.71,-6.08c-0.86,-10.15 11.06,-37.31 11.57,-38.46c0.16,-0.36 0.42,-0.66 0.74,-0.88c0.13,-0.07 12.46,-8.01 29.31,-15.84c22.73,-10.54 42.45,-15.89 58.62,-15.89c0.66,0 1.32,0.01 1.97,0.03a54.32,54.32 0 0 1 6,0.44c10.07,1.25 16.37,5.35 18.71,12.17c5.65,16.47 -15.03,43.31 -17.55,45.83c-0.81,0.81 -2.03,2.03 -35.13,5.57a2181.7,2181.7 0 0 1 -31.46,3.11l-6.86,6.17c0.65,4.3 2.6,20.05 -1.05,32.41c-2.72,9.27 -8.27,15.03 -14.49,15.03z" fill="#c69a89" id="svg_98"/>
  <path d="m2900.99,1546.13c0.63,0 1.27,0 1.9,0.02c1.98,0.04 3.9,0.18 5.8,0.42c39.15,4.89 2.45,52.16 0,54.61c-2.44,2.44 -66.01,8.16 -66.01,8.16l-8.16,7.34s3.27,18.75 -0.82,32.6c-2.66,9.06 -7.77,13.6 -12.58,13.6c-2.54,0 -5,-1.27 -6.98,-3.81c-4.78,-6.15 -8.99,-26.04 -10.71,-38.08c-0.33,-2.32 -0.57,-4.37 -0.7,-5.96c-0.82,-9.77 11.42,-37.5 11.42,-37.5s48.54,-31.4 86.84,-31.4m0,-4.01c-39.03,0 -87,30.74 -89.02,32.05a4.01,4.01 0 0 0 -1.49,1.75c-1.29,2.93 -12.62,28.97 -11.74,39.45c0.12,1.59 0.37,3.68 0.73,6.19c0.18,1.25 4.46,30.91 11.51,39.97c2.68,3.45 6.28,5.35 10.14,5.35c7.14,0 13.43,-6.31 16.42,-16.47c3.49,-11.85 2.01,-26.64 1.26,-32.2l5.56,-5c4.17,-0.39 17.47,-1.62 30.83,-3.05c33.81,-3.62 34.98,-4.79 36.33,-6.15c1.11,-1.11 6.92,-8.35 11.92,-17.67c6.67,-12.43 8.73,-22.6 6.11,-30.23c-2.61,-7.6 -9.46,-12.15 -20.36,-13.51a56.38,56.38 0 0 0 -6.23,-0.45c-0.63,-0.02 -1.3,-0.03 -1.97,-0.03z" id="svg_99"/>
  <path d="m2902.89,1546.15c-5.9,5.99 -13.77,12.2 -23.27,15.66c-22.51,8.18 -52.16,21.47 -58.3,22.5c-6.15,1.02 -12.28,23.52 -15.36,31.7c-0.57,1.56 -1.45,3.27 -2.53,4.98c-0.33,-2.32 -0.58,-4.37 -0.7,-5.96c-0.82,-9.77 11.41,-37.5 11.41,-37.5s50.19,-32.46 88.75,-31.38z" fill="#feebd2" id="svg_100"/>
  <path d="m2828.81,1609.34s4.82,4.25 12.97,1.81" fill="#feebd2" id="svg_101" stroke="#000" stroke-linecap="round" strokeLinejoin="round" stroke-miterlimit="10" stroke-width="4"/>
  <path d="m3150.57,1446.41s46.68,-14.15 79.21,5.65s63.65,56.58 97.6,21.22s2.83,-70.72 -50.92,-63.65s-125.89,36.78 -125.89,36.78z" fill="#95ad7b" id="svg_102" stroke="#000" stroke-linecap="round" strokeLinejoin="round" stroke-miterlimit="10" stroke-width="4"/>
  <path d="m3312.8,1429.73c0,10.94 -8.37,19.82 -28.39,19.82c-20.01,0 -46.02,-25.89 -46.02,-36.83s18.16,-2.8 38.17,-2.8c20.02,0 36.24,8.87 36.24,19.81z" fill="#779364" id="svg_103"/>
  <path d="m3342.53,1355.84s-3.8,6.64 -7.13,3.03c-3.32,-3.61 -4.67,-32.25 4.18,-46.04c8.84,-13.79 8.22,29.92 7.97,30.6" fill="#feebd2" id="svg_104"/>
  <path d="m3338.47,1314.61c1.49,-2.81 3.18,-5.3 5,-7.43c5.56,-6.53 12.34,-9.58 18.56,-7.44c11,3.79 16.1,22.39 11.38,41.55c-1.61,6.55 -4.15,12.32 -7.25,16.92c-5.97,8.86 -13.96,13.41 -21.2,10.91c-4.73,-1.62 -8.37,-6 -10.6,-11.98" fill="#c69a89" id="svg_105" stroke="#000" stroke-linecap="round" strokeLinejoin="round" stroke-miterlimit="10" stroke-width="4"/>
  <path d="m3191.65,1438.76c-25.31,0 -47.1,-3.51 -63,-10.13a90.25,90.25 0 0 1 -14.8,-7.72c-15.36,-9.83 -27.84,-24.35 -35.14,-40.88a79.69,79.69 0 0 1 -3.54,-9.41c-1.74,-5.52 -2.83,-11.08 -3.24,-16.51c-0.35,-4.48 -0.21,-8.82 0.41,-12.91c0.07,-0.5 0.15,-1.11 0.28,-1.78c0.12,-0.69 0.24,-1.33 0.4,-1.98a35.48,35.48 0 0 1 1.56,-5.28a38.38,38.38 0 0 0 1.5,-5.57c0.05,-0.29 0.11,-0.58 0.16,-0.88c0.33,-1.57 0.6,-3.26 0.85,-5.2c1.07,-7.74 1.7,-17.33 2.35,-28.15l0.22,-3.26c0.51,-7.65 1.03,-15.57 1.74,-23.84c0.04,-0.31 0.16,-1.42 0.16,-1.42c0.09,-1 0.18,-2.03 0.3,-3.1l0.2,-1.84c0.43,-4.01 0.88,-8.15 1.46,-12.29c0.16,-1.17 0.31,-2.33 0.44,-3.51l0.39,-2.59l0.2,-1.26c0.19,-1.19 0.38,-2.37 0.59,-3.56c0.04,-0.38 0.11,-0.77 0.17,-1.16l0.11,-0.66c0.11,-0.66 0.24,-1.27 0.36,-1.88c0.1,-0.48 0.2,-0.95 0.29,-1.43c0.62,-3.5 1.36,-7.07 2.2,-10.62c1.25,-5.36 2.42,-9.7 3.68,-13.65c6.76,-21.86 16.48,-38.13 29.72,-49.73c2.81,-2.47 5.18,-4.41 7.47,-6.11a69.63,69.63 0 0 1 3.05,-2.29c4.63,-3.35 8.96,-6.12 13.2,-8.46c0.15,-0.08 0.37,-0.21 0.6,-0.33l0.29,-0.16a123.05,123.05 0 0 1 6.55,-3.34a69.36,69.36 0 0 1 4.24,-1.93a124.59,124.59 0 0 1 18.13,-6.2l0.15,-0.03c6.38,-1.66 13.21,-2.85 20.31,-3.53c4.88,-0.47 9.47,-0.69 14.06,-0.69l1.06,0c13.71,0 28.07,1.67 43.9,5.12c11.12,2.39 22.12,6 32.68,10.72a165.38,165.38 0 0 1 11.63,5.72c9.72,5.2 18.88,11.33 27.24,18.23c0.35,0.31 0.64,0.57 0.94,0.83c0.43,0.37 0.87,0.75 1.3,1.14c1.78,1.5 3.59,3.18 5.33,4.81l0.55,0.51c0.09,0.09 0.17,0.17 0.24,0.27a113.71,113.71 0 0 1 4.65,4.75c22.48,23.93 33.34,52.36 31.38,82.21c-0.74,11.5 -1.7,24.88 -3.66,38.31c-0.38,2.51 -0.76,4.95 -1.21,7.43c-0.09,0.43 -0.15,0.82 -0.22,1.2c-0.08,0.44 -0.15,0.88 -0.24,1.32a23.21,23.21 0 0 1 -0.26,1.31c-0.06,0.27 -0.12,0.54 -0.17,0.81c-0.09,0.61 -0.22,1.23 -0.34,1.86l-0.04,0.2c-9.46,45.73 -31.95,79.32 -70.81,105.74a56.03,56.03 0 0 1 -5.11,3.13a93.08,93.08 0 0 1 -8.29,4.06c-22.22,9.61 -56.18,15.59 -88.62,15.59z" fill="#c69a89" id="svg_106"/>
  <path d="m3210.78,1125.49c13.84,0 28.33,1.78 43.47,5.08c10.84,2.32 21.75,5.87 32.29,10.59a162.37,162.37 0 0 1 11.49,5.65c9.53,5.09 18.6,11.14 26.92,18.02c0.71,0.64 1.45,1.24 2.16,1.89c2.01,1.69 3.96,3.53 5.88,5.32c0.06,0.08 0.09,0.11 0.17,0.19a120.25,120.25 0 0 1 4.6,4.71c20.19,21.49 32.95,49.01 30.86,80.73c-0.79,12.19 -1.73,25.02 -3.64,38.15c-0.38,2.46 -0.75,4.89 -1.2,7.37c-0.17,0.84 -0.29,1.65 -0.46,2.47c-0.11,0.72 -0.3,1.45 -0.43,2.15c-0.11,0.71 -0.24,1.37 -0.37,2.04c-7.52,36.33 -24.89,73.82 -69.97,104.48a53.89,53.89 0 0 1 -4.94,3.02a91.06,91.06 0 0 1 -8.13,3.98c-22.21,9.61 -55.82,15.42 -87.83,15.42c-23.25,0 -45.65,-3.06 -62.23,-9.97a88,88 0 0 1 -14.49,-7.55c-16.22,-10.39 -27.74,-24.95 -34.39,-40.01a78.17,78.17 0 0 1 -3.45,-9.19c-1.71,-5.42 -2.77,-10.83 -3.16,-16.07c-0.34,-4.29 -0.21,-8.53 0.39,-12.46c0.08,-0.6 0.15,-1.12 0.27,-1.69a28.04,28.04 0 0 1 0.37,-1.9a33.92,33.92 0 0 1 1.49,-5.03a40.31,40.31 0 0 0 1.6,-5.92c0.05,-0.28 0.11,-0.58 0.16,-0.88c0.34,-1.65 0.62,-3.42 0.87,-5.32c1.07,-7.73 1.71,-17.41 2.37,-28.28c0.56,-8.44 1.14,-17.6 1.95,-27.05c0.05,-0.45 0.09,-0.88 0.15,-1.35c0.09,-1.06 0.19,-2.07 0.3,-3.12c0.51,-4.64 1,-9.34 1.65,-14.07c0.17,-1.18 0.32,-2.37 0.45,-3.57c0.13,-0.85 0.25,-1.65 0.38,-2.5c0.26,-1.63 0.51,-3.23 0.79,-4.83c0.07,-0.6 0.19,-1.2 0.28,-1.82c0.19,-1.07 0.43,-2.14 0.64,-3.25c0.62,-3.49 1.35,-7.02 2.18,-10.52c1.07,-4.58 2.23,-9.09 3.64,-13.5c5.9,-19.07 14.95,-36.4 29.14,-48.84c2.44,-2.14 4.82,-4.13 7.34,-6.01a69.62,69.62 0 0 1 3.01,-2.25c4.26,-3.08 8.58,-5.9 13.01,-8.34c0.28,-0.17 0.6,-0.34 0.9,-0.51a120.94,120.94 0 0 1 6.43,-3.27a68.57,68.57 0 0 1 4.15,-1.9a122.19,122.19 0 0 1 17.86,-6.1c0.06,-0.02 0.1,-0.02 0.15,-0.04c6.5,-1.69 13.17,-2.82 20.01,-3.47c4.56,-0.44 9.16,-0.68 13.86,-0.68c0.35,0 0.71,0 1.06,0m0,-4c-0.36,0 -0.73,0 -1.09,0c-4.63,0 -9.28,0.23 -14.22,0.7c-7.2,0.69 -14.13,1.89 -20.61,3.58a3.93,3.93 0 0 0 -0.22,0.05c-6.16,1.58 -12.33,3.69 -18.36,6.28a72.16,72.16 0 0 0 -4.34,1.98a124.94,124.94 0 0 0 -6.59,3.36l-0.05,0.02l-0.27,0.15c-0.23,0.13 -0.45,0.25 -0.66,0.38c-4.29,2.37 -8.66,5.16 -13.35,8.55a73.13,73.13 0 0 0 -3.12,2.34c-2.32,1.73 -4.72,3.69 -7.55,6.17c-13.52,11.86 -23.44,28.43 -30.31,50.67c-1.27,3.97 -2.46,8.36 -3.72,13.78a194.06,194.06 0 0 0 -2.22,10.73c-0.09,0.43 -0.18,0.9 -0.28,1.36c-0.13,0.63 -0.25,1.26 -0.37,1.89l-0.01,0.1c-0.03,0.21 -0.07,0.42 -0.1,0.62c-0.07,0.4 -0.13,0.8 -0.18,1.2a214.83,214.83 0 0 0 -0.59,3.56l-0.2,1.23c-0.07,0.46 -0.13,0.88 -0.19,1.31c-0.06,0.4 -0.12,0.8 -0.18,1.21c-0.01,0.06 -0.02,0.12 -0.03,0.18a104.55,104.55 0 0 1 -0.43,3.44c-0.58,4.18 -1.04,8.34 -1.47,12.37l-0.2,1.83a175.08,175.08 0 0 0 -0.3,3.14c-0.03,0.21 -0.05,0.42 -0.07,0.63c-0.03,0.21 -0.05,0.42 -0.07,0.64c-0.01,0.05 -0.02,0.1 -0.02,0.15c-0.71,8.3 -1.24,16.23 -1.75,23.91l-0.21,3.21c-0.65,10.81 -1.28,20.35 -2.34,28.01a68.83,68.83 0 0 1 -0.82,5.06l-0.01,0.07c-0.06,0.28 -0.11,0.57 -0.16,0.83a36.63,36.63 0 0 1 -1.43,5.32a37.6,37.6 0 0 0 -1.63,5.52a32.33,32.33 0 0 0 -0.41,2.07a26.8,26.8 0 0 0 -0.29,1.86c-0.64,4.23 -0.79,8.71 -0.42,13.32c0.42,5.58 1.54,11.29 3.33,16.97a81.4,81.4 0 0 0 3.62,9.62c7.44,16.86 20.19,31.7 35.89,41.74a92.22,92.22 0 0 0 15.12,7.89c11.24,4.68 31.44,10.27 63.75,10.27c32.7,0 66.96,-6.04 89.42,-15.75a95.25,95.25 0 0 0 8.49,-4.16a57.72,57.72 0 0 0 5.27,-3.23c21.55,-14.66 37.98,-31.44 50.2,-51.3c10.03,-16.31 17.04,-34.51 21.41,-55.65l0.05,-0.27c0.12,-0.6 0.24,-1.22 0.35,-1.9c0.04,-0.23 0.09,-0.47 0.14,-0.7c0.1,-0.43 0.2,-0.91 0.28,-1.42c0.09,-0.44 0.17,-0.87 0.24,-1.31c0.06,-0.36 0.13,-0.73 0.2,-1.1l0.01,-0.07c0.46,-2.52 0.84,-4.97 1.23,-7.47c1.97,-13.53 2.93,-26.96 3.68,-38.5c2,-30.41 -9.05,-59.37 -31.94,-83.73a123.14,123.14 0 0 0 -4.65,-4.76a4.25,4.25 0 0 0 -0.31,-0.33l-0.54,-0.5c-1.75,-1.63 -3.55,-3.31 -5.43,-4.89c-0.42,-0.39 -0.84,-0.76 -1.27,-1.12a61.07,61.07 0 0 1 -0.86,-0.76l-0.12,-0.1c-8.45,-6.98 -17.73,-13.19 -27.58,-18.46a166.83,166.83 0 0 0 -11.76,-5.78c-10.67,-4.78 -21.8,-8.43 -33.07,-10.85c-15.96,-3.47 -30.46,-5.16 -44.31,-5.16z" id="svg_107"/>
  <path d="m3364.98,1295.83a228.81,228.81 0 0 1 -1.21,7.37c-0.16,0.82 -0.28,1.63 -0.45,2.46c-0.11,0.72 -0.28,1.44 -0.42,2.16a50.18,50.18 0 0 1 -0.38,2.02c-7.51,36.34 -24.9,73.81 -69.97,104.5c-3.7,2.52 -8.09,4.84 -13.08,6.99c-9.78,-1.75 -21.44,-6.53 -35.1,-9.87c-18.57,-4.58 -30.48,9.6 -61.26,-19.46c-30.77,-29.05 -31.49,-95.15 -31.49,-95.15s-8.07,40.56 -10.7,77.17c-1.61,22.46 -11.71,41.13 -25.97,45.21c-19.51,-12.49 -32.24,-31.05 -37.87,-49.19c5.45,4.97 12.07,8.58 19.7,8.18c22.73,-1.18 10.86,-17.57 12.84,-79.03c1.98,-61.5 29.43,-84.83 41.77,-111.81c9.66,-21.06 -0.23,-39.05 -5.04,-45.92l0.91,-0.52c3.49,-1.89 7.01,-3.61 10.58,-5.16c28.73,-12.37 60.66,-12.97 96.41,-5.22c14.8,3.19 29.79,8.68 43.79,16.25c9.52,5.1 18.59,11.14 26.9,18.02c0.72,0.64 1.45,1.25 2.17,1.89c2.01,1.69 3.97,3.52 5.88,5.33a137.23,137.23 0 0 1 4.78,4.89c20.19,21.48 32.92,49 30.85,80.73c-0.79,12.19 -1.71,25.02 -3.64,38.16z" fill="#776965" id="svg_108"/>
  <path d="m3334.88,1172.32c-0.58,-0.04 -2.01,-0.6 -1.73,-0.1c6.72,11.68 3.08,23.19 -3.87,26.98c-26.98,14.64 -65.19,8.33 -96.21,-27.9c-23.95,-27.96 -54.35,-34.65 -79.38,-33.63a80.88,80.88 0 0 1 4.14,-1.89a122.8,122.8 0 0 1 17.87,-6.1c0.05,-0.02 0.1,-0.01 0.15,-0.03c6.65,-1.45 13.36,-2.64 20.01,-3.49c11.48,-1.45 22.77,-1.89 33.29,-0.79c43.57,4.49 76.84,21.22 104.88,46.19c0.27,0.26 0.57,0.53 0.85,0.76z" fill="#51453f" id="svg_109"/>
  <path d="m3209.72,1125.5c-18.72,3 -36.13,8.75 -48.77,14.46c-35.77,16.18 -58.25,50.74 -64.17,92.18c-5.92,41.44 -11.28,79.43 -14.38,94.48c-3.11,15.05 -7.73,26.33 -2.2,49.1c0.31,1.24 0.42,2.39 0.34,3.51a78.82,78.82 0 0 1 -3.46,-9.19c-1.71,-5.44 -2.76,-10.85 -3.15,-16.07c-0.33,-4.3 -0.21,-8.53 0.39,-12.47c0.07,-0.59 0.16,-1.13 0.28,-1.69a25.3,25.3 0 0 1 0.37,-1.9a33.66,33.66 0 0 1 1.48,-5.02a39.54,39.54 0 0 0 1.6,-5.93c0.04,-0.28 0.11,-0.58 0.16,-0.89c0.34,-1.63 0.62,-3.4 0.88,-5.31c1.06,-7.72 1.69,-17.4 2.36,-28.27c0.55,-8.44 1.15,-17.61 1.96,-27.06c0.04,-0.45 0.09,-0.88 0.14,-1.35c0.09,-1.05 0.19,-2.07 0.3,-3.12c0.5,-4.65 0.99,-9.33 1.65,-14.07c0.16,-1.18 0.33,-2.36 0.45,-3.58c0.13,-0.84 0.24,-1.65 0.37,-2.49c0.26,-1.63 0.52,-3.23 0.8,-4.83c0.07,-0.59 0.19,-1.2 0.29,-1.81c0.17,-1.08 0.41,-2.15 0.64,-3.25a179.92,179.92 0 0 1 2.16,-10.52c1.07,-4.58 2.25,-9.1 3.65,-13.51c5.89,-19.07 14.96,-36.4 29.13,-48.83c2.45,-2.15 4.84,-4.13 7.34,-6.02a93.32,93.32 0 0 1 3.01,-2.25c4.26,-3.08 8.59,-5.89 13.02,-8.35c0.29,-0.17 0.6,-0.33 0.9,-0.51a139.92,139.92 0 0 1 6.43,-3.27a80.88,80.88 0 0 1 4.14,-1.89a122.8,122.8 0 0 1 17.87,-6.1c0.05,-0.02 0.1,-0.01 0.15,-0.03c6.5,-1.69 13.17,-2.82 20.01,-3.49c4.56,-0.43 9.16,-0.66 13.86,-0.66z" fill="#fff" id="svg_110"/>
  <path d="m3129.84,1322.62s1.55,7.49 5.83,5.09s14.48,-29.18 10.37,-45.05s-17.13,25.87 -17.1,26.6" fill="#c69a89" id="svg_111"/>
  <path d="m3146.54,1284.7c-0.55,-3.13 -1.37,-6.03 -2.44,-8.61c-3.25,-7.94 -8.74,-12.95 -15.32,-12.85c-11.64,0.17 -22.27,16.26 -23.76,35.94c-0.5,6.73 0.12,13 1.63,18.34c2.91,10.27 9.09,17.08 16.74,16.96c5.01,-0.07 9.83,-3.09 13.81,-8.08" fill="#c69a89" id="svg_112" stroke="#000" stroke-linecap="round" strokeLinejoin="round" stroke-miterlimit="10" stroke-width="4"/>
  <path d="m3214.71,1423.93c-25.94,-0.42 -42.69,8.35 -51.57,14.94c0.33,0.56 -1.46,2.04 -1.94,2.92s-1.97,2.62 8.52,-1.05c1.79,-0.55 4.76,-0.27 6.6,-0.58c3.85,-0.64 6.62,0.39 10.5,0.14c7,-0.47 13.84,-0.67 20.76,0.72c4.84,0.98 9.55,-1.07 13.72,1.54l37.31,-1.9c-9.85,-7.21 -17.93,-16.31 -43.9,-16.73z" fill="#95ad7b" id="svg_113"/>
  <path d="m3312.05,1437.93s0,13.33 -30,11.33s-26,-24.67 -67.34,-25.33c-41.34,-0.67 -59.34,22 -59.34,22" fill="none" id="svg_114" stroke="#000" stroke-linecap="round" strokeLinejoin="round" stroke-miterlimit="10" stroke-width="4"/>
  <path d="m2856.83,1791.01c-0.55,0 -1.09,-0.25 -1.43,-0.74c-9.82,-13.88 -17.9,-28.44 -24.01,-43.28c-11.73,-28.52 -15.89,-57.14 -12.04,-82.77c7.48,-49.85 23.08,-63.49 72.59,-63.49c10.96,0 24.11,0.62 43.98,2.07c0.72,0.06 1.54,0.08 2.46,0.08c3.54,0 8.09,-0.39 12.48,-0.78c4.44,-0.39 9.03,-0.79 12.67,-0.79c1.49,0 2.73,0.07 3.8,0.2c19.16,2.41 35.8,5.73 50.48,8.66c20.07,4.01 37.41,7.47 54.88,7.47c16.76,0 32.32,-3.21 48.99,-10.11c27,-11.17 50.77,-34.48 68.46,-53.54c7.48,-8.08 14.64,-16.26 21.57,-24.17c18.51,-21.17 34.51,-39.45 49.18,-47.22c11.71,-6.21 25.42,-9.63 38.6,-9.63c25.98,0 48.61,13 63.71,36.6c4.54,7.13 8.49,15.29 11.76,24.28a1.75,1.75 0 0 1 -0.85,2.16c-19.44,9.91 -38.43,21.5 -56.44,34.42c-17.81,12.8 -35.25,26.98 -53.3,43.36a1854.6,1854.6 0 0 0 -8.69,7.93c-14.17,13 -28.83,26.44 -45.18,37.37c-40.51,27.04 -85.63,42.35 -132.16,56.92c-24.81,7.76 -49.52,14.88 -73.42,21.76c-10.82,3.11 -23.6,6.85 -36.48,11.05c-6.08,1.96 -12.19,4.16 -18.1,6.29c-4.24,1.53 -8.63,3.11 -12.98,4.59c-6.59,2.25 -13.33,4.34 -19.86,6.35c-9.96,3.09 -20.27,6.27 -30.15,10.08c-12.68,4.87 -21.79,9.37 -29.54,14.59c-0.3,0.2 -0.64,0.29 -0.98,0.29z" fill="#636f93" id="svg_115"/>
  <path d="m3299.49,1474.72c22.01,0 45.42,9.51 62.24,35.8c4.34,6.81 8.24,14.74 11.59,23.93c-19.71,10.05 -38.64,21.62 -56.67,34.56c-18.67,13.41 -36.44,28.04 -53.46,43.48c-17.34,15.71 -34.15,32.1 -53.66,45.14c-40.2,26.84 -85.92,42.37 -131.71,56.71c-24.37,7.62 -48.86,14.69 -73.39,21.75c-12.23,3.51 -24.44,7.12 -36.53,11.06c-10.47,3.38 -20.7,7.34 -31.11,10.89c-16.62,5.68 -33.66,10.13 -50.08,16.46c-10.21,3.92 -20.64,8.54 -29.88,14.76c-9.67,-13.67 -17.73,-28.15 -23.82,-42.94c-11.25,-27.35 -15.85,-55.73 -11.92,-81.84c7.39,-49.31 22.49,-62 70.85,-62c12.32,0 26.79,0.82 43.85,2.07a35.42,35.42 0 0 0 2.59,0.09c7.22,0 18,-1.58 25.15,-1.58c1.33,0 2.54,0.06 3.58,0.19c44.98,5.65 74.91,16.14 105.59,16.14c15.65,0 31.5,-2.73 49.65,-10.24c25.57,-10.58 48.48,-31.78 69.07,-53.97c27.25,-29.39 50.43,-60.52 70.29,-71.04c10.72,-5.68 23.98,-9.42 37.78,-9.42m0,-3.5l0,3.5l0,-3.5c-13.46,0 -27.46,3.49 -39.42,9.83c-14.96,7.92 -31.05,26.32 -49.68,47.61c-6.92,7.91 -14.07,16.08 -21.54,24.14c-17.56,18.93 -41.15,42.07 -67.84,53.11c-16.45,6.81 -31.8,9.98 -48.31,9.98c-17.31,0 -34.56,-3.45 -54.54,-7.44c-14.71,-2.93 -31.39,-6.26 -50.61,-8.68c-1.14,-0.14 -2.45,-0.21 -4.02,-0.21c-3.72,0 -8.34,0.41 -12.82,0.8c-4.35,0.38 -8.86,0.77 -12.33,0.77c-0.87,0 -1.66,-0.02 -2.33,-0.07c-19.91,-1.46 -33.1,-2.09 -44.11,-2.09c-26.78,0 -42.16,3.88 -53.09,13.37c-10.87,9.45 -17.22,24.89 -21.23,51.62c-3.9,25.95 0.3,54.89 12.16,83.7c6.15,14.96 14.29,29.63 24.19,43.63a3.5,3.5 0 0 0 4.82,0.88c7.64,-5.14 16.64,-9.58 29.18,-14.4c9.84,-3.79 20.11,-6.97 30.05,-10.04c6.54,-2.03 13.3,-4.12 19.91,-6.37c4.36,-1.49 8.75,-3.07 13,-4.6c5.9,-2.13 12,-4.32 18.05,-6.28c12.87,-4.19 25.63,-7.93 36.42,-11.03c23.91,-6.88 48.63,-14 73.47,-21.77c46.65,-14.6 91.91,-29.96 132.6,-57.14c16.47,-11 31.18,-24.48 45.4,-37.53a1896.5,1896.5 0 0 1 8.68,-7.92c18,-16.34 35.39,-30.48 53.14,-43.24c17.94,-12.87 36.86,-24.41 56.22,-34.28a3.5,3.5 0 0 0 1.7,-4.32c-3.31,-9.11 -7.32,-17.39 -11.92,-24.62c-8.25,-12.88 -18.51,-22.62 -30.49,-28.96c-10.6,-5.61 -22.28,-8.45 -34.71,-8.45z" id="svg_116"/>
  <path d="m3129.79,1893.81c-54.15,0 -109.31,-6.02 -151.33,-16.52c-32.89,-8.23 -64.49,-25.81 -91.39,-50.83a236.12,236.12 0 0 1 -27.76,-30.86a1.75,1.75 0 0 1 0.42,-2.51c5.4,-3.6 11.78,-7.02 19.53,-10.43c12.88,-5.68 26.51,-9.87 39.69,-13.93c3.64,-1.13 7.29,-2.25 10.91,-3.4c5.76,-1.83 11.55,-3.92 17.14,-5.95a833.27,833.27 0 0 1 9.38,-3.34c10.42,-3.64 21.78,-7.25 35.75,-11.4c9.53,-2.82 19.25,-5.6 28.64,-8.3c14.85,-4.25 30.21,-8.65 45.2,-13.32l4.9,-1.52c42.88,-13.34 87.22,-27.14 126.25,-50.44c17.86,-10.65 35.29,-23.95 54.87,-41.86c18.24,-16.68 34.82,-31.63 53,-45.62c22.49,-17.31 45.91,-32.28 69.61,-44.49a1.75,1.75 0 0 1 2.47,1.03a174.95,174.95 0 0 1 3.15,11.24c4.6,18.86 6.93,41.36 6.93,66.87c-0.01,42.46 -6.48,88.62 -18.23,130.03c-12.76,44.97 -30.27,79.5 -50.64,99.87c-29.04,29.03 -97.74,45.68 -188.48,45.68l-0.01,0z" fill="#636f93" id="svg_117"/>
  <path d="m3375.4,1540.64a174.38,174.38 0 0 1 3.11,11.14c4.67,19.11 6.89,41.93 6.89,66.45l0,0.05c-0.02,83.23 -25.63,185.89 -68.36,228.61c-32.46,32.46 -109.36,45.17 -187.25,45.17c-54.87,0 -110.25,-6.31 -150.9,-16.47c-34.23,-8.57 -65.25,-26.81 -90.62,-50.42a234.04,234.04 0 0 1 -27.57,-30.63c6.08,-4.05 12.7,-7.39 19.26,-10.28c16.28,-7.17 33.51,-11.89 50.43,-17.26c8.95,-2.85 17.69,-6.22 26.56,-9.31c11.79,-4.11 23.71,-7.82 35.67,-11.37c24.6,-7.29 49.37,-14 73.87,-21.63c44.95,-14 90.84,-27.84 131.53,-52.12c20.07,-11.98 37.94,-26.34 55.15,-42.08c17.18,-15.72 34.41,-31.31 52.88,-45.52c21.8,-16.78 44.95,-31.75 69.35,-44.33m0,-3.5a3.5,3.5 0 0 0 -1.61,0.39c-23.79,12.26 -47.3,27.29 -69.87,44.66c-18.24,14.04 -34.85,29.01 -53.11,45.71c-19.49,17.83 -36.84,31.07 -54.59,41.66c-38.85,23.19 -83.1,36.96 -125.88,50.27l-4.89,1.52c-14.97,4.66 -30.32,9.06 -45.16,13.31c-9.4,2.69 -19.12,5.47 -28.66,8.3c-14,4.15 -25.39,7.78 -35.83,11.42a848.57,848.57 0 0 0 -9.4,3.36c-5.58,2.01 -11.34,4.1 -17.07,5.92c-3.62,1.15 -7.32,2.29 -10.9,3.39c-13.23,4.08 -26.91,8.29 -39.88,14.01c-7.84,3.45 -14.31,6.91 -19.79,10.57a3.5,3.5 0 0 0 -0.86,5.02a237.79,237.79 0 0 0 27.98,31.09c27.11,25.23 58.98,42.95 92.16,51.24c42.15,10.54 97.46,16.58 151.75,16.58c41.55,0 80.08,-3.62 111.41,-10.49c36.21,-7.93 62.56,-19.94 78.32,-35.7c14.35,-14.35 34.86,-43.46 51.08,-100.64c11.79,-41.56 18.29,-87.88 18.3,-130.45l0,-0.05c0,-25.65 -2.35,-48.29 -6.98,-67.28a176.2,176.2 0 0 0 -3.18,-11.36a3.5,3.5 0 0 0 -3.34,-2.45z" id="svg_118"/>
  <path d="m3385.4,1618.23l0,0.05c-5.09,63.71 -17.37,134.29 -72.6,204.86c-40.4,51.63 -194.86,61.37 -300.71,47.57c-49.59,-6.46 -92.44,-24.37 -123.82,-45.54c-24.31,-22.61 -43.44,-50.16 -55.26,-78.84c4.15,-40.19 34.32,-112.02 137.65,-85.81c108.93,27.61 193.31,-6.15 223.99,-55.24c30.69,-49.1 52.18,-92.07 115.09,-101.26c21.26,-3.11 38.49,0.44 51.98,6.5c6.89,10.77 12.67,24.36 16.79,41.26c4.67,19.11 6.89,41.93 6.89,66.45z" fill="#525f7f" id="svg_119"/>
  <path d="m3291.32,1522.42s-3.95,1.85 -10.2,6.31" fill="none" id="svg_120" stroke="#000" stroke-linecap="round" strokeLinejoin="round" stroke-width="3.5"/>
  <path d="m3263.22,1544.21c-14.41,14.71 -31.5,38.03 -44.01,73.34c-26.08,73.65 -33.76,200.99 -47.57,230.14c-6.89,14.56 -20.29,24.91 -31.98,31.63" fill="none" id="svg_121" stroke="#000" stroke-dasharray="23.6917,23.6917" stroke-linecap="round" strokeLinejoin="round" stroke-width="3.5"/>
  <path d="m3129.11,1884.71c-6.59,3 -11.17,4.41 -11.17,4.41" fill="none" id="svg_122" stroke="#000" stroke-linecap="round" strokeLinejoin="round" stroke-width="3.5"/>
  <path d="m3191.42,1555.18c-15.12,59.75 -79.21,81.67 -116.68,77c-22.86,-2.86 -71,-17.27 -107.63,-28.93c67.94,8.53 101.54,28.12 155.24,5.9c25.57,-10.58 48.48,-31.78 69.07,-53.97z" fill="#525f7f" id="svg_123"/>
  <path d="m3072.69,1621.39c-17.86,0 -35.36,-3.5 -55.63,-7.54c-20.55,-4.11 -43.83,-8.76 -73.16,-10.9c-16.17,-1.17 -28.64,-1.72 -39.24,-1.72c-0.58,0 -1.75,0.01 -1.75,0.01c-0.96,0 -1.79,-0.69 -1.97,-1.63c-1.02,-5.47 -5.69,-33.69 3.35,-52.51c1.45,-3.03 3.23,-5.74 5.29,-8.03a2,2 0 0 1 1.49,-0.67l0.02,0c6.82,0.05 16.39,2.01 28.5,4.5c19.91,4.07 44.68,9.15 72.55,9.15l0,0c7.67,0 15.24,-0.4 22.48,-1.19c54.92,-6.03 87.32,-56.94 106.92,-94.71c5.78,-11.16 16.91,-18.32 30.52,-19.65a47.56,47.56 0 0 1 4.59,-0.22c13.64,0 26.63,5.58 34.73,14.92c6.81,7.86 9.6,17.69 8.06,28.43a1.9,1.9 0 0 1 -0.06,0.27c-0.25,0.86 -25.35,86.28 -87,126.76c-0.06,0.04 -0.12,0.07 -0.19,0.11c-3.17,1.63 -6.14,3.01 -9.08,4.22c-17.14,7.1 -33.16,10.4 -50.42,10.4z" fill="#95ad7b" id="svg_124"/>
  <path d="m3176.65,1438.28c21.89,0 44.46,15.53 40.81,41.07c0,0 -24.43,85.1 -86.18,125.63a117.71,117.71 0 0 1 -8.93,4.16c-18.15,7.51 -34,10.25 -49.66,10.25c-35.64,0 -70.28,-14.17 -128.65,-18.44c-14.73,-1.07 -27.81,-1.72 -39.39,-1.72c-0.58,0 -1.16,0 -1.74,0.01c-1.19,-6.33 -5.43,-33.33 3.18,-51.27c1.33,-2.78 2.97,-5.33 4.98,-7.57c17.49,0.14 55.87,13.65 101.06,13.65c7.41,0 15,-0.36 22.71,-1.21c56.4,-6.18 89.24,-58.69 108.48,-95.77c5.97,-11.53 17.08,-17.42 28.93,-18.58a45.34,45.34 0 0 1 4.4,-0.21m0,-4c-1.6,0 -3.21,0.08 -4.79,0.23c-14.3,1.39 -26,8.94 -32.1,20.72c-19.38,37.36 -51.4,87.72 -105.36,93.63c-7.17,0.79 -14.66,1.19 -22.27,1.19c-27.66,0 -52.32,-5.06 -72.14,-9.12c-12.22,-2.5 -21.87,-4.48 -28.89,-4.53l-0.03,0a4,4 0 0 0 -2.98,1.33c-2.19,2.43 -4.08,5.3 -5.61,8.51c-9.3,19.38 -4.55,48.16 -3.51,53.74a4,4 0 0 0 3.94,3.26l0.02,0c0.57,0 1.14,-0.01 1.72,-0.01c10.56,0 22.98,0.55 39.1,1.71c29.2,2.14 52.43,6.78 72.91,10.87c20.38,4.07 37.97,7.58 56.03,7.58c17.53,0 33.8,-3.35 51.19,-10.55c2.99,-1.23 6.01,-2.64 9.23,-4.3c0.12,-0.06 0.24,-0.13 0.36,-0.21c14.44,-9.48 28.05,-22.12 40.45,-37.57c9.87,-12.31 19,-26.41 27.15,-41.94c13.85,-26.4 19.98,-47.48 20.23,-48.37c0.06,-0.17 0.09,-0.35 0.12,-0.54c1.62,-11.33 -1.33,-21.72 -8.53,-30.02c-8.48,-9.78 -22.03,-15.61 -36.24,-15.61z" id="svg_125"/>
  <path d="m3143.26,1489.43c-25.32,24.55 -34.52,67.52 -111.24,72.12c-57.45,3.46 -105.45,-7.74 -125.93,-13.58c1.33,-2.78 2.97,-5.33 4.98,-7.57c20.36,0.16 69,18.44 123.77,12.45c56.4,-6.19 89.24,-58.7 108.48,-95.78c5.97,-11.53 17.08,-17.42 28.93,-18.57c5.3,2.88 10.35,7.7 11.68,15.65c3.05,18.42 -15.35,10.73 -40.67,35.28z" fill="#e2f2a5" id="svg_126"/>
  <path d="m2961.78,1901.6c-1.68,0 -3.37,-0.08 -5.03,-0.22c-25.23,-2.15 -34.9,-20.15 -35.3,-20.92a2,2 0 0 1 -0.23,-0.87l-2.29,-93.57l-0.24,-9.86a2,2 0 0 1 2,-2.05c0.04,0 93.63,5.23 93.63,5.23a2,2 0 0 1 1.88,2.24l-12.65,105.51a2,2 0 0 1 -0.81,1.39c-0.44,0.32 -11.01,7.89 -26.27,11.39c-4.95,1.15 -9.89,1.73 -14.69,1.73z" fill="#b3bde0" id="svg_127"/>
  <path d="m2920.69,1776.12l93.52,5.22l-12.64,105.52s-10.51,7.61 -25.55,11.06c-4.41,1.02 -9.21,1.67 -14.24,1.67c-1.6,0 -3.22,-0.06 -4.86,-0.2c-24.43,-2.09 -33.7,-19.86 -33.7,-19.86l-2.29,-93.56l-0.24,-9.85m0,-4.01a4,4 0 0 0 -4,4.1l0.23,9.85l2.3,93.57a4,4 0 0 0 0.45,1.76c0.42,0.8 10.59,19.74 36.91,21.99c1.71,0.14 3.46,0.22 5.2,0.22c4.95,0 10.04,-0.6 15.14,-1.78c15.65,-3.59 26.54,-11.39 27,-11.72a4,4 0 0 0 1.62,-2.77l12.64,-105.52a4,4 0 0 0 -3.75,-4.47l-93.51,-5.22a5.71,5.71 0 0 0 -0.23,-0.01z" id="svg_128"/>
  <path d="m3014.21,1781.34l-12.65,105.52s-10.5,7.61 -25.54,11.06l1.06,-25.87s-11.87,-12.78 -12.79,-27.38c-0.9,-14.6 4.57,-41.99 -10.04,-45.65c-11.2,-2.8 -26.72,-9.9 -33.32,-13.05l-0.24,-9.85l93.52,5.22z" fill="#919fc6" id="svg_129"/>
  <path d="m2973.61,1797.18c-2.53,0 -5.07,-0.09 -7.56,-0.26c-18.34,-1.26 -33.08,-6.64 -42.21,-10.94c-5.9,-2.78 -9.18,-4.97 -9.32,-5.06a2,2 0 0 1 -0.85,-2l2.52,-14.63c0.07,-0.42 0.28,-0.81 0.59,-1.11c0.76,-0.73 19.01,-17.82 47.46,-17.82c2.96,0 5.97,0.19 8.94,0.57a95.69,95.69 0 0 1 7.64,1.28c27.5,5.79 36.45,21.01 36.81,21.65c0.09,0.15 0.15,0.31 0.2,0.47l4.2,15.67a2,2 0 0 1 -1.05,2.32c-0.83,0.4 -20.55,9.86 -47.37,9.86z" fill="#b3bde0" id="svg_130"/>
  <path d="m2964.24,1747.36c2.8,0 5.7,0.17 8.69,0.55c2.64,0.34 5.12,0.76 7.48,1.25c26.94,5.68 35.49,20.69 35.49,20.69l4.2,15.67s-19.82,9.66 -46.49,9.66c-2.42,0 -4.9,-0.08 -7.42,-0.26c-18.21,-1.25 -32.77,-6.65 -41.5,-10.75c-5.82,-2.74 -9.05,-4.92 -9.05,-4.92l2.52,-14.62c0,0 18.11,-17.27 46.08,-17.27m0.01,-4l-0.01,0c-29.24,0 -48.05,17.62 -48.84,18.37a4,4 0 0 0 -1.18,2.22l-2.52,14.63a4,4 0 0 0 1.71,4c0.14,0.09 3.54,2.37 9.57,5.21c9.3,4.37 24.29,9.85 42.94,11.13c2.53,0.17 5.12,0.26 7.69,0.26c27.27,0 47.4,-9.65 48.25,-10.06a4,4 0 0 0 2.11,-4.64l-4.21,-15.67a4,4 0 0 0 -0.38,-0.94c-0.39,-0.68 -9.77,-16.65 -38.14,-22.62a98.07,98.07 0 0 0 -7.81,-1.31a73.07,73.07 0 0 0 -9.18,-0.58z" id="svg_131"/>
  <path d="m3020.1,1785.52s-23.59,11.49 -53.91,9.4c-18.22,-1.25 -32.77,-6.65 -41.5,-10.75c0.41,-3.5 1.06,-8.04 2.12,-13.81c11.44,9.25 52.83,14.15 64.27,10.89c11.44,-3.27 11.99,-9.81 4.9,-18.52c-3.68,-4.55 -10.2,-9.68 -15.57,-13.57c26.94,5.68 35.48,20.69 35.48,20.69l4.21,15.67z" fill="#919fc6" id="svg_132"/>
  <path d="m2966.11,1761.28c-2.09,0 -4.14,-0.59 -5.93,-1.71a2,2 0 0 1 -0.79,-2.44l22.18,-55.47a2,2 0 0 1 1.16,-1.13l39.44,-14.79a2,2 0 0 1 2.63,1.32l2.47,8.63a2,2 0 0 1 -1.22,2.42l-34.86,13.23l-14.44,42.33a11.23,11.23 0 0 1 -10.63,7.61l-0.01,0z" fill="#c3cdea" id="svg_133"/>
  <path d="m3022.88,1687.61l2.46,8.63l-35.75,13.56l-14.73,43.23c-1.34,3.91 -4.96,6.25 -8.74,6.25a9.15,9.15 0 0 1 -4.88,-1.41l22.19,-55.47l39.45,-14.79m0,-4c-0.48,0 -0.95,0.09 -1.41,0.26l-39.44,14.79a4,4 0 0 0 -2.32,2.26l-22.18,55.47a4,4 0 0 0 1.59,4.88a13.18,13.18 0 0 0 7,2.01a13.23,13.23 0 0 0 12.53,-8.96l14.13,-41.44l33.98,-12.89a4,4 0 0 0 2.43,-4.85l-2.46,-8.62a4,4 0 0 0 -3.85,-2.91z" id="svg_134"/>
  <path d="m2677.53,1800.86c-2.77,0 -5.34,-1.87 -6.27,-4.54c-0.47,-1.38 -0.99,-3.78 -1.59,-7.33c-0.51,-2.99 0.97,-5.96 3.67,-7.42l0.74,-0.41a5.44,5.44 0 0 1 2.59,-0.66c2.75,0 5.05,2.04 5.35,4.74c0.06,0.46 0.12,0.93 0.2,1.4c0.52,3.31 0.75,4.46 0.84,4.85c1.14,2.08 0.97,4.74 -0.46,6.73a6.51,6.51 0 0 1 -2.13,1.88a6.08,6.08 0 0 1 -2.94,0.76z" fill="#b3bde0" id="svg_135"/>
  <path d="m2676.67,1782.51c1.64,0 3.17,1.18 3.36,2.95c0.06,0.5 0.13,1 0.21,1.5c0.82,5.14 0.97,5.4 1,5.4c0.01,0 0.01,0 0.01,0l0,0a4.36,4.36 0 0 1 -0.28,4.68c-0.38,0.53 -0.87,0.98 -1.47,1.31a4.03,4.03 0 0 1 -1.97,0.51c-1.88,0 -3.71,-1.27 -4.38,-3.19c-0.32,-0.94 -0.81,-2.87 -1.51,-7.01l0,-0.04c-0.37,-2.14 0.75,-4.26 2.65,-5.29l0.74,-0.41a3.4,3.4 0 0 1 1.64,-0.41m0,-4.01c-1.23,0 -2.46,0.31 -3.54,0.9l-0.75,0.41c-3.45,1.87 -5.34,5.68 -4.69,9.48l0.01,0.05c0.61,3.64 1.16,6.15 1.67,7.63c1.2,3.47 4.55,5.89 8.16,5.89c1.36,0 2.72,-0.35 3.91,-1.01a8.49,8.49 0 0 0 2.78,-2.46a8.4,8.4 0 0 0 0.74,-8.58c-0.1,-0.49 -0.32,-1.69 -0.77,-4.48a26.66,26.66 0 0 1 -0.18,-1.31c-0.41,-3.72 -3.57,-6.52 -7.34,-6.52z" id="svg_136"/>
  <path d="m2696.47,1787.87a6.41,6.41 0 0 1 -5.53,-3.19c-0.37,-0.52 -0.86,-1.39 -1.95,-7.88l-0.02,-0.15a5.72,5.72 0 0 1 3.46,-6.22l1.21,-0.5a5.68,5.68 0 0 1 2.19,-0.45c2.84,0 5.23,2.08 5.69,4.95c0.28,1.78 0.57,3.57 0.68,4.27c1.02,2.11 0.81,4.64 -0.56,6.53a6.16,6.16 0 0 1 -2.12,1.86a6.33,6.33 0 0 1 -3.05,0.78z" fill="#b3bde0" id="svg_137"/>
  <path d="m2695.83,1771.48c1.79,0 3.41,1.34 3.71,3.26a0.93,0.93 0 0 1 0.01,0.06c0.66,4.14 0.74,4.61 0.75,4.61c0,0 0,-0.04 0,-0.04l0,0a4.39,4.39 0 0 1 -0.28,4.69a4.17,4.17 0 0 1 -1.43,1.25a4.33,4.33 0 0 1 -2.12,0.56a4.39,4.39 0 0 1 -3.82,-2.23c-0.11,-0.21 -0.53,-0.25 -1.68,-7.17a3.75,3.75 0 0 1 2.23,-4.2l1.2,-0.5a3.74,3.74 0 0 1 1.43,-0.29m0,-4c-1.02,0 -2.01,0.2 -2.96,0.6l-1.21,0.5a7.72,7.72 0 0 0 -4.67,8.39l0.03,0.19c1.06,6.31 1.6,7.67 2.22,8.59a8.41,8.41 0 0 0 7.23,4.12a8.37,8.37 0 0 0 4.03,-1.04a8.14,8.14 0 0 0 2.76,-2.42c1.74,-2.41 2.06,-5.59 0.88,-8.3c-0.14,-0.83 -0.4,-2.48 -0.64,-3.94c-0.61,-3.9 -3.84,-6.69 -7.67,-6.69z" id="svg_138"/>
  <path d="m2714.97,1776.62c-3.05,0 -5.69,-2.19 -6.29,-5.22c-0.15,-0.78 -0.37,-2.04 -0.71,-4.07c-0.45,-2.51 0.8,-5.04 3.1,-6.29l0.83,-0.46a5.82,5.82 0 0 1 2.78,-0.71c2.92,0 5.37,2.14 5.81,5.09c0.25,1.56 0.39,2.53 0.39,3.21a6.36,6.36 0 0 1 -0.83,5.81a6.46,6.46 0 0 1 -1.89,1.74a6.1,6.1 0 0 1 -3.19,0.9z" fill="#b3bde0" id="svg_139"/>
  <path d="m2714.68,1761.87c1.84,0 3.53,1.37 3.83,3.39l0.02,0.07c0.4,2.52 0.39,3.08 0.31,3.08c-0.01,0 -0.02,-0.01 -0.04,-0.03a4.35,4.35 0 0 1 -0.38,4.44a4.44,4.44 0 0 1 -1.3,1.19a4.09,4.09 0 0 1 -2.15,0.61c-1.99,0 -3.9,-1.45 -4.32,-3.6c-0.15,-0.78 -0.38,-2.02 -0.71,-4.02l0,-0.03c-0.3,-1.68 0.58,-3.35 2.09,-4.17l0.83,-0.46a3.79,3.79 0 0 1 1.82,-0.47m0,-4a7.83,7.83 0 0 0 -3.73,0.96l-0.84,0.45c-3.05,1.67 -4.71,5.04 -4.11,8.39c0.31,1.86 0.54,3.21 0.72,4.12c0.77,3.96 4.25,6.83 8.25,6.83c1.49,0 2.96,-0.41 4.24,-1.19a8.45,8.45 0 0 0 2.45,-2.26c1.55,-2.17 1.98,-4.89 1.21,-7.35c-0.03,-0.86 -0.19,-1.86 -0.39,-3.12c-0.6,-3.97 -3.88,-6.83 -7.8,-6.83z" id="svg_140"/>
  <path d="m2982.01,1444.18s-23.32,-5.36 -32.39,-6.31c-9.06,-0.95 -14.81,-0.45 -16.32,4.82c-1.53,5.27 -5.97,11.78 -17.67,13.94c-8.79,1.64 -21.78,-2.67 -27.69,-4.89c-0.29,-5.63 4.08,-10.56 11.74,-9.27c14.58,2.46 29.33,-10.81 36.69,-11.12c5.18,-0.21 26.77,5.25 39.04,8.51c3.96,2.57 6.6,4.32 6.6,4.32z" fill="#fff" id="svg_141"/>
  <path d="m3368.62,1257.67c-0.79,12.19 -1.73,25.02 -3.64,38.15c-0.38,2.46 -0.75,4.89 -1.2,7.37c-0.17,0.84 -0.29,1.65 -0.45,2.47c-0.12,0.72 -0.3,1.45 -0.44,2.15c-0.11,0.71 -0.24,1.37 -0.37,2.04c-7.51,36.33 -24.89,73.82 -69.97,104.48a53.89,53.89 0 0 1 -4.94,3.02c9.39,-10.84 24.46,-28.89 37.59,-47.41c20.88,-29.49 36.85,-106.88 22.1,-149.87c-11.77,-34.34 -47.03,-67.1 -60.76,-78.91a162.37,162.37 0 0 1 11.49,5.65c9.53,5.09 18.6,11.14 26.92,18.01c0.72,0.64 1.45,1.24 2.16,1.9c2.01,1.69 3.96,3.53 5.88,5.32c0.06,0.07 0.09,0.11 0.17,0.19a120.95,120.95 0 0 1 4.6,4.71c20.19,21.49 32.95,49.01 30.86,80.73z" fill="#7695d3" id="svg_142" opacity="0.22"/>
  <path d="m3176.24,1078.65a3.57,3.57 0 0 0 -0.27,-0.08c0.24,0.06 1.02,0.21 1.65,0.33c4.56,0.88 14.52,2.8 25.14,8.47c-2.81,-2.45 -5.29,-4.15 -6.97,-5.29c-1.06,-0.73 -1.9,-1.31 -2.65,-1.93l8.79,-10.46c-3.96,-3.43 -6.71,-5.23 -6.76,-5.27l4.9,-7.59l4.88,-7.61c0.5,0.32 12.34,8 23.72,22.39a107.75,107.75 0 0 1 7.84,11.3a62.4,62.4 0 0 1 1.16,-8.78c-5.34,-10.87 -10.51,-17.44 -10.57,-17.51l7.05,-5.65l7.05,-5.66c0.18,0.23 2.37,2.98 5.41,7.78c4.44,-6.43 8.76,-9.8 9.4,-10.27l10.84,14.47c-0.05,0.03 -4.98,3.95 -8.59,11.71a40.18,40.18 0 0 0 -1.44,3.52c0.32,0.73 0.63,1.46 0.94,2.22a140.45,140.45 0 0 1 1.81,4.63c8.08,-16.7 16.45,-27.01 17.07,-27.75l13.96,11.48c-0.06,0.07 -5.55,6.84 -11.64,18.09l7.11,2.52c9.62,-10.13 18.14,-14.79 18.87,-15.17l8.5,15.95c-0.14,0.07 -6.14,3.36 -13.32,10.67c6.46,-4.31 11.27,-6.66 11.77,-6.9l7.85,16.28c-0.09,0.05 -3.52,1.74 -8.33,4.85c12.23,-2.18 21.67,0.14 22.76,0.43l-4.62,17.48c-0.07,-0.02 -7.36,-1.75 -16.26,0.13c-12.29,2.61 -21.85,10.68 -28.41,24l-0.44,-0.21c-0.03,0.29 -0.06,0.44 -0.06,0.44s-49.67,-1.22 -64.13,-14.04c-3.87,-14.46 -11.55,-25.38 -22.82,-32.46c-9.27,-5.82 -18.7,-7.63 -23.23,-8.5c-1.61,-0.31 -2.67,-0.52 -3.71,-0.86l5.75,-17.15z" fill="#35302e" id="svg_143" stroke="#000" stroke-linecap="round" strokeLinejoin="round" stroke-miterlimit="10" stroke-width="4"/>
  <path d="m3272.46,1148.25s4.96,-29.08 38.95,-38.87m-51.85,-30.01c-14.37,28.61 -16.68,48.64 -14.62,66.26" fill="#35302e" id="svg_144" stroke="#000" stroke-linecap="round" strokeLinejoin="round" stroke-miterlimit="10" stroke-width="4"/>
  <path d="m3235.36,1080.7c8.91,19.15 9.74,40.45 9.74,40.45m55.02,-25.99s-34.26,13.91 -42.48,54.27m-54.88,-62.06c26.87,18.13 32.27,39.83 30.15,55.89m4.76,-69.13s12.48,11.14 12.15,27.05" fill="#35302e" id="svg_145" stroke="#000" stroke-linecap="round" strokeLinejoin="round" stroke-miterlimit="10" stroke-width="4"/>
  <path d="m3278.96,1081.18s-13.61,25.92 -15.18,49.61m-6.96,-58.28c-5.19,-13.16 -10.08,-19.03 -10.08,-19.03m-44.82,16.21l5.47,-5.43s30.2,17.66 36.43,45.26" fill="#35302e" id="svg_146" stroke="#000" stroke-linecap="round" strokeLinejoin="round" stroke-miterlimit="10" stroke-width="4"/>
  <path d="m1294.62,1845.06c0,10.9 -85.78,24.69 -141.04,24.69c-55.25,0 -107.52,-6.6 -107.52,-17.5s93.25,-26.92 148.5,-26.92c55.26,0 100.06,8.84 100.06,19.73z" fill="#1a2435" id="svg_147" opacity="0.66"/>
  <path d="m1073.8,1856.38c-5.67,0 -10.69,-0.91 -14.93,-2.7c-7.53,-3.16 -11.19,-10.4 -9.33,-18.43c1.46,-6.28 6.15,-12.54 12.87,-17.17c7.16,-4.94 16.02,-7.65 24.96,-7.65c0.86,0 1.74,0.02 2.6,0.07c13.46,0.77 21.26,5.79 29.51,11.1l0.09,0.06c6.52,4.22 13.26,8.58 24.25,11.32c4.32,1.09 8.93,1.84 14.1,2.3c3.14,0.29 6.17,0.43 9,0.43c24.6,0 29.7,-10.73 29.74,-10.84l0.7,-1.85l1.83,0.76l12.56,4.54l-0.65,1.87c-0.29,0.85 -7.68,20.92 -44.22,20.92c-3.29,0 -6.77,-0.16 -10.34,-0.49c-10.15,-0.91 -18.97,-2.91 -26.99,-6.09c-7.72,-3.08 -13.35,-6.72 -18.32,-9.94c-7.37,-4.75 -12.68,-8.18 -22.15,-8.72a32.02,32.02 0 0 0 -1.82,-0.05c-13.12,0 -21.64,8.27 -22.72,12.9a3.38,3.38 0 0 0 -0.09,0.59c0.08,0.04 0.2,0.1 0.39,0.18c2.39,1.01 5.39,1.52 8.93,1.52c7.81,0 16.17,-2.47 19.49,-3.77l0.69,-0.27l0.7,0.24c0.53,0.18 5.18,1.87 6.91,4.88c1.95,3.38 -1.15,7.93 -1.79,8.8l-0.36,0.49l-0.55,0.21c-0.29,0.1 -1.13,0.42 -2.4,0.84c-4.42,1.47 -13.26,3.95 -22.66,3.95z" fill="#b6a0e0" id="svg_148"/>
  <path d="m1087.37,1812.43c0.82,0 1.65,0.02 2.49,0.07c12.98,0.74 20.57,5.66 28.62,10.84c6.73,4.35 13.6,8.77 24.86,11.58c4.13,1.04 8.86,1.86 14.41,2.35c3.31,0.3 6.36,0.44 9.17,0.44c26.36,0 31.53,-11.92 31.59,-12.05l10.7,3.87c-0.29,0.85 -7.23,19.58 -42.33,19.58c-3.16,0 -6.53,-0.15 -10.16,-0.48c-11.12,-1.01 -19.59,-3.25 -26.43,-5.96c-7.53,-3 -13.08,-6.59 -17.97,-9.76c-7.33,-4.73 -13.12,-8.47 -23.13,-9.04a34.2,34.2 0 0 0 -1.93,-0.05c-14.19,0 -23.41,9.06 -24.67,14.44c-0.43,1.9 0.12,2.51 1.48,3.08c2.86,1.21 6.24,1.67 9.7,1.67c8.09,0 16.66,-2.52 20.22,-3.91c0,0 4.43,1.54 5.83,3.99c1.41,2.43 -1.67,6.62 -1.67,6.62c-0.15,0.06 -0.99,0.38 -2.31,0.82c-4.05,1.35 -12.82,3.85 -22.04,3.85c-4.79,0 -9.71,-0.66 -14.15,-2.54c-6.68,-2.81 -9.81,-9 -8.16,-16.14c2.69,-11.58 17.52,-23.27 35.88,-23.27m0,-4.01c-9.34,0 -18.61,2.85 -26.09,8.01c-7.13,4.91 -12.12,11.61 -13.69,18.36c-2.09,9.04 2.03,17.17 10.51,20.74c4.48,1.89 9.76,2.85 15.69,2.85c9.69,0 18.76,-2.54 23.31,-4.06a57.73,57.73 0 0 0 2.42,-0.85l1.11,-0.41l0.75,-0.98c0.77,-1.06 4.49,-6.53 1.91,-11c-2.04,-3.55 -7.01,-5.42 -7.98,-5.76l-1.4,-0.49l-1.38,0.54c-3.2,1.26 -11.25,3.63 -18.76,3.63c-2.66,0 -4.97,-0.3 -6.88,-0.89c1.8,-3.65 8.86,-10.29 20.37,-10.29c0.56,0 1.13,0.02 1.7,0.05c8.94,0.51 14.07,3.82 21.17,8.39c5.06,3.28 10.78,6.98 18.68,10.13c8.2,3.25 17.21,5.29 27.55,6.23c3.63,0.33 7.16,0.49 10.51,0.49c15.54,0 27.88,-3.47 36.68,-10.31c6.9,-5.36 9.08,-10.9 9.44,-11.96l1.3,-3.73l-3.72,-1.34l-10.7,-3.88l-3.72,-1.34l-1.33,3.54c-0.21,0.39 -1.46,2.51 -5.05,4.68c-3.73,2.25 -10.71,4.94 -22.85,4.94c-2.78,0 -5.74,-0.14 -8.82,-0.42c-5.07,-0.45 -9.58,-1.19 -13.79,-2.25c-10.68,-2.67 -17.27,-6.93 -23.65,-11.06l-0.1,-0.06c-8.11,-5.22 -16.49,-10.62 -30.48,-11.42a46.29,46.29 0 0 0 -2.71,-0.08z" id="svg_149"/>
  <path d="m1099.82,1843.08c1.41,2.43 -1.67,6.63 -1.67,6.63c-0.15,0.06 -0.99,0.38 -2.31,0.82c-3.88,-3 -2.98,-6.44 -1.84,-11.43c0,0 4.42,1.53 5.82,3.98zm109.39,-13.55c-0.32,0.93 -8.52,23.08 -52.49,19.1c-11.12,-1.01 -19.59,-3.25 -26.43,-5.96c3.88,-2.32 8.38,-5 13.05,-7.75c4.13,1.04 8.86,1.86 14.41,2.35c34.36,3.12 40.7,-11.46 40.76,-11.61l10.7,3.87z" fill="#947cce" id="svg_150"/>
  <path d="m1223.13,1852.06c-13.82,0 -26.92,-4.47 -37.87,-12.94c-25.43,-19.66 -31.58,-56.1 -14,-82.96a58.2,58.2 0 0 1 2.87,-4.03a61.92,61.92 0 0 1 27.44,-20.19a62.01,62.01 0 0 1 21.66,-3.9c13.05,0 25.56,4.04 36.17,11.68c0.56,0.39 1.15,0.84 1.72,1.28a39.32,39.32 0 0 1 1.7,1.36c0.5,0.42 1.02,0.85 1.52,1.31c14.86,13.14 22.55,32.85 20.53,52.69c-1.13,11.48 -5.5,22.42 -12.62,31.63a58.22,58.22 0 0 1 -3.18,3.8c-11.7,12.88 -28.45,20.27 -45.94,20.27z" fill="#b6a0e0" id="svg_151"/>
  <path d="m1223.23,1730.05a59.73,59.73 0 0 1 35,11.3c0.56,0.38 1.12,0.81 1.66,1.23c0.54,0.42 1.1,0.85 1.61,1.3c0.5,0.41 1,0.82 1.48,1.26c14.88,13.16 21.8,32.33 19.9,51.02c-1.07,10.78 -5.1,21.4 -12.21,30.6a56.71,56.71 0 0 1 -3.08,3.67c-11.71,12.9 -28.01,19.63 -44.46,19.63a59.72,59.72 0 0 1 -36.65,-12.52c-24.94,-19.29 -30.52,-54.36 -13.55,-80.28a56.76,56.76 0 0 1 2.78,-3.9a59.78,59.78 0 0 1 26.55,-19.55a60.26,60.26 0 0 1 20.97,-3.76m0,-4.01l0,4.01l0,-4.01a64.02,64.02 0 0 0 -22.36,4.02a63.93,63.93 0 0 0 -28.33,20.85a60.06,60.06 0 0 0 -2.97,4.18c-8.78,13.4 -12.17,29.56 -9.53,45.45c2.65,15.99 11.17,30.25 24,40.17c11.3,8.74 24.82,13.36 39.09,13.36c18.05,0 35.34,-7.64 47.42,-20.95a60.62,60.62 0 0 0 3.28,-3.91c7.35,-9.51 11.86,-20.8 13.04,-32.66c2.07,-20.46 -5.85,-40.79 -21.21,-54.38a35.94,35.94 0 0 0 -1.58,-1.35a41.34,41.34 0 0 0 -1.74,-1.4c-0.54,-0.43 -1.16,-0.9 -1.8,-1.35c-10.95,-7.87 -23.85,-12.03 -37.31,-12.03z" id="svg_152"/>
  <path d="m1270.66,1826.76a56.71,56.71 0 0 1 -3.07,3.67c16.95,-25.93 11.38,-61 -13.55,-80.28c-24.95,-19.28 -60.3,-15.84 -81.11,7.11a56.52,56.52 0 0 1 2.78,-3.9c20.27,-26.23 57.95,-31.05 84.18,-10.78c26.21,20.26 31.05,57.96 10.77,84.18z" fill="#e1c7f2" id="svg_153"/>
  <path d="m1282.88,1796.16c0.14,-17.51 -8.6,-37.05 -25.6,-50.2c-17.02,-13.15 -38.11,-16.69 -55.02,-12.15c18.18,-6.75 39.21,-4.53 55.97,7.54c0.56,0.38 1.12,0.81 1.66,1.23c0.54,0.42 1.1,0.85 1.61,1.3c0.5,0.41 1,0.82 1.48,1.26c14.88,13.16 21.8,32.33 19.9,51.02z" fill="#fff" id="svg_154"/>
  <path d="m1256.26,1738.1s-16.93,78.77 -83.92,86.13" fill="none" id="svg_155" stroke="#000" stroke-miterlimit="10" stroke-width="4"/>
  <path d="m1272.77,1753.06s-20,80.02 -94.18,78.35" fill="none" id="svg_156" stroke="#000" stroke-miterlimit="10" stroke-width="4"/>
  <path d="m1164,1775.15s34.59,19.59 68.76,13.34m-69.18,11.25s30.43,9.58 60.43,-0.83" fill="none" id="svg_157" stroke="#000" stroke-miterlimit="10" stroke-width="4"/>
  <path d="m1212.76,1730.14s-17.92,28.76 -13.34,55.85m45.85,-51.68s-21.68,22.92 -31.68,53.76m-27.08,49.59s71.26,8.75 97.93,-41.67" fill="none" id="svg_158" stroke="#000" stroke-miterlimit="10" stroke-width="4"/>
  <path d="m983.16,1786.65c0,14.23 -138.25,43.09 -258.56,43.09s-177.11,-28.86 -177.11,-43.09s97.53,-25.77 217.83,-25.77s217.84,11.54 217.84,25.77z" fill="#0e1828" id="svg_159" opacity="0.4"/>
  <path d="m941.69,1653.41c-2.32,-3.86 -5.7,-8.7 -9.4,-11.43c0.72,-12.51 1.42,-20.75 -2.87,-25.04c-4.29,-4.29 -54.38,-36.49 -129.88,-34.35c-30.6,0.87 -63.33,4.98 -84.53,7.86c29.16,-6.36 65.19,-11.52 102.23,-10.12c61.61,2.34 98.21,23.32 114.25,35.3c6.08,4.53 9.74,11.6 9.87,19.19l0.33,18.59z" fill="#fff" id="svg_201"/>
 </g>
</svg>