<svg xmlns="http://www.w3.org/2000/svg" xml:space="preserve" style="enable-background:new 0 0 939.949 104.049" viewBox="0 0 939.949 104.049"><path d="M546.758 37.609c4.047-10.544-1.012-19.998-13.826-21.816-12.814-1.818-27.315 6.908-27.315 6.908s.337 30.542.337 40.723c0 10.181-.674 18.543-.674 18.543l15.849 3.636s.433-10.36.772-21.765l15.077 21.038c3.035-2.182 11.128-13.453 11.128-13.453l-15.48-17.006c6.181-4.632 11.92-11.044 14.132-16.808zm-17.536 3.272c-1.984 2.853-4.698 4.917-6.949 6.282.049-4.338.033-8.013-.089-10.3 6.342-4.236 10.593-1.091 7.038 4.018zM596.993 23.37c-2.42 11.857-17.906 58.073-17.906 58.073s9.921 4.114 17.664 3.872c.6-1.63 1.627-5.372 3.124-10.566l11.868.021c1.041 6.704.946 9.153 1.462 10.786 3.872.484 16.938-2.904 16.938-2.904s-11.615-56.621-13.308-63.639c-12.341-.725-19.842 4.357-19.842 4.357zm5.701 39.325c1.916-8.316 3.978-18.758 3.978-18.758s1.979 9.909 3.139 17.906l-7.117.852zM670.757 20.607s-1.027 15.012-2.019 29.584c-5.6-9.516-13.353-30.243-13.353-30.243-9.393.23-17.584 1.101-17.584 1.101s-1.407 51.432-1.512 56.397c-.105 4.965.176 7.396.176 7.396s12.952-2.394 15.45-2.151c0 0 .259-14.726.869-30.056 4.312 12.828 14.026 31.657 14.026 31.657s13.039-1.862 15.525-1.517c0 0 3.139-53.565 6.036-62.548-9.395-.154-17.614.38-17.614.38zM191.441 37.405c8.504-1.186 19.278-1.186 19.278-1.186s1.756-13.794 1.003-17.305c-11.035 0-35.723 3.368-35.723 3.368s-.474 49.557-.49 54.34c-.016 4.783.296 7.12.296 7.12s12.433-2.528 14.842-2.336c0 0-.002-10.329.199-22.538 5.208-.929 11.345-1.582 11.345-1.582l.502-13.041-11.53.744c.08-2.609.172-5.163.278-7.584zM98.552 15.585c-8.022.259-24.851 10.873-27.18 35.984-2.329 25.11 10.502 31.894 20.968 32.876 16.569 1.554 29.512-11.389 30.288-35.984.778-24.592-16.05-33.136-24.076-32.876zm8.792 36.918c-.304 11.354-5.372 17.327-11.861 16.611-4.098-.454-9.125-3.585-8.211-15.175.911-11.593 7.5-16.493 10.643-16.611 3.143-.121 9.736 3.824 9.429 15.175zM900.806 17.108c-8.022.259-24.851 10.873-27.18 35.984-2.329 25.111 10.502 31.895 20.968 32.876 16.569 1.554 29.512-11.389 30.288-35.984.778-24.592-16.051-33.136-24.076-32.876zm8.792 36.918c-.304 11.354-5.372 17.327-11.861 16.611-4.098-.454-9.125-3.585-8.211-15.175.911-11.593 7.5-16.493 10.643-16.611 3.143-.121 9.735 3.824 9.429 15.175zM240.068 16.346c-8.022.259-24.851 10.873-27.18 35.984-2.329 25.111 10.502 31.895 20.968 32.876 16.569 1.554 29.512-11.389 30.288-35.984.778-24.591-16.051-33.135-24.076-32.876zm8.792 36.919c-.304 11.354-5.372 17.327-11.861 16.611-4.098-.454-9.125-3.585-8.211-15.175.911-11.593 7.5-16.493 10.643-16.611 3.143-.121 9.735 3.824 9.429 15.175zM50.387 61.924c-2.117 5.185-5.89 7.73-10.305 7.239-4.189-.46-9.332-3.66-8.395-15.507.928-11.856 7.667-16.86 10.876-16.981 2.272-.095 6.305 1.899 8.369 7.172h16.86c-1.137-21.916-16.852-29.652-24.58-29.4-8.196.26-25.403 11.11-27.788 36.782-2.376 25.671 10.738 32.609 21.44 33.615 11.7 1.093 21.639-4.883 26.912-16.973 1.541-2.829 1.732-3.971 1.732-3.971l-15.04-3.427-.081 1.451zM805.236 63.594c-2.022 4.951-5.625 7.382-9.841 6.914-4-.439-8.912-3.495-8.017-14.809.886-11.322 7.322-16.101 10.386-16.217 2.17-.091 6.021 1.814 7.993 6.85h16.101c-1.085-20.93-16.093-28.318-23.472-28.077-7.827.248-24.259 10.61-26.537 35.126-2.269 24.516 10.254 31.142 20.474 32.103 11.173 1.044 20.665-4.663 25.7-16.209 1.472-2.701 1.654-3.792 1.654-3.792l-14.363-3.273-.078 1.384zM374.801 17.573s-1.083 15.831-2.129 31.198c-5.905-10.035-14.082-31.893-14.082-31.893-9.906.243-18.543 1.161-18.543 1.161s-1.483 54.238-1.594 59.474c-.111 5.236.186 7.8.186 7.8s13.659-2.525 16.292-2.269c0 0 .273-15.53.916-31.695 4.547 13.528 14.792 33.384 14.792 33.384s13.751-1.963 16.372-1.599c0 0 3.311-56.488 6.366-65.961-9.908-.164-18.576.4-18.576.4zM401.028 21.75h-.002l.001.004c-.004.4-.458 51.701-.474 56.67-.016 4.985.286 7.422.287 7.425l-.001.001s6.16 2.928 26.99-5.194c20.828-8.122 20.284-33.92 15.732-45.872-5.097-13.378-19.257-18.424-42.533-13.034zm28.794 36.688c-3.617 7.149-10.513 10.32-14.556 11.617.082-9.053.261-21.171.65-31.329.13-.04.257-.083.39-.12 14.847-4.059 18.833 9.318 13.516 19.832zM697.256 21.254h-.002l.001.004c-.004.399-.456 51.488-.472 56.437-.016 4.965.285 7.391.285 7.395v.001s6.135 2.916 26.879-5.173c20.742-8.089 20.201-33.78 15.667-45.683-5.075-13.323-19.177-18.349-42.358-12.981zm28.676 36.537c-3.602 7.12-10.47 10.277-14.496 11.569.082-9.016.26-21.084.647-31.2.129-.04.256-.083.389-.119 14.785-4.043 18.756 9.279 13.46 19.75zM492.684 38.492s4.898-15.286 4.314-19.753c-14.54 3.935-34.444 1.926-41.055 2.595.002.002-.021.577-.021.577s-3.073 50.983-3.339 55.962c-.266 4.978-.062 7.427-.062 7.427l.016-.002-.002.003s34.959-3.497 37.997-3.749c0 0 1.328-14.457.855-17.103-5.413.937-15.914 1.976-22.343 2.567.176-2.789.372-5.775.585-8.836 3.113-.286 7.804-.459 10.663.662 1.89-5.536.908-12.562.908-12.562s-5.183-.345-10.681.188c.227-2.73.466-5.39.713-7.89 5.432-.214 17.328-.6 21.452-.086zM867.732 38.872s4.898-15.286 4.314-19.753c-14.54 3.935-34.444 1.926-41.055 2.595.002.002-.022.577-.022.577s-3.073 50.983-3.339 55.962c-.266 4.978-.062 7.427-.062 7.427l.016-.002-.002.003s34.958-3.497 37.997-3.749c0 0 1.328-14.457.855-17.103-5.413.937-15.914 1.976-22.343 2.567.176-2.789.372-5.775.585-8.836 3.113-.286 7.804-.459 10.663.662 1.89-5.536.908-12.562.908-12.562s-5.183-.345-10.681.188c.227-2.73.466-5.39.713-7.89 5.433-.213 17.329-.599 21.453-.086zM136.456 60.474s20.307-2.031 26.907-1.015c1.015-6.346-.508-13.961-.508-13.961l-27.161 2.792.762 12.184z"/><path d="M543.331 34.182c4.047-10.544-1.012-19.998-13.826-21.816-12.815-1.818-27.315 6.908-27.315 6.908s.337 30.542.337 40.723c0 10.181-.674 18.543-.674 18.543l15.849 3.636s.433-10.36.772-21.765l15.077 21.038c3.035-2.182 11.128-13.453 11.128-13.453L529.2 50.991c6.18-4.633 11.919-11.045 14.131-16.809zm-17.535 3.273c-1.984 2.853-4.698 4.917-6.949 6.282.049-4.338.033-8.013-.089-10.3 6.342-4.237 10.592-1.092 7.038 4.018zM593.566 19.943c-2.42 11.857-17.906 58.073-17.906 58.073s9.921 4.114 17.664 3.872c.6-1.63 1.627-5.372 3.124-10.566l11.868.021c1.041 6.704.946 9.153 1.462 10.786 3.872.484 16.938-2.904 16.938-2.904s-11.615-56.621-13.308-63.639c-12.341-.725-19.842 4.357-19.842 4.357zm5.701 39.325c1.916-8.316 3.978-18.758 3.978-18.758s1.979 9.909 3.139 17.906l-7.117.852zM667.33 17.18s-1.027 15.012-2.019 29.584c-5.6-9.516-13.353-30.243-13.353-30.243-9.393.23-17.584 1.101-17.584 1.101s-1.407 51.432-1.512 56.397c-.105 4.965.176 7.396.176 7.396s12.952-2.394 15.45-2.151c0 0 .259-14.726.869-30.056 4.312 12.828 14.026 31.657 14.026 31.657s13.039-1.862 15.525-1.517c0 0 3.139-53.565 6.036-62.548-9.395-.154-17.614.38-17.614.38zM188.014 33.978c8.504-1.186 19.278-1.186 19.278-1.186s1.756-13.794 1.003-17.305c-11.035 0-35.723 3.368-35.723 3.368s-.474 49.557-.49 54.34c-.016 4.783.296 7.12.296 7.12s12.433-2.528 14.842-2.336c0 0-.002-10.329.199-22.538 5.208-.929 11.345-1.582 11.345-1.582l.502-13.041-11.53.744c.081-2.609.172-5.162.278-7.584zM95.126 12.158c-8.022.259-24.851 10.873-27.18 35.984-2.329 25.111 10.502 31.895 20.968 32.876 16.569 1.554 29.512-11.389 30.288-35.984.778-24.592-16.051-33.136-24.076-32.876zm8.791 36.918c-.304 11.354-5.372 17.327-11.861 16.611-4.098-.454-9.125-3.585-8.211-15.175.911-11.593 7.5-16.493 10.643-16.611 3.144-.121 9.736 3.824 9.429 15.175zM897.379 13.681c-8.022.259-24.851 10.873-27.18 35.984-2.329 25.111 10.502 31.895 20.968 32.876 16.569 1.554 29.512-11.389 30.288-35.984.778-24.592-16.051-33.136-24.076-32.876zm8.792 36.918c-.304 11.354-5.372 17.327-11.861 16.611-4.098-.454-9.125-3.585-8.211-15.175.911-11.593 7.5-16.493 10.643-16.611 3.143-.12 9.736 3.824 9.429 15.175zM236.641 12.919c-8.022.259-24.851 10.873-27.18 35.984-2.329 25.111 10.502 31.895 20.968 32.876 16.569 1.554 29.512-11.389 30.288-35.984.778-24.591-16.051-33.135-24.076-32.876zm8.792 36.919c-.304 11.354-5.372 17.327-11.861 16.611-4.098-.454-9.125-3.585-8.211-15.175.911-11.593 7.5-16.493 10.643-16.611 3.143-.121 9.735 3.824 9.429 15.175zM46.96 58.497c-2.117 5.185-5.89 7.73-10.305 7.239-4.189-.46-9.332-3.66-8.395-15.507.928-11.856 7.667-16.86 10.876-16.981 2.272-.095 6.305 1.899 8.369 7.172h16.86c-1.137-21.916-16.852-29.652-24.579-29.4-8.196.26-25.403 11.11-27.788 36.782-2.376 25.672 10.737 32.61 21.439 33.616 11.7 1.093 21.639-4.883 26.912-16.973 1.541-2.829 1.732-3.971 1.732-3.971l-15.04-3.427-.081 1.45zM801.809 60.167c-2.022 4.951-5.625 7.382-9.841 6.914-4-.439-8.912-3.495-8.017-14.809.886-11.322 7.322-16.101 10.386-16.217 2.17-.091 6.021 1.814 7.992 6.85h16.101c-1.085-20.93-16.093-28.318-23.472-28.077-7.827.248-24.259 10.61-26.537 35.126-2.269 24.516 10.254 31.142 20.474 32.103 11.173 1.044 20.665-4.663 25.7-16.209 1.472-2.701 1.654-3.792 1.654-3.792l-14.363-3.273-.077 1.384zM371.374 14.146s-1.083 15.831-2.129 31.198c-5.905-10.035-14.082-31.893-14.082-31.893-9.906.243-18.543 1.161-18.543 1.161s-1.483 54.238-1.594 59.474c-.111 5.236.186 7.8.186 7.8s13.659-2.525 16.292-2.269c0 0 .273-15.53.916-31.695 4.547 13.528 14.792 33.384 14.792 33.384s13.751-1.963 16.372-1.599c0 0 3.311-56.488 6.366-65.961-9.908-.163-18.576.4-18.576.4zM397.601 18.323h-.002l.001.004c-.004.4-.458 51.701-.474 56.67-.016 4.985.286 7.422.287 7.425v.001s6.16 2.928 26.99-5.194c20.827-8.122 20.284-33.92 15.732-45.872-5.098-13.378-19.258-18.424-42.534-13.034zm28.794 36.688c-3.617 7.149-10.513 10.32-14.556 11.617.082-9.053.261-21.171.65-31.329.13-.04.257-.083.39-.12 14.847-4.059 18.834 9.318 13.516 19.832zM693.829 17.827h-.002l.001.004c-.004.399-.456 51.488-.472 56.437-.016 4.965.285 7.391.285 7.395v.001s6.135 2.916 26.879-5.173c20.742-8.089 20.201-33.78 15.667-45.683-5.075-13.323-19.177-18.348-42.358-12.981zm28.676 36.537c-3.602 7.12-10.47 10.277-14.496 11.569.082-9.016.26-21.084.647-31.2.129-.04.256-.083.389-.119 14.786-4.042 18.756 9.28 13.46 19.75zM489.257 35.065s4.898-15.286 4.314-19.753c-14.54 3.935-34.444 1.926-41.055 2.595.002.002-.021.577-.021.577s-3.073 50.983-3.339 55.962-.062 7.427-.062 7.427l.016-.002-.002.003s34.959-3.497 37.997-3.749c0 0 1.328-14.457.855-17.103-5.413.937-15.914 1.976-22.343 2.567.176-2.789.372-5.775.585-8.836 3.113-.286 7.804-.459 10.663.662 1.89-5.536.908-12.562.908-12.562s-5.183-.345-10.681.188c.227-2.73.466-5.39.713-7.89 5.432-.214 17.328-.6 21.452-.086zM864.305 35.445s4.898-15.286 4.314-19.753c-14.54 3.935-34.444 1.926-41.055 2.595.002.002-.021.577-.021.577s-3.073 50.983-3.339 55.962c-.266 4.978-.062 7.427-.062 7.427l.016-.002-.002.003s34.959-3.497 37.997-3.749c0 0 1.328-14.457.855-17.103-5.413.937-15.914 1.976-22.343 2.567.175-2.789.372-5.775.585-8.836 3.113-.286 7.804-.459 10.663.662 1.89-5.536.908-12.562.908-12.562s-5.183-.345-10.681.188c.227-2.73.466-5.39.713-7.89 5.432-.213 17.328-.599 21.452-.086zM133.029 57.047s20.307-2.031 26.907-1.015c1.015-6.346-.508-13.961-.508-13.961l-27.161 2.792.762 12.184z" style="fill:#fff;stroke:#000;stroke-width:2;stroke-miterlimit:10"/><path d="M320.186 73.978c-9.216 17.136-40.65 10.72-45.697-6.088-5.707-19.037-4.64-47.977-4.64-47.977 5.533.538 13.776-.355 21.703-.381-1.162 6.539-2.007 18.471-1.452 29.703.763 15.23 8.687 15.985 12.113 9.896 2.836-5.039 1.784-29.963 1.142-39.599 10.754-.182 22.465-3.808 22.465-3.808s6.142 36.356-5.634 58.254z"/><path d="M318.283 70.932c-9.216 17.136-40.65 10.72-45.697-6.088-5.707-19.037-4.64-47.977-4.64-47.977 5.533.538 13.776-.355 21.703-.381-1.162 6.539-2.007 18.471-1.452 29.703.763 15.23 8.687 15.985 12.113 9.896 2.836-5.039 1.784-29.963 1.142-39.599 10.754-.182 22.465-3.808 22.465-3.808s6.142 36.356-5.634 58.254z" style="fill:#fff;stroke:#000;stroke-width:2;stroke-miterlimit:10"/></svg>