<svg xmlns="http://www.w3.org/2000/svg" xml:space="preserve" style="enable-background:new 0 0 939.949 104.049" viewBox="0 0 939.949 104.049"><path d="M161.215 75.15c-9.216 17.136-40.65 10.72-45.697-6.088-5.707-19.037-4.64-47.977-4.64-47.977 5.533.538 13.776-.355 21.703-.381-1.162 6.539-2.007 18.471-1.452 29.703.763 15.23 8.687 15.985 12.113 9.896 2.836-5.039 1.784-29.963 1.142-39.599 10.754-.182 22.465-3.808 22.465-3.808s6.142 36.356-5.634 58.254zM385.96 37.057c4.047-10.544-1.012-19.998-13.826-21.816-12.814-1.818-27.315 6.908-27.315 6.908s.337 30.542.337 40.723c0 10.181-.674 18.543-.674 18.543l15.849 3.636s.433-10.36.772-21.765l15.077 21.038c3.035-2.182 11.128-13.453 11.128-13.453l-15.48-17.006c6.181-4.631 11.92-11.044 14.132-16.808zm-17.536 3.273c-1.984 2.853-4.698 4.917-6.949 6.282.049-4.338.033-8.013-.089-10.3 6.342-4.237 10.592-1.092 7.038 4.018zM31.074 36.853c8.504-1.186 19.278-1.186 19.278-1.186s1.756-13.794 1.003-17.305c-11.035 0-35.723 3.368-35.723 3.368s-.474 49.557-.49 54.34c-.016 4.783.296 7.12.296 7.12s12.433-2.528 14.842-2.336c0 0-.002-10.329.199-22.538 5.208-.929 11.345-1.582 11.345-1.582l.502-13.041-11.53.744c.081-2.609.172-5.162.278-7.584zM79.701 15.794c-8.022.259-24.851 10.873-27.18 35.984-2.329 25.111 10.502 31.895 20.968 32.876 16.569 1.554 29.512-11.389 30.288-35.984.778-24.591-16.051-33.135-24.076-32.876zm8.792 36.919c-.304 11.354-5.372 17.327-11.861 16.611-4.098-.454-9.125-3.585-8.211-15.175.911-11.593 7.5-16.493 10.643-16.611 3.143-.121 9.735 3.824 9.429 15.175zM214.003 17.021s-1.083 15.831-2.129 31.198c-5.905-10.035-14.082-31.893-14.082-31.893-9.906.243-18.543 1.161-18.543 1.161s-1.483 54.238-1.594 59.474c-.111 5.236.186 7.8.186 7.8s13.659-2.525 16.292-2.268c0 0 .273-15.53.916-31.695 4.547 13.528 14.792 33.384 14.792 33.384s13.751-1.963 16.372-1.599c0 0 3.311-56.488 6.366-65.961-9.908-.164-18.576.399-18.576.399zM240.229 21.198h-.002l.001.004c-.004.4-.458 51.701-.474 56.67-.016 4.985.286 7.422.287 7.425l-.001.001s6.16 2.928 26.99-5.194c20.827-8.122 20.284-33.92 15.732-45.872-5.096-13.378-19.256-18.424-42.533-13.034zm28.795 36.688c-3.617 7.149-10.513 10.32-14.556 11.617.082-9.053.261-21.171.65-31.329.13-.04.257-.083.39-.12 14.846-4.059 18.833 9.318 13.516 19.832zM331.886 37.94s4.898-15.286 4.314-19.753c-14.54 3.935-34.444 1.926-41.055 2.595.002.002-.021.577-.021.577s-3.073 50.983-3.339 55.962c-.266 4.978-.062 7.427-.062 7.427l.016-.002-.002.003s34.959-3.497 37.997-3.749c0 0 1.328-14.457.855-17.103-5.413.937-15.914 1.976-22.343 2.567.176-2.789.372-5.775.585-8.836 3.113-.286 7.804-.459 10.663.662 1.89-5.536.908-12.562.908-12.562s-5.183-.345-10.681.188c.227-2.73.466-5.39.713-7.89 5.432-.214 17.328-.6 21.452-.086z"/><path d="M382.533 33.63c4.047-10.544-1.012-19.998-13.826-21.816-12.814-1.818-27.315 6.908-27.315 6.908s.337 30.542.337 40.723c0 10.181-.674 18.543-.674 18.543l15.849 3.636s.433-10.36.772-21.765l15.077 21.038c3.035-2.182 11.128-13.453 11.128-13.453l-15.48-17.006c6.181-4.631 11.92-11.044 14.132-16.808zm-17.536 3.273c-1.984 2.853-4.698 4.917-6.949 6.282.049-4.338.033-8.013-.089-10.3 6.342-4.237 10.592-1.092 7.038 4.018zM27.648 33.426c8.504-1.186 19.278-1.186 19.278-1.186s1.756-13.794 1.003-17.305c-11.035 0-35.723 3.368-35.723 3.368s-.474 49.557-.49 54.34c-.016 4.783.296 7.12.296 7.12s12.433-2.528 14.842-2.336c0 0-.002-10.329.199-22.538 5.208-.929 11.345-1.582 11.345-1.582l.502-13.041-11.53.744c.08-2.609.172-5.162.278-7.584zM76.274 12.368c-8.022.259-24.851 10.873-27.18 35.984-2.329 25.111 10.502 31.895 20.968 32.876 16.569 1.554 29.512-11.389 30.288-35.984.778-24.592-16.051-33.136-24.076-32.876zm8.792 36.918c-.304 11.354-5.372 17.327-11.861 16.611-4.098-.454-9.125-3.585-8.211-15.175.911-11.593 7.5-16.493 10.643-16.611 3.143-.121 9.736 3.824 9.429 15.175zM210.576 13.594s-1.083 15.831-2.129 31.198c-5.905-10.035-14.082-31.893-14.082-31.893-9.906.243-18.543 1.161-18.543 1.161s-1.483 54.238-1.594 59.474c-.111 5.236.186 7.8.186 7.8s13.659-2.525 16.292-2.269c0 0 .273-15.53.916-31.695 4.547 13.528 14.792 33.384 14.792 33.384s13.751-1.963 16.372-1.599c0 0 3.311-56.488 6.366-65.961-9.908-.163-18.576.4-18.576.4zM236.803 17.771h-.002l.001.004c-.004.4-.458 51.701-.474 56.67-.016 4.985.286 7.422.287 7.425l-.001.001s6.16 2.928 26.99-5.194c20.828-8.122 20.284-33.92 15.732-45.872-5.097-13.377-19.257-18.423-42.533-13.034zm28.794 36.688c-3.617 7.149-10.513 10.32-14.556 11.617.082-9.053.261-21.171.65-31.329.13-.04.257-.083.39-.12 14.846-4.059 18.833 9.318 13.516 19.832zM328.459 34.513s4.898-15.286 4.314-19.753c-14.54 3.935-34.444 1.926-41.055 2.595.002.002-.022.577-.022.577s-3.073 50.983-3.339 55.962c-.266 4.978-.062 7.427-.062 7.427l.016-.002-.002.003s34.959-3.497 37.997-3.749c0 0 1.328-14.457.855-17.103-5.413.937-15.914 1.976-22.343 2.567.176-2.789.372-5.775.585-8.836 3.113-.286 7.804-.459 10.663.662 1.89-5.536.908-12.562.908-12.562s-5.183-.345-10.681.188c.227-2.73.466-5.39.713-7.89 5.433-.213 17.329-.599 21.453-.086zM159.311 72.104c-9.216 17.136-40.65 10.72-45.697-6.088-5.707-19.037-4.64-47.977-4.64-47.977 5.533.538 13.776-.355 21.703-.381-1.162 6.539-2.007 18.471-1.452 29.703.763 15.23 8.687 15.985 12.113 9.896 2.836-5.039 1.784-29.963 1.142-39.599 10.754-.182 22.465-3.808 22.465-3.808s6.143 36.356-5.634 58.254z" style="fill:#fff;stroke:#000;stroke-width:2;stroke-miterlimit:10"/></svg>