<svg id="eedzn1KfIR71" xmlns="http://www.w3.org/2000/svg" xmlns:xlink="http://www.w3.org/1999/xlink" viewBox="0 0 3840 3691.029" shape-rendering="geometricPrecision" text-rendering="geometricPrecision" project-id="c35c6447438a49a889feda68ddf24756" export-id="beefb21349184951b8bdae8db6e769aa" cached="false"><defs><linearGradient id="eedzn1KfIR724-fill" x1="3049.73" y1="1851.024" x2="3204.041" y2="1924.766" spreadMethod="pad" gradientUnits="userSpaceOnUse" gradientTransform="translate(0 0)"><stop id="eedzn1KfIR724-fill-0" offset="0%" stop-color="#efccab"/><stop id="eedzn1KfIR724-fill-1" offset="100%" stop-color="#ce9174"/></linearGradient><linearGradient id="eedzn1KfIR725-fill" x1="3034.932" y1="1881.989" x2="3189.244" y2="1955.731" spreadMethod="pad" gradientUnits="userSpaceOnUse" gradientTransform="translate(0 0)"><stop id="eedzn1KfIR725-fill-0" offset="0%" stop-color="#efccab"/><stop id="eedzn1KfIR725-fill-1" offset="100%" stop-color="#ce9174"/></linearGradient><linearGradient id="eedzn1KfIR729-fill" x1="2931.387" y1="1942.932" x2="3220.209" y2="2143.673" spreadMethod="pad" gradientUnits="userSpaceOnUse" gradientTransform="translate(0 0)"><stop id="eedzn1KfIR729-fill-0" offset="0%" stop-color="#efccab"/><stop id="eedzn1KfIR729-fill-1" offset="100%" stop-color="#ce9174"/></linearGradient><linearGradient id="eedzn1KfIR730-fill" x1="3156.901" y1="1618.469" x2="3445.722" y2="1819.21" spreadMethod="pad" gradientUnits="userSpaceOnUse" gradientTransform="translate(0 0)"><stop id="eedzn1KfIR730-fill-0" offset="0%" stop-color="#efccab"/><stop id="eedzn1KfIR730-fill-1" offset="100%" stop-color="#ce9174"/></linearGradient><linearGradient id="eedzn1KfIR731-fill" x1="2898.228665" y1="2153.531314" x2="2898.717165" y2="2435.970578" spreadMethod="pad" gradientUnits="userSpaceOnUse" gradientTransform="translate(0 0)"><stop id="eedzn1KfIR731-fill-0" offset="0%" stop-color="#dad6ff"/><stop id="eedzn1KfIR731-fill-1" offset="100%" stop-color="rgba(218,214,255,0)"/></linearGradient><linearGradient id="eedzn1KfIR732-fill" x1="2929.651205" y1="2130.138294" x2="2930.20144" y2="2448.271571" spreadMethod="pad" gradientUnits="userSpaceOnUse" gradientTransform="translate(0 0)"><stop id="eedzn1KfIR732-fill-0" offset="0%" stop-color="#88c4fe"/><stop id="eedzn1KfIR732-fill-1" offset="100%" stop-color="rgba(136,196,254,0)"/></linearGradient><linearGradient id="eedzn1KfIR733-fill" x1="2961.304861" y1="2112.594512" x2="2961.879234" y2="2444.683003" spreadMethod="pad" gradientUnits="userSpaceOnUse" gradientTransform="translate(0 0)"><stop id="eedzn1KfIR733-fill-0" offset="0%" stop-color="#f9aad5"/><stop id="eedzn1KfIR733-fill-1" offset="100%" stop-color="rgba(249,170,213,0)"/></linearGradient><linearGradient id="eedzn1KfIR734-fill" x1="3025.826861" y1="2112.594512" x2="3026.421222" y2="2456.239941" spreadMethod="pad" gradientUnits="userSpaceOnUse" gradientTransform="translate(0 0)"><stop id="eedzn1KfIR734-fill-0" offset="0%" stop-color="#b6f4bf"/><stop id="eedzn1KfIR734-fill-1" offset="100%" stop-color="rgba(182,244,191,0)"/></linearGradient><linearGradient id="eedzn1KfIR735-fill" x1="2992.898118" y1="2108.695348" x2="2993.522449" y2="2469.669304" spreadMethod="pad" gradientUnits="userSpaceOnUse" gradientTransform="translate(0 0)"><stop id="eedzn1KfIR735-fill-0" offset="0%" stop-color="#fcc889"/><stop id="eedzn1KfIR735-fill-1" offset="100%" stop-color="rgba(252,200,137,0)"/></linearGradient><linearGradient id="eedzn1KfIR736-fill" x1="3207.834" y1="1545.187" x2="3496.656" y2="1745.928" spreadMethod="pad" gradientUnits="userSpaceOnUse" gradientTransform="translate(0 0)"><stop id="eedzn1KfIR736-fill-0" offset="0%" stop-color="#efccab"/><stop id="eedzn1KfIR736-fill-1" offset="100%" stop-color="#ce9174"/></linearGradient><linearGradient id="eedzn1KfIR737-fill" x1="3210.274" y1="1541.677" x2="3499.095" y2="1742.418" spreadMethod="pad" gradientUnits="userSpaceOnUse" gradientTransform="translate(0 0)"><stop id="eedzn1KfIR737-fill-0" offset="0%" stop-color="#efccab"/><stop id="eedzn1KfIR737-fill-1" offset="100%" stop-color="#ce9174"/></linearGradient><linearGradient id="eedzn1KfIR738-fill" x1="3135.152" y1="1649.761" x2="3423.973" y2="1850.502" spreadMethod="pad" gradientUnits="userSpaceOnUse" gradientTransform="translate(0 0)"><stop id="eedzn1KfIR738-fill-0" offset="0%" stop-color="#efccab"/><stop id="eedzn1KfIR738-fill-1" offset="100%" stop-color="#ce9174"/></linearGradient><linearGradient id="eedzn1KfIR739-fill" x1="3138.2" y1="1645.376" x2="3427.021" y2="1846.117" spreadMethod="pad" gradientUnits="userSpaceOnUse" gradientTransform="translate(0 0)"><stop id="eedzn1KfIR739-fill-0" offset="0%" stop-color="#efccab"/><stop id="eedzn1KfIR739-fill-1" offset="100%" stop-color="#ce9174"/></linearGradient><linearGradient id="eedzn1KfIR766-fill" x1="779.151339" y1="2386.017234" x2="951.477287" y2="2421.913338" spreadMethod="pad" gradientUnits="userSpaceOnUse" gradientTransform="translate(0 0)"><stop id="eedzn1KfIR766-fill-0" offset="0%" stop-color="#efccab"/><stop id="eedzn1KfIR766-fill-1" offset="100%" stop-color="#ce9174"/></linearGradient><linearGradient id="eedzn1KfIR770-fill" x1="780.198645" y1="2380.989349" x2="952.52464" y2="2416.886451" spreadMethod="pad" gradientUnits="userSpaceOnUse" gradientTransform="translate(0 0)"><stop id="eedzn1KfIR770-fill-0" offset="0%" stop-color="#efccab"/><stop id="eedzn1KfIR770-fill-1" offset="100%" stop-color="#ce9174"/></linearGradient><linearGradient id="eedzn1KfIR771-fill" x1="768.820645" y1="2435.609763" x2="941.146594" y2="2471.505866" spreadMethod="pad" gradientUnits="userSpaceOnUse" gradientTransform="translate(0 0)"><stop id="eedzn1KfIR771-fill-0" offset="0%" stop-color="#efccab"/><stop id="eedzn1KfIR771-fill-1" offset="100%" stop-color="#ce9174"/></linearGradient></defs><g transform="translate(-185.248169 4.575492)"><g><path d="M3417.908,1663.09c0,0,39.677-39.677,21.642-55.909s-30.66-9.018-30.66-9.018s10.821-46.891-14.428-55.909-36.07,14.428-36.07,14.428s1.803-23.446-18.035-21.642c-19.839,1.804-28.856,23.446-28.856,23.446s-5.411-21.642-25.249-21.642c-19.839,0-19.839,21.642-19.839,21.642l-19.839,19.839l30.66,59.516l140.674,25.249Z" fill="#faa9d5" stroke="#000" stroke-width="3.5031" stroke-miterlimit="10"/><path d="M3095.171,1714.214c-94.34,0-190.92-13.186-191.885-13.318-.721158-.099988-1.305448-.635322-1.468-1.345l-27.382-119.659c-.119902-.519958.004118-1.066208.336792-1.483414s.837606-.659723,1.371208-.658586l.025.001c18.468.26,35.461.793,51.953,1.629c17.42.883,35.056,2.122,52.11,3.321c28.004,1.969,56.962,4.004,85.618,4.5l2.266.039c21.427.369,43.584.751,65.35,2.24c1.443.099,2.894.191,4.349.285c15.569.999,31.668,2.031,45.555,10.173c23.941,14.035,34.263,42.325,40.582,65.403c2.539,9.272,4.757,19.217,7.194,32.244.163718.87399-.353618,1.731917-1.203,1.995-31.321,9.71-76.664,14.634-134.763,14.634h-.009Z" fill="#b3bde0"/><path d="M2876.143,1579.5c17.303.244,34.601.751,51.889,1.627c46.039,2.333,91.64,7.026,137.787,7.824c22.517.39,45.052.738,67.527,2.275c16.69,1.141,34.326,1.539,49.138,10.222c22.765,13.345,33.149,40.141,39.778,64.355c2.901,10.596,5.146,21.326,7.162,32.104-35.332,10.954-84.653,14.556-134.254,14.556-95.311,0-191.643-13.302-191.643-13.302L2876.143,1579.5m0-3.503c-1.066215.000329-2.074274.486098-2.738885,1.31983s-.913458,1.924707-.676115,2.96417l27.382,119.66c.324687,1.419419,1.493584,2.489979,2.936,2.689.966.133,97.663,13.335,192.123,13.335c58.283,0,103.802-4.95,135.292-14.713c1.698167-.526928,2.732484-2.242192,2.406-3.99-2.445-13.071-4.674-23.059-7.227-32.385-6.406-23.399-16.899-52.098-41.385-66.452-14.243-8.35-30.55-9.397-46.32-10.41-1.455-.094-2.906-.187-4.35-.285-21.806-1.491-43.982-1.873-65.427-2.243l-2.278-.039c-28.609-.495-57.543-2.529-85.525-4.496-17.063-1.2-34.707-2.44-52.145-3.324-16.501-.836-33.516-1.37-52.016-1.631h-.051Z"/><path d="M3244.475,1694.159c-.850245-.000534-1.577668-.610794-1.726-1.448-6.292-35.73-15.807-71.972-42.599-95.021-23.152-19.908-56.666-20.559-86.234-21.132-4.164-.081-8.097-.157-12.037-.281-11.632-.361-23.472-.562-34.922-.756-12.211-.207-24.839-.421-37.259-.83-9.53-.324-19.651-.906-30.941-1.778-6.91-.523-13.935-1.115-20.729-1.688-7.433-.626-15.118-1.274-22.681-1.834-16.244-1.213-33.106-2.081-51.552-2.655-7.393-.241-15.122-.432-23.632-.584-.61325-.010161-1.176425-.340629-1.484397-.871037s-.315789-1.183334-.020603-1.720963c.725733-1.326467,1.460751-2.647833,2.205-3.964c19.199-33.409,76.085-111.09,189.495-111.09c1.028,0,2.053.006,3.091.02c52.353.646,96.347,13.185,130.761,37.27c49.573,34.665,77.411,92.498,78.385,162.845.249,19.296-12.343,34.562-37.428,45.375-.22.095-.456.143-.692.143Z" fill="#dce3f4"/><path d="M3070.359,1450.258c1.021,0,2.039.006,3.07.019c54.869.677,97.677,14.487,129.778,36.953c52.91,37,76.752,97.468,77.638,161.435.257,19.876-13.694,33.967-36.37,43.741-6.392-36.3-15.957-72.623-43.182-96.045-26.805-23.049-66.184-20.786-99.357-21.836-24.052-.747-48.127-.793-72.179-1.586-10.312-.35-20.599-.98-30.864-1.773-14.464-1.096-28.928-2.45-43.415-3.523-17.193-1.283-34.41-2.123-51.627-2.66-7.885-.256-15.77-.443-23.655-.583.677-1.237,1.4-2.543,2.193-3.943c18.773-32.666,75.176-110.196,187.97-110.199m.014-3.503v3.503l-.002-3.503c-114.34.004-171.676,78.297-191.02,111.959-.725,1.28-1.45,2.584-2.229,4.007-.587955,1.075686-.571004,2.380423.044699,3.44047s1.74062,1.721251,2.966301,1.74353c8.452.15,16.173.34,23.604.582c18.432.575,35.27,1.442,51.48,2.652c7.568.561,15.262,1.209,22.702,1.836c6.785.572,13.802,1.163,20.709,1.687c11.313.874,21.458,1.457,31.01,1.781c12.443.41,25.083.625,37.307.832c11.438.194,23.266.394,34.882.755c3.948.125,7.886.201,12.056.282c29.273.568,62.451,1.211,85.126,20.708c26.375,22.69,35.78,58.586,42.016,93.996.185186,1.055097.843221,1.967348,1.785997,2.475971s2.066523.557636,3.050003.133029c25.797-11.12,38.745-26.934,38.486-47.004-.983-70.928-29.086-129.263-79.134-164.261-34.706-24.289-79.031-36.935-131.742-37.585-1.039-.014-2.067-.02-3.098-.02Z"/><path d="M3117.723,1472.172c-.849949-.001345-1.576921-.611226-1.726-1.448-.886-5.029-2.205-10.113-5.824-13.227-3.029-2.604-7.516-2.691-11.855-2.775-.61-.012-1.211-.023-1.8-.042-1.727707-.049849-3.455752-.087183-5.184-.112-1.843-.031-3.687-.062-5.529-.123-1.437-.049-2.96-.137-4.657-.269-1.032-.078-2.067-.165-3.103-.252-1.11-.094-2.221-.188-3.333-.27-2.525165-.18586-5.054109-.316225-7.585-.391-1.161776-.037124-2.323807-.065792-3.486-.086-.613052-.011127-1.175679-.341936-1.483471-.872238s-.315957-1.182925-.021529-1.720762l.337-.606c2.983-5.191,11.809-17.24,29.416-17.24l.477.003c8.072.1,14.882,2.051,20.239,5.799c7.758,5.427,12.115,14.435,12.267,25.365.031,2.423-1.063,5.798-6.454,8.123-.219295.095296-.455894.144318-.695.144Z" fill="#dce3f4"/><path d="M3091.888,1434.49l.455.003c8.141.1,14.493,2.15,19.256,5.483c7.851,5.49,11.388,14.462,11.52,23.954.038,2.949-2.032,5.04-5.396,6.49-.948-5.386-2.368-10.776-6.407-14.251-3.977-3.42-9.82-3.084-14.742-3.24-3.569-.111-7.141-.118-10.71-.235-1.53-.052-3.056-.145-4.58-.263-2.146-.163-4.292-.364-6.442-.523-2.551-.19-5.106-.315-7.66-.395-1.17-.038-2.34-.066-3.51-.087.1-.183.208-.377.325-.585c2.786-4.846,11.155-16.35,27.891-16.351m0-3.503c-18.522.001-27.799,12.665-30.928,18.109-.137.242-.253.451-.361.649-.5892,1.07555-.572856,2.380946.043087,3.441407s1.741733,1.721463,2.967913,1.742593c1.153.02,2.305.048,3.458.085c2.695.084,5.151.21,7.513.387c1.116.083,2.23.177,3.343.27c1.032.087,2.063.174,3.095.252c1.716.133,3.263.221,4.726.271c1.873.062,3.76.094,5.585.125c1.687.029,3.432.058,5.135.111.595.019,1.205.031,1.824.043c4.028.078,8.193.159,10.743,2.352c3.203,2.756,4.412,7.493,5.241,12.203.185106,1.055364.843295,1.967856,1.786334,2.476516s2.067081.557475,3.050666.132484c6.278-2.707,7.551-6.797,7.512-9.753-.159-11.512-4.781-21.021-13.015-26.779-5.649-3.953-12.789-6.011-21.22-6.115-.166326-.001994-.332662-.002994-.499-.003Z"/><path d="M3203.207,1487.23c-40.755,35.39-108.852,78.058-204.313,83.937-29.114,1.773-60.818.14-95.042-6.182-7.191114-1.328651-14.347706-2.837794-21.463-4.526c18.943-32.963,76.192-111.605,191.04-110.182c54.869.677,97.677,14.487,129.778,36.953Z" fill="#fff"/><path d="M2860.621,1670.253c-.658891-.000091-1.262017-.369849-1.561-.957-1.991-3.907-48.775-95.767-50.6-101.238-4.413-13.237-1.976-22.83,6.519-25.661.569-.19,1.695-.385,5.724-.385c25.426,0,131.267,7.5,218.846,14.468c43,3.422,183.773,14.869,189.891,18.54c9.696,5.816,6.633,37.742,6.251,41.363-.021857.208881-.081136.412121-.175.6l-9.018,18.034c-.324567.650589-1.017591,1.032727-1.741.96-.5-.05-12.294-1.289-16.437-6.889-1.327-1.795-1.777-3.819-1.337-6.019.757-3.787.715-8.421-.093-12.632-48.998-4.138-275.979-23.323-292.338-24.959-1.644-.165-3.243-.329-4.788-.488-6.821-.701-12.712-1.307-16.679-1.307-2.712,0-3.793.292-4.196.465.048.103.123.241.242.419c3.649,5.474,29.698,64.484,30.805,66.994.205752.466691.19792.999875-.02145,1.460321s-.628499.802441-1.12055.936679l-39.677,10.822c-.830393.226823-1.702488-.183575-2.057-.968l-15.789,6.314c-.20643.08392-.427164.127048-.65.127Z" fill="#dce3f4"/><path d="M2820.704,1543.763c47.956,0,399.316,27.646,407.835,32.758c9.018,5.411,5.411,39.677,5.411,39.677l-9.018,18.035c0,0-18.035-1.803-16.232-10.821.768-3.839.869-9.312-.367-14.611-25.762-2.175-276.5-23.355-293.607-25.066-9.018-.902-16.683-1.804-21.642-1.804s-7.214.902-5.41,3.607c3.607,5.411,30.66,66.73,30.66,66.73l-39.677,10.822c0,0-.226-.555-.635-1.55l-17.401,6.96c0,0-48.695-95.586-50.499-100.997-1.803-5.411-5.41-19.839,5.411-23.446.598-.199,2.363-.294,5.171-.294m0-3.503c-4.044,0-5.401.181-6.278.474-9.534,3.178-12.385,13.6-7.626,27.877c1.834,5.5,45.704,91.672,50.701,101.479.822553,1.61459,2.740451,2.335699,4.423,1.663l14.639-5.855c.864494.643794,1.976852.854689,3.017.572l39.677-10.822c.98432-.268112,1.802792-.952123,2.241425-1.873193s.453814-1.987625.041575-2.920807c-2.585-5.861-23.937-54.188-29.879-65.387.4-.02.871-.033,1.425-.033c3.876,0,9.726.601,16.499,1.298c1.548.159,3.149.324,4.795.488c16.652,1.665,252.621,21.605,291.014,24.847.624,4.178.381,8.12-.126,10.657-.533,2.666.036,5.226,1.647,7.403c4.521,6.112,16.339,7.458,17.671,7.591c1.446577.14428,2.832001-.619653,3.482-1.92l9.018-18.035c.188-.376.307-.782.351-1.2.038-.359.923-8.9.695-18.262-.335-13.736-2.882-21.843-7.787-24.786-1.294-.776-3.703-2.222-62.046-7.758-33.357-3.165-79.031-7.081-128.607-11.025-87.616-6.969-193.514-14.472-218.988-14.472Z"/><path d="M3233.949,1616.198c0,0,3.607-34.267-5.41-39.677s-402.185-36.07-413.006-32.463-7.214,18.035-5.41,23.446c1.803,5.411,50.499,100.997,50.499,100.997l27.053-10.821-45.088-86.569c0,0,1.803-7.214,16.232-5.411c14.428,1.803,321.026,23.446,335.455,27.053c14.428,3.607,16.231,21.642,14.428,30.66s16.232,10.821,16.232,10.821l9.015-18.036Z" fill="#fff"/><path d="M3059.006,1684.08c-.848,0-1.59-.616-1.728-1.476-.299-1.867-7.212-45.906,2.047-60.722c4.446-7.113,14.93-11.192,28.764-11.192c12.49,0,25.879,3.378,34.942,8.815c18.344,11.007,32.602,48.004,33.199,49.573.190468.500425.14164,1.060476-.132554,1.52039s-.743649.769193-1.274446.83961l-95.586,12.625c-.076449.011588-.153678.017272-.231.017Z" fill="#e2f2a5"/><path d="M3088.09,1612.441c11.948,0,25.024,3.156,34.042,8.567c18.035,10.821,32.463,48.695,32.463,48.695l-95.587,12.625c0,0-7.214-45.088,1.804-59.516c4.508-7.215,15.329-10.371,27.278-10.371m0-3.503c-14.45,0-25.476,4.38-30.249,12.017-4.128,6.604-5.747,19.122-4.811,37.206.678,13.112,2.444,24.252,2.519,24.72.300442,1.873211,2.037139,3.167091,3.918,2.919l95.587-12.625c1.061962-.140198,2.001411-.758577,2.550088-1.678562s.646271-2.040446.264912-3.041438c-.607-1.593-15.076-39.137-33.935-50.452-9.321-5.591-23.055-9.065-35.844-9.065Z"/><path d="M3145.664,1650.71c-2.988,0-5.234-1.502-6.497-4.343-3.074-6.917-2.728-15.584.841-21.077c2.649-4.076,6.794-6.23,11.987-6.23c1.884,0,3.922.288,6.056.857c6.59,1.758,10.45,4.576,11.471,8.377c1.405,5.233-3.27,9.985-3.469,10.185-1.252,1.252-12.459,12.231-20.388,12.231h-.001Z" fill="#e2f2a5"/><path d="M3151.996,1620.81c1.687,0,3.553.252,5.605.799c18.035,4.809,7.214,15.63,7.214,15.63s-11.719,11.719-19.15,11.719c-2.09,0-3.841-.927-4.897-3.302-4.263-9.59-1.915-24.846,11.228-24.846m0-3.503c-5.732,0-10.511,2.496-13.456,7.028-3.875,5.962-4.275,15.314-.973,22.743c1.542,3.471,4.418,5.383,8.098,5.383c8.633,0,20.323-11.44,21.627-12.745.574-.574,5.559-5.783,3.922-11.877-1.195-4.45-5.472-7.684-12.711-9.615-2.282-.608-4.471-.917-6.507-.917Z"/><path d="M3110.727,2367.866c-.112-.008-11.246-.788-20.162-2.042-5.479-.782-9.13-1.605-10.857-2.445-5.374-2.687-13.139-18.454-14.283-20.823-2.376-3.427-19.823-28.732-20.875-34.49-.336-1.835-.725-9.523-1.382-22.953-1.196-24.421-3.003-61.326-5.53-68.86-2.686-8.059-45.548-44.007-73.703-66.204-.334724-.26481-.561816-.64223-.639-1.062-.051-.278-5.121-27.985-9.082-37.38-2.435-5.74-28.179-28.523-45.215-43.6-12.503-11.065-20.254-17.964-21.97-20.255-4.623-6.147-19.766-135.256-22.877-162.147l-29.182-49.394c-.160944-.271437-.245269-.581438-.244-.897l.63-171.163c.002084-.58492.296262-1.130126.784-1.453.743-.493,18.271-12.091,24.191-14.934c3.455-1.651,7.875-17.015,10.249-25.269c1.229-4.271,2.29-7.96,3.143-10.045c1.239-3.046,5.126-4.467,12.232-4.467c7.269,0,16.252,1.499,22.196,2.49c1.589.265,2.926.488,3.899.625c4.435.638,6.706,7.902,10.339,20.688c2.814,9.904,6.004,21.13,10.545,25.191.595.53,2.937,1.769,11.769,1.769c28.748,0,94.18-12.905,94.837-13.035.327573-.064403.666694-.034582.978.086.271.106,27.234,10.603,35.293,10.603.22,0,.422-.009.608-.028c6.917-.72,21.445-11.643,26.914-15.755c3.64-2.727,19.292-4.929,42.755-7.978c12.016-1.562,24.442-3.177,26.665-4.239c2.101-1.014,5.605-6.001,8.994-10.824c5.196-7.396,11.085-15.778,17.069-18.302c4.066-1.727,27.455-2.604,69.513-2.604c13.654,0,28.574.103,43.146.298c26.36.384,46.65,1,50.49,1.531c7.643,1.083,19.514,16.544,32.034,33.668c3.704,5.065,6.902,9.44,8.199,10.594c3.354,2.999,24.175,10.102,37.353,14.145.242.074.464.2.653.368l14.557,12.994c.538161.479662.727118,1.240254.476,1.916l-14.768,39.799c-.055.149-.131.29-.225.42-.203.278-20.272,27.978-23.186,36.315-1.444,4.089.427,22.634,2.078,38.995c2.038,20.191,3.213,32.747,1.764,36.32-2.758,6.779-41.416,58.991-45.529,64.538-.565,6.491-5.803,65.257-11.47,80.338-5.681,15.096-44.874,27.787-51.682,29.89l-7.636,28.894c-.034903.131651-.084901.258828-.149.379l-57.062,106.659c-.297765.556124-.87137.909376-1.502.925-.149.004-15.062.36-26.334.36-5.959,0-9.802-.096-11.7-.292-5.854,5.174-39.489,76.593-59.679,121.204-.638,3.574-8.89,49.835-9.867,56.624-1.017,7.236-23.358,48.697-25.902,53.4-.326763.603792-.976076.96109-1.661.914Z" fill="#ce9174"/><path d="M3268.339,1598.421c14.468,0,29.459.115,43.114.297c25.568.373,46.401.98,50.273,1.516c10.708,1.516,34.456,39.519,39.309,43.835c4.853,4.339,38.003,14.51,38.003,14.51l14.557,12.994-14.767,39.799c0,0-20.389,28.088-23.422,36.766-3.056,8.655,6.672,68.33,3.873,75.235-2.8,6.882-45.608,64.551-45.608,64.551s-5.552,64.784-11.408,80.367c-5.855,15.56-51.487,29.114-51.487,29.114l-7.885,29.838-57.062,106.659c0,0-14.912.36-26.293.36-5.523,0-10.213-.085-11.966-.336-.016589-.002026-.033288-.003028-.05-.003-5.626-.007-61.049,122.479-61.049,122.479s-8.888,49.76-9.915,56.899c-1.003,7.139-25.708,52.817-25.708,52.817s-11.081-.77-20.039-2.03c-4.572-.653-8.608-1.446-10.334-2.286-5.086-2.543-13.531-20.133-13.531-20.133s-19.643-28.298-20.67-33.92c-1.026-5.599-3.125-80.578-6.975-92.055-3.826-11.478-74.279-67.024-74.279-67.024s-5.109-28.064-9.192-37.746c-4.106-9.681-62.801-58.088-67.397-64.224-4.596-6.112-22.582-161.668-22.582-161.668l-29.371-49.714.63-171.163c0,0,18.103-11.991,23.982-14.814c5.855-2.8,11.431-29.324,14.254-36.23c1.032-2.537,5.291-3.378,10.611-3.378c9.112,0,21.344,2.465,25.852,3.098c7.139,1.026,10.256,36.772,19.96,45.451c1.762,1.571,6.449,2.214,12.937,2.214c29.255,0,95.177-13.068,95.177-13.068s27.448,10.722,35.93,10.722c.285,0,.548-.012.789-.037c7.396-.77,21.672-11.501,27.785-16.097c6.135-4.596,63.267-9.238,69.123-12.037c5.856-2.823,16.307-25.008,25.989-29.091c4.341-1.844,35.16-2.467,68.842-2.467m0-3.503c-63.748,0-68.612,2.067-70.211,2.746-6.438,2.715-12.481,11.316-17.813,18.904-2.954,4.205-6.631,9.438-8.327,10.255-2.085.953-15.416,2.686-26.127,4.078-24.451,3.178-39.585,5.323-43.575,8.311-4.854,3.65-19.613,14.746-26.047,15.417-.08.008-.219.018-.426.018-6.417,0-27.192-7.566-34.656-10.482-.621933-.242501-1.300147-.302517-1.955-.173-.656.13-65.921,13.002-94.496,13.002-8.86,0-10.544-1.277-10.612-1.331-4.153-3.714-7.405-15.159-10.018-24.355-3.613-12.714-6-21.114-11.769-21.943-.95-.134-2.3-.359-3.863-.62-6.002-1.001-15.073-2.514-22.487-2.514-4.977,0-11.829.577-13.856,5.561-.886,2.167-1.959,5.898-3.202,10.219-1.47,5.11-3.136,10.902-4.942,15.754-2.695,7.241-4.235,8.33-4.402,8.43-6.006,2.883-23.633,14.545-24.38,15.04-.9759.646409-1.564563,1.737442-1.569,2.908l-.63,171.163c-.002027.631239.166213,1.251343.487,1.795l28.993,49.074c.647,5.57,4.852,41.602,9.487,77.844c10.26,80.226,12.491,83.193,13.689,84.787c1.818,2.427,9.241,9.036,22.205,20.509c15.89,14.062,42.486,37.599,44.767,42.977c3.885,9.214,8.92,36.729,8.97,37.006.153.84.607,1.595,1.278,2.124.176.139,17.784,14.034,35.623,29.141c32.867,27.835,37.013,34.775,37.501,36.24c2.452,7.311,4.324,45.549,5.443,68.395.68,13.894,1.052,21.235,1.409,23.184c1.067,5.842,16.192,28.01,21.079,35.058c2.25,4.659,9.392,18.692,15,21.497.739.36,2.885,1.404,11.406,2.621c8.984,1.264,19.834,2.025,20.292,2.057c1.3709.095391,2.671013-.619378,3.325-1.828c4.176-7.72,25.058-46.607,26.096-53.996.955-6.637,8.943-51.44,9.817-56.34c1.62-3.572,13.851-30.506,26.831-57.887c22.893-48.292,29.86-59.46,31.9-62.018c1.666.117,4.75.221,10.962.221c11.292,0,26.228-.357,26.377-.36c1.261384-.030832,2.408786-.737454,3.004-1.85l57.062-106.659c.128-.24.229-.494.298-.757l7.387-27.953c9.644-3.013,46.101-15.312,51.877-30.661c5.624-14.969,10.782-71.764,11.533-80.31c6.506-8.775,42.667-57.684,45.449-64.522c1.527-3.767.672-14.215-1.643-37.157-1.47-14.567-3.483-34.517-2.171-38.232c2.352-6.729,17.366-28.177,22.954-35.875.187-.258.339-.54.449-.839l14.767-39.799c.501355-1.35154.123566-2.872221-.952-3.832l-14.557-12.994c-.377162-.336114-.822236-.587129-1.305-.736-15.935-4.89-34.017-11.378-36.695-13.773-1.164-1.035-4.616-5.757-7.955-10.324-13.238-18.106-24.873-33.189-33.198-34.368-4.827-.669-30.334-1.253-50.714-1.551-14.387202-.19282-28.775507-.291822-43.164-.297Z"/><path d="M3107.698,2061.61c-.544588.000596-1.058414-.252371-1.390038-.684345s-.443244-.993712-.301962-1.519655l7.106-26.654-5.339-28.467c-.044864-.24055-.039074-.487813.017-.726l7.185-30.479v-53.104l-30.084-26.515c-.372541-.328759-.588072-.800165-.593-1.297l-.583-58.929c-.005691-.50939.210864-.995976.593123-1.33271s.892273-.490185,1.396877-.42029l34.561,4.766l44.805-8.947c.212758-.041549.431277-.044259.645-.008l72.132,12.621c.78381.137797,1.376619.786027,1.444,1.579l1.82,21.648c.059732.71451-.321681,1.393371-.963,1.714l-13.34,6.66c.638,5.755,2.883,29.456-2.112,39.447-5.332,10.64-36.772,40.654-39.848,43.576l-17.902,32.239c-.171921.309206-.433376.559157-.75.717l-20.927,10.44-7.013,28.076c-.04.158-.101.311-.183.452l-19.83,34.27c-.31299.541291-.890733.874751-1.516.875h-9.03v.003Z" fill="#ce9174"/><path d="M3165.414,1829.02l72.133,12.621l1.82,21.649-14.44,7.208c0,0,3.616,28.858-1.796,39.682-5.413,10.801-39.682,43.275-39.682,43.275l-18.033,32.474-21.649,10.801-7.208,28.858-19.829,34.27h-9.028l7.209-27.038-5.412-28.857l7.232-30.678v-54.099l-30.677-27.038-.513-51.86-.07-7.069l34.853,4.806l45.09-9.005m0-3.503c-.23,0-.459.023-.686.068l-44.516,8.889-34.268-4.725c-1.009218-.139701-2.02924.167034-2.794017.840199s-1.198479,1.646014-1.187983,2.664801l.07,7.069.513,51.86c.01.994.441,1.936,1.187,2.594l29.491,25.992v52.11l-7.138,30.281c-.112366.475358-.123609.96902-.033,1.449l5.266,28.077-7.004,26.271c-.281009,1.051704-.056957,2.174282.606253,3.037532s1.690148,1.368993,2.778747,1.368468h9.028c1.25,0,2.406-.667,3.032-1.749l19.829-34.27c.164-.283.287-.588.367-.906l6.817-27.292l20.206-10.081c.632951-.315746,1.155524-.815659,1.499-1.434l17.772-32.004c5.012-4.764,34.649-33.173,40.013-43.876c4.947-9.895,3.227-31.546,2.422-39.212l12.247-6.114c1.283037-.640838,2.046031-1.998857,1.926-3.428l-1.82-21.649c-.133055-1.586141-1.319041-2.883044-2.887-3.157l-72.133-12.621c-.199082-.035128-.400843-.052861-.603-.053Z"/><path d="M3120.389,1875.584l-9.564,10.918l8.188,19.13l17.753,5.459-1.353,20.483-18.686,8.538v-20.926l-30.677-27.038-.513-51.86l36.23,12.084c0,0,28.671-8.188,32.754-8.188c4.106,0,16.4,23.212,16.4,23.212l-25.942,8.188h-24.59Z" fill="url(#eedzn1KfIR724-fill)"/><path d="M3147.701,1927.474l2.731,20.484-8.194,15.021l6.828,10.925l12.29-9.559l4.097-19.119l8.194-10.924-8.194-27.312-13.656,5.462-4.096,15.022Z" fill="url(#eedzn1KfIR725-fill)"/><path d="M3134.599,1848.976c-17.889,0-43.16-10.134-45.465-11.073-3.872-.904-8.199-2.356-7.836-5.541.187-1.644,1.585-4.089,11.521-6.343c6.151-1.396,13.708-2.229,20.214-2.229c3.911,0,9.397.309,13.32,1.78c1.654.62,3.752.922,6.413.922c5.955,0,13.739-1.549,21.981-3.188c9.946-1.979,20.231-4.024,29.805-4.024c6.266,0,11.435.885,15.804,2.705c7.569,3.154,14.79,5.156,21.161,6.922c9.455,2.62,15.7,4.352,17.644,8.275.758,1.529.765,3.247.021,5.105-1.683,4.206-8.127,6.165-20.281,6.165-12.758,0-28.252-2.214-35.699-3.277-2.232-.319-4.586-.475-7.196-.475-6.567,0-13.562.976-21.662,2.105-5.015.7-10.202,1.424-15.809,1.984-1.308021.128477-2.62169.19089-3.936.187Z" fill="#e2f2a5"/><path d="M3184.552,1821.033c5.501,0,10.663.709,15.13,2.57c21.642,9.018,41.481,9.018,37.874,18.035-1.536,3.84-9.285,5.064-18.653,5.064-12.631,0-28.204-2.225-35.452-3.26-2.412-.344-4.887-.491-7.443-.491-10.823,0-23.055,2.639-37.645,4.099-1.203.12-2.46.176-3.762.176-18.224,0-44.933-10.998-44.933-10.998-18.361-4.237,5.307-10.686,23.367-10.686c5.001,0,9.575.495,12.703,1.668c1.949.731,4.322,1.034,7.029,1.034c13.195,0,34.234-7.212,51.785-7.211m0-3.503v3.503-3.503c-9.746,0-20.584,2.156-30.146,4.057-8.154,1.622-15.857,3.154-21.639,3.154-2.413,0-4.364-.273-5.799-.811-3.347-1.255-8.035-1.891-13.934-1.891-6.63,0-14.332.849-20.603,2.272-8.505,1.929-12.476,4.351-12.874,7.853-.572,5.023,6.155,6.741,9.047,7.414c3.044,1.234,28.075,11.151,45.996,11.151c1.442,0,2.825-.065,4.111-.194c5.64-.564,10.841-1.29,15.872-1.991c8.037-1.121,14.978-2.09,21.424-2.09c2.526,0,4.798.149,6.948.456c7.488,1.07,23.068,3.295,35.948,3.295c13.14,0,19.896-2.241,21.906-7.266c1.166-2.916.601-5.162-.078-6.533-2.291-4.625-8.837-6.439-18.746-9.186-6.322-1.752-13.487-3.738-20.956-6.85-4.585-1.911-9.975-2.84-16.477-2.84Z"/><path d="M3210.503,1832.02c0,0,26.452-3.607,25.25-18.035s-19.238-9.619-19.238-9.619s18.035-42.082-3.607-49.296-32.463,18.035-32.463,18.035-10.821-21.642-26.452-20.44c-15.63,1.202-30.059,48.094-30.059,48.094s-4.809-22.844-19.238-20.44-4.809,30.059-4.809,30.059-9.619-2.405-10.821,4.809s12.023,15.63,12.023,15.63s28.856,6.012,43.284,3.607c14.43-2.404,46.893-8.416,66.13-2.404Zm-349.425-182.667c0,0,.745-24.137-18.493-28.946s-14.428,14.428-14.428,14.428-19.238,8.416-14.428,18.035s23.386,11.295,23.386,11.295l23.963-14.812Z" fill="#faa9d5" stroke="#000" stroke-width="3.5031" stroke-miterlimit="10"/><path d="M3091.019,2156.556l-33.78,33.803-24.588-39.962-12.294-52.234-122.896-104.466-18.43-95.251l16.027-44.722-15-51.883l8.188-32.777-21.509-42.668l20.133-16.051-12.294-47.801l21.859-6.812l13.204-43.228c-9.238-1.516-31.727-5.692-34.293.607-2.823,6.905-8.398,33.43-14.254,36.23-5.879,2.823-23.982,14.814-23.982,14.814l-.63,171.163l29.371,49.714c0,0,17.986,155.556,22.582,161.668c4.596,6.135,63.291,54.543,67.397,64.224c4.083,9.682,9.192,37.746,9.192,37.746s70.453,55.546,74.279,67.024c3.85,11.478,5.949,86.457,6.975,92.055c1.027,5.622,20.67,33.92,20.67,33.92s8.445,17.59,13.531,20.133c1.726.84,5.762,1.633,10.334,2.286l-5.926-38.539l9.215-43.018l30.724-33.803-15.351-27.645l18.429-49.177-36.883-15.35Z" fill="url(#eedzn1KfIR729-fill)"/><path d="M3199.498,1600.888c-9.682,4.083-20.133,26.268-25.989,29.091-5.855,2.799-62.988,7.442-69.123,12.037-6.113,4.596-20.389,15.327-27.785,16.097-7.395.77-36.719-10.685-36.719-10.685s-9.308.7-22.302,1.377l34.526,13.74l19.13,19.13l60.072-17.753l39.612,16.377l15.35-36.86l125.183-44.721c-45.445-.607-105.75-.466-111.955,2.17Z" fill="url(#eedzn1KfIR730-fill)"/><path d="M2902.755,1759.352c.865-57.103,3.28-90.753,10.562-109.387-5.444-.13-9.773-3.1-15.281-4.284-7.079-1.522-12.771,1.678-17.264,6.793-6.545,19.102-8.774,52.298-9.618,106.878-1.75,114.813,22.96,694.091,22.96,694.091l31.219,12.612c-3.125-76.44-24.242-600.324-22.578-706.703Z" fill="url(#eedzn1KfIR731-fill)"/><path d="M2955.95,2441.75c-5.165-128.191-23.138-583.993-21.595-682.398.665-43.127,2.193-72.913,6.024-92.924v-.038c1.406-7.269,3.121-13.208,5.194-18.069-1.547-.687-3.125-1.365-4.805-1.94-10.3-3.529-14.981,1.898-24.718,3.42-.949.148-1.852.185-2.733.164-7.282,18.635-9.697,52.285-10.562,109.387-1.664,106.379,19.453,630.263,22.579,706.703l31.353,12.651-.736-36.802-.001-.154Z" fill="url(#eedzn1KfIR732-fill)"/><path d="M2987.55,2441.75c-5.166-128.23-23.138-583.954-21.595-682.36.664-43.126,2.193-72.912,6.024-92.923v-.077c1.484-7.753,3.342-14.007,5.615-19.037-6.157,2.684-12.377,5.171-19.313,4.853-4.807-.22-8.645-2.082-12.708-3.885-2.073,4.861-3.788,10.799-5.194,18.069v.038c-3.831,20.011-5.359,49.797-6.024,92.924-1.543,98.406,16.43,554.207,21.595,682.398v.154c.877,21.276,1.369,33.466,1.369,33.466l31.151,12.574-.92-45.887v-.307Z" fill="url(#eedzn1KfIR733-fill)"/><path d="M3033.155,1637.76c-5.553-.587-11.805,1.122-21.399,4.724-3.506,5.634-6.169,13.412-8.178,23.906v.077c-3.831,20.011-5.359,49.797-6.024,92.923-1.543,98.406,16.43,554.13,21.595,682.36v.192c.877,21.238,1.369,33.428,1.369,33.428l31.118,12.536c0,0-17.563-773.802-16.44-807.51.935-28.05,17.656-31.416,17.656-31.416s-5.92-10.098-19.697-11.22Z" fill="url(#eedzn1KfIR734-fill)"/><path d="M3019.15,2441.75c-5.165-128.23-23.138-583.954-21.595-682.36.665-43.126,2.192-72.912,6.024-92.923v-.077c2.009-10.494,4.672-18.272,8.178-23.906-4.721-.83-9.53-1.444-14.551-1.212-6.948.321-13.246,3.307-19.612,6.082-2.273,5.029-4.13,11.283-5.615,19.037v.077c-3.831,20.011-5.359,49.797-6.024,92.923-1.543,98.406,16.43,554.13,21.595,682.36v.307c.105,2.607.21,5.099.315,7.437v.269c.035.613.069,1.227.07,1.802.034.46.069.92.07,1.38c0,.306.034.613.035.92.528,13.264.844,20.892.878,21.505l31.151,12.574-.921-46.002.002-.193Z" fill="url(#eedzn1KfIR735-fill)"/><path d="M3363.463,1607.927l25.946,34.139-20.483,9.559-24.581-6.827-38.236,12.29-16.388-9.559l6.829-20.484l21.849-5.462l5.462-13.656h39.602Z" fill="url(#eedzn1KfIR736-fill)"/><path d="M3429.011,1662.55l13.656,10.925-8.193,17.753-21.85-4.097-30.043,5.462-2.731-9.559l17.753-9.559l31.408-10.925Z" fill="url(#eedzn1KfIR737-fill)"/><path d="M3225.539,1704.883l66.914,36.871l27.311,2.731l17.753,19.119v23.214l-21.849,6.828-53.258-21.849-1.366-25.946-20.483-17.753-17.753,1.366-16.387-6.828-16.387-15.021l35.505-2.732Z" fill="url(#eedzn1KfIR738-fill)"/><path d="M3368.926,1826.42l17.752,6.828l24.581-15.021-12.291-12.29-43.698-6.828-6.828,12.29l16.387,4.097l4.097,10.924Z" fill="url(#eedzn1KfIR739-fill)"/><path d="M840.939,2059.557c-.469195.000328-.918869-.187767-1.248092-.522066s-.510415-.786799-.502908-1.255934c.004-.262.405-26.472,1.878-52.346.867-15.223,1.931-27.363,3.161-36.082c2.09-14.808,4.337-17.842,7.067-17.842c1.9,0,3.042,1.799,3.417,2.391c10.664,16.804,11.705,87.586,11.744,90.591.008164.642141-.335647,1.237287-.896,1.551l-23.764,13.292c-.261529.14641-.556278.223197-.856.223Z" fill="#dce3f4"/><path d="M851.294,1953.261c.61,0,1.256.503,1.938,1.578c10.521,16.578,11.471,89.675,11.471,89.675l-23.764,13.292c0-.001,1.55-104.545,10.355-104.545m0-3.504c-4.482,0-6.785,5.063-8.802,19.349-1.238,8.767-2.306,20.956-3.176,36.228-1.475,25.91-1.877,52.158-1.881,52.42-.017482,1.251563.633786,2.417462,1.708659,3.058839s2.410197.660877,3.503341.051161l23.764-13.292c1.121886-.626853,1.810153-1.817979,1.793-3.103-.039-3.025-1.089-74.288-12.016-91.507-1.347-2.127-2.994-3.205-4.894-3.205Z"/><path d="M816.943,2102.933c-.08,0-.159-.006-.239-.017-.489-.067-12.082-1.708-21.918-6.897-4.303-2.249-7.646-4.864-9.931-7.77-3.604-4.584-4.178-11.359-1.537-18.124c3.011-7.712,14.855-26.43,59.692-33.666c9.358-1.508,18.206-2.273,26.296-2.273c20.839,0,37.348,5.109,47.743,14.776c6.581,6.085,10.597,13.88,11.611,22.537c1.187,10.026-4.31,18.598-15.896,24.784-8.468,4.522-17.128,6.175-17.493,6.243-.497745.093634-1.011608-.033737-1.408-.349-.397226-.314264-.639006-.785061-.663-1.291-.004-.091-.454-8.889-3.597-16.292-9.509-2.611-19.475-3.936-29.634-3.936-20.692,0-36.422,5.527-40.4,7.066l-.877,13.568c-.060027.922168-.824881,1.639792-1.749,1.641Z" fill="#dce3f4"/><path d="M869.306,2035.938c22.229,0,37.366,5.767,46.549,14.307c6.595,6.099,10.146,13.617,11.065,21.459c2.678,22.626-31.971,29.101-31.971,29.101s-.45-9.716-4.077-17.674c-10.961-3.101-21.459-4.222-30.903-4.222-24.607-.001-42.077,7.605-42.077,7.605l-.949,14.668c0,0-11.663-1.607-21.34-6.712-3.642-1.904-7.011-4.303-9.372-7.303-8.636-10.984.577-39.863,57.057-48.978c9.576-1.544,18.232-2.251,26.018-2.251m0-3.503c-8.185,0-17.125.772-26.575,2.296-32.199,5.197-54.449,17.865-61.045,34.757-2.869,7.349-2.2,14.768,1.792,19.844c2.44,3.102,5.974,5.875,10.503,8.242c10.095,5.325,21.983,7.009,22.484,7.077.96395.1342,1.940152-.14021,2.693-.757.7542-.615278,1.218308-1.516685,1.281-2.488l.804-12.44c5.114-1.871,19.814-6.557,38.725-6.556c9.709,0,19.235,1.227,28.342,3.648c2.727,6.923,3.136,14.825,3.14,14.91.048452,1.011515.532029,1.952638,1.326187,2.580987s1.821272.882506,2.816813.697013c.375-.07,9.293-1.771,17.996-6.419c12.276-6.555,18.089-15.732,16.81-26.537-1.063-9.074-5.27-17.243-12.165-23.62-10.717-9.964-27.639-15.235-48.928-15.235Z"/><path d="M826.652,2342.541c-9.888,0-16.534-.37-16.6-.374-.882713-.049612-1.589779-.749813-1.648-1.632s-.424-6.35-1.024-15.71c-1.8-28.835-3.801-65.032-3.109-73.743.949-12.108,10.933-23.012,13.445-25.577l-2.484-122.643-.039-1.639c-.001-.052,0-.104.003-.155l.949-14.668c.018-.279.103-.55.247-.789.5-.831,12.503-20.358,35.405-20.358.332,0,.663.004.999.013c23.215.565,38.677,15.979,39.324,16.636.228.23.387.52.459.836l4.077,17.675c.019.081.032.164.039.248L907.57,2230.95c2.295,1.56,8.552,6.73,10.56,17.784.42.197,1.733.551,5.741.551h.001c2.074,0,4.48-.085,7.028-.176c2.931-.104,5.962-.211,8.973-.211c2.722,0,5.026.09,7.046.274.846456.074924,1.516931.746781,1.59011,1.593391s-.472065,1.62355-1.29311,1.842609c-4.293,1.157-8.687,2.21-12.936,3.228-3.898.935-7.929,1.899-11.85,2.939-10.946,2.886-23.351,6.156-33.909,12.367-4.24,2.512-7.315,5.351-9.396,8.676-2.167,3.479-3.705,7.887-4.697,13.471-2.235,12.292-1.48,25.101-.596,36.142.188,2.348.429,4.851.781,8.116.100451.933766-.553242,1.780655-1.482,1.92-16.961,2.541-34.638,3.074-46.479,3.074Z" fill="#dce3f4"/><path d="M851.797,2067.004c.317,0,.634.004.955.012c22.776.555,38.121,16.115,38.121,16.115l4.077,17.674l10.948,131.161c0,0,8.334,4.482,10.561,17.374.232,1.349,3.182,1.696,7.412,1.696c4.47,0,10.371-.387,16.007-.387c2.385,0,4.721.069,6.882.267-8.209,2.213-16.568,3.989-24.778,6.165-11.667,3.077-23.861,6.382-34.348,12.551-4,2.37-7.511,5.291-9.993,9.256-2.636,4.232-4.071,9.222-4.937,14.094-2.183,12.004-1.586,24.49-.618,36.588.219,2.729.494,5.456.786,8.164-16.657,2.496-34.009,3.057-46.227,3.057-9.95,0-16.494-.371-16.494-.371s-.424-6.348-1.024-15.706c-1.437-23.017-3.847-64.221-3.111-73.493c1.024-13.061,13.465-25.003,13.465-25.003l-2.499-123.39-.039-1.646.949-14.668c0,0,11.729-19.508,33.905-19.51m.005-3.503h-.006c-23.882.002-36.386,20.342-36.906,21.208-.288346.479355-.457734,1.02078-.494,1.579l-.949,14.668c-.006998.102842-.009.205964-.006.309l.039,1.646l2.469,121.905c-3.25,3.436-12.488,14.176-13.425,26.131-.7,8.814,1.303,45.099,3.107,73.985.335553,5.240397.67722,10.4804,1.025,15.72.117797,1.764138,1.531766,3.163954,3.297,3.264.271.016,6.757.377,16.692.377c11.903,0,29.675-.537,46.746-3.095c1.857517-.27869,3.164902-1.972468,2.964-3.84-.349-3.24-.589-5.729-.777-8.069-.875-10.931-1.624-23.604.572-35.681.956-5.375,2.415-9.58,4.464-12.868c1.925-3.075,4.806-5.725,8.805-8.094c10.336-6.08,22.619-9.32,33.456-12.178c3.899-1.033,7.916-1.996,11.8-2.926c4.265-1.022,8.676-2.079,12.997-3.244c1.636133-.443586,2.720086-1.994806,2.57408-3.683706s-1.480094-3.031079-3.16808-3.187294c-2.072-.189-4.427-.281-7.201-.281-3.043,0-6.091.108-9.038.213-2.532.09-4.925.175-6.969.175-2.253,0-3.53-.113-4.237-.222-2.122-9.942-7.587-15.193-10.385-17.304l-10.809-129.493c-.014102-.166923-.039831-.332658-.077-.496l-4.078-17.674c-.145684-.631647-.463825-1.210463-.919-1.672-.667-.677-16.614-16.574-40.53-17.157-.344232-.010491-.688609-.015492-1.033-.015Z"/><path d="M851.528,1942.018c-6.402,0-12.407-2.53-16.909-7.125-4.05848-4.14852-6.448351-9.645509-6.714-15.443-.293-6.319,1.889-12.374,6.143-17.048c4.256-4.675,10.08-7.411,16.398-7.704.373-.017.745-.025,1.114-.025c6.794,0,13.285,2.945,17.806,8.08c3.513783,4.044233,5.562325,9.154491,5.815,14.506.307745,6.270055-1.904888,12.402773-6.145,17.032-4.257,4.674-10.081,7.409-16.398,7.702-.369778.016295-.739864.02463-1.11.025Z" fill="#dce3f4"/><path d="M851.56,1896.424c6.537,0,12.444,2.889,16.492,7.486c3.261492,3.738832,5.158176,8.473491,5.38,13.43.56,12.08-8.775,22.343-20.874,22.903-.344.016-.688.024-1.029.024-6.101,0-11.665-2.525-15.658-6.599-3.761522-3.838659-5.974807-8.929999-6.216-14.299-.561-12.099,8.774-22.361,20.873-22.921.345-.016.69-.024,1.032-.024m.001-3.503c-.397,0-.796.009-1.195.028-13.999.649-24.86,12.574-24.21,26.583.286047,6.225939,2.852336,12.129115,7.21,16.585c4.838,4.937,11.288,7.654,18.164,7.654.395,0,.792-.009,1.191-.028c13.999-.649,24.86-12.566,24.211-26.565-.271449-5.74304-2.468848-11.227377-6.238-15.569-4.867-5.527-11.836-8.688-19.133-8.688Z"/><path d="M845.461,1876.486c-5.491397.005989-10.013334-4.314053-10.258-9.8-.262-5.66,4.129-10.479,9.789-10.741c2.723592-.131099,5.387291.827678,7.402548,2.66449s3.216191,4.400462,3.337452,7.12451c.262,5.659-4.129,10.478-9.788,10.741-.163.007-.324.011-.483.011Z" fill="#fff"/><path d="M845.473,1857.686c4.654837.003909,8.445569,3.741737,8.514896,8.396059s-3.608396,8.503394-8.261051,8.645941-8.559114-3.474164-8.774845-8.124c-.107996-2.327722.741778-4.598158,2.35157-6.282951s3.839205-2.637006,6.16943-2.635049m.001-3.503c-.187,0-.375.004-.564.013-6.625.307-11.764,5.946-11.457,12.571.14199,3.18818,1.547571,6.188618,3.906193,8.338398s5.476153,3.271959,8.663807,3.118602c3.209-.149,6.168-1.538,8.332-3.913s3.274-5.449,3.125-8.658c-.285917-6.42098-5.578662-11.477433-12.006-11.47Z"/><path d="M888.618,2221.383c-9.685,1.522-29.254.264-35.687,1.654-6.434,1.372-16.018,5.074-19.738,18.26-3.721,13.167-5.218,51.166-5.218,51.166s1.392,30.034-18.849,32.25c-1.437-23.017-3.847-64.222-3.111-73.493c1.024-13.061,13.465-25.003,13.465-25.003l-2.499-123.39c11.631,4.533,27.799,11.891,30.166,18.612c3.734,10.674-.481,83.47,1.83,86.602c2.33,3.15,9.885,2.8,27.293,4.159c17.39,1.36,22.032,7.642,12.348,9.183Z" fill="#fff"/><path d="M877.526,2338.734c-.894506.000521-1.645416-.673616-1.741-1.563-1.252-11.525-2.467-24.932-1.017-38.175.946-8.646,3.179-19.35,12.124-25.438c9.484-6.455,20.893-9.584,31.927-12.609l.596-.164c4.809-1.319,9.736-2.502,14.501-3.646c6.953-1.67,14.142-3.396,21.036-5.566.495933-.155861,1.035454-.083705,1.473.197c2.06,1.324,3.177,3.104,3.32,5.289.069,1.046-1.167,8.137-5.175,30.371-2.352,13.047-5.017,27.835-5.065,29.248.179,2.843-.461,5.104-1.903,6.638-1.351,1.437-3.323,2.165-5.863,2.165-6.682,0-16.271-5.161-19.978-7.312-6.355,9.658-21.12,16.564-43.934,20.54-.099521.016224-.200166.024584-.301.025Z" fill="#b3bde0"/><path d="M955.476,2253.243c1.478.95,2.407,2.218,2.52,3.931.131,1.989-10.366,57.539-10.243,59.529.325,5.245-2.3,7.026-6.015,7.026-7.854,0-20.576-7.96-20.576-7.96-6.32,11.507-24.106,17.81-43.637,21.214-1.366-12.57-2.401-25.152-1.017-37.795c1.01-9.224,3.297-18.687,11.368-24.181c9.415-6.408,21.148-9.555,32.001-12.532c11.807-3.24,23.916-5.556,35.599-9.232m0-3.503c-.353,0-.707.053-1.051.162-6.835,2.151-13.993,3.87-20.917,5.533-4.779,1.148-9.721,2.335-14.558,3.662l-.593.162c-10.653,2.921-22.727,6.232-32.453,12.852-9.536,6.491-11.892,17.676-12.879,26.696-1.469,13.42-.245,26.938,1.017,38.554.19513,1.776583,1.694735,3.122437,3.482,3.125.2,0,.401-.017.601-.052c22.247-3.876,37.068-10.581,44.143-19.954c4.51,2.517,13.051,6.752,19.469,6.752c3.042,0,5.445-.914,7.139-2.717c1.753-1.865,2.554-4.502,2.383-7.839.198-2.109,2.875-16.967,5.034-28.946c4.669-25.904,5.272-29.646,5.198-30.787-.125-1.905-.942-4.604-4.122-6.647-.56458-.363131-1.221722-.556142-1.893-.556Z"/><path d="M943.6,2345.737c-.277459.000166-.550982-.065644-.798-.192l-11.653-5.961c-.779554-.399092-1.144669-1.312519-.855-2.139c0-.002,3.09-8.816,7.166-20.572l-5.953-3.348c-.723109-.405825-1.06214-1.263425-.812-2.054c3.15-9.981,10.864-34.586,12.896-41.726-7.192.855-32.102,7.924-52.738,14.172-.055,11.278,2.746,31.129,2.775,31.336.100044.709959-.242584,1.40923-.864929,1.765233s-1.398797.296887-1.960071-.149233l-13.501-10.751c-.358568-.285874-.590838-.700873-.647-1.156l-.012-.096-9.768,2.144c-.50436.111199-1.032082-.00607-1.44188-.320409s-.659818-.793644-.68312-1.309591c-.122-2.626-1.163-25.769-.227-29.728c1.07-4.531,5.722-7.744,12.881-11.459.578263-.300337,1.175536-.562563,1.788-.785c14.597-6.041,81.129-24.804,90.06-24.804.245,0,.458.013.636.034.173.021.343.067.502.138c1.736.771,10.213,5.26,6.593,18.071-2.78,9.837-30.56,84.57-31.741,87.747-.254118.687147-.90937,1.143269-1.642,1.143Z" fill="#dce3f4"/><path d="M969.25,2240.357c.165,0,.309.007.429.021c3.319,1.472,8.41,6.112,5.618,15.993s-31.697,87.613-31.697,87.613l-11.654-5.961c0,0,3.336-9.515,7.647-21.96l-7.229-4.065c0,0,12.755-40.413,13.416-43.694.055-.272-.301-.396-1-.396-6.831,0-46.393,11.889-55.66,14.703-.3,11.263,2.773,32.888,2.773,32.888l-13.501-10.751c0,0-.092-.749-.235-2.008l-11.659,2.56c0,0-1.178-25.409-.272-29.244.906-3.834,5.105-6.738,11.983-10.307.512698-.265372,1.041768-.497842,1.584-.696c14.863-6.149,81.003-24.696,89.457-24.696m0-3.503c-9.02,0-75.865,18.809-90.734,24.937-.689.257-1.301.527-1.92.848-7.599,3.944-12.555,7.429-13.779,12.611-.945,4.001-.1,24.136.182,30.212.047868,1.031525.548425,1.989377,1.36794,2.617652s1.874485.862958,2.88306.641348l8.366-1.837c.172.223.371.426.594.604l13.501,10.751c1.122183.89464,2.676804,1.013556,3.922.3c1.244884-.713008,1.929778-2.112505,1.729-3.533-.028-.198-2.609-18.493-2.753-29.792c22.549-6.809,40.623-11.745,48.521-13.292-2.5,8.399-8.245,26.79-12.105,39.02-.499056,1.581108.178706,3.295545,1.624,4.108l4.677,2.63c-2.218536,6.397743-4.446872,12.792084-6.685,19.183-.579183,1.653215.151508,3.480155,1.711,4.278l11.654,5.961c.889992.456617,1.932948.51013,2.865.147.932163-.362516,1.664771-1.106406,2.013-2.044c1.182-3.179,28.985-77.978,31.784-87.882c3.113-11.014-2.132-17.737-7.569-20.148-.319215-.142013-.658027-.23506-1.005-.276-.280231-.031247-.562035-.046273-.844-.045Z"/><path d="M863.09,2313.585c0,0-2.816-27.5-15.643-38.283s-22.763,7.557-22.763,7.557-7.504-28.908-29.03-27.911-7.797,31.243-7.797,31.243-14.816-20.443-29.515-5.133c-21.016,21.889,31.771,53.789,31.771,53.789l49.729,9.072l23.248-30.334Z" fill="#faa9d5" stroke="#000" stroke-width="3.5031" stroke-miterlimit="10"/><path d="M879.638,2523.137c-4.825,0-9.577-1.76-9.777-1.834-.527876-.198042-.928281-.637892-1.076-1.182l-7.416-27.328c-3.454.634-11.725,2.018-18.083,2.018-3.554,0-6.008-.438-7.505-1.338-5.088-3.062-10.173-20.789-11.541-25.864l-14.441-8.689c-.357066-.215226-.625792-.550602-.758-.946-.321-.96-32.091-96.05-33.903-100.749-1.414-3.664-8.958-12.158-11.747-15.122-.368953-.391965-.537113-.93185-.456-1.464l2.492-16.369c.072338-.476855.338274-.902715.735-1.177.524-.362,12.903-8.892,19.504-10.87.676604-.20869,1.37997-.317833,2.088-.324c3.353,0,5.249,2.61,6.921,4.913c1.505,2.072,2.926,4.03,5.266,4.501.2.04.573.088,1.222.088c7.585,0,31.162-6.154,42.493-9.111c1.80362-.475504,3.609643-.941843,5.418-1.399c3.502-.871,6.742-4.425,10.493-8.54c3.913-4.293,8.347-9.158,14.214-12.002c1.701-.824,4.133-1.226,7.433-1.226c18.702,0,60.329,13.218,64.801,15.909c5.184,3.119,3.278,18.255,2.197,24.718l13.562,5.29c.776978.302816,1.2326,1.111556,1.089,1.933-.105.605-2.599,14.893-4.003,19.863-1.4,4.952-13.004,16.566-15.512,19.035l-15.16,55.513c-.09208.338775-.28409.64195-.551.87l-13.678,11.693c-2.772,9.296-21.293,71.011-25.972,76.145-1.841,2.021-4.65,3.045-8.349,3.045Z" fill="#ce9174"/><path d="M881.217,2290.874c18.29,0,59.561,13.048,63.897,15.657c5.016,3.018,1.128,24.328,1.128,24.328l14.897,5.811c0,0-2.567,14.747-3.963,19.688s-15.392,18.592-15.392,18.592L926.5,2430.921l-14.071,12.03c0,0-21.095,70.868-25.735,75.959-1.716,1.882-4.379,2.476-7.056,2.476-4.563,0-9.162-1.724-9.162-1.724l-7.841-28.893c0,0-11.359,2.291-19.348,2.291-2.855,0-5.281-.293-6.602-1.088-5.016-3.018-10.934-25.499-10.934-25.499l-15.048-9.054c0,0-32.083-96.034-33.93-100.825-1.847-4.79-12.105-15.692-12.105-15.692l2.492-16.369c0,0,12.599-8.711,19.011-10.634.513152-.160879,1.047243-.24512,1.585-.25c4.956.001,5.865,8.177,11.841,9.38.413.083.94.122,1.567.122c9.334,0,40.807-8.69,48.335-10.562c8.034-1.998,13.92-15.273,25.048-20.665c1.507-.73,3.805-1.05,6.67-1.05m0-3.503c-3.572,0-6.253.458-8.198,1.4-6.171,2.99-10.726,7.989-14.745,12.398-3.411,3.742-6.632,7.277-9.62,8.02-1.239.308-3.123.8-5.447,1.406-11.258,2.938-34.683,9.053-42.042,9.053-.581,0-.832-.045-.876-.054-1.557-.313-2.624-1.65-4.195-3.813-1.727-2.378-4.092-5.635-8.337-5.636h-.002c-.837,0-1.709.134-2.59.398-6.748,2.023-18.661,10.184-19.998,11.107-.793567.548627-1.32574,1.40025-1.471,2.354l-2.492,16.369c-.162213,1.063994.174128,2.143456.912,2.927c3.785,4.024,10.223,11.533,11.388,14.552c1.439,3.73,22.788,67.484,33.876,100.674.264102.790966.801633,1.461816,1.516,1.892l13.836,8.325c2.116,7.773,6.853,23.043,12.146,26.228c1.802,1.084,4.474,1.589,8.408,1.589c5.654,0,12.754-1.065,16.812-1.765l6.996,25.781c.295273,1.08808,1.096201,1.967536,2.152,2.363.212.08,5.253,1.947,10.392,1.947c4.212,0,7.457-1.218,9.646-3.619c1.022-1.121,3.416-3.748,15.356-41.184c5.014-15.722,9.655-31.149,10.851-35.143l13.286-11.359c.533999-.456126.918337-1.062427,1.103-1.74l15.035-55.057c4.054-3.999,14.191-14.374,15.633-19.477c1.429-5.057,3.938-19.43,4.043-20.04.285866-1.642409-.625012-3.25882-2.178-3.865l-12.265-4.784c.315-2.158.709-5.297.908-8.584.566-9.356-.709-14.447-4.135-16.509-4.665-2.802-46.252-16.154-65.704-16.154Z"/><path d="M922.074,2512.521c-.8,0-1.504-.546-1.699-1.329-.06-.241-6.005-24.136-7.894-30.435-2.28-7.604,11.668-14.846,13.266-15.646.219-.109.459-.172.704-.184c0,0,11.408-.528,11.436-.528.879,0,1.628.656,1.737,1.537l2.599,21.01c.035.28.001.564-.098.829l-8.679,23.157c-.246099.656081-.859071,1.102736-1.559,1.136s-9.786.453-9.813.453Z" fill="#ce9174"/><path d="M937.886,2466.152l2.599,21.009-8.679,23.157-9.731.451c0,0-5.993-24.103-7.916-30.515s12.374-13.576,12.374-13.576l11.353-.526m.002-3.504c-.055,0-.109.001-.164.004l-11.353.526c-.49.023-.969.148-1.407.367-2.827,1.417-16.794,8.928-14.159,17.714c1.877,6.26,7.812,30.114,7.872,30.354.403285,1.620387,1.893962,2.731071,3.562,2.654l9.731-.451c1.399725-.065161,2.626042-.957958,3.118-2.27l8.679-23.157c.198405-.529392.265655-1.098958.196-1.66l-2.599-21.009c-.219194-1.753519-1.708835-3.070026-3.476-3.072Z"/><path d="M906.491,2562.004c-.55757.000674-1.082049-.264537-1.412-.714l-6.938-9.43c-.355793-.483588-.439192-1.115681-.221-1.675l5.811-14.897c.251305-.645153.859347-1.081485,1.551-1.113.18-.008.359-.012.539-.012c6.909,0,14.513,6.39,14.792,12.432.258,5.555-10.89,13.552-13.127,15.098-.292455.202167-.63947.310631-.995.311Z" fill="#ce9174"/><path d="M905.82,2535.914c6.345,0,12.823,6.011,13.043,10.762.226,4.865-12.373,13.576-12.373,13.576l-6.939-9.43l5.811-14.898c.153-.007.305-.01.458-.01m0-3.504c-.207,0-.413.005-.62.014-1.382778.064549-2.59812.93668-3.102,2.226l-5.811,14.898c-.435821,1.118375-.269049,2.381989.442,3.349l6.939,9.43c1.12202,1.527503,3.256059,1.884359,4.814.805c4.268-2.951,14.165-10.478,13.88-16.62-.323-6.984-8.671-14.102-16.542-14.102Z"/><path d="M878.392,2304.749c0,0-4.566-36.876-.182-39c11.128-5.392,84.932-26.15,91.469-25.37c3.319,1.471,8.41,6.112,5.617,15.993-2.793,9.882-31.696,87.613-31.696,87.613l-11.654-5.961c0,0,26.089-74.417,26.666-79.253.39-3.269-7.939-1.799-21.034,2.059-6.965,2.052-44.471,10.73-47.489,15.746s1.804,38.925,1.804,38.925l-13.501-10.752Z" fill="#fff"/><path d="M863.09,2313.585c0,0-2.816-27.5-15.643-38.283s-22.763,7.557-22.763,7.557-7.504-28.908-29.03-27.911-7.797,31.243-7.797,31.243-14.816-20.443-29.515-5.133c-21.016,21.889,31.771,53.789,31.771,53.789l49.729,9.072l23.248-30.334Z" fill="#faa9d5" stroke="#000" stroke-width="3.5031" stroke-miterlimit="10"/><path d="M879.597,2523.126c-4.812,0-9.537-1.752-9.736-1.827-.52773-.197404-.927948-.637085-1.075-1.181l-7.412-27.319c-3.457.632-11.736,2.014-18.094,2.014-3.549,0-6-.436-7.494-1.332-5.099-3.069-10.18-20.792-11.546-25.868l-14.437-8.692c-.356832-.215493-.625481-.550772-.758-.946-.321-.96-32.097-96.045-33.913-100.754-1.402-3.661-8.946-12.157-11.735-15.122-.36839-.391889-.536487-.931202-.456-1.463l2.481-16.367c.073-.478.339-.904.736-1.179.524-.361,12.912-8.891,19.508-10.874.674301-.206416,1.374842-.314528,2.08-.321c3.357,0,5.253,2.611,6.926,4.915c1.504,2.071,2.924,4.028,5.264,4.501.2.04.576.088,1.228.088c7.607,0,31.202-6.162,42.541-9.124c1.785751-.470662,3.573772-.932667,5.364-1.386c3.503-.873,6.746-4.427,10.5-8.542c3.914-4.289,8.35-9.15,14.209-11.988.595-.289,1.297-.527,2.145-.729c1.438-.332,3.222-.5,5.315-.5c18.618,0,60.279,13.204,64.777,15.894c5.181,3.13,3.28,18.26,2.2,24.721l13.561,5.304c.776186.303534,1.230866,1.112086,1.087,1.933-.106.605-2.605,14.887-3.996,19.847-1.403,4.966-13.003,16.573-15.512,19.041l-15.162,55.524c-.092343.339185-.284695.642698-.552.871l-13.674,11.683c-2.774,9.296-21.31,71.018-25.981,76.143-.141516.163541-.300835.310785-.475.439-1.844,1.722-4.506,2.596-7.914,2.596Z" fill="#ce9174"/><path d="M881.24,2290.88c18.302-.001,59.532,13.047,63.877,15.645c5.009,3.026,1.128,24.327,1.128,24.327l14.894,5.825c0,0-2.574,14.743-3.957,19.676-1.399,4.952-15.391,18.595-15.391,18.595l-15.286,55.982-14.067,12.018c0,0-21.112,70.876-25.745,75.959-.088.097-.176.193-.267.235-1.726,1.691-4.275,2.233-6.83,2.233-4.549,0-9.121-1.716-9.121-1.716l-7.836-28.884c0,0-11.371,2.286-19.36,2.286-2.854,0-5.274-.292-6.593-1.083-5.027-3.025-10.938-25.501-10.938-25.501l-15.043-9.058c0,0-32.089-96.029-33.94-100.829-1.832-4.784-12.093-15.692-12.093-15.692l2.481-16.368c0,0,12.609-8.711,19.017-10.637.510635-.15807,1.04149-.241269,1.576-.247c4.962,0,5.866,8.173,11.842,9.381.415.083.945.123,1.574.123c9.347,0,40.802-8.688,48.329-10.563c8.033-2.001,13.934-15.27,25.05-20.653.507-.246,1.109-.44,1.787-.601c1.344-.312,3.004-.453,4.912-.453m.002-3.504h-.002c-2.258,0-4.122.177-5.7.542-.993.236-1.812.516-2.525.862-6.162,2.984-10.719,7.978-14.739,12.384-3.415,3.742-6.64,7.277-9.63,8.022-1.227.306-3.086.791-5.38,1.39-11.269,2.943-34.719,9.068-42.103,9.068-.584,0-.838-.045-.883-.054-1.555-.314-2.621-1.65-4.191-3.812-1.727-2.379-4.093-5.637-8.343-5.637-.833,0-1.7.132-2.575.393-6.751,2.029-18.672,10.188-20.009,11.112-.79493.549012-1.327919,1.401867-1.473,2.357l-2.481,16.368c-.161112,1.063303.175122,2.141686.912,2.925c3.785,4.026,10.22,11.534,11.374,14.545c1.445,3.746,22.799,67.499,33.889,100.687.264136.790395.801253,1.460817,1.515,1.891l13.832,8.329c2.114,7.772,6.847,23.04,12.15,26.231c1.801,1.081,4.469,1.584,8.399,1.584c5.655,0,12.763-1.063,16.823-1.761l6.993,25.774c.295162,1.087475,1.095159,1.966727,2.15,2.363.211.079,5.226,1.939,10.352,1.939c3.823,0,6.86-1.009,9.036-3.001.309-.236.521-.468.649-.609c1.022-1.121,3.412-3.744,15.359-41.182c5.017-15.722,9.661-31.15,10.858-35.146l13.282-11.347c.534084-.456234.918721-1.062455,1.104-1.74l15.037-55.068c4.054-3.997,14.188-14.367,15.632-19.48c1.415-5.051,3.93-19.416,4.036-20.025.286673-1.641684-.622928-3.258056-2.175-3.865l-12.265-4.797c.314-2.157.708-5.296.906-8.583.564-9.351-.709-14.442-4.128-16.508-4.702-2.813-46.32-16.151-65.686-16.151Z"/><path d="M886.665,2483.145l-.238,35.997c-4.799,4.702-15.951.517-15.951.517l-7.836-28.884c0,0-20.944,4.21-25.952,1.203-5.027-3.025-10.937-25.501-10.937-25.501l-15.043-9.058c0,0-32.089-96.029-33.94-100.83-1.832-4.784-12.093-15.692-12.093-15.692l2.481-16.368c0,0,12.609-8.711,19.017-10.637c6.409-1.907,6.859,7.808,13.418,9.133c6.577,1.324,41.869-8.438,49.903-10.44c8.034-2.001,13.934-15.27,25.05-20.653.507-.246,1.109-.44,1.786-.601-4.198,10.468-13.241,22.253-13.241,22.253l-46.83,18.424l6.38,32.21-5.656,18.144l9.086,20.7l14.818,4.2l7.912,30.51l13.437,9.132l6.136,27.353l18.293,8.888Z" fill="url(#eedzn1KfIR766-fill)"/><path d="M799.59,2324.778c-.112,0-.223-.011-.333-.032l-27.054-5.243c-.701008-.134305-1.250203-.680883-1.387856-1.381241s.163825-1.414133.761856-1.803759l17.352-11.37c.520379-.340308,1.182087-.379501,1.739-.103.075.037,7.561,3.755,11.706,5.988v-.001c.007,0,.261.085.983.085c7.418,0,32.627-8.136,35.88-9.196l12.213-10.899c.394388-.351727.926399-.506775,1.448-.422l15.558,2.53c.655747.105529,1.195236.573184,1.392766,1.207315s.019052,1.32543-.460766,1.784685l-18.68,17.929c-.2366.227639-.532591.383952-.854.451l-49.903,10.439c-.11883.024134-.239745.036527-.361.037Z" fill="#e2f2a5"/><path d="M852.614,2292.128l15.558,2.529-18.679,17.929-49.903,10.44-27.054-5.244l17.352-11.369c0,0,7.486,3.716,11.654,5.961.375.202.996.294,1.813.294c8.27,0,36.773-9.397,36.773-9.397l12.486-11.143m0-3.503c-.860641-.000263-1.691208.316584-2.333.89l-11.94,10.656c-8.295,2.708-28.845,8.994-34.986,8.994-.137814.000649-.275596-.004356-.413-.015-4.206-2.254-11.195-5.725-11.497-5.875-1.113865-.552229-2.436914-.473082-3.477.208l-17.352,11.369c-1.193454.780911-1.7941,2.207574-1.518576,3.606945s1.372167,2.491853,2.772576,2.762055l27.054,5.244c.457334.089528.928007.086127,1.384-.01l49.903-10.44c.64267-.134506,1.234544-.447076,1.708-.902l18.679-17.929c.958688-.919062,1.31501-2.301335.9201-3.569328s-1.473093-2.203496-2.7841-2.415672l-15.558-2.529c-.185844-.02988-.37377-.044927-.562-.045Z"/><path d="M937.886,2466.151l-11.353.526-5.564,2.696c0,0-3.222-16.917,3.19-18.84s8.523,8.544,8.523,8.544s9.318-9.371,12.014-3.808c2.695,5.566-6.81,10.882-6.81,10.882Zm8.359-135.3l14.894,5.825c0,0,8.325-7.435,8.074-12.841s-12.975.601-12.975.601-3.544-6.337-8.485-7.733-1.508,14.148-1.508,14.148Z" fill="#e2f2a5" stroke="#000" stroke-width="3.5031" stroke-linecap="round" strokeLinejoin="round" stroke-miterlimit="10"/><path d="M851.057,2404.621l3.039,18.821l8.36,5.03.967,9.166l5.632,4.615l1.786-8.21l5.747-4.6-1.003-21.625-6.247-6.212-2.625-21.55l11.028-7.554l3.848-10.472-17.085-6.252-17.189,14.884-18.08,7.339-1.171,9.807l6.323,7.833l11.428,1.096l5.242,7.884Z" fill="url(#eedzn1KfIR770-fill)"/><path d="M877.225,2454.877l-2.327,8.235l7.329,6.161l4.199-2.903l1.196-9.266-3.054-7.443-7.343,5.216Z" fill="url(#eedzn1KfIR771-fill)"/><path d="M920.371,2474.007l-4.565,6.713l3.33,13.39l5.281-2.954-.451-9.731l7.959-3.62-1.357-5.897-10.197,2.099Zm-18.632,77.255l5.836-14.357l7.304,5.621-4.565,6.713-8.575,2.023Z" fill="#efccab"/><path d="M915.856,2050.245c-3.361,5.765-10.804,7.331-16.565,4.044-9.185-5.257-27.953-6.831-55.437-3.927-27.502,2.904-54.141,24.445-48.362,43.688.044.146.088.292.112.421-3.642-1.904-7.011-4.303-9.372-7.303-8.636-10.984.577-39.863,57.057-48.978c36.912-5.951,60.166.523,72.567,12.055Zm-93.658-109.243l2.174,5.36c-.203-.379-1.441-2.709-2.174-5.36Zm13.672-7.334c-3.761522-3.838659-5.974807-8.929999-6.216-14.299-.561-12.099,8.774-22.361,20.873-22.921c6.945-.322,13.264,2.625,17.524,7.462c3.705,19.616-16.65,30.944-32.181,29.758Z" fill="#fff"/></g></g></svg>
