<svg xmlns="http://www.w3.org/2000/svg" xml:space="preserve" style="enable-background:new 0 0 3840 1989.254" viewBox="0 0 3840 1989.254"><linearGradient id="a" x1="1842.837" x2="1800.608" y1="2373.334" y2="1373.921" gradientTransform="matrix(1 0 -.1388 .9544 223.21 73.287)" gradientUnits="userSpaceOnUse"><stop offset="0" style="stop-color:#fff"/><stop offset="1" style="stop-color:#fff;stop-opacity:0"/></linearGradient><path d="M819.505 1379.974c357.083 73.739 1075.788 210.188 1075.788 210.188l31.373.543 921.071-210.731H819.505z" style="fill:url(#a)"/><linearGradient id="b" x1="1881.763" x2="1801.373" y1="2352.38" y2="1405.173" gradientTransform="matrix(1 0 -.1388 .9544 223.21 73.287)" gradientUnits="userSpaceOnUse"><stop offset="0" style="stop-color:#fff"/><stop offset="1" style="stop-color:#fff;stop-opacity:0"/></linearGradient><path d="M1460.183 1379.974c224.27 109.094 435.11 210.188 435.11 210.188l31.373.543 276.203-210.731h-742.686z" style="fill:url(#b)"/><ellipse cx="1967.989" cy="1447.665" rx="1.736" ry="1.61" style="fill:#b3bde0"/><ellipse cx="1879.89" cy="1488.563" rx="1.736" ry="1.61" style="fill:#b3bde0"/><ellipse cx="1771.053" cy="1459.049" rx="1.736" ry="1.61" style="fill:#b3bde0"/><ellipse cx="1806.867" cy="1426.842" rx=".53" ry=".491" style="fill:#b3bde0"/><ellipse cx="1629.818" cy="1487.423" rx=".694" ry=".644" style="fill:#b3bde0"/><ellipse cx="1935.668" cy="1551.486" rx="1.736" ry="1.61" style="fill:#b3bde0"/><ellipse cx="1888.329" cy="1595.034" rx="1.736" ry="1.61" style="fill:#b3bde0"/><ellipse cx="1956.715" cy="1549.438" rx="1.736" ry="1.61" style="fill:#b3bde0"/><ellipse cx="2170.856" cy="1465.287" rx=".641" ry=".595" style="fill:#b3bde0"/><ellipse cx="2153.365" cy="1481.377" rx=".641" ry=".595" style="fill:#b3bde0"/><ellipse cx="2178.632" cy="1464.53" rx=".641" ry=".595" style="fill:#b3bde0"/><ellipse cx="2099.145" cy="1505.264" rx="1.736" ry="1.61" style="fill:#b3bde0"/><ellipse cx="2133.439" cy="1451.248" rx="1.736" ry="1.61" style="fill:#b3bde0"/><ellipse cx="1920.459" cy="1600.403" rx="104.071" ry="99.804" style="opacity:.0435;fill:#fff"/><ellipse cx="1920.325" cy="1600.149" rx="102.19" ry="97.678" style="opacity:.087;fill:#fff"/><ellipse cx="1920.191" cy="1599.895" rx="100.31" ry="95.552" style="opacity:.1304;fill:#fff"/><ellipse cx="1920.057" cy="1599.642" rx="98.429" ry="93.426" style="opacity:.1739;fill:#fff"/><ellipse cx="1919.923" cy="1599.388" rx="96.549" ry="91.3" style="opacity:.2174;fill:#fff"/><ellipse cx="1919.788" cy="1599.134" rx="94.668" ry="89.174" style="opacity:.2609;fill:#fff"/><ellipse cx="1919.654" cy="1598.88" rx="92.788" ry="87.048" style="opacity:.3043;fill:#fff"/><ellipse cx="1919.52" cy="1598.627" rx="90.907" ry="84.922" style="opacity:.3478;fill:#fff"/><ellipse cx="1919.386" cy="1598.373" rx="89.027" ry="82.796" style="opacity:.3913;fill:#fff"/><ellipse cx="1919.252" cy="1598.119" rx="87.146" ry="80.67" style="opacity:.4348;fill:#fff"/><ellipse cx="1919.118" cy="1597.865" rx="85.266" ry="78.544" style="opacity:.4783;fill:#fff"/><ellipse cx="1918.984" cy="1597.612" rx="83.385" ry="76.418" style="opacity:.5217;fill:#fff"/><ellipse cx="1918.849" cy="1597.358" rx="81.505" ry="74.292" style="opacity:.5652;fill:#fff"/><ellipse cx="1918.715" cy="1597.104" rx="79.624" ry="72.166" style="opacity:.6087;fill:#fff"/><ellipse cx="1918.581" cy="1596.85" rx="77.744" ry="70.04" style="opacity:.6522;fill:#fff"/><ellipse cx="1918.447" cy="1596.597" rx="75.863" ry="67.914" style="opacity:.6957;fill:#fff"/><ellipse cx="1918.313" cy="1596.343" rx="73.983" ry="65.789" style="opacity:.7391;fill:#fff"/><ellipse cx="1918.179" cy="1596.089" rx="72.102" ry="63.663" style="opacity:.7826;fill:#fff"/><ellipse cx="1918.045" cy="1595.835" rx="70.222" ry="61.537" style="opacity:.8261;fill:#fff"/><ellipse cx="1917.911" cy="1595.581" rx="68.342" ry="59.411" style="opacity:.8696;fill:#fff"/><ellipse cx="1917.776" cy="1595.328" rx="66.461" ry="57.285" style="opacity:.913;fill:#fff"/><ellipse cx="1917.642" cy="1595.074" rx="64.581" ry="55.159" style="opacity:.9565;fill:#fff"/><ellipse cx="1917.508" cy="1594.82" rx="62.7" ry="53.033" style="fill:#fff"/></svg>