<svg xmlns="http://www.w3.org/2000/svg" xml:space="preserve" style="enable-background:new 0 0 920 593.159" viewBox="0 0 920 593.159"><linearGradient id="b" x1="261.157" x2="247.909" y1="665.338" y2="351.795" gradientTransform="matrix(1 0 -.1388 .9544 223.21 73.287)" gradientUnits="userSpaceOnUse"><stop offset="0" style="stop-color:#fff"/><stop offset="1" style="stop-color:#fff;stop-opacity:0"/></linearGradient><path d="M104.289 407.6c112.027 23.134 337.504 65.942 337.504 65.942l9.843.17L740.601 407.6H104.289z" style="fill:url(#b)"/><linearGradient id="c" x1="273.369" x2="248.149" y1="658.764" y2="361.6" gradientTransform="matrix(1 0 -.1388 .9544 223.21 73.287)" gradientUnits="userSpaceOnUse"><stop offset="0" style="stop-color:#fff"/><stop offset="1" style="stop-color:#fff;stop-opacity:0"/></linearGradient><path d="M305.287 407.6a30497.033 30497.033 0 0 0 136.506 65.942l9.843.17 86.652-66.112H305.287z" style="fill:url(#c)"/><ellipse cx="464.6" cy="428.836" rx=".545" ry=".505" style="fill:#b3bde0"/><ellipse cx="436.961" cy="441.667" rx=".545" ry=".505" style="fill:#b3bde0"/><ellipse cx="402.815" cy="432.408" rx=".545" ry=".505" style="fill:#b3bde0"/><ellipse cx="414.051" cy="422.303" rx=".166" ry=".154" style="fill:#b3bde0"/><ellipse cx="358.506" cy="441.31" rx=".218" ry=".202" style="fill:#b3bde0"/><ellipse cx="454.46" cy="461.408" rx=".545" ry=".505" style="fill:#b3bde0"/><ellipse cx="439.608" cy="475.07" rx=".545" ry=".505" style="fill:#b3bde0"/><ellipse cx="461.063" cy="460.765" rx=".545" ry=".505" style="fill:#b3bde0"/><ellipse cx="528.245" cy="434.365" rx=".201" ry=".187" style="fill:#b3bde0"/><ellipse cx="522.757" cy="439.413" rx=".201" ry=".187" style="fill:#b3bde0"/><ellipse cx="530.684" cy="434.127" rx=".201" ry=".187" style="fill:#b3bde0"/><ellipse cx="505.747" cy="446.907" rx=".545" ry=".505" style="fill:#b3bde0"/><ellipse cx="516.506" cy="429.96" rx=".545" ry=".505" style="fill:#b3bde0"/><ellipse cx="449.688" cy="476.754" rx="32.65" ry="31.311" style="opacity:.0435;fill:#fff"/><ellipse cx="449.646" cy="476.675" rx="32.06" ry="30.644" style="opacity:.087;fill:#fff"/><ellipse cx="449.604" cy="476.595" rx="31.47" ry="29.977" style="opacity:.1304;fill:#fff"/><ellipse cx="449.562" cy="476.516" rx="30.88" ry="29.31" style="opacity:.1739;fill:#fff"/><ellipse cx="449.52" cy="476.436" rx="30.29" ry="28.643" style="opacity:.2174;fill:#fff"/><ellipse cx="449.478" cy="476.356" rx="29.7" ry="27.976" style="opacity:.2609;fill:#fff"/><ellipse cx="449.436" cy="476.277" rx="29.11" ry="27.309" style="opacity:.3043;fill:#fff"/><ellipse cx="449.394" cy="476.197" rx="28.52" ry="26.642" style="opacity:.3478;fill:#fff"/><ellipse cx="449.352" cy="476.117" rx="27.93" ry="25.975" style="opacity:.3913;fill:#fff"/><ellipse cx="449.31" cy="476.038" rx="27.34" ry="25.308" style="opacity:.4348;fill:#fff"/><ellipse cx="449.268" cy="475.958" rx="26.75" ry="24.642" style="opacity:.4783;fill:#fff"/><ellipse cx="449.225" cy="475.879" rx="26.16" ry="23.975" style="opacity:.5217;fill:#fff"/><ellipse cx="449.183" cy="475.799" rx="25.57" ry="23.308" style="opacity:.5652;fill:#fff"/><ellipse cx="449.141" cy="475.719" rx="24.98" ry="22.641" style="opacity:.6087;fill:#fff"/><ellipse cx="449.099" cy="475.64" rx="24.39" ry="21.974" style="opacity:.6522;fill:#fff"/><ellipse cx="449.057" cy="475.56" rx="23.8" ry="21.307" style="opacity:.6957;fill:#fff"/><ellipse cx="449.015" cy="475.481" rx="23.21" ry="20.64" style="opacity:.7391;fill:#fff"/><ellipse cx="448.973" cy="475.401" rx="22.621" ry="19.973" style="opacity:.7826;fill:#fff"/><ellipse cx="448.931" cy="475.321" rx="22.031" ry="19.306" style="opacity:.8261;fill:#fff"/><ellipse cx="448.889" cy="475.242" rx="21.441" ry="18.639" style="opacity:.8696;fill:#fff"/><ellipse cx="448.847" cy="475.162" rx="20.851" ry="17.972" style="opacity:.913;fill:#fff"/><ellipse cx="448.805" cy="475.083" rx="20.261" ry="17.305" style="opacity:.9565;fill:#fff"/><ellipse cx="448.763" cy="475.003" rx="19.671" ry="16.638" style="fill:#fff"/></svg>