<svg xmlns="http://www.w3.org/2000/svg" xml:space="preserve" style="enable-background:new 0 0 521.613 176.774" viewBox="0 0 521.613 176.774"><linearGradient id="a" x1="256.353" x2="257.67" y1="70.196" y2="-45.706" gradientUnits="userSpaceOnUse"><stop offset=".122" style="stop-color:#c6edf6"/><stop offset=".3" style="stop-color:#fbd6ee"/><stop offset=".543" style="stop-color:#5d6ba9"/><stop offset="1" style="stop-color:#0a1724"/></linearGradient><path d="m19.233 1.842 21.033 58.517h433.727l21.033-58.517z" style="fill:url(#a);stroke:#fff;stroke-width:2;stroke-miterlimit:10"/><path d="M336.398 26.214c1.933-5.037-.483-9.552-6.604-10.421-6.121-.868-13.047 3.3-13.047 3.3s.161 14.589.161 19.452c0 4.863-.322 8.857-.322 8.857l7.571 1.737s.207-4.949.369-10.396l7.202 10.049c1.45-1.042 5.316-6.426 5.316-6.426l-7.394-8.123c2.95-2.213 5.691-5.276 6.748-8.029zm-8.376 1.563c-.948 1.363-2.244 2.349-3.319 3.001.024-2.072.016-3.827-.042-4.92 3.028-2.024 5.059-.522 3.361 1.919zM260.359 29.03c-2.877.401-2.957-2.645-.085-4.307 3.116-1.803 7.62-1.502 11.659-.401 1.693-2.404 1.148-8.112 1.148-8.112s-6.382-2.203-14.358.3c-6.368 1.999-8.659 9.815-7.376 14.122 1.283 4.307 4.546 5.909 8.598 5.008 4.053-.901 5.983-.1 4.993 2.404-.99 2.504-8.175 2.504-10.913 1.502l-1.443 8.213s7.35 1.502 13.954-.401c6.604-1.903 9.783-11.518 5.867-16.726-3.916-5.207-9.167-2.003-12.044-1.602zM195.426 24.667s2.525-7.881 2.224-10.184c-7.496 2.029-17.758.993-21.166 1.338.001.001-.011.297-.011.297s-1.584 26.285-1.722 28.852c-.137 2.567-.032 3.829-.032 3.829l.008-.001-.001.002s18.023-1.803 19.59-1.933c0 0 .685-7.453.441-8.818-2.791.483-8.205 1.019-11.519 1.323.09-1.438.192-2.978.302-4.555 1.605-.148 4.023-.236 5.498.342.975-2.854.468-6.477.468-6.477s-2.672-.178-5.507.097c.117-1.407.24-2.779.368-4.068 2.8-.109 8.933-.309 11.059-.044zM149.055 15.656l.176 9.265s3.458-.414 7.741-.892c-.094 6.861-.207 16.285-.152 18.364.088 3.354.157 6.629.157 6.629s6.562-1.334 7.833-1.233c0 0-.155-7.687-.048-14.131 0 0 .074-5.196.215-10.479 3.837-.38 7.084-.645 7.903-.551.265-3.794.618-8.648.618-8.648l-24.443 1.676zM447.822 25.257s2.481-7.744 2.186-10.007c-7.366 1.993-17.449.976-20.798 1.315.001.001-.011.292-.011.292s-1.557 25.828-1.692 28.35-.031 3.762-.031 3.762l.008-.001-.001.002s17.71-1.772 19.249-1.899c0 0 .673-7.324.433-8.664-2.742.475-8.062 1.001-11.319 1.3.089-1.413.188-2.926.297-4.476 1.577-.145 3.953-.232 5.402.336.958-2.804.46-6.364.46-6.364s-2.626-.175-5.411.095c.115-1.383.236-2.73.361-3.997 2.751-.109 8.777-.304 10.867-.044zM416.039 39.959c.187-8.107.613-20.299 1.523-24.165-4.831.195-9.482 1.573-9.482 1.573s-.253 25.313-.262 27.757.158 3.637.158 3.637 15.347-1.876 16.828-2.073c0 0 .951-8.021.655-9.304-2.243 1.174-6.462 2.061-9.42 2.575zM225.536 40.047c.203-8.795.665-22.022 1.652-26.216-5.241.212-10.286 1.706-10.286 1.706s-.274 27.461-.284 30.112c-.01 2.651.172 3.945.172 3.945s16.65-2.035 18.257-2.249c0 0 1.032-8.701.71-10.094-2.435 1.275-7.012 2.238-10.221 2.796zM346.416 18.219c-1.198 5.868-8.862 28.743-8.862 28.743s4.91 2.036 8.743 1.916c.297-.807.805-2.659 1.546-5.229l5.874.01c.515 3.318.468 4.53.724 5.339 1.916.24 8.383-1.437 8.383-1.437s-5.749-28.025-6.587-31.498c-6.108-.359-9.821 2.156-9.821 2.156zm2.822 19.464c.948-4.116 1.969-9.284 1.969-9.284s.979 4.904 1.554 8.863l-3.523.421zM122.206 17.177s.206 1.339.309 5.251c.033 1.256-.093 4.485-.28 8.291l-4.748 1.376c.435-7.475 1.035-15.305 1.733-17.596-5.045.206-9.473 1.339-9.473 1.339s-1.236 26.668-1.339 29.242c-.103 2.574 0 4.53 0 4.53s7.002-2.059 8.34-1.956c0 0 .14-3.874.39-8.999l4.759-1.517c-.352 6.349-.722 12.267-.722 12.267l7.722-2.471s.103-3.604.515-8.34c.412-4.736 1.544-19.769 2.574-23.373-2.984-.207-9.78 1.956-9.78 1.956zM275.942 17.001l.168 8.805s3.286-.394 7.356-.848c-.089 6.519-.196 15.475-.144 17.451.084 3.187.149 6.299.149 6.299s6.235-1.267 7.443-1.172c0 0-.147-7.305-.046-13.429 0 0 .07-4.937.205-9.958 3.646-.361 6.732-.613 7.51-.524.252-3.606.587-8.218.587-8.218l-23.228 1.594zM99.315 14.53s-5.414 17.022-5.858 19.058c-1.25-3.927-1.678-9.8-1.817-13.914-.025-.678-.039-1.3-.05-1.864h-7.819l-.621 1.966c-1.63 5.181-3.916 12.517-4.198 13.812-2.099-6.594-1.877-18.7-1.877-18.7s-5.97.118-8.952.599c0 0 2.872 25.412 5.858 32.606 4.085.839 8.174.118 8.174.118l3.635-10.94c.83 4.505 1.757 8.562 2.696 10.822 4.089.839 8.178.118 8.178.118l10.277-30.923-7.626-2.758zM366.107 17.754c-.102 2.391-.216 5.89-.106 8.156l-.011.942v.004c-.083 6.163-.174 14.039-.125 15.844.079 3.068.144 6.061.144 6.061s5.996-1.218 7.161-1.127c0 0-.129-5.987-.059-11.66 0 0 5.246-.478 5.821-.411.186-2.662.432-6.066.432-6.066l-6.155.422c.03-1.456.067-3.115.111-4.783 3.507-.348 10.124-1.272 10.873-1.185.242-3.469.564-7.907.564-7.907l-18.65 1.71zM387.14 17.754c-.102 2.391-.216 5.89-.106 8.156l-.011.942v.004c-.083 6.163-.174 14.039-.125 15.844.079 3.068.144 6.061.144 6.061s5.996-1.218 7.161-1.127c0 0-.129-5.987-.059-11.66 0 0 5.246-.478 5.821-.411.186-2.662.432-6.066.432-6.066l-6.155.422c.03-1.456.067-3.115.111-4.783 3.507-.348 10.124-1.272 10.873-1.185.242-3.469.564-7.907.564-7.907l-18.65 1.71zM134.749 28.175s1.106 9.586.81 20.568c1.659.104 7.778-.311 7.778-.311s1.867-15.659 2.178-20.948c-4.563-.31-10.766.691-10.766.691zM139.707 15.559c-5.632.554-6.429 4.667-5.081 7.052 1.348 2.385 5.807 2.696 9.54.933 3.734-1.763 1.867-8.607-4.459-7.985zM237.99 27.368s1.081 9.371.792 20.106c1.622.101 7.603-.304 7.603-.304s1.825-15.307 2.129-20.477c-4.461-.305-10.524.675-10.524.675zM242.836 15.035c-5.505.542-6.285 4.562-4.967 6.893 1.318 2.332 5.677 2.636 9.326.912 3.65-1.723 1.825-8.414-4.359-7.805z" style="fill:snow"/></svg>