<svg xmlns="http://www.w3.org/2000/svg" xml:space="preserve" style="enable-background:new 0 0 506.09 96.146" viewBox="0 0 506.09 96.146"><path d="M503.09 3v90.146H3V3h500.09m3-3H0v96.146h506.09V0z" style="fill:snow"/><path d="M346.868 40.371c2.323-6.053-.581-11.479-7.936-12.522-7.356-1.044-15.679 3.965-15.679 3.965s.194 17.531.194 23.375c0 5.844-.387 10.644-.387 10.644l9.098 2.087s.248-5.947.443-12.493l8.655 12.076c1.742-1.252 6.388-7.722 6.388-7.722l-8.886-9.762c3.547-2.658 6.841-6.339 8.11-9.648zm-10.065 1.879c-1.139 1.638-2.697 2.822-3.989 3.606.028-2.49.019-4.599-.051-5.912 3.64-2.432 6.08-.627 4.04 2.306zM255.492 43.756c-3.457.481-3.554-3.179-.103-5.175 3.744-2.166 9.157-1.805 14.011-.481 2.034-2.889 1.379-9.749 1.379-9.749s-7.669-2.648-17.254.361c-7.653 2.402-10.406 11.795-8.864 16.97 1.542 5.175 5.462 7.101 10.333 6.018 4.87-1.083 7.19-.12 6.001 2.888-1.19 3.009-9.824 3.009-13.114 1.805l-1.734 9.869s8.832 1.805 16.769-.481c7.937-2.287 11.757-13.841 7.05-20.099-4.706-6.259-11.017-2.408-14.474-1.926zM177.462 38.513s3.034-9.471 2.673-12.238c-9.008 2.438-21.34 1.193-25.436 1.608.001.001-.013.357-.013.357s-1.904 31.587-2.069 34.671c-.165 3.084-.038 4.601-.038 4.601l.01-.002-.001.002s21.659-2.167 23.541-2.323c0 0 .823-8.957.53-10.596-3.353.58-9.86 1.224-13.843 1.59.109-1.728.23-3.578.363-5.474 1.929-.177 4.835-.284 6.606.41 1.171-3.43.563-7.783.563-7.783s-3.211-.214-6.618.117c.141-1.691.289-3.339.442-4.889 3.365-.13 10.735-.369 13.29-.051zM121.737 27.684l.212 11.134s4.156-.498 9.302-1.072c-.113 8.244-.248 19.57-.182 22.068.106 4.03.188 7.966.188 7.966s7.885-1.603 9.413-1.482c0 0-.186-9.238-.058-16.982 0 0 .088-6.244.259-12.593 4.611-.457 8.513-.776 9.497-.662.318-4.56.742-10.392.742-10.392l-29.373 2.015zM480.767 39.221s2.982-9.306 2.626-12.025c-8.851 2.395-20.969 1.172-24.993 1.58.001.001-.013.351-.013.351s-1.871 31.037-2.033 34.068c-.162 3.031-.038 4.521-.038 4.521l.01-.001-.001.002s21.282-2.129 23.132-2.282c0 0 .808-8.801.52-10.412-3.295.57-9.688 1.203-13.602 1.563.107-1.698.226-3.516.356-5.379 1.895-.174 4.751-.279 6.492.403 1.151-3.37.553-7.648.553-7.648s-3.155-.21-6.502.115c.138-1.662.284-3.281.434-4.804 3.306-.129 10.548-.364 13.059-.052zM442.574 56.89c.225-9.743.737-24.394 1.83-29.04-5.805.235-11.394 1.89-11.394 1.89s-.304 30.419-.315 33.355c-.011 2.936.19 4.37.19 4.37s18.443-2.254 20.223-2.492c0 0 1.143-9.639.787-11.181-2.696 1.413-7.767 2.48-11.321 3.098zM213.645 56.995c.244-10.57.8-26.464 1.986-31.504-6.298.255-12.361 2.05-12.361 2.05s-.33 33-.341 36.186c-.011 3.185.206 4.741.206 4.741s20.008-2.446 21.939-2.703c0 0 1.24-10.456.854-12.13-2.926 1.533-8.427 2.689-12.283 3.36zM358.907 30.764c-1.439 7.052-10.65 34.541-10.65 34.541s5.901 2.447 10.506 2.303c.357-.969.968-3.195 1.858-6.284l7.059.013c.619 3.987.563 5.444.87 6.416 2.303.288 10.074-1.727 10.074-1.727s-6.908-33.677-7.916-37.851c-7.339-.433-11.801 2.589-11.801 2.589zm3.391 23.39c1.14-4.946 2.366-11.157 2.366-11.157s1.177 5.893 1.867 10.65l-4.233.507zM89.473 29.511s.247 1.609.371 6.31c.04 1.509-.112 5.39-.336 9.964l-5.706 1.654c.522-8.983 1.244-18.392 2.082-21.145-6.063.247-11.384 1.609-11.384 1.609s-1.485 32.047-1.609 35.14c-.124 3.093 0 5.444 0 5.444s8.414-2.475 10.023-2.351c0 0 .169-4.655.469-10.814l5.719-1.823c-.423 7.629-.867 14.741-.867 14.741l9.28-2.97s.124-4.331.619-10.022c.495-5.692 1.856-23.757 3.093-28.088-3.588-.247-11.754 2.351-11.754 2.351zM274.218 29.301l.202 10.581s3.949-.473 8.839-1.019c-.107 7.834-.236 18.596-.173 20.971.101 3.83.179 7.57.179 7.57s7.493-1.523 8.945-1.408c0 0-.176-8.779-.055-16.137 0 0 .084-5.933.246-11.967 4.382-.434 8.089-.737 9.025-.629.302-4.333.705-9.875.705-9.875l-27.913 1.913zM61.964 26.33s-6.507 20.455-7.039 22.902c-1.503-4.719-2.017-11.777-2.184-16.72a125.34 125.34 0 0 1-.06-2.24h-9.396l-.746 2.363c-1.958 6.226-4.706 15.042-5.045 16.598-2.522-7.925-2.256-22.472-2.256-22.472s-7.174.142-10.757.72c0 0 3.452 30.538 7.039 39.182 4.909 1.008 9.823.142 9.823.142l4.368-13.147c.997 5.414 2.112 10.289 3.24 13.005 4.914 1.008 9.828.142 9.828.142l12.35-37.161-9.165-3.314zM382.569 30.205c-.123 2.873-.259 7.078-.127 9.802l-.014 1.132v.005c-.1 7.406-.209 16.871-.15 19.039.095 3.687.173 7.283.173 7.283s7.206-1.464 8.606-1.355c0 0-.155-7.195-.071-14.011 0 0 6.305-.574 6.995-.494.223-3.199.52-7.29.52-7.29l-7.396.507c.036-1.75.08-3.743.134-5.748 4.214-.418 12.166-1.529 13.066-1.424.291-4.169.677-9.501.677-9.501l-22.413 2.055zM407.846 30.205c-.123 2.873-.259 7.078-.127 9.802l-.014 1.132v.005c-.1 7.406-.209 16.871-.15 19.039.095 3.687.173 7.283.173 7.283s7.206-1.464 8.606-1.355c0 0-.155-7.195-.071-14.011 0 0 6.305-.574 6.995-.494.223-3.199.52-7.29.52-7.29l-7.396.507c.036-1.75.08-3.743.134-5.748 4.214-.418 12.166-1.529 13.066-1.424.291-4.169.677-9.501.677-9.501l-22.413 2.055zM104.546 42.729s1.329 11.519.974 24.717c1.994.125 9.346-.374 9.346-.374s2.243-18.817 2.617-25.173c-5.484-.374-12.937.83-12.937.83zM110.504 27.568c-6.768.666-7.726 5.608-6.106 8.474 1.62 2.866 6.979 3.24 11.465 1.122 4.486-2.119 2.243-10.344-5.359-9.596zM228.61 41.758s1.299 11.261.952 24.162c1.949.122 9.137-.365 9.137-.365s2.193-18.395 2.558-24.608c-5.36-.366-12.647.811-12.647.811zM234.435 26.937c-6.616.651-7.553 5.482-5.969 8.284 1.584 2.802 6.822 3.167 11.207 1.096s2.193-10.111-5.238-9.38z"/><path d="M344.751 38.043c2.323-6.053-.581-11.479-7.936-12.522-7.356-1.044-15.679 3.965-15.679 3.965s.194 17.531.194 23.375c0 5.844-.387 10.644-.387 10.644l9.098 2.087s.248-5.947.443-12.493l8.655 12.076c1.742-1.252 6.388-7.722 6.388-7.722l-8.886-9.762c3.546-2.659 6.841-6.34 8.11-9.648zm-10.065 1.878c-1.139 1.638-2.697 2.822-3.989 3.606.028-2.49.019-4.599-.051-5.912 3.64-2.432 6.08-.626 4.04 2.306zM253.375 41.427c-3.457.481-3.554-3.179-.103-5.175 3.744-2.166 9.157-1.805 14.011-.481 2.034-2.889 1.379-9.749 1.379-9.749s-7.669-2.648-17.254.361c-7.653 2.402-10.406 11.795-8.864 16.97 1.542 5.175 5.462 7.101 10.333 6.018s7.19-.12 6.001 2.888c-1.19 3.009-9.824 3.009-13.114 1.805l-1.734 9.869s8.832 1.805 16.769-.481c7.937-2.287 11.757-13.841 7.05-20.099-4.706-6.258-11.017-2.407-14.474-1.926zM175.345 36.184s3.034-9.471 2.673-12.238c-9.008 2.438-21.34 1.193-25.436 1.608.001.001-.013.357-.013.357s-1.904 31.587-2.069 34.671c-.165 3.084-.038 4.601-.038 4.601l.01-.002-.001.002s21.659-2.167 23.541-2.323c0 0 .823-8.957.53-10.596-3.353.58-9.86 1.224-13.843 1.59.109-1.728.23-3.578.363-5.474 1.929-.177 4.835-.284 6.606.41 1.171-3.43.563-7.783.563-7.783s-3.211-.214-6.618.117c.141-1.691.289-3.339.442-4.889 3.364-.129 10.735-.369 13.29-.051zM119.62 25.355l.212 11.134s4.156-.498 9.302-1.072c-.113 8.244-.248 19.57-.182 22.068.106 4.03.188 7.966.188 7.966s7.885-1.603 9.413-1.482c0 0-.186-9.238-.058-16.982 0 0 .088-6.244.259-12.593 4.611-.457 8.513-.776 9.497-.662.318-4.56.742-10.392.742-10.392l-29.373 2.015zM478.65 36.893s2.982-9.306 2.626-12.025c-8.851 2.395-20.969 1.172-24.993 1.58.001.001-.013.351-.013.351s-1.871 31.037-2.033 34.068c-.162 3.031-.038 4.521-.038 4.521l.01-.001-.001.002s21.282-2.129 23.132-2.282c0 0 .808-8.801.52-10.412-3.295.57-9.688 1.203-13.602 1.563.107-1.698.226-3.516.356-5.379 1.895-.174 4.751-.279 6.492.403 1.151-3.37.553-7.648.553-7.648s-3.155-.21-6.502.115c.138-1.662.284-3.281.434-4.804 3.306-.13 10.548-.365 13.059-.052zM440.457 54.561c.225-9.743.737-24.394 1.83-29.04-5.805.235-11.394 1.89-11.394 1.89s-.304 30.419-.315 33.355c-.011 2.936.19 4.37.19 4.37s18.443-2.254 20.223-2.492c0 0 1.143-9.639.787-11.181-2.697 1.414-7.767 2.48-11.321 3.098zM211.528 54.666c.244-10.57.8-26.464 1.986-31.504-6.298.255-12.361 2.05-12.361 2.05s-.33 33-.341 36.186c-.011 3.185.206 4.741.206 4.741s20.008-2.446 21.939-2.703c0 0 1.24-10.456.854-12.13-2.926 1.533-8.427 2.69-12.283 3.36zM356.79 28.436c-1.439 7.052-10.65 34.541-10.65 34.541s5.901 2.447 10.506 2.303c.357-.969.968-3.195 1.858-6.284l7.059.013c.619 3.987.563 5.444.87 6.416 2.303.288 10.074-1.727 10.074-1.727s-6.908-33.677-7.916-37.851c-7.339-.433-11.801 2.589-11.801 2.589zm3.391 23.39c1.14-4.946 2.366-11.157 2.366-11.157s1.177 5.893 1.867 10.65l-4.233.507zM87.355 27.183s.247 1.609.371 6.31c.04 1.509-.112 5.39-.336 9.964l-5.706 1.654c.522-8.983 1.244-18.392 2.082-21.145-6.063.247-11.384 1.609-11.384 1.609s-1.485 32.047-1.609 35.14c-.124 3.093 0 5.444 0 5.444s8.414-2.475 10.023-2.351c0 0 .169-4.655.469-10.814l5.719-1.823c-.423 7.629-.867 14.741-.867 14.741l9.28-2.97s.124-4.331.619-10.022c.495-5.692 1.856-23.757 3.093-28.088-3.587-.247-11.754 2.351-11.754 2.351zM272.101 26.972l.202 10.581s3.949-.473 8.839-1.019c-.107 7.834-.236 18.596-.173 20.971.101 3.83.179 7.57.179 7.57s7.493-1.523 8.945-1.408c0 0-.176-8.779-.055-16.137 0 0 .084-5.933.246-11.967 4.382-.434 8.089-.737 9.025-.629.302-4.333.705-9.875.705-9.875l-27.913 1.913zM59.847 24.002s-6.507 20.455-7.039 22.902c-1.503-4.719-2.017-11.777-2.184-16.72a125.34 125.34 0 0 1-.06-2.24h-9.396l-.746 2.363c-1.958 6.226-4.706 15.042-5.045 16.598-2.522-7.925-2.256-22.472-2.256-22.472s-7.174.142-10.757.72c0 0 3.452 30.538 7.039 39.182 4.909 1.008 9.823.142 9.823.142l4.368-13.147c.997 5.414 2.112 10.289 3.24 13.005 4.914 1.008 9.828.142 9.828.142l12.35-37.161-9.165-3.314zM380.452 27.877c-.123 2.873-.259 7.078-.127 9.802l-.014 1.132v.005c-.1 7.406-.209 16.871-.15 19.039.095 3.687.173 7.283.173 7.283s7.206-1.464 8.606-1.355c0 0-.155-7.195-.071-14.011 0 0 6.305-.574 6.995-.494.223-3.199.52-7.29.52-7.29l-7.396.507c.036-1.75.08-3.743.134-5.748 4.214-.418 12.166-1.529 13.066-1.424.291-4.169.677-9.501.677-9.501l-22.413 2.055zM405.729 27.877c-.123 2.873-.259 7.078-.127 9.802l-.014 1.132v.005c-.1 7.406-.209 16.871-.15 19.039.095 3.687.173 7.283.173 7.283s7.206-1.464 8.606-1.355c0 0-.155-7.195-.071-14.011 0 0 6.305-.574 6.995-.494.223-3.199.52-7.29.52-7.29l-7.396.507c.036-1.75.08-3.743.134-5.748 4.214-.418 12.166-1.529 13.066-1.424.291-4.169.677-9.501.677-9.501l-22.413 2.055zM102.428 40.4s1.329 11.519.974 24.717c1.994.125 9.346-.374 9.346-.374s2.243-18.817 2.617-25.173c-5.483-.374-12.937.83-12.937.83zM108.387 25.239c-6.768.666-7.726 5.608-6.106 8.474 1.62 2.866 6.979 3.24 11.465 1.122 4.486-2.119 2.242-10.344-5.359-9.596zM226.493 39.43s1.299 11.261.952 24.162c1.949.122 9.137-.365 9.137-.365s2.193-18.395 2.558-24.608c-5.36-.366-12.647.811-12.647.811zM232.318 24.609c-6.616.651-7.553 5.482-5.969 8.284 1.584 2.802 6.822 3.167 11.207 1.096s2.193-10.111-5.238-9.38z" style="fill:snow"/></svg>